  0
SECTION
  2
BLOCKS
  0
ENDSEC
  0
SECTION
  2
ENTITIES
  0
LINE
  8
0
 10
21
 20
-59.2
 11
21
 21
-24.8
  0
LINE
  8
0
 10
21
 20
-24.8
 11
18
 21
-21.75
  0
LINE
  8
0
 10
18
 20
-21.75
 11
18
 21
-14
  0
LINE
  8
0
 10
18
 20
-14
 11
11
 21
-10
  0
LINE
  8
0
 10
11
 20
-10
 11
11
 21
10
  0
LINE
  8
0
 10
11
 20
10
 11
10
 21
11
  0
LINE
  8
0
 10
10
 20
11
 11
10
 21
50
  0
LINE
  8
0
 10
10
 20
50
 11
-189
 21
50
  0
LINE
  8
0
 10
-189
 20
50
 11
-189
 21
-10.2911
  0
LINE
  8
0
 10
-189
 20
-10.2911
 11
-21
 21
-59.2
  0
LINE
  8
0
 10
-21
 20
-59.2
 11
-17.2
 21
-63
  0
LINE
  8
0
 10
-17.2
 20
-63
 11
17.2
 21
-63
  0
LINE
  8
0
 10
17.2
 20
-63
 11
21
 21
-59.2
  0
LINE
  8
0
 10
-0.0749512
 20
37.3761
 11
-0.174789
 21
37.3808
  0
LINE
  8
0
 10
-0.174789
 20
37.3808
 11
-0.274384
 21
37.3894
  0
LINE
  8
0
 10
-0.274384
 20
37.3894
 11
-0.373566
 21
37.4017
  0
LINE
  8
0
 10
-0.373566
 20
37.4017
 11
-0.472214
 21
37.4178
  0
LINE
  8
0
 10
-0.472214
 20
37.4178
 11
-0.570175
 21
37.4377
  0
LINE
  8
0
 10
-0.570175
 20
37.4377
 11
-0.667313
 21
37.4612
  0
LINE
  8
0
 10
-0.667313
 20
37.4612
 11
-0.763489
 21
37.4885
  0
LINE
  8
0
 10
-0.763489
 20
37.4885
 11
-0.858551
 21
37.5194
  0
LINE
  8
0
 10
-0.858551
 20
37.5194
 11
-0.952362
 21
37.5538
  0
LINE
  8
0
 10
-0.952362
 20
37.5538
 11
-1.0448
 21
37.5919
  0
LINE
  8
0
 10
-1.0448
 20
37.5919
 11
-1.13573
 21
37.6334
  0
LINE
  8
0
 10
-1.13573
 20
37.6334
 11
-1.22499
 21
37.6784
  0
LINE
  8
0
 10
-1.22499
 20
37.6784
 11
-1.3125
 21
37.7267
  0
LINE
  8
0
 10
-1.3125
 20
37.7267
 11
-1.39809
 21
37.7783
  0
LINE
  8
0
 10
-1.39809
 20
37.7783
 11
-1.48166
 21
37.8331
  0
LINE
  8
0
 10
-1.48166
 20
37.8331
 11
-1.56308
 21
37.8911
  0
LINE
  8
0
 10
-1.56308
 20
37.8911
 11
-1.64223
 21
37.9521
  0
LINE
  8
0
 10
-1.64223
 20
37.9521
 11
-1.71901
 21
38.0161
  0
LINE
  8
0
 10
-1.71901
 20
38.0161
 11
-1.79329
 21
38.083
  0
LINE
  8
0
 10
-1.79329
 20
38.083
 11
-1.86496
 21
38.1527
  0
LINE
  8
0
 10
-1.86496
 20
38.1527
 11
-1.93394
 21
38.225
  0
LINE
  8
0
 10
-1.93394
 20
38.225
 11
-2.00011
 21
38.2999
  0
LINE
  8
0
 10
-2.00011
 20
38.2999
 11
-2.06339
 21
38.3773
  0
LINE
  8
0
 10
-2.06339
 20
38.3773
 11
-2.12366
 21
38.4571
  0
LINE
  8
0
 10
-2.12366
 20
38.4571
 11
-2.18086
 21
38.539
  0
LINE
  8
0
 10
-2.18086
 20
38.539
 11
-2.23491
 21
38.6231
  0
LINE
  8
0
 10
-2.23491
 20
38.6231
 11
-2.28571
 21
38.7092
  0
LINE
  8
0
 10
-2.28571
 20
38.7092
 11
-2.33319
 21
38.7971
  0
LINE
  8
0
 10
-2.33319
 20
38.7971
 11
-2.37729
 21
38.8868
  0
LINE
  8
0
 10
-2.37729
 20
38.8868
 11
-2.41794
 21
38.9782
  0
LINE
  8
0
 10
-2.41794
 20
38.9782
 11
-2.45509
 21
39.071
  0
LINE
  8
0
 10
-2.45509
 20
39.071
 11
-2.48868
 21
39.1651
  0
LINE
  8
0
 10
-2.48868
 20
39.1651
 11
-2.51866
 21
39.2604
  0
LINE
  8
0
 10
-2.51866
 20
39.2604
 11
-2.545
 21
39.3569
  0
LINE
  8
0
 10
-2.545
 20
39.3569
 11
-2.56763
 21
39.4542
  0
LINE
  8
0
 10
-2.56763
 20
39.4542
 11
-2.58655
 21
39.5524
  0
LINE
  8
0
 10
-2.58655
 20
39.5524
 11
-2.60172
 21
39.6512
  0
LINE
  8
0
 10
-2.60172
 20
39.6512
 11
-2.61311
 21
39.7505
  0
LINE
  8
0
 10
-2.61311
 20
39.7505
 11
-2.62071
 21
39.8501
  0
LINE
  8
0
 10
-2.62071
 20
39.8501
 11
-2.62451
 21
39.95
  0
LINE
  8
0
 10
-2.62451
 20
39.95
 11
-2.62451
 21
40.05
  0
LINE
  8
0
 10
-2.62451
 20
40.05
 11
-2.62071
 21
40.1499
  0
LINE
  8
0
 10
-2.62071
 20
40.1499
 11
-2.61311
 21
40.2495
  0
LINE
  8
0
 10
-2.61311
 20
40.2495
 11
-2.60172
 21
40.3488
  0
LINE
  8
0
 10
-2.60172
 20
40.3488
 11
-2.58655
 21
40.4476
  0
LINE
  8
0
 10
-2.58655
 20
40.4476
 11
-2.56763
 21
40.5458
  0
LINE
  8
0
 10
-2.56763
 20
40.5458
 11
-2.545
 21
40.6431
  0
LINE
  8
0
 10
-2.545
 20
40.6431
 11
-2.51866
 21
40.7395
  0
LINE
  8
0
 10
-2.51866
 20
40.7395
 11
-2.48868
 21
40.8349
  0
LINE
  8
0
 10
-2.48868
 20
40.8349
 11
-2.45509
 21
40.929
  0
LINE
  8
0
 10
-2.45509
 20
40.929
 11
-2.41794
 21
41.0218
  0
LINE
  8
0
 10
-2.41794
 20
41.0218
 11
-2.37729
 21
41.1131
  0
LINE
  8
0
 10
-2.37729
 20
41.1131
 11
-2.33319
 21
41.2028
  0
LINE
  8
0
 10
-2.33319
 20
41.2028
 11
-2.28571
 21
41.2908
  0
LINE
  8
0
 10
-2.28571
 20
41.2908
 11
-2.23491
 21
41.3769
  0
LINE
  8
0
 10
-2.23491
 20
41.3769
 11
-2.18086
 21
41.461
  0
LINE
  8
0
 10
-2.18086
 20
41.461
 11
-2.12366
 21
41.5429
  0
LINE
  8
0
 10
-2.12366
 20
41.5429
 11
-2.06339
 21
41.6227
  0
LINE
  8
0
 10
-2.06339
 20
41.6227
 11
-2.00011
 21
41.7
  0
LINE
  8
0
 10
-2.00011
 20
41.7
 11
-1.93394
 21
41.7749
  0
LINE
  8
0
 10
-1.93394
 20
41.7749
 11
-1.86496
 21
41.8473
  0
LINE
  8
0
 10
-1.86496
 20
41.8473
 11
-1.79329
 21
41.9169
  0
LINE
  8
0
 10
-1.79329
 20
41.9169
 11
-1.71901
 21
41.9838
  0
LINE
  8
0
 10
-1.71901
 20
41.9838
 11
-1.64223
 21
42.0478
  0
LINE
  8
0
 10
-1.64223
 20
42.0478
 11
-1.56308
 21
42.1089
  0
LINE
  8
0
 10
-1.56308
 20
42.1089
 11
-1.48166
 21
42.1669
  0
LINE
  8
0
 10
-1.48166
 20
42.1669
 11
-1.39809
 21
42.2217
  0
LINE
  8
0
 10
-1.39809
 20
42.2217
 11
-1.3125
 21
42.2733
  0
LINE
  8
0
 10
-1.3125
 20
42.2733
 11
-1.22499
 21
42.3216
  0
LINE
  8
0
 10
-1.22499
 20
42.3216
 11
-1.13573
 21
42.3666
  0
LINE
  8
0
 10
-1.13573
 20
42.3666
 11
-1.0448
 21
42.4081
  0
LINE
  8
0
 10
-1.0448
 20
42.4081
 11
-0.952362
 21
42.4461
  0
LINE
  8
0
 10
-0.952362
 20
42.4461
 11
-0.858551
 21
42.4806
  0
LINE
  8
0
 10
-0.858551
 20
42.4806
 11
-0.763489
 21
42.5115
  0
LINE
  8
0
 10
-0.763489
 20
42.5115
 11
-0.667313
 21
42.5388
  0
LINE
  8
0
 10
-0.667313
 20
42.5388
 11
-0.570175
 21
42.5623
  0
LINE
  8
0
 10
-0.570175
 20
42.5623
 11
-0.472214
 21
42.5822
  0
LINE
  8
0
 10
-0.472214
 20
42.5822
 11
-0.373566
 21
42.5983
  0
LINE
  8
0
 10
-0.373566
 20
42.5983
 11
-0.274384
 21
42.6106
  0
LINE
  8
0
 10
-0.274384
 20
42.6106
 11
-0.174789
 21
42.6192
  0
LINE
  8
0
 10
-0.174789
 20
42.6192
 11
-0.0749512
 21
42.6239
  0
LINE
  8
0
 10
-0.0749512
 20
42.6239
 11
0.0249786
 21
42.6249
  0
LINE
  8
0
 10
0.0249786
 20
42.6249
 11
0.124893
 21
42.622
  0
LINE
  8
0
 10
0.124893
 20
42.622
 11
0.224625
 21
42.6154
  0
LINE
  8
0
 10
0.224625
 20
42.6154
 11
0.324036
 21
42.6049
  0
LINE
  8
0
 10
0.324036
 20
42.6049
 11
0.422974
 21
42.5907
  0
LINE
  8
0
 10
0.422974
 20
42.5907
 11
0.521286
 21
42.5727
  0
LINE
  8
0
 10
0.521286
 20
42.5727
 11
0.618866
 21
42.551
  0
LINE
  8
0
 10
0.618866
 20
42.551
 11
0.71553
 21
42.5256
  0
LINE
  8
0
 10
0.71553
 20
42.5256
 11
0.811157
 21
42.4965
  0
LINE
  8
0
 10
0.811157
 20
42.4965
 11
0.905624
 21
42.4638
  0
LINE
  8
0
 10
0.905624
 20
42.4638
 11
0.998764
 21
42.4276
  0
LINE
  8
0
 10
0.998764
 20
42.4276
 11
1.09045
 21
42.3878
  0
LINE
  8
0
 10
1.09045
 20
42.3878
 11
1.18057
 21
42.3445
  0
LINE
  8
0
 10
1.18057
 20
42.3445
 11
1.26897
 21
42.2979
  0
LINE
  8
0
 10
1.26897
 20
42.2979
 11
1.35553
 21
42.2479
  0
LINE
  8
0
 10
1.35553
 20
42.2479
 11
1.44014
 21
42.1947
  0
LINE
  8
0
 10
1.44014
 20
42.1947
 11
1.52264
 21
42.1383
  0
LINE
  8
0
 10
1.52264
 20
42.1383
 11
1.60294
 21
42.0787
  0
LINE
  8
0
 10
1.60294
 20
42.0787
 11
1.68092
 21
42.0162
  0
LINE
  8
0
 10
1.68092
 20
42.0162
 11
1.75645
 21
41.9507
  0
LINE
  8
0
 10
1.75645
 20
41.9507
 11
1.82945
 21
41.8825
  0
LINE
  8
0
 10
1.82945
 20
41.8825
 11
1.8998
 21
41.8114
  0
LINE
  8
0
 10
1.8998
 20
41.8114
 11
1.96738
 21
41.7378
  0
LINE
  8
0
 10
1.96738
 20
41.7378
 11
2.03212
 21
41.6617
  0
LINE
  8
0
 10
2.03212
 20
41.6617
 11
2.0939
 21
41.5831
  0
LINE
  8
0
 10
2.0939
 20
41.5831
 11
2.15265
 21
41.5022
  0
LINE
  8
0
 10
2.15265
 20
41.5022
 11
2.20828
 21
41.4192
  0
LINE
  8
0
 10
2.20828
 20
41.4192
 11
2.26071
 21
41.3341
  0
LINE
  8
0
 10
2.26071
 20
41.3341
 11
2.30986
 21
41.247
  0
LINE
  8
0
 10
2.30986
 20
41.247
 11
2.35567
 21
41.1582
  0
LINE
  8
0
 10
2.35567
 20
41.1582
 11
2.39806
 21
41.0677
  0
LINE
  8
0
 10
2.39806
 20
41.0677
 11
2.43695
 21
40.9756
  0
LINE
  8
0
 10
2.43695
 20
40.9756
 11
2.47234
 21
40.8821
  0
LINE
  8
0
 10
2.47234
 20
40.8821
 11
2.50412
 21
40.7874
  0
LINE
  8
0
 10
2.50412
 20
40.7874
 11
2.53229
 21
40.6915
  0
LINE
  8
0
 10
2.53229
 20
40.6915
 11
2.55678
 21
40.5945
  0
LINE
  8
0
 10
2.55678
 20
40.5945
 11
2.57756
 21
40.4968
  0
LINE
  8
0
 10
2.57756
 20
40.4968
 11
2.5946
 21
40.3983
  0
LINE
  8
0
 10
2.5946
 20
40.3983
 11
2.60788
 21
40.2992
  0
LINE
  8
0
 10
2.60788
 20
40.2992
 11
2.61739
 21
40.1997
  0
LINE
  8
0
 10
2.61739
 20
40.1997
 11
2.62309
 21
40.0999
  0
LINE
  8
0
 10
2.62309
 20
40.0999
 11
2.625
 21
40
  0
LINE
  8
0
 10
2.625
 20
40
 11
2.62309
 21
39.9001
  0
LINE
  8
0
 10
2.62309
 20
39.9001
 11
2.61739
 21
39.8003
  0
LINE
  8
0
 10
2.61739
 20
39.8003
 11
2.60788
 21
39.7008
  0
LINE
  8
0
 10
2.60788
 20
39.7008
 11
2.5946
 21
39.6017
  0
LINE
  8
0
 10
2.5946
 20
39.6017
 11
2.57756
 21
39.5032
  0
LINE
  8
0
 10
2.57756
 20
39.5032
 11
2.55678
 21
39.4054
  0
LINE
  8
0
 10
2.55678
 20
39.4054
 11
2.53229
 21
39.3085
  0
LINE
  8
0
 10
2.53229
 20
39.3085
 11
2.50412
 21
39.2126
  0
LINE
  8
0
 10
2.50412
 20
39.2126
 11
2.47234
 21
39.1179
  0
LINE
  8
0
 10
2.47234
 20
39.1179
 11
2.43695
 21
39.0244
  0
LINE
  8
0
 10
2.43695
 20
39.0244
 11
2.39806
 21
38.9323
  0
LINE
  8
0
 10
2.39806
 20
38.9323
 11
2.35567
 21
38.8418
  0
LINE
  8
0
 10
2.35567
 20
38.8418
 11
2.30986
 21
38.7529
  0
LINE
  8
0
 10
2.30986
 20
38.7529
 11
2.26071
 21
38.6659
  0
LINE
  8
0
 10
2.26071
 20
38.6659
 11
2.20828
 21
38.5808
  0
LINE
  8
0
 10
2.20828
 20
38.5808
 11
2.15265
 21
38.4978
  0
LINE
  8
0
 10
2.15265
 20
38.4978
 11
2.0939
 21
38.4169
  0
LINE
  8
0
 10
2.0939
 20
38.4169
 11
2.03212
 21
38.3383
  0
LINE
  8
0
 10
2.03212
 20
38.3383
 11
1.96738
 21
38.2622
  0
LINE
  8
0
 10
1.96738
 20
38.2622
 11
1.8998
 21
38.1885
  0
LINE
  8
0
 10
1.8998
 20
38.1885
 11
1.82945
 21
38.1175
  0
LINE
  8
0
 10
1.82945
 20
38.1175
 11
1.75645
 21
38.0492
  0
LINE
  8
0
 10
1.75645
 20
38.0492
 11
1.68092
 21
37.9838
  0
LINE
  8
0
 10
1.68092
 20
37.9838
 11
1.60294
 21
37.9212
  0
LINE
  8
0
 10
1.60294
 20
37.9212
 11
1.52264
 21
37.8617
  0
LINE
  8
0
 10
1.52264
 20
37.8617
 11
1.44014
 21
37.8053
  0
LINE
  8
0
 10
1.44014
 20
37.8053
 11
1.35553
 21
37.7521
  0
LINE
  8
0
 10
1.35553
 20
37.7521
 11
1.26897
 21
37.7021
  0
LINE
  8
0
 10
1.26897
 20
37.7021
 11
1.18057
 21
37.6555
  0
LINE
  8
0
 10
1.18057
 20
37.6555
 11
1.09045
 21
37.6122
  0
LINE
  8
0
 10
1.09045
 20
37.6122
 11
0.998764
 21
37.5724
  0
LINE
  8
0
 10
0.998764
 20
37.5724
 11
0.905624
 21
37.5362
  0
LINE
  8
0
 10
0.905624
 20
37.5362
 11
0.811157
 21
37.5035
  0
LINE
  8
0
 10
0.811157
 20
37.5035
 11
0.71553
 21
37.4744
  0
LINE
  8
0
 10
0.71553
 20
37.4744
 11
0.618866
 21
37.449
  0
LINE
  8
0
 10
0.618866
 20
37.449
 11
0.521286
 21
37.4273
  0
LINE
  8
0
 10
0.521286
 20
37.4273
 11
0.422974
 21
37.4093
  0
LINE
  8
0
 10
0.422974
 20
37.4093
 11
0.324036
 21
37.3951
  0
LINE
  8
0
 10
0.324036
 20
37.3951
 11
0.224625
 21
37.3846
  0
LINE
  8
0
 10
0.224625
 20
37.3846
 11
0.124893
 21
37.378
  0
LINE
  8
0
 10
0.124893
 20
37.378
 11
0.0249786
 21
37.3751
  0
LINE
  8
0
 10
0.0249786
 20
37.3751
 11
-0.0749512
 21
37.3761
  0
LINE
  8
0
 10
-180.125
 20
-1.57004
 11
-180.224
 21
-1.55896
  0
LINE
  8
0
 10
-180.224
 20
-1.55896
 11
-180.323
 21
-1.54161
  0
LINE
  8
0
 10
-180.323
 20
-1.54161
 11
-180.42
 21
-1.51805
  0
LINE
  8
0
 10
-180.42
 20
-1.51805
 11
-180.515
 21
-1.48837
  0
LINE
  8
0
 10
-180.515
 20
-1.48837
 11
-180.608
 21
-1.4527
  0
LINE
  8
0
 10
-180.608
 20
-1.4527
 11
-180.699
 21
-1.41118
  0
LINE
  8
0
 10
-180.699
 20
-1.41118
 11
-180.787
 21
-1.36398
  0
LINE
  8
0
 10
-180.787
 20
-1.36398
 11
-180.872
 21
-1.31129
  0
LINE
  8
0
 10
-180.872
 20
-1.31129
 11
-180.954
 21
-1.25331
  0
LINE
  8
0
 10
-180.954
 20
-1.25331
 11
-181.031
 21
-1.19029
  0
LINE
  8
0
 10
-181.031
 20
-1.19029
 11
-181.105
 21
-1.12248
  0
LINE
  8
0
 10
-181.105
 20
-1.12248
 11
-181.174
 21
-1.05016
  0
LINE
  8
0
 10
-181.174
 20
-1.05016
 11
-181.238
 21
-0.973587
  0
LINE
  8
0
 10
-181.238
 20
-0.973587
 11
-181.297
 21
-0.893112
  0
LINE
  8
0
 10
-181.297
 20
-0.893112
 11
-181.351
 21
-0.809036
  0
LINE
  8
0
 10
-181.351
 20
-0.809036
 11
-181.4
 21
-0.721695
  0
LINE
  8
0
 10
-181.4
 20
-0.721695
 11
-181.443
 21
-0.631454
  0
LINE
  8
0
 10
-181.443
 20
-0.631454
 11
-181.48
 21
-0.538681
  0
LINE
  8
0
 10
-181.48
 20
-0.538681
 11
-181.511
 21
-0.443726
  0
LINE
  8
0
 10
-181.511
 20
-0.443726
 11
-181.536
 21
-0.346985
  0
LINE
  8
0
 10
-181.536
 20
-0.346985
 11
-181.555
 21
-0.24884
  0
LINE
  8
0
 10
-181.555
 20
-0.24884
 11
-181.568
 21
-0.149704
  0
LINE
  8
0
 10
-181.568
 20
-0.149704
 11
-181.574
 21
-0.0499573
  0
LINE
  8
0
 10
-181.574
 20
-0.0499573
 11
-181.574
 21
0.0499573
  0
LINE
  8
0
 10
-181.574
 20
0.0499573
 11
-181.568
 21
0.149704
  0
LINE
  8
0
 10
-181.568
 20
0.149704
 11
-181.555
 21
0.24884
  0
LINE
  8
0
 10
-181.555
 20
0.24884
 11
-181.536
 21
0.346985
  0
LINE
  8
0
 10
-181.536
 20
0.346985
 11
-181.511
 21
0.443726
  0
LINE
  8
0
 10
-181.511
 20
0.443726
 11
-181.48
 21
0.538681
  0
LINE
  8
0
 10
-181.48
 20
0.538681
 11
-181.443
 21
0.631454
  0
LINE
  8
0
 10
-181.443
 20
0.631454
 11
-181.4
 21
0.721695
  0
LINE
  8
0
 10
-181.4
 20
0.721695
 11
-181.351
 21
0.809036
  0
LINE
  8
0
 10
-181.351
 20
0.809036
 11
-181.297
 21
0.893112
  0
LINE
  8
0
 10
-181.297
 20
0.893112
 11
-181.238
 21
0.973587
  0
LINE
  8
0
 10
-181.238
 20
0.973587
 11
-181.174
 21
1.05016
  0
LINE
  8
0
 10
-181.174
 20
1.05016
 11
-181.105
 21
1.12248
  0
LINE
  8
0
 10
-181.105
 20
1.12248
 11
-181.031
 21
1.19029
  0
LINE
  8
0
 10
-181.031
 20
1.19029
 11
-180.954
 21
1.25331
  0
LINE
  8
0
 10
-180.954
 20
1.25331
 11
-180.872
 21
1.31129
  0
LINE
  8
0
 10
-180.872
 20
1.31129
 11
-180.787
 21
1.36398
  0
LINE
  8
0
 10
-180.787
 20
1.36398
 11
-180.699
 21
1.41118
  0
LINE
  8
0
 10
-180.699
 20
1.41118
 11
-180.608
 21
1.4527
  0
LINE
  8
0
 10
-180.608
 20
1.4527
 11
-180.515
 21
1.48837
  0
LINE
  8
0
 10
-180.515
 20
1.48837
 11
-180.42
 21
1.51805
  0
LINE
  8
0
 10
-180.42
 20
1.51805
 11
-180.323
 21
1.54161
  0
LINE
  8
0
 10
-180.323
 20
1.54161
 11
-180.224
 21
1.55896
  0
LINE
  8
0
 10
-180.224
 20
1.55896
 11
-180.125
 21
1.57004
  0
LINE
  8
0
 10
-180.125
 20
1.57004
 11
-180.025
 21
1.5748
  0
LINE
  8
0
 10
-180.025
 20
1.5748
 11
-179.925
 21
1.57321
  0
LINE
  8
0
 10
-179.925
 20
1.57321
 11
-179.825
 21
1.56529
  0
LINE
  8
0
 10
-179.825
 20
1.56529
 11
-179.727
 21
1.55107
  0
LINE
  8
0
 10
-179.727
 20
1.55107
 11
-179.629
 21
1.53059
  0
LINE
  8
0
 10
-179.629
 20
1.53059
 11
-179.532
 21
1.50397
  0
LINE
  8
0
 10
-179.532
 20
1.50397
 11
-179.438
 21
1.47127
  0
LINE
  8
0
 10
-179.438
 20
1.47127
 11
-179.346
 21
1.43266
  0
LINE
  8
0
 10
-179.346
 20
1.43266
 11
-179.256
 21
1.38828
  0
LINE
  8
0
 10
-179.256
 20
1.38828
 11
-179.17
 21
1.3383
  0
LINE
  8
0
 10
-179.17
 20
1.3383
 11
-179.086
 21
1.28294
  0
LINE
  8
0
 10
-179.086
 20
1.28294
 11
-179.007
 21
1.22243
  0
LINE
  8
0
 10
-179.007
 20
1.22243
 11
-178.931
 21
1.15697
  0
LINE
  8
0
 10
-178.931
 20
1.15697
 11
-178.86
 21
1.08687
  0
LINE
  8
0
 10
-178.86
 20
1.08687
 11
-178.793
 21
1.01239
  0
LINE
  8
0
 10
-178.793
 20
1.01239
 11
-178.732
 21
0.933823
  0
LINE
  8
0
 10
-178.732
 20
0.933823
 11
-178.675
 21
0.851501
  0
LINE
  8
0
 10
-178.675
 20
0.851501
 11
-178.624
 21
0.765747
  0
LINE
  8
0
 10
-178.624
 20
0.765747
 11
-178.578
 21
0.676926
  0
LINE
  8
0
 10
-178.578
 20
0.676926
 11
-178.538
 21
0.585358
  0
LINE
  8
0
 10
-178.538
 20
0.585358
 11
-178.504
 21
0.49144
  0
LINE
  8
0
 10
-178.504
 20
0.49144
 11
-178.475
 21
0.395554
  0
LINE
  8
0
 10
-178.475
 20
0.395554
 11
-178.453
 21
0.298065
  0
LINE
  8
0
 10
-178.453
 20
0.298065
 11
-178.438
 21
0.199371
  0
LINE
  8
0
 10
-178.438
 20
0.199371
 11
-178.428
 21
0.099884
  0
LINE
  8
0
 10
-178.428
 20
0.099884
 11
-178.425
 21
0
  0
LINE
  8
0
 10
-178.425
 20
0
 11
-178.428
 21
-0.099884
  0
LINE
  8
0
 10
-178.428
 20
-0.099884
 11
-178.438
 21
-0.199371
  0
LINE
  8
0
 10
-178.438
 20
-0.199371
 11
-178.453
 21
-0.298065
  0
LINE
  8
0
 10
-178.453
 20
-0.298065
 11
-178.475
 21
-0.395554
  0
LINE
  8
0
 10
-178.475
 20
-0.395554
 11
-178.504
 21
-0.49144
  0
LINE
  8
0
 10
-178.504
 20
-0.49144
 11
-178.538
 21
-0.585358
  0
LINE
  8
0
 10
-178.538
 20
-0.585358
 11
-178.578
 21
-0.676926
  0
LINE
  8
0
 10
-178.578
 20
-0.676926
 11
-178.624
 21
-0.765747
  0
LINE
  8
0
 10
-178.624
 20
-0.765747
 11
-178.675
 21
-0.851501
  0
LINE
  8
0
 10
-178.675
 20
-0.851501
 11
-178.732
 21
-0.933823
  0
LINE
  8
0
 10
-178.732
 20
-0.933823
 11
-178.793
 21
-1.01239
  0
LINE
  8
0
 10
-178.793
 20
-1.01239
 11
-178.86
 21
-1.08687
  0
LINE
  8
0
 10
-178.86
 20
-1.08687
 11
-178.931
 21
-1.15697
  0
LINE
  8
0
 10
-178.931
 20
-1.15697
 11
-179.007
 21
-1.22243
  0
LINE
  8
0
 10
-179.007
 20
-1.22243
 11
-179.086
 21
-1.28294
  0
LINE
  8
0
 10
-179.086
 20
-1.28294
 11
-179.17
 21
-1.3383
  0
LINE
  8
0
 10
-179.17
 20
-1.3383
 11
-179.256
 21
-1.38828
  0
LINE
  8
0
 10
-179.256
 20
-1.38828
 11
-179.346
 21
-1.43266
  0
LINE
  8
0
 10
-179.346
 20
-1.43266
 11
-179.438
 21
-1.47127
  0
LINE
  8
0
 10
-179.438
 20
-1.47127
 11
-179.532
 21
-1.50397
  0
LINE
  8
0
 10
-179.532
 20
-1.50397
 11
-179.629
 21
-1.53059
  0
LINE
  8
0
 10
-179.629
 20
-1.53059
 11
-179.727
 21
-1.55107
  0
LINE
  8
0
 10
-179.727
 20
-1.55107
 11
-179.825
 21
-1.56529
  0
LINE
  8
0
 10
-179.825
 20
-1.56529
 11
-179.925
 21
-1.57321
  0
LINE
  8
0
 10
-179.925
 20
-1.57321
 11
-180.025
 21
-1.5748
  0
LINE
  8
0
 10
-180.025
 20
-1.5748
 11
-180.125
 21
-1.57004
  0
LINE
  8
0
 10
-90.1248
 20
-1.57004
 11
-90.2241
 21
-1.55896
  0
LINE
  8
0
 10
-90.2241
 20
-1.55896
 11
-90.3226
 21
-1.54161
  0
LINE
  8
0
 10
-90.3226
 20
-1.54161
 11
-90.4197
 21
-1.51805
  0
LINE
  8
0
 10
-90.4197
 20
-1.51805
 11
-90.5151
 21
-1.48837
  0
LINE
  8
0
 10
-90.5151
 20
-1.48837
 11
-90.6085
 21
-1.4527
  0
LINE
  8
0
 10
-90.6085
 20
-1.4527
 11
-90.6994
 21
-1.41118
  0
LINE
  8
0
 10
-90.6994
 20
-1.41118
 11
-90.7875
 21
-1.36398
  0
LINE
  8
0
 10
-90.7875
 20
-1.36398
 11
-90.8724
 21
-1.31129
  0
LINE
  8
0
 10
-90.8724
 20
-1.31129
 11
-90.9538
 21
-1.25331
  0
LINE
  8
0
 10
-90.9538
 20
-1.25331
 11
-91.0314
 21
-1.19029
  0
LINE
  8
0
 10
-91.0314
 20
-1.19029
 11
-91.1048
 21
-1.12248
  0
LINE
  8
0
 10
-91.1048
 20
-1.12248
 11
-91.1738
 21
-1.05016
  0
LINE
  8
0
 10
-91.1738
 20
-1.05016
 11
-91.238
 21
-0.973587
  0
LINE
  8
0
 10
-91.238
 20
-0.973587
 11
-91.2973
 21
-0.893112
  0
LINE
  8
0
 10
-91.2973
 20
-0.893112
 11
-91.3513
 21
-0.809036
  0
LINE
  8
0
 10
-91.3513
 20
-0.809036
 11
-91.3999
 21
-0.721695
  0
LINE
  8
0
 10
-91.3999
 20
-0.721695
 11
-91.4429
 21
-0.631454
  0
LINE
  8
0
 10
-91.4429
 20
-0.631454
 11
-91.48
 21
-0.538681
  0
LINE
  8
0
 10
-91.48
 20
-0.538681
 11
-91.5112
 21
-0.443726
  0
LINE
  8
0
 10
-91.5112
 20
-0.443726
 11
-91.5363
 21
-0.346985
  0
LINE
  8
0
 10
-91.5363
 20
-0.346985
 11
-91.5552
 21
-0.24884
  0
LINE
  8
0
 10
-91.5552
 20
-0.24884
 11
-91.5679
 21
-0.149704
  0
LINE
  8
0
 10
-91.5679
 20
-0.149704
 11
-91.5742
 21
-0.0499573
  0
LINE
  8
0
 10
-91.5742
 20
-0.0499573
 11
-91.5742
 21
0.0499573
  0
LINE
  8
0
 10
-91.5742
 20
0.0499573
 11
-91.5679
 21
0.149704
  0
LINE
  8
0
 10
-91.5679
 20
0.149704
 11
-91.5552
 21
0.24884
  0
LINE
  8
0
 10
-91.5552
 20
0.24884
 11
-91.5363
 21
0.346985
  0
LINE
  8
0
 10
-91.5363
 20
0.346985
 11
-91.5112
 21
0.443726
  0
LINE
  8
0
 10
-91.5112
 20
0.443726
 11
-91.48
 21
0.538681
  0
LINE
  8
0
 10
-91.48
 20
0.538681
 11
-91.4429
 21
0.631454
  0
LINE
  8
0
 10
-91.4429
 20
0.631454
 11
-91.3999
 21
0.721695
  0
LINE
  8
0
 10
-91.3999
 20
0.721695
 11
-91.3513
 21
0.809036
  0
LINE
  8
0
 10
-91.3513
 20
0.809036
 11
-91.2973
 21
0.893112
  0
LINE
  8
0
 10
-91.2973
 20
0.893112
 11
-91.238
 21
0.973587
  0
LINE
  8
0
 10
-91.238
 20
0.973587
 11
-91.1738
 21
1.05016
  0
LINE
  8
0
 10
-91.1738
 20
1.05016
 11
-91.1048
 21
1.12248
  0
LINE
  8
0
 10
-91.1048
 20
1.12248
 11
-91.0314
 21
1.19029
  0
LINE
  8
0
 10
-91.0314
 20
1.19029
 11
-90.9538
 21
1.25331
  0
LINE
  8
0
 10
-90.9538
 20
1.25331
 11
-90.8724
 21
1.31129
  0
LINE
  8
0
 10
-90.8724
 20
1.31129
 11
-90.7875
 21
1.36398
  0
LINE
  8
0
 10
-90.7875
 20
1.36398
 11
-90.6994
 21
1.41118
  0
LINE
  8
0
 10
-90.6994
 20
1.41118
 11
-90.6085
 21
1.4527
  0
LINE
  8
0
 10
-90.6085
 20
1.4527
 11
-90.5151
 21
1.48837
  0
LINE
  8
0
 10
-90.5151
 20
1.48837
 11
-90.4197
 21
1.51805
  0
LINE
  8
0
 10
-90.4197
 20
1.51805
 11
-90.3226
 21
1.54161
  0
LINE
  8
0
 10
-90.3226
 20
1.54161
 11
-90.2241
 21
1.55896
  0
LINE
  8
0
 10
-90.2241
 20
1.55896
 11
-90.1248
 21
1.57004
  0
LINE
  8
0
 10
-90.1248
 20
1.57004
 11
-90.025
 21
1.5748
  0
LINE
  8
0
 10
-90.025
 20
1.5748
 11
-89.925
 21
1.57321
  0
LINE
  8
0
 10
-89.925
 20
1.57321
 11
-89.8254
 21
1.56529
  0
LINE
  8
0
 10
-89.8254
 20
1.56529
 11
-89.7265
 21
1.55107
  0
LINE
  8
0
 10
-89.7265
 20
1.55107
 11
-89.6287
 21
1.53059
  0
LINE
  8
0
 10
-89.6287
 20
1.53059
 11
-89.5323
 21
1.50397
  0
LINE
  8
0
 10
-89.5323
 20
1.50397
 11
-89.4379
 21
1.47127
  0
LINE
  8
0
 10
-89.4379
 20
1.47127
 11
-89.3457
 21
1.43266
  0
LINE
  8
0
 10
-89.3457
 20
1.43266
 11
-89.2562
 21
1.38828
  0
LINE
  8
0
 10
-89.2562
 20
1.38828
 11
-89.1696
 21
1.3383
  0
LINE
  8
0
 10
-89.1696
 20
1.3383
 11
-89.0864
 21
1.28294
  0
LINE
  8
0
 10
-89.0864
 20
1.28294
 11
-89.0069
 21
1.22243
  0
LINE
  8
0
 10
-89.0069
 20
1.22243
 11
-88.9313
 21
1.15697
  0
LINE
  8
0
 10
-88.9313
 20
1.15697
 11
-88.8601
 21
1.08687
  0
LINE
  8
0
 10
-88.8601
 20
1.08687
 11
-88.7935
 21
1.01239
  0
LINE
  8
0
 10
-88.7935
 20
1.01239
 11
-88.7317
 21
0.933823
  0
LINE
  8
0
 10
-88.7317
 20
0.933823
 11
-88.675
 21
0.851501
  0
LINE
  8
0
 10
-88.675
 20
0.851501
 11
-88.6237
 21
0.765747
  0
LINE
  8
0
 10
-88.6237
 20
0.765747
 11
-88.5779
 21
0.676926
  0
LINE
  8
0
 10
-88.5779
 20
0.676926
 11
-88.5378
 21
0.585358
  0
LINE
  8
0
 10
-88.5378
 20
0.585358
 11
-88.5036
 21
0.49144
  0
LINE
  8
0
 10
-88.5036
 20
0.49144
 11
-88.4755
 21
0.395554
  0
LINE
  8
0
 10
-88.4755
 20
0.395554
 11
-88.4535
 21
0.298065
  0
LINE
  8
0
 10
-88.4535
 20
0.298065
 11
-88.4377
 21
0.199371
  0
LINE
  8
0
 10
-88.4377
 20
0.199371
 11
-88.4282
 21
0.099884
  0
LINE
  8
0
 10
-88.4282
 20
0.099884
 11
-88.425
 21
0
  0
LINE
  8
0
 10
-88.425
 20
0
 11
-88.4282
 21
-0.099884
  0
LINE
  8
0
 10
-88.4282
 20
-0.099884
 11
-88.4377
 21
-0.199371
  0
LINE
  8
0
 10
-88.4377
 20
-0.199371
 11
-88.4535
 21
-0.298065
  0
LINE
  8
0
 10
-88.4535
 20
-0.298065
 11
-88.4755
 21
-0.395554
  0
LINE
  8
0
 10
-88.4755
 20
-0.395554
 11
-88.5036
 21
-0.49144
  0
LINE
  8
0
 10
-88.5036
 20
-0.49144
 11
-88.5378
 21
-0.585358
  0
LINE
  8
0
 10
-88.5378
 20
-0.585358
 11
-88.5779
 21
-0.676926
  0
LINE
  8
0
 10
-88.5779
 20
-0.676926
 11
-88.6237
 21
-0.765747
  0
LINE
  8
0
 10
-88.6237
 20
-0.765747
 11
-88.675
 21
-0.851501
  0
LINE
  8
0
 10
-88.675
 20
-0.851501
 11
-88.7317
 21
-0.933823
  0
LINE
  8
0
 10
-88.7317
 20
-0.933823
 11
-88.7935
 21
-1.01239
  0
LINE
  8
0
 10
-88.7935
 20
-1.01239
 11
-88.8601
 21
-1.08687
  0
LINE
  8
0
 10
-88.8601
 20
-1.08687
 11
-88.9313
 21
-1.15697
  0
LINE
  8
0
 10
-88.9313
 20
-1.15697
 11
-89.0069
 21
-1.22243
  0
LINE
  8
0
 10
-89.0069
 20
-1.22243
 11
-89.0864
 21
-1.28294
  0
LINE
  8
0
 10
-89.0864
 20
-1.28294
 11
-89.1696
 21
-1.3383
  0
LINE
  8
0
 10
-89.1696
 20
-1.3383
 11
-89.2562
 21
-1.38828
  0
LINE
  8
0
 10
-89.2562
 20
-1.38828
 11
-89.3457
 21
-1.43266
  0
LINE
  8
0
 10
-89.3457
 20
-1.43266
 11
-89.4379
 21
-1.47127
  0
LINE
  8
0
 10
-89.4379
 20
-1.47127
 11
-89.5323
 21
-1.50397
  0
LINE
  8
0
 10
-89.5323
 20
-1.50397
 11
-89.6287
 21
-1.53059
  0
LINE
  8
0
 10
-89.6287
 20
-1.53059
 11
-89.7265
 21
-1.55107
  0
LINE
  8
0
 10
-89.7265
 20
-1.55107
 11
-89.8254
 21
-1.56529
  0
LINE
  8
0
 10
-89.8254
 20
-1.56529
 11
-89.925
 21
-1.57321
  0
LINE
  8
0
 10
-89.925
 20
-1.57321
 11
-90.025
 21
-1.5748
  0
LINE
  8
0
 10
-90.025
 20
-1.5748
 11
-90.1248
 21
-1.57004
  0
LINE
  8
0
 10
-0.124817
 20
-1.57004
 11
-0.224136
 21
-1.55896
  0
LINE
  8
0
 10
-0.224136
 20
-1.55896
 11
-0.322556
 21
-1.54161
  0
LINE
  8
0
 10
-0.322556
 20
-1.54161
 11
-0.419693
 21
-1.51805
  0
LINE
  8
0
 10
-0.419693
 20
-1.51805
 11
-0.515121
 21
-1.48837
  0
LINE
  8
0
 10
-0.515121
 20
-1.48837
 11
-0.60849
 21
-1.4527
  0
LINE
  8
0
 10
-0.60849
 20
-1.4527
 11
-0.699402
 21
-1.41118
  0
LINE
  8
0
 10
-0.699402
 20
-1.41118
 11
-0.787491
 21
-1.36398
  0
LINE
  8
0
 10
-0.787491
 20
-1.36398
 11
-0.872421
 21
-1.31129
  0
LINE
  8
0
 10
-0.872421
 20
-1.31129
 11
-0.953827
 21
-1.25331
  0
LINE
  8
0
 10
-0.953827
 20
-1.25331
 11
-1.0314
 21
-1.19029
  0
LINE
  8
0
 10
-1.0314
 20
-1.19029
 11
-1.10481
 21
-1.12248
  0
LINE
  8
0
 10
-1.10481
 20
-1.12248
 11
-1.17378
 21
-1.05016
  0
LINE
  8
0
 10
-1.17378
 20
-1.05016
 11
-1.23802
 21
-0.973587
  0
LINE
  8
0
 10
-1.23802
 20
-0.973587
 11
-1.29729
 21
-0.893112
  0
LINE
  8
0
 10
-1.29729
 20
-0.893112
 11
-1.35132
 21
-0.809036
  0
LINE
  8
0
 10
-1.35132
 20
-0.809036
 11
-1.3999
 21
-0.721695
  0
LINE
  8
0
 10
-1.3999
 20
-0.721695
 11
-1.44286
 21
-0.631454
  0
LINE
  8
0
 10
-1.44286
 20
-0.631454
 11
-1.48001
 21
-0.538681
  0
LINE
  8
0
 10
-1.48001
 20
-0.538681
 11
-1.5112
 21
-0.443726
  0
LINE
  8
0
 10
-1.5112
 20
-0.443726
 11
-1.5363
 21
-0.346985
  0
LINE
  8
0
 10
-1.5363
 20
-0.346985
 11
-1.55521
 21
-0.24884
  0
LINE
  8
0
 10
-1.55521
 20
-0.24884
 11
-1.56786
 21
-0.149704
  0
LINE
  8
0
 10
-1.56786
 20
-0.149704
 11
-1.5742
 21
-0.0499573
  0
LINE
  8
0
 10
-1.5742
 20
-0.0499573
 11
-1.5742
 21
0.0499573
  0
LINE
  8
0
 10
-1.5742
 20
0.0499573
 11
-1.56786
 21
0.149704
  0
LINE
  8
0
 10
-1.56786
 20
0.149704
 11
-1.55521
 21
0.24884
  0
LINE
  8
0
 10
-1.55521
 20
0.24884
 11
-1.5363
 21
0.346985
  0
LINE
  8
0
 10
-1.5363
 20
0.346985
 11
-1.5112
 21
0.443726
  0
LINE
  8
0
 10
-1.5112
 20
0.443726
 11
-1.48001
 21
0.538681
  0
LINE
  8
0
 10
-1.48001
 20
0.538681
 11
-1.44286
 21
0.631454
  0
LINE
  8
0
 10
-1.44286
 20
0.631454
 11
-1.3999
 21
0.721695
  0
LINE
  8
0
 10
-1.3999
 20
0.721695
 11
-1.35132
 21
0.809036
  0
LINE
  8
0
 10
-1.35132
 20
0.809036
 11
-1.29729
 21
0.893112
  0
LINE
  8
0
 10
-1.29729
 20
0.893112
 11
-1.23802
 21
0.973587
  0
LINE
  8
0
 10
-1.23802
 20
0.973587
 11
-1.17378
 21
1.05016
  0
LINE
  8
0
 10
-1.17378
 20
1.05016
 11
-1.10481
 21
1.12248
  0
LINE
  8
0
 10
-1.10481
 20
1.12248
 11
-1.0314
 21
1.19029
  0
LINE
  8
0
 10
-1.0314
 20
1.19029
 11
-0.953827
 21
1.25331
  0
LINE
  8
0
 10
-0.953827
 20
1.25331
 11
-0.872421
 21
1.31129
  0
LINE
  8
0
 10
-0.872421
 20
1.31129
 11
-0.787491
 21
1.36398
  0
LINE
  8
0
 10
-0.787491
 20
1.36398
 11
-0.699402
 21
1.41118
  0
LINE
  8
0
 10
-0.699402
 20
1.41118
 11
-0.60849
 21
1.4527
  0
LINE
  8
0
 10
-0.60849
 20
1.4527
 11
-0.515121
 21
1.48837
  0
LINE
  8
0
 10
-0.515121
 20
1.48837
 11
-0.419693
 21
1.51805
  0
LINE
  8
0
 10
-0.419693
 20
1.51805
 11
-0.322556
 21
1.54161
  0
LINE
  8
0
 10
-0.322556
 20
1.54161
 11
-0.224136
 21
1.55896
  0
LINE
  8
0
 10
-0.224136
 20
1.55896
 11
-0.124817
 21
1.57004
  0
LINE
  8
0
 10
-0.124817
 20
1.57004
 11
-0.0249786
 21
1.5748
  0
LINE
  8
0
 10
-0.0249786
 20
1.5748
 11
0.0749359
 21
1.57321
  0
LINE
  8
0
 10
0.0749359
 20
1.57321
 11
0.174561
 21
1.56529
  0
LINE
  8
0
 10
0.174561
 20
1.56529
 11
0.273483
 21
1.55107
  0
LINE
  8
0
 10
0.273483
 20
1.55107
 11
0.371307
 21
1.53059
  0
LINE
  8
0
 10
0.371307
 20
1.53059
 11
0.467636
 21
1.50397
  0
LINE
  8
0
 10
0.467636
 20
1.50397
 11
0.562088
 21
1.47127
  0
LINE
  8
0
 10
0.562088
 20
1.47127
 11
0.654266
 21
1.43266
  0
LINE
  8
0
 10
0.654266
 20
1.43266
 11
0.74382
 21
1.38828
  0
LINE
  8
0
 10
0.74382
 20
1.38828
 11
0.830368
 21
1.3383
  0
LINE
  8
0
 10
0.830368
 20
1.3383
 11
0.913589
 21
1.28294
  0
LINE
  8
0
 10
0.913589
 20
1.28294
 11
0.993118
 21
1.22243
  0
LINE
  8
0
 10
0.993118
 20
1.22243
 11
1.06865
 21
1.15697
  0
LINE
  8
0
 10
1.06865
 20
1.15697
 11
1.13988
 21
1.08687
  0
LINE
  8
0
 10
1.13988
 20
1.08687
 11
1.20651
 21
1.01239
  0
LINE
  8
0
 10
1.20651
 20
1.01239
 11
1.2683
 21
0.933823
  0
LINE
  8
0
 10
1.2683
 20
0.933823
 11
1.32497
 21
0.851501
  0
LINE
  8
0
 10
1.32497
 20
0.851501
 11
1.37631
 21
0.765747
  0
LINE
  8
0
 10
1.37631
 20
0.765747
 11
1.4221
 21
0.676926
  0
LINE
  8
0
 10
1.4221
 20
0.676926
 11
1.46217
 21
0.585358
  0
LINE
  8
0
 10
1.46217
 20
0.585358
 11
1.49635
 21
0.49144
  0
LINE
  8
0
 10
1.49635
 20
0.49144
 11
1.52451
 21
0.395554
  0
LINE
  8
0
 10
1.52451
 20
0.395554
 11
1.54652
 21
0.298065
  0
LINE
  8
0
 10
1.54652
 20
0.298065
 11
1.56232
 21
0.199371
  0
LINE
  8
0
 10
1.56232
 20
0.199371
 11
1.57182
 21
0.099884
  0
LINE
  8
0
 10
1.57182
 20
0.099884
 11
1.575
 21
0
  0
LINE
  8
0
 10
1.575
 20
0
 11
1.57182
 21
-0.099884
  0
LINE
  8
0
 10
1.57182
 20
-0.099884
 11
1.56232
 21
-0.199371
  0
LINE
  8
0
 10
1.56232
 20
-0.199371
 11
1.54652
 21
-0.298065
  0
LINE
  8
0
 10
1.54652
 20
-0.298065
 11
1.52451
 21
-0.395554
  0
LINE
  8
0
 10
1.52451
 20
-0.395554
 11
1.49635
 21
-0.49144
  0
LINE
  8
0
 10
1.49635
 20
-0.49144
 11
1.46217
 21
-0.585358
  0
LINE
  8
0
 10
1.46217
 20
-0.585358
 11
1.4221
 21
-0.676926
  0
LINE
  8
0
 10
1.4221
 20
-0.676926
 11
1.37631
 21
-0.765747
  0
LINE
  8
0
 10
1.37631
 20
-0.765747
 11
1.32497
 21
-0.851501
  0
LINE
  8
0
 10
1.32497
 20
-0.851501
 11
1.2683
 21
-0.933823
  0
LINE
  8
0
 10
1.2683
 20
-0.933823
 11
1.20651
 21
-1.01239
  0
LINE
  8
0
 10
1.20651
 20
-1.01239
 11
1.13988
 21
-1.08687
  0
LINE
  8
0
 10
1.13988
 20
-1.08687
 11
1.06865
 21
-1.15697
  0
LINE
  8
0
 10
1.06865
 20
-1.15697
 11
0.993118
 21
-1.22243
  0
LINE
  8
0
 10
0.993118
 20
-1.22243
 11
0.913589
 21
-1.28294
  0
LINE
  8
0
 10
0.913589
 20
-1.28294
 11
0.830368
 21
-1.3383
  0
LINE
  8
0
 10
0.830368
 20
-1.3383
 11
0.74382
 21
-1.38828
  0
LINE
  8
0
 10
0.74382
 20
-1.38828
 11
0.654266
 21
-1.43266
  0
LINE
  8
0
 10
0.654266
 20
-1.43266
 11
0.562088
 21
-1.47127
  0
LINE
  8
0
 10
0.562088
 20
-1.47127
 11
0.467636
 21
-1.50397
  0
LINE
  8
0
 10
0.467636
 20
-1.50397
 11
0.371307
 21
-1.53059
  0
LINE
  8
0
 10
0.371307
 20
-1.53059
 11
0.273483
 21
-1.55107
  0
LINE
  8
0
 10
0.273483
 20
-1.55107
 11
0.174561
 21
-1.56529
  0
LINE
  8
0
 10
0.174561
 20
-1.56529
 11
0.0749359
 21
-1.57321
  0
LINE
  8
0
 10
0.0749359
 20
-1.57321
 11
-0.0249786
 21
-1.5748
  0
LINE
  8
0
 10
-0.0249786
 20
-1.5748
 11
-0.124817
 21
-1.57004
  0
LINE
  8
0
 10
-0.0749512
 20
-22.6239
 11
-0.174789
 21
-22.6192
  0
LINE
  8
0
 10
-0.174789
 20
-22.6192
 11
-0.274384
 21
-22.6106
  0
LINE
  8
0
 10
-0.274384
 20
-22.6106
 11
-0.373566
 21
-22.5983
  0
LINE
  8
0
 10
-0.373566
 20
-22.5983
 11
-0.472214
 21
-22.5822
  0
LINE
  8
0
 10
-0.472214
 20
-22.5822
 11
-0.570175
 21
-22.5623
  0
LINE
  8
0
 10
-0.570175
 20
-22.5623
 11
-0.667313
 21
-22.5388
  0
LINE
  8
0
 10
-0.667313
 20
-22.5388
 11
-0.763489
 21
-22.5115
  0
LINE
  8
0
 10
-0.763489
 20
-22.5115
 11
-0.858551
 21
-22.4806
  0
LINE
  8
0
 10
-0.858551
 20
-22.4806
 11
-0.952362
 21
-22.4461
  0
LINE
  8
0
 10
-0.952362
 20
-22.4461
 11
-1.0448
 21
-22.4081
  0
LINE
  8
0
 10
-1.0448
 20
-22.4081
 11
-1.13573
 21
-22.3666
  0
LINE
  8
0
 10
-1.13573
 20
-22.3666
 11
-1.22499
 21
-22.3216
  0
LINE
  8
0
 10
-1.22499
 20
-22.3216
 11
-1.3125
 21
-22.2733
  0
LINE
  8
0
 10
-1.3125
 20
-22.2733
 11
-1.39809
 21
-22.2217
  0
LINE
  8
0
 10
-1.39809
 20
-22.2217
 11
-1.48166
 21
-22.1669
  0
LINE
  8
0
 10
-1.48166
 20
-22.1669
 11
-1.56308
 21
-22.1089
  0
LINE
  8
0
 10
-1.56308
 20
-22.1089
 11
-1.64223
 21
-22.0478
  0
LINE
  8
0
 10
-1.64223
 20
-22.0478
 11
-1.71901
 21
-21.9838
  0
LINE
  8
0
 10
-1.71901
 20
-21.9838
 11
-1.79329
 21
-21.9169
  0
LINE
  8
0
 10
-1.79329
 20
-21.9169
 11
-1.86496
 21
-21.8473
  0
LINE
  8
0
 10
-1.86496
 20
-21.8473
 11
-1.93394
 21
-21.7749
  0
LINE
  8
0
 10
-1.93394
 20
-21.7749
 11
-2.00011
 21
-21.7
  0
LINE
  8
0
 10
-2.00011
 20
-21.7
 11
-2.06339
 21
-21.6227
  0
LINE
  8
0
 10
-2.06339
 20
-21.6227
 11
-2.12366
 21
-21.5429
  0
LINE
  8
0
 10
-2.12366
 20
-21.5429
 11
-2.18086
 21
-21.461
  0
LINE
  8
0
 10
-2.18086
 20
-21.461
 11
-2.23491
 21
-21.3769
  0
LINE
  8
0
 10
-2.23491
 20
-21.3769
 11
-2.28571
 21
-21.2908
  0
LINE
  8
0
 10
-2.28571
 20
-21.2908
 11
-2.33319
 21
-21.2028
  0
LINE
  8
0
 10
-2.33319
 20
-21.2028
 11
-2.37729
 21
-21.1131
  0
LINE
  8
0
 10
-2.37729
 20
-21.1131
 11
-2.41794
 21
-21.0218
  0
LINE
  8
0
 10
-2.41794
 20
-21.0218
 11
-2.45509
 21
-20.929
  0
LINE
  8
0
 10
-2.45509
 20
-20.929
 11
-2.48868
 21
-20.8349
  0
LINE
  8
0
 10
-2.48868
 20
-20.8349
 11
-2.51866
 21
-20.7395
  0
LINE
  8
0
 10
-2.51866
 20
-20.7395
 11
-2.545
 21
-20.6431
  0
LINE
  8
0
 10
-2.545
 20
-20.6431
 11
-2.56763
 21
-20.5458
  0
LINE
  8
0
 10
-2.56763
 20
-20.5458
 11
-2.58655
 21
-20.4476
  0
LINE
  8
0
 10
-2.58655
 20
-20.4476
 11
-2.60172
 21
-20.3488
  0
LINE
  8
0
 10
-2.60172
 20
-20.3488
 11
-2.61311
 21
-20.2495
  0
LINE
  8
0
 10
-2.61311
 20
-20.2495
 11
-2.62071
 21
-20.1499
  0
LINE
  8
0
 10
-2.62071
 20
-20.1499
 11
-2.62451
 21
-20.05
  0
LINE
  8
0
 10
-2.62451
 20
-20.05
 11
-2.62451
 21
-19.95
  0
LINE
  8
0
 10
-2.62451
 20
-19.95
 11
-2.62071
 21
-19.8501
  0
LINE
  8
0
 10
-2.62071
 20
-19.8501
 11
-2.61311
 21
-19.7505
  0
LINE
  8
0
 10
-2.61311
 20
-19.7505
 11
-2.60172
 21
-19.6512
  0
LINE
  8
0
 10
-2.60172
 20
-19.6512
 11
-2.58655
 21
-19.5524
  0
LINE
  8
0
 10
-2.58655
 20
-19.5524
 11
-2.56763
 21
-19.4542
  0
LINE
  8
0
 10
-2.56763
 20
-19.4542
 11
-2.545
 21
-19.3569
  0
LINE
  8
0
 10
-2.545
 20
-19.3569
 11
-2.51866
 21
-19.2604
  0
LINE
  8
0
 10
-2.51866
 20
-19.2604
 11
-2.48868
 21
-19.1651
  0
LINE
  8
0
 10
-2.48868
 20
-19.1651
 11
-2.45509
 21
-19.071
  0
LINE
  8
0
 10
-2.45509
 20
-19.071
 11
-2.41794
 21
-18.9782
  0
LINE
  8
0
 10
-2.41794
 20
-18.9782
 11
-2.37729
 21
-18.8868
  0
LINE
  8
0
 10
-2.37729
 20
-18.8868
 11
-2.33319
 21
-18.7971
  0
LINE
  8
0
 10
-2.33319
 20
-18.7971
 11
-2.28571
 21
-18.7092
  0
LINE
  8
0
 10
-2.28571
 20
-18.7092
 11
-2.23491
 21
-18.6231
  0
LINE
  8
0
 10
-2.23491
 20
-18.6231
 11
-2.18086
 21
-18.539
  0
LINE
  8
0
 10
-2.18086
 20
-18.539
 11
-2.12366
 21
-18.4571
  0
LINE
  8
0
 10
-2.12366
 20
-18.4571
 11
-2.06339
 21
-18.3773
  0
LINE
  8
0
 10
-2.06339
 20
-18.3773
 11
-2.00011
 21
-18.2999
  0
LINE
  8
0
 10
-2.00011
 20
-18.2999
 11
-1.93394
 21
-18.225
  0
LINE
  8
0
 10
-1.93394
 20
-18.225
 11
-1.86496
 21
-18.1527
  0
LINE
  8
0
 10
-1.86496
 20
-18.1527
 11
-1.79329
 21
-18.083
  0
LINE
  8
0
 10
-1.79329
 20
-18.083
 11
-1.71901
 21
-18.0161
  0
LINE
  8
0
 10
-1.71901
 20
-18.0161
 11
-1.64223
 21
-17.9521
  0
LINE
  8
0
 10
-1.64223
 20
-17.9521
 11
-1.56308
 21
-17.8911
  0
LINE
  8
0
 10
-1.56308
 20
-17.8911
 11
-1.48166
 21
-17.8331
  0
LINE
  8
0
 10
-1.48166
 20
-17.8331
 11
-1.39809
 21
-17.7783
  0
LINE
  8
0
 10
-1.39809
 20
-17.7783
 11
-1.3125
 21
-17.7267
  0
LINE
  8
0
 10
-1.3125
 20
-17.7267
 11
-1.22499
 21
-17.6784
  0
LINE
  8
0
 10
-1.22499
 20
-17.6784
 11
-1.13573
 21
-17.6334
  0
LINE
  8
0
 10
-1.13573
 20
-17.6334
 11
-1.0448
 21
-17.5919
  0
LINE
  8
0
 10
-1.0448
 20
-17.5919
 11
-0.952362
 21
-17.5538
  0
LINE
  8
0
 10
-0.952362
 20
-17.5538
 11
-0.858551
 21
-17.5194
  0
LINE
  8
0
 10
-0.858551
 20
-17.5194
 11
-0.763489
 21
-17.4885
  0
LINE
  8
0
 10
-0.763489
 20
-17.4885
 11
-0.667313
 21
-17.4612
  0
LINE
  8
0
 10
-0.667313
 20
-17.4612
 11
-0.570175
 21
-17.4377
  0
LINE
  8
0
 10
-0.570175
 20
-17.4377
 11
-0.472214
 21
-17.4178
  0
LINE
  8
0
 10
-0.472214
 20
-17.4178
 11
-0.373566
 21
-17.4017
  0
LINE
  8
0
 10
-0.373566
 20
-17.4017
 11
-0.274384
 21
-17.3894
  0
LINE
  8
0
 10
-0.274384
 20
-17.3894
 11
-0.174789
 21
-17.3808
  0
LINE
  8
0
 10
-0.174789
 20
-17.3808
 11
-0.0749512
 21
-17.3761
  0
LINE
  8
0
 10
-0.0749512
 20
-17.3761
 11
0.0249786
 21
-17.3751
  0
LINE
  8
0
 10
0.0249786
 20
-17.3751
 11
0.124893
 21
-17.378
  0
LINE
  8
0
 10
0.124893
 20
-17.378
 11
0.224625
 21
-17.3846
  0
LINE
  8
0
 10
0.224625
 20
-17.3846
 11
0.324036
 21
-17.3951
  0
LINE
  8
0
 10
0.324036
 20
-17.3951
 11
0.422974
 21
-17.4093
  0
LINE
  8
0
 10
0.422974
 20
-17.4093
 11
0.521286
 21
-17.4273
  0
LINE
  8
0
 10
0.521286
 20
-17.4273
 11
0.618866
 21
-17.449
  0
LINE
  8
0
 10
0.618866
 20
-17.449
 11
0.71553
 21
-17.4744
  0
LINE
  8
0
 10
0.71553
 20
-17.4744
 11
0.811157
 21
-17.5035
  0
LINE
  8
0
 10
0.811157
 20
-17.5035
 11
0.905624
 21
-17.5362
  0
LINE
  8
0
 10
0.905624
 20
-17.5362
 11
0.998764
 21
-17.5724
  0
LINE
  8
0
 10
0.998764
 20
-17.5724
 11
1.09045
 21
-17.6122
  0
LINE
  8
0
 10
1.09045
 20
-17.6122
 11
1.18057
 21
-17.6555
  0
LINE
  8
0
 10
1.18057
 20
-17.6555
 11
1.26897
 21
-17.7021
  0
LINE
  8
0
 10
1.26897
 20
-17.7021
 11
1.35553
 21
-17.7521
  0
LINE
  8
0
 10
1.35553
 20
-17.7521
 11
1.44014
 21
-17.8053
  0
LINE
  8
0
 10
1.44014
 20
-17.8053
 11
1.52264
 21
-17.8617
  0
LINE
  8
0
 10
1.52264
 20
-17.8617
 11
1.60294
 21
-17.9212
  0
LINE
  8
0
 10
1.60294
 20
-17.9212
 11
1.68092
 21
-17.9838
  0
LINE
  8
0
 10
1.68092
 20
-17.9838
 11
1.75645
 21
-18.0492
  0
LINE
  8
0
 10
1.75645
 20
-18.0492
 11
1.82945
 21
-18.1175
  0
LINE
  8
0
 10
1.82945
 20
-18.1175
 11
1.8998
 21
-18.1885
  0
LINE
  8
0
 10
1.8998
 20
-18.1885
 11
1.96738
 21
-18.2622
  0
LINE
  8
0
 10
1.96738
 20
-18.2622
 11
2.03212
 21
-18.3383
  0
LINE
  8
0
 10
2.03212
 20
-18.3383
 11
2.0939
 21
-18.4169
  0
LINE
  8
0
 10
2.0939
 20
-18.4169
 11
2.15265
 21
-18.4978
  0
LINE
  8
0
 10
2.15265
 20
-18.4978
 11
2.20828
 21
-18.5808
  0
LINE
  8
0
 10
2.20828
 20
-18.5808
 11
2.26071
 21
-18.6659
  0
LINE
  8
0
 10
2.26071
 20
-18.6659
 11
2.30986
 21
-18.7529
  0
LINE
  8
0
 10
2.30986
 20
-18.7529
 11
2.35567
 21
-18.8418
  0
LINE
  8
0
 10
2.35567
 20
-18.8418
 11
2.39806
 21
-18.9323
  0
LINE
  8
0
 10
2.39806
 20
-18.9323
 11
2.43695
 21
-19.0244
  0
LINE
  8
0
 10
2.43695
 20
-19.0244
 11
2.47234
 21
-19.1179
  0
LINE
  8
0
 10
2.47234
 20
-19.1179
 11
2.50412
 21
-19.2126
  0
LINE
  8
0
 10
2.50412
 20
-19.2126
 11
2.53229
 21
-19.3085
  0
LINE
  8
0
 10
2.53229
 20
-19.3085
 11
2.55678
 21
-19.4054
  0
LINE
  8
0
 10
2.55678
 20
-19.4054
 11
2.57756
 21
-19.5032
  0
LINE
  8
0
 10
2.57756
 20
-19.5032
 11
2.5946
 21
-19.6017
  0
LINE
  8
0
 10
2.5946
 20
-19.6017
 11
2.60788
 21
-19.7008
  0
LINE
  8
0
 10
2.60788
 20
-19.7008
 11
2.61739
 21
-19.8003
  0
LINE
  8
0
 10
2.61739
 20
-19.8003
 11
2.62309
 21
-19.9001
  0
LINE
  8
0
 10
2.62309
 20
-19.9001
 11
2.625
 21
-20
  0
LINE
  8
0
 10
2.625
 20
-20
 11
2.62309
 21
-20.0999
  0
LINE
  8
0
 10
2.62309
 20
-20.0999
 11
2.61739
 21
-20.1997
  0
LINE
  8
0
 10
2.61739
 20
-20.1997
 11
2.60788
 21
-20.2992
  0
LINE
  8
0
 10
2.60788
 20
-20.2992
 11
2.5946
 21
-20.3983
  0
LINE
  8
0
 10
2.5946
 20
-20.3983
 11
2.57756
 21
-20.4968
  0
LINE
  8
0
 10
2.57756
 20
-20.4968
 11
2.55678
 21
-20.5945
  0
LINE
  8
0
 10
2.55678
 20
-20.5945
 11
2.53229
 21
-20.6915
  0
LINE
  8
0
 10
2.53229
 20
-20.6915
 11
2.50412
 21
-20.7874
  0
LINE
  8
0
 10
2.50412
 20
-20.7874
 11
2.47234
 21
-20.8821
  0
LINE
  8
0
 10
2.47234
 20
-20.8821
 11
2.43695
 21
-20.9756
  0
LINE
  8
0
 10
2.43695
 20
-20.9756
 11
2.39806
 21
-21.0677
  0
LINE
  8
0
 10
2.39806
 20
-21.0677
 11
2.35567
 21
-21.1582
  0
LINE
  8
0
 10
2.35567
 20
-21.1582
 11
2.30986
 21
-21.247
  0
LINE
  8
0
 10
2.30986
 20
-21.247
 11
2.26071
 21
-21.3341
  0
LINE
  8
0
 10
2.26071
 20
-21.3341
 11
2.20828
 21
-21.4192
  0
LINE
  8
0
 10
2.20828
 20
-21.4192
 11
2.15265
 21
-21.5022
  0
LINE
  8
0
 10
2.15265
 20
-21.5022
 11
2.0939
 21
-21.5831
  0
LINE
  8
0
 10
2.0939
 20
-21.5831
 11
2.03212
 21
-21.6617
  0
LINE
  8
0
 10
2.03212
 20
-21.6617
 11
1.96738
 21
-21.7378
  0
LINE
  8
0
 10
1.96738
 20
-21.7378
 11
1.8998
 21
-21.8114
  0
LINE
  8
0
 10
1.8998
 20
-21.8114
 11
1.82945
 21
-21.8825
  0
LINE
  8
0
 10
1.82945
 20
-21.8825
 11
1.75645
 21
-21.9507
  0
LINE
  8
0
 10
1.75645
 20
-21.9507
 11
1.68092
 21
-22.0162
  0
LINE
  8
0
 10
1.68092
 20
-22.0162
 11
1.60294
 21
-22.0787
  0
LINE
  8
0
 10
1.60294
 20
-22.0787
 11
1.52264
 21
-22.1383
  0
LINE
  8
0
 10
1.52264
 20
-22.1383
 11
1.44014
 21
-22.1947
  0
LINE
  8
0
 10
1.44014
 20
-22.1947
 11
1.35553
 21
-22.2479
  0
LINE
  8
0
 10
1.35553
 20
-22.2479
 11
1.26897
 21
-22.2979
  0
LINE
  8
0
 10
1.26897
 20
-22.2979
 11
1.18057
 21
-22.3445
  0
LINE
  8
0
 10
1.18057
 20
-22.3445
 11
1.09045
 21
-22.3878
  0
LINE
  8
0
 10
1.09045
 20
-22.3878
 11
0.998764
 21
-22.4276
  0
LINE
  8
0
 10
0.998764
 20
-22.4276
 11
0.905624
 21
-22.4638
  0
LINE
  8
0
 10
0.905624
 20
-22.4638
 11
0.811157
 21
-22.4965
  0
LINE
  8
0
 10
0.811157
 20
-22.4965
 11
0.71553
 21
-22.5256
  0
LINE
  8
0
 10
0.71553
 20
-22.5256
 11
0.618866
 21
-22.551
  0
LINE
  8
0
 10
0.618866
 20
-22.551
 11
0.521286
 21
-22.5727
  0
LINE
  8
0
 10
0.521286
 20
-22.5727
 11
0.422974
 21
-22.5907
  0
LINE
  8
0
 10
0.422974
 20
-22.5907
 11
0.324036
 21
-22.6049
  0
LINE
  8
0
 10
0.324036
 20
-22.6049
 11
0.224625
 21
-22.6154
  0
LINE
  8
0
 10
0.224625
 20
-22.6154
 11
0.124893
 21
-22.622
  0
LINE
  8
0
 10
0.124893
 20
-22.622
 11
0.0249786
 21
-22.6249
  0
LINE
  8
0
 10
0.0249786
 20
-22.6249
 11
-0.0749512
 21
-22.6239
  0
LINE
  8
0
 10
-15.9998
 20
-27.6951
 11
-16.0991
 21
-27.684
  0
LINE
  8
0
 10
-16.0991
 20
-27.684
 11
-16.1976
 21
-27.6666
  0
LINE
  8
0
 10
-16.1976
 20
-27.6666
 11
-16.2947
 21
-27.6431
  0
LINE
  8
0
 10
-16.2947
 20
-27.6431
 11
-16.3901
 21
-27.6134
  0
LINE
  8
0
 10
-16.3901
 20
-27.6134
 11
-16.4835
 21
-27.5777
  0
LINE
  8
0
 10
-16.4835
 20
-27.5777
 11
-16.5744
 21
-27.5362
  0
LINE
  8
0
 10
-16.5744
 20
-27.5362
 11
-16.6625
 21
-27.489
  0
LINE
  8
0
 10
-16.6625
 20
-27.489
 11
-16.7474
 21
-27.4363
  0
LINE
  8
0
 10
-16.7474
 20
-27.4363
 11
-16.8288
 21
-27.3783
  0
LINE
  8
0
 10
-16.8288
 20
-27.3783
 11
-16.9064
 21
-27.3153
  0
LINE
  8
0
 10
-16.9064
 20
-27.3153
 11
-16.9798
 21
-27.2475
  0
LINE
  8
0
 10
-16.9798
 20
-27.2475
 11
-17.0488
 21
-27.1752
  0
LINE
  8
0
 10
-17.0488
 20
-27.1752
 11
-17.113
 21
-27.0986
  0
LINE
  8
0
 10
-17.113
 20
-27.0986
 11
-17.1723
 21
-27.0181
  0
LINE
  8
0
 10
-17.1723
 20
-27.0181
 11
-17.2263
 21
-26.9341
  0
LINE
  8
0
 10
-17.2263
 20
-26.9341
 11
-17.2749
 21
-26.8467
  0
LINE
  8
0
 10
-17.2749
 20
-26.8467
 11
-17.3179
 21
-26.7565
  0
LINE
  8
0
 10
-17.3179
 20
-26.7565
 11
-17.355
 21
-26.6637
  0
LINE
  8
0
 10
-17.355
 20
-26.6637
 11
-17.3862
 21
-26.5687
  0
LINE
  8
0
 10
-17.3862
 20
-26.5687
 11
-17.4113
 21
-26.472
  0
LINE
  8
0
 10
-17.4113
 20
-26.472
 11
-17.4302
 21
-26.3739
  0
LINE
  8
0
 10
-17.4302
 20
-26.3739
 11
-17.4429
 21
-26.2747
  0
LINE
  8
0
 10
-17.4429
 20
-26.2747
 11
-17.4492
 21
-26.175
  0
LINE
  8
0
 10
-17.4492
 20
-26.175
 11
-17.4492
 21
-26.075
  0
LINE
  8
0
 10
-17.4492
 20
-26.075
 11
-17.4429
 21
-25.9753
  0
LINE
  8
0
 10
-17.4429
 20
-25.9753
 11
-17.4302
 21
-25.8762
  0
LINE
  8
0
 10
-17.4302
 20
-25.8762
 11
-17.4113
 21
-25.778
  0
LINE
  8
0
 10
-17.4113
 20
-25.778
 11
-17.3862
 21
-25.6813
  0
LINE
  8
0
 10
-17.3862
 20
-25.6813
 11
-17.355
 21
-25.5863
  0
LINE
  8
0
 10
-17.355
 20
-25.5863
 11
-17.3179
 21
-25.4935
  0
LINE
  8
0
 10
-17.3179
 20
-25.4935
 11
-17.2749
 21
-25.4033
  0
LINE
  8
0
 10
-17.2749
 20
-25.4033
 11
-17.2263
 21
-25.316
  0
LINE
  8
0
 10
-17.2263
 20
-25.316
 11
-17.1723
 21
-25.2319
  0
LINE
  8
0
 10
-17.1723
 20
-25.2319
 11
-17.113
 21
-25.1514
  0
LINE
  8
0
 10
-17.113
 20
-25.1514
 11
-17.0488
 21
-25.0748
  0
LINE
  8
0
 10
-17.0488
 20
-25.0748
 11
-16.9798
 21
-25.0025
  0
LINE
  8
0
 10
-16.9798
 20
-25.0025
 11
-16.9064
 21
-24.9347
  0
LINE
  8
0
 10
-16.9064
 20
-24.9347
 11
-16.8288
 21
-24.8717
  0
LINE
  8
0
 10
-16.8288
 20
-24.8717
 11
-16.7474
 21
-24.8137
  0
LINE
  8
0
 10
-16.7474
 20
-24.8137
 11
-16.6625
 21
-24.761
  0
LINE
  8
0
 10
-16.6625
 20
-24.761
 11
-16.5744
 21
-24.7138
  0
LINE
  8
0
 10
-16.5744
 20
-24.7138
 11
-16.4835
 21
-24.6723
  0
LINE
  8
0
 10
-16.4835
 20
-24.6723
 11
-16.3901
 21
-24.6366
  0
LINE
  8
0
 10
-16.3901
 20
-24.6366
 11
-16.2947
 21
-24.6069
  0
LINE
  8
0
 10
-16.2947
 20
-24.6069
 11
-16.1976
 21
-24.5834
  0
LINE
  8
0
 10
-16.1976
 20
-24.5834
 11
-16.0991
 21
-24.566
  0
LINE
  8
0
 10
-16.0991
 20
-24.566
 11
-15.9998
 21
-24.555
  0
LINE
  8
0
 10
-15.9998
 20
-24.555
 11
-15.9
 21
-24.5502
  0
LINE
  8
0
 10
-15.9
 20
-24.5502
 11
-15.8
 21
-24.5518
  0
LINE
  8
0
 10
-15.8
 20
-24.5518
 11
-15.7004
 21
-24.5597
  0
LINE
  8
0
 10
-15.7004
 20
-24.5597
 11
-15.6015
 21
-24.5739
  0
LINE
  8
0
 10
-15.6015
 20
-24.5739
 11
-15.5037
 21
-24.5944
  0
LINE
  8
0
 10
-15.5037
 20
-24.5944
 11
-15.4073
 21
-24.621
  0
LINE
  8
0
 10
-15.4073
 20
-24.621
 11
-15.3129
 21
-24.6537
  0
LINE
  8
0
 10
-15.3129
 20
-24.6537
 11
-15.2207
 21
-24.6923
  0
LINE
  8
0
 10
-15.2207
 20
-24.6923
 11
-15.1312
 21
-24.7367
  0
LINE
  8
0
 10
-15.1312
 20
-24.7367
 11
-15.0446
 21
-24.7867
  0
LINE
  8
0
 10
-15.0446
 20
-24.7867
 11
-14.9614
 21
-24.8421
  0
LINE
  8
0
 10
-14.9614
 20
-24.8421
 11
-14.8819
 21
-24.9026
  0
LINE
  8
0
 10
-14.8819
 20
-24.9026
 11
-14.8063
 21
-24.968
  0
LINE
  8
0
 10
-14.8063
 20
-24.968
 11
-14.7351
 21
-25.0381
  0
LINE
  8
0
 10
-14.7351
 20
-25.0381
 11
-14.6685
 21
-25.1126
  0
LINE
  8
0
 10
-14.6685
 20
-25.1126
 11
-14.6067
 21
-25.1912
  0
LINE
  8
0
 10
-14.6067
 20
-25.1912
 11
-14.55
 21
-25.2735
  0
LINE
  8
0
 10
-14.55
 20
-25.2735
 11
-14.4987
 21
-25.3593
  0
LINE
  8
0
 10
-14.4987
 20
-25.3593
 11
-14.4529
 21
-25.4481
  0
LINE
  8
0
 10
-14.4529
 20
-25.4481
 11
-14.4128
 21
-25.5396
  0
LINE
  8
0
 10
-14.4128
 20
-25.5396
 11
-14.3786
 21
-25.6336
  0
LINE
  8
0
 10
-14.3786
 20
-25.6336
 11
-14.3505
 21
-25.7294
  0
LINE
  8
0
 10
-14.3505
 20
-25.7294
 11
-14.3285
 21
-25.8269
  0
LINE
  8
0
 10
-14.3285
 20
-25.8269
 11
-14.3127
 21
-25.9256
  0
LINE
  8
0
 10
-14.3127
 20
-25.9256
 11
-14.3032
 21
-26.0251
  0
LINE
  8
0
 10
-14.3032
 20
-26.0251
 11
-14.3
 21
-26.125
  0
LINE
  8
0
 10
-14.3
 20
-26.125
 11
-14.3032
 21
-26.2249
  0
LINE
  8
0
 10
-14.3032
 20
-26.2249
 11
-14.3127
 21
-26.3244
  0
LINE
  8
0
 10
-14.3127
 20
-26.3244
 11
-14.3285
 21
-26.4231
  0
LINE
  8
0
 10
-14.3285
 20
-26.4231
 11
-14.3505
 21
-26.5206
  0
LINE
  8
0
 10
-14.3505
 20
-26.5206
 11
-14.3786
 21
-26.6165
  0
LINE
  8
0
 10
-14.3786
 20
-26.6165
 11
-14.4128
 21
-26.7104
  0
LINE
  8
0
 10
-14.4128
 20
-26.7104
 11
-14.4529
 21
-26.8019
  0
LINE
  8
0
 10
-14.4529
 20
-26.8019
 11
-14.4987
 21
-26.8908
  0
LINE
  8
0
 10
-14.4987
 20
-26.8908
 11
-14.55
 21
-26.9765
  0
LINE
  8
0
 10
-14.55
 20
-26.9765
 11
-14.6067
 21
-27.0588
  0
LINE
  8
0
 10
-14.6067
 20
-27.0588
 11
-14.6685
 21
-27.1374
  0
LINE
  8
0
 10
-14.6685
 20
-27.1374
 11
-14.7351
 21
-27.2119
  0
LINE
  8
0
 10
-14.7351
 20
-27.2119
 11
-14.8063
 21
-27.282
  0
LINE
  8
0
 10
-14.8063
 20
-27.282
 11
-14.8819
 21
-27.3474
  0
LINE
  8
0
 10
-14.8819
 20
-27.3474
 11
-14.9614
 21
-27.408
  0
LINE
  8
0
 10
-14.9614
 20
-27.408
 11
-15.0446
 21
-27.4633
  0
LINE
  8
0
 10
-15.0446
 20
-27.4633
 11
-15.1312
 21
-27.5133
  0
LINE
  8
0
 10
-15.1312
 20
-27.5133
 11
-15.2207
 21
-27.5577
  0
LINE
  8
0
 10
-15.2207
 20
-27.5577
 11
-15.3129
 21
-27.5963
  0
LINE
  8
0
 10
-15.3129
 20
-27.5963
 11
-15.4073
 21
-27.629
  0
LINE
  8
0
 10
-15.4073
 20
-27.629
 11
-15.5037
 21
-27.6556
  0
LINE
  8
0
 10
-15.5037
 20
-27.6556
 11
-15.6015
 21
-27.6761
  0
LINE
  8
0
 10
-15.6015
 20
-27.6761
 11
-15.7004
 21
-27.6903
  0
LINE
  8
0
 10
-15.7004
 20
-27.6903
 11
-15.8
 21
-27.6982
  0
LINE
  8
0
 10
-15.8
 20
-27.6982
 11
-15.9
 21
-27.6998
  0
LINE
  8
0
 10
-15.9
 20
-27.6998
 11
-15.9998
 21
-27.6951
  0
LINE
  8
0
 10
15.7502
 20
-27.6951
 11
15.6508
 21
-27.684
  0
LINE
  8
0
 10
15.6508
 20
-27.684
 11
15.5524
 21
-27.6666
  0
LINE
  8
0
 10
15.5524
 20
-27.6666
 11
15.4553
 21
-27.6431
  0
LINE
  8
0
 10
15.4553
 20
-27.6431
 11
15.3599
 21
-27.6134
  0
LINE
  8
0
 10
15.3599
 20
-27.6134
 11
15.2665
 21
-27.5777
  0
LINE
  8
0
 10
15.2665
 20
-27.5777
 11
15.1756
 21
-27.5362
  0
LINE
  8
0
 10
15.1756
 20
-27.5362
 11
15.0875
 21
-27.489
  0
LINE
  8
0
 10
15.0875
 20
-27.489
 11
15.0026
 21
-27.4363
  0
LINE
  8
0
 10
15.0026
 20
-27.4363
 11
14.9212
 21
-27.3783
  0
LINE
  8
0
 10
14.9212
 20
-27.3783
 11
14.8436
 21
-27.3153
  0
LINE
  8
0
 10
14.8436
 20
-27.3153
 11
14.7702
 21
-27.2475
  0
LINE
  8
0
 10
14.7702
 20
-27.2475
 11
14.7012
 21
-27.1752
  0
LINE
  8
0
 10
14.7012
 20
-27.1752
 11
14.637
 21
-27.0986
  0
LINE
  8
0
 10
14.637
 20
-27.0986
 11
14.5777
 21
-27.0181
  0
LINE
  8
0
 10
14.5777
 20
-27.0181
 11
14.5237
 21
-26.9341
  0
LINE
  8
0
 10
14.5237
 20
-26.9341
 11
14.4751
 21
-26.8467
  0
LINE
  8
0
 10
14.4751
 20
-26.8467
 11
14.4321
 21
-26.7565
  0
LINE
  8
0
 10
14.4321
 20
-26.7565
 11
14.395
 21
-26.6637
  0
LINE
  8
0
 10
14.395
 20
-26.6637
 11
14.3638
 21
-26.5687
  0
LINE
  8
0
 10
14.3638
 20
-26.5687
 11
14.3387
 21
-26.472
  0
LINE
  8
0
 10
14.3387
 20
-26.472
 11
14.3198
 21
-26.3739
  0
LINE
  8
0
 10
14.3198
 20
-26.3739
 11
14.3071
 21
-26.2747
  0
LINE
  8
0
 10
14.3071
 20
-26.2747
 11
14.3008
 21
-26.175
  0
LINE
  8
0
 10
14.3008
 20
-26.175
 11
14.3008
 21
-26.075
  0
LINE
  8
0
 10
14.3008
 20
-26.075
 11
14.3071
 21
-25.9753
  0
LINE
  8
0
 10
14.3071
 20
-25.9753
 11
14.3198
 21
-25.8762
  0
LINE
  8
0
 10
14.3198
 20
-25.8762
 11
14.3387
 21
-25.778
  0
LINE
  8
0
 10
14.3387
 20
-25.778
 11
14.3638
 21
-25.6813
  0
LINE
  8
0
 10
14.3638
 20
-25.6813
 11
14.395
 21
-25.5863
  0
LINE
  8
0
 10
14.395
 20
-25.5863
 11
14.4321
 21
-25.4935
  0
LINE
  8
0
 10
14.4321
 20
-25.4935
 11
14.4751
 21
-25.4033
  0
LINE
  8
0
 10
14.4751
 20
-25.4033
 11
14.5237
 21
-25.316
  0
LINE
  8
0
 10
14.5237
 20
-25.316
 11
14.5777
 21
-25.2319
  0
LINE
  8
0
 10
14.5777
 20
-25.2319
 11
14.637
 21
-25.1514
  0
LINE
  8
0
 10
14.637
 20
-25.1514
 11
14.7012
 21
-25.0748
  0
LINE
  8
0
 10
14.7012
 20
-25.0748
 11
14.7702
 21
-25.0025
  0
LINE
  8
0
 10
14.7702
 20
-25.0025
 11
14.8436
 21
-24.9347
  0
LINE
  8
0
 10
14.8436
 20
-24.9347
 11
14.9212
 21
-24.8717
  0
LINE
  8
0
 10
14.9212
 20
-24.8717
 11
15.0026
 21
-24.8137
  0
LINE
  8
0
 10
15.0026
 20
-24.8137
 11
15.0875
 21
-24.761
  0
LINE
  8
0
 10
15.0875
 20
-24.761
 11
15.1756
 21
-24.7138
  0
LINE
  8
0
 10
15.1756
 20
-24.7138
 11
15.2665
 21
-24.6723
  0
LINE
  8
0
 10
15.2665
 20
-24.6723
 11
15.3599
 21
-24.6366
  0
LINE
  8
0
 10
15.3599
 20
-24.6366
 11
15.4553
 21
-24.6069
  0
LINE
  8
0
 10
15.4553
 20
-24.6069
 11
15.5524
 21
-24.5834
  0
LINE
  8
0
 10
15.5524
 20
-24.5834
 11
15.6508
 21
-24.566
  0
LINE
  8
0
 10
15.6508
 20
-24.566
 11
15.7502
 21
-24.555
  0
LINE
  8
0
 10
15.7502
 20
-24.555
 11
15.85
 21
-24.5502
  0
LINE
  8
0
 10
15.85
 20
-24.5502
 11
15.9499
 21
-24.5518
  0
LINE
  8
0
 10
15.9499
 20
-24.5518
 11
16.0496
 21
-24.5597
  0
LINE
  8
0
 10
16.0496
 20
-24.5597
 11
16.1485
 21
-24.5739
  0
LINE
  8
0
 10
16.1485
 20
-24.5739
 11
16.2463
 21
-24.5944
  0
LINE
  8
0
 10
16.2463
 20
-24.5944
 11
16.3426
 21
-24.621
  0
LINE
  8
0
 10
16.3426
 20
-24.621
 11
16.4371
 21
-24.6537
  0
LINE
  8
0
 10
16.4371
 20
-24.6537
 11
16.5293
 21
-24.6923
  0
LINE
  8
0
 10
16.5293
 20
-24.6923
 11
16.6188
 21
-24.7367
  0
LINE
  8
0
 10
16.6188
 20
-24.7367
 11
16.7054
 21
-24.7867
  0
LINE
  8
0
 10
16.7054
 20
-24.7867
 11
16.7886
 21
-24.8421
  0
LINE
  8
0
 10
16.7886
 20
-24.8421
 11
16.8681
 21
-24.9026
  0
LINE
  8
0
 10
16.8681
 20
-24.9026
 11
16.9436
 21
-24.968
  0
LINE
  8
0
 10
16.9436
 20
-24.968
 11
17.0149
 21
-25.0381
  0
LINE
  8
0
 10
17.0149
 20
-25.0381
 11
17.0815
 21
-25.1126
  0
LINE
  8
0
 10
17.0815
 20
-25.1126
 11
17.1433
 21
-25.1912
  0
LINE
  8
0
 10
17.1433
 20
-25.1912
 11
17.2
 21
-25.2735
  0
LINE
  8
0
 10
17.2
 20
-25.2735
 11
17.2513
 21
-25.3593
  0
LINE
  8
0
 10
17.2513
 20
-25.3593
 11
17.2971
 21
-25.4481
  0
LINE
  8
0
 10
17.2971
 20
-25.4481
 11
17.3372
 21
-25.5396
  0
LINE
  8
0
 10
17.3372
 20
-25.5396
 11
17.3714
 21
-25.6336
  0
LINE
  8
0
 10
17.3714
 20
-25.6336
 11
17.3995
 21
-25.7294
  0
LINE
  8
0
 10
17.3995
 20
-25.7294
 11
17.4215
 21
-25.8269
  0
LINE
  8
0
 10
17.4215
 20
-25.8269
 11
17.4373
 21
-25.9256
  0
LINE
  8
0
 10
17.4373
 20
-25.9256
 11
17.4468
 21
-26.0251
  0
LINE
  8
0
 10
17.4468
 20
-26.0251
 11
17.45
 21
-26.125
  0
LINE
  8
0
 10
17.45
 20
-26.125
 11
17.4468
 21
-26.2249
  0
LINE
  8
0
 10
17.4468
 20
-26.2249
 11
17.4373
 21
-26.3244
  0
LINE
  8
0
 10
17.4373
 20
-26.3244
 11
17.4215
 21
-26.4231
  0
LINE
  8
0
 10
17.4215
 20
-26.4231
 11
17.3995
 21
-26.5206
  0
LINE
  8
0
 10
17.3995
 20
-26.5206
 11
17.3714
 21
-26.6165
  0
LINE
  8
0
 10
17.3714
 20
-26.6165
 11
17.3372
 21
-26.7104
  0
LINE
  8
0
 10
17.3372
 20
-26.7104
 11
17.2971
 21
-26.8019
  0
LINE
  8
0
 10
17.2971
 20
-26.8019
 11
17.2513
 21
-26.8908
  0
LINE
  8
0
 10
17.2513
 20
-26.8908
 11
17.2
 21
-26.9765
  0
LINE
  8
0
 10
17.2
 20
-26.9765
 11
17.1433
 21
-27.0588
  0
LINE
  8
0
 10
17.1433
 20
-27.0588
 11
17.0815
 21
-27.1374
  0
LINE
  8
0
 10
17.0815
 20
-27.1374
 11
17.0149
 21
-27.2119
  0
LINE
  8
0
 10
17.0149
 20
-27.2119
 11
16.9436
 21
-27.282
  0
LINE
  8
0
 10
16.9436
 20
-27.282
 11
16.8681
 21
-27.3474
  0
LINE
  8
0
 10
16.8681
 20
-27.3474
 11
16.7886
 21
-27.408
  0
LINE
  8
0
 10
16.7886
 20
-27.408
 11
16.7054
 21
-27.4633
  0
LINE
  8
0
 10
16.7054
 20
-27.4633
 11
16.6188
 21
-27.5133
  0
LINE
  8
0
 10
16.6188
 20
-27.5133
 11
16.5293
 21
-27.5577
  0
LINE
  8
0
 10
16.5293
 20
-27.5577
 11
16.4371
 21
-27.5963
  0
LINE
  8
0
 10
16.4371
 20
-27.5963
 11
16.3426
 21
-27.629
  0
LINE
  8
0
 10
16.3426
 20
-27.629
 11
16.2463
 21
-27.6556
  0
LINE
  8
0
 10
16.2463
 20
-27.6556
 11
16.1485
 21
-27.6761
  0
LINE
  8
0
 10
16.1485
 20
-27.6761
 11
16.0496
 21
-27.6903
  0
LINE
  8
0
 10
16.0496
 20
-27.6903
 11
15.9499
 21
-27.6982
  0
LINE
  8
0
 10
15.9499
 20
-27.6982
 11
15.85
 21
-27.6998
  0
LINE
  8
0
 10
15.85
 20
-27.6998
 11
15.7502
 21
-27.6951
  0
LINE
  8
0
 10
-0.13089
 20
-56.9994
 11
-0.26178
 21
-56.9977
  0
LINE
  8
0
 10
-0.26178
 20
-56.9977
 11
-0.392639
 21
-56.9949
  0
LINE
  8
0
 10
-0.392639
 20
-56.9949
 11
-0.523483
 21
-56.9909
  0
LINE
  8
0
 10
-0.523483
 20
-56.9909
 11
-0.654282
 21
-56.9857
  0
LINE
  8
0
 10
-0.654282
 20
-56.9857
 11
-0.785034
 21
-56.9794
  0
LINE
  8
0
 10
-0.785034
 20
-56.9794
 11
-0.915726
 21
-56.972
  0
LINE
  8
0
 10
-0.915726
 20
-56.972
 11
-1.04634
 21
-56.9635
  0
LINE
  8
0
 10
-1.04634
 20
-56.9635
 11
-1.17688
 21
-56.9538
  0
LINE
  8
0
 10
-1.17688
 20
-56.9538
 11
-1.30733
 21
-56.9429
  0
LINE
  8
0
 10
-1.30733
 20
-56.9429
 11
-1.43768
 21
-56.9309
  0
LINE
  8
0
 10
-1.43768
 20
-56.9309
 11
-1.56792
 21
-56.9178
  0
LINE
  8
0
 10
-1.56792
 20
-56.9178
 11
-1.69804
 21
-56.9036
  0
LINE
  8
0
 10
-1.69804
 20
-56.9036
 11
-1.82803
 21
-56.8882
  0
LINE
  8
0
 10
-1.82803
 20
-56.8882
 11
-1.95789
 21
-56.8717
  0
LINE
  8
0
 10
-1.95789
 20
-56.8717
 11
-2.08759
 21
-56.854
  0
LINE
  8
0
 10
-2.08759
 20
-56.854
 11
-2.21713
 21
-56.8352
  0
LINE
  8
0
 10
-2.21713
 20
-56.8352
 11
-2.34651
 21
-56.8153
  0
LINE
  8
0
 10
-2.34651
 20
-56.8153
 11
-2.47571
 21
-56.7943
  0
LINE
  8
0
 10
-2.47571
 20
-56.7943
 11
-2.60472
 21
-56.7721
  0
LINE
  8
0
 10
-2.60472
 20
-56.7721
 11
-2.73352
 21
-56.7488
  0
LINE
  8
0
 10
-2.73352
 20
-56.7488
 11
-2.86212
 21
-56.7244
  0
LINE
  8
0
 10
-2.86212
 20
-56.7244
 11
-2.99051
 21
-56.6989
  0
LINE
  8
0
 10
-2.99051
 20
-56.6989
 11
-3.11867
 21
-56.6722
  0
LINE
  8
0
 10
-3.11867
 20
-56.6722
 11
-3.24658
 21
-56.6444
  0
LINE
  8
0
 10
-3.24658
 20
-56.6444
 11
-3.37425
 21
-56.6155
  0
LINE
  8
0
 10
-3.37425
 20
-56.6155
 11
-3.50168
 21
-56.5855
  0
LINE
  8
0
 10
-3.50168
 20
-56.5855
 11
-3.62881
 21
-56.5544
  0
LINE
  8
0
 10
-3.62881
 20
-56.5544
 11
-3.75569
 21
-56.5222
  0
LINE
  8
0
 10
-3.75569
 20
-56.5222
 11
-3.88228
 21
-56.4889
  0
LINE
  8
0
 10
-3.88228
 20
-56.4889
 11
-4.00858
 21
-56.4545
  0
LINE
  8
0
 10
-4.00858
 20
-56.4545
 11
-4.13455
 21
-56.4189
  0
LINE
  8
0
 10
-4.13455
 20
-56.4189
 11
-4.26022
 21
-56.3823
  0
LINE
  8
0
 10
-4.26022
 20
-56.3823
 11
-4.38557
 21
-56.3446
  0
LINE
  8
0
 10
-4.38557
 20
-56.3446
 11
-4.51057
 21
-56.3057
  0
LINE
  8
0
 10
-4.51057
 20
-56.3057
 11
-4.63525
 21
-56.2658
  0
LINE
  8
0
 10
-4.63525
 20
-56.2658
 11
-4.75957
 21
-56.2249
  0
LINE
  8
0
 10
-4.75957
 20
-56.2249
 11
-4.88351
 21
-56.1828
  0
LINE
  8
0
 10
-4.88351
 20
-56.1828
 11
-5.0071
 21
-56.1396
  0
LINE
  8
0
 10
-5.0071
 20
-56.1396
 11
-5.13029
 21
-56.0954
  0
LINE
  8
0
 10
-5.13029
 20
-56.0954
 11
-5.2531
 21
-56.0501
  0
LINE
  8
0
 10
-5.2531
 20
-56.0501
 11
-5.37552
 21
-56.0037
  0
LINE
  8
0
 10
-5.37552
 20
-56.0037
 11
-5.49751
 21
-55.9563
  0
LINE
  8
0
 10
-5.49751
 20
-55.9563
 11
-5.61909
 21
-55.9077
  0
LINE
  8
0
 10
-5.61909
 20
-55.9077
 11
-5.74025
 21
-55.8582
  0
LINE
  8
0
 10
-5.74025
 20
-55.8582
 11
-5.86096
 21
-55.8076
  0
LINE
  8
0
 10
-5.86096
 20
-55.8076
 11
-5.98123
 21
-55.7559
  0
LINE
  8
0
 10
-5.98123
 20
-55.7559
 11
-6.10104
 21
-55.7032
  0
LINE
  8
0
 10
-6.10104
 20
-55.7032
 11
-6.2204
 21
-55.6494
  0
LINE
  8
0
 10
-6.2204
 20
-55.6494
 11
-6.33926
 21
-55.5946
  0
LINE
  8
0
 10
-6.33926
 20
-55.5946
 11
-6.45766
 21
-55.5388
  0
LINE
  8
0
 10
-6.45766
 20
-55.5388
 11
-6.57556
 21
-55.4819
  0
LINE
  8
0
 10
-6.57556
 20
-55.4819
 11
-6.69296
 21
-55.424
  0
LINE
  8
0
 10
-6.69296
 20
-55.424
 11
-6.80984
 21
-55.3651
  0
LINE
  8
0
 10
-6.80984
 20
-55.3651
 11
-6.92622
 21
-55.3052
  0
LINE
  8
0
 10
-6.92622
 20
-55.3052
 11
-7.04207
 21
-55.2442
  0
LINE
  8
0
 10
-7.04207
 20
-55.2442
 11
-7.15738
 21
-55.1823
  0
LINE
  8
0
 10
-7.15738
 20
-55.1823
 11
-7.27214
 21
-55.1193
  0
LINE
  8
0
 10
-7.27214
 20
-55.1193
 11
-7.38635
 21
-55.0553
  0
LINE
  8
0
 10
-7.38635
 20
-55.0553
 11
-7.5
 21
-54.9904
  0
LINE
  8
0
 10
-7.5
 20
-54.9904
 11
-7.61307
 21
-54.9244
  0
LINE
  8
0
 10
-7.61307
 20
-54.9244
 11
-7.72557
 21
-54.8575
  0
LINE
  8
0
 10
-7.72557
 20
-54.8575
 11
-7.83746
 21
-54.7896
  0
LINE
  8
0
 10
-7.83746
 20
-54.7896
 11
-7.94878
 21
-54.7207
  0
LINE
  8
0
 10
-7.94878
 20
-54.7207
 11
-8.05949
 21
-54.6509
  0
LINE
  8
0
 10
-8.05949
 20
-54.6509
 11
-8.16957
 21
-54.58
  0
LINE
  8
0
 10
-8.16957
 20
-54.58
 11
-8.27905
 21
-54.5083
  0
LINE
  8
0
 10
-8.27905
 20
-54.5083
 11
-8.38788
 21
-54.4356
  0
LINE
  8
0
 10
-8.38788
 20
-54.4356
 11
-8.49608
 21
-54.3619
  0
LINE
  8
0
 10
-8.49608
 20
-54.3619
 11
-8.60364
 21
-54.2873
  0
LINE
  8
0
 10
-8.60364
 20
-54.2873
 11
-8.71054
 21
-54.2117
  0
LINE
  8
0
 10
-8.71054
 20
-54.2117
 11
-8.81677
 21
-54.1353
  0
LINE
  8
0
 10
-8.81677
 20
-54.1353
 11
-8.92233
 21
-54.0578
  0
LINE
  8
0
 10
-8.92233
 20
-54.0578
 11
-9.02722
 21
-53.9795
  0
LINE
  8
0
 10
-9.02722
 20
-53.9795
 11
-9.13141
 21
-53.9003
  0
LINE
  8
0
 10
-9.13141
 20
-53.9003
 11
-9.23491
 21
-53.8202
  0
LINE
  8
0
 10
-9.23491
 20
-53.8202
 11
-9.33771
 21
-53.7391
  0
LINE
  8
0
 10
-9.33771
 20
-53.7391
 11
-9.4398
 21
-53.6572
  0
LINE
  8
0
 10
-9.4398
 20
-53.6572
 11
-9.54117
 21
-53.5744
  0
LINE
  8
0
 10
-9.54117
 20
-53.5744
 11
-9.6418
 21
-53.4907
  0
LINE
  8
0
 10
-9.6418
 20
-53.4907
 11
-9.74171
 21
-53.4061
  0
LINE
  8
0
 10
-9.74171
 20
-53.4061
 11
-9.84088
 21
-53.3206
  0
LINE
  8
0
 10
-9.84088
 20
-53.3206
 11
-9.9393
 21
-53.2343
  0
LINE
  8
0
 10
-9.9393
 20
-53.2343
 11
-10.037
 21
-53.1472
  0
LINE
  8
0
 10
-10.037
 20
-53.1472
 11
-10.1339
 21
-53.0592
  0
LINE
  8
0
 10
-10.1339
 20
-53.0592
 11
-10.23
 21
-52.9703
  0
LINE
  8
0
 10
-10.23
 20
-52.9703
 11
-10.3253
 21
-52.8806
  0
LINE
  8
0
 10
-10.3253
 20
-52.8806
 11
-10.4199
 21
-52.7901
  0
LINE
  8
0
 10
-10.4199
 20
-52.7901
 11
-10.5136
 21
-52.6987
  0
LINE
  8
0
 10
-10.5136
 20
-52.6987
 11
-10.6066
 21
-52.6066
  0
LINE
  8
0
 10
-10.6066
 20
-52.6066
 11
-10.6987
 21
-52.5136
  0
LINE
  8
0
 10
-10.6987
 20
-52.5136
 11
-10.7901
 21
-52.4199
  0
LINE
  8
0
 10
-10.7901
 20
-52.4199
 11
-10.8806
 21
-52.3253
  0
LINE
  8
0
 10
-10.8806
 20
-52.3253
 11
-10.9703
 21
-52.23
  0
LINE
  8
0
 10
-10.9703
 20
-52.23
 11
-11.0592
 21
-52.1339
  0
LINE
  8
0
 10
-11.0592
 20
-52.1339
 11
-11.1472
 21
-52.037
  0
LINE
  8
0
 10
-11.1472
 20
-52.037
 11
-11.2343
 21
-51.9393
  0
LINE
  8
0
 10
-11.2343
 20
-51.9393
 11
-11.3206
 21
-51.8409
  0
LINE
  8
0
 10
-11.3206
 20
-51.8409
 11
-11.4061
 21
-51.7417
  0
LINE
  8
0
 10
-11.4061
 20
-51.7417
 11
-11.4907
 21
-51.6418
  0
LINE
  8
0
 10
-11.4907
 20
-51.6418
 11
-11.5744
 21
-51.5412
  0
LINE
  8
0
 10
-11.5744
 20
-51.5412
 11
-11.6572
 21
-51.4398
  0
LINE
  8
0
 10
-11.6572
 20
-51.4398
 11
-11.7391
 21
-51.3377
  0
LINE
  8
0
 10
-11.7391
 20
-51.3377
 11
-11.8202
 21
-51.2349
  0
LINE
  8
0
 10
-11.8202
 20
-51.2349
 11
-11.9003
 21
-51.1314
  0
LINE
  8
0
 10
-11.9003
 20
-51.1314
 11
-11.9795
 21
-51.0272
  0
LINE
  8
0
 10
-11.9795
 20
-51.0272
 11
-12.0578
 21
-50.9223
  0
LINE
  8
0
 10
-12.0578
 20
-50.9223
 11
-12.1353
 21
-50.8168
  0
LINE
  8
0
 10
-12.1353
 20
-50.8168
 11
-12.2117
 21
-50.7105
  0
LINE
  8
0
 10
-12.2117
 20
-50.7105
 11
-12.2873
 21
-50.6036
  0
LINE
  8
0
 10
-12.2873
 20
-50.6036
 11
-12.3619
 21
-50.4961
  0
LINE
  8
0
 10
-12.3619
 20
-50.4961
 11
-12.4356
 21
-50.3879
  0
LINE
  8
0
 10
-12.4356
 20
-50.3879
 11
-12.5083
 21
-50.2791
  0
LINE
  8
0
 10
-12.5083
 20
-50.2791
 11
-12.58
 21
-50.1696
  0
LINE
  8
0
 10
-12.58
 20
-50.1696
 11
-12.6509
 21
-50.0595
  0
LINE
  8
0
 10
-12.6509
 20
-50.0595
 11
-12.7207
 21
-49.9488
  0
LINE
  8
0
 10
-12.7207
 20
-49.9488
 11
-12.7896
 21
-49.8375
  0
LINE
  8
0
 10
-12.7896
 20
-49.8375
 11
-12.8575
 21
-49.7256
  0
LINE
  8
0
 10
-12.8575
 20
-49.7256
 11
-12.9244
 21
-49.6131
  0
LINE
  8
0
 10
-12.9244
 20
-49.6131
 11
-12.9904
 21
-49.5
  0
LINE
  8
0
 10
-12.9904
 20
-49.5
 11
-13.0553
 21
-49.3864
  0
LINE
  8
0
 10
-13.0553
 20
-49.3864
 11
-13.1193
 21
-49.2721
  0
LINE
  8
0
 10
-13.1193
 20
-49.2721
 11
-13.1823
 21
-49.1574
  0
LINE
  8
0
 10
-13.1823
 20
-49.1574
 11
-13.2442
 21
-49.0421
  0
LINE
  8
0
 10
-13.2442
 20
-49.0421
 11
-13.3052
 21
-48.9262
  0
LINE
  8
0
 10
-13.3052
 20
-48.9262
 11
-13.3651
 21
-48.8098
  0
LINE
  8
0
 10
-13.3651
 20
-48.8098
 11
-13.424
 21
-48.693
  0
LINE
  8
0
 10
-13.424
 20
-48.693
 11
-13.4819
 21
-48.5756
  0
LINE
  8
0
 10
-13.4819
 20
-48.5756
 11
-13.5388
 21
-48.4577
  0
LINE
  8
0
 10
-13.5388
 20
-48.4577
 11
-13.5946
 21
-48.3393
  0
LINE
  8
0
 10
-13.5946
 20
-48.3393
 11
-13.6494
 21
-48.2204
  0
LINE
  8
0
 10
-13.6494
 20
-48.2204
 11
-13.7032
 21
-48.101
  0
LINE
  8
0
 10
-13.7032
 20
-48.101
 11
-13.7559
 21
-47.9812
  0
LINE
  8
0
 10
-13.7559
 20
-47.9812
 11
-13.8076
 21
-47.861
  0
LINE
  8
0
 10
-13.8076
 20
-47.861
 11
-13.8582
 21
-47.7402
  0
LINE
  8
0
 10
-13.8582
 20
-47.7402
 11
-13.9077
 21
-47.6191
  0
LINE
  8
0
 10
-13.9077
 20
-47.6191
 11
-13.9563
 21
-47.4975
  0
LINE
  8
0
 10
-13.9563
 20
-47.4975
 11
-14.0037
 21
-47.3755
  0
LINE
  8
0
 10
-14.0037
 20
-47.3755
 11
-14.0501
 21
-47.2531
  0
LINE
  8
0
 10
-14.0501
 20
-47.2531
 11
-14.0954
 21
-47.1303
  0
LINE
  8
0
 10
-14.0954
 20
-47.1303
 11
-14.1396
 21
-47.0071
  0
LINE
  8
0
 10
-14.1396
 20
-47.0071
 11
-14.1828
 21
-46.8835
  0
LINE
  8
0
 10
-14.1828
 20
-46.8835
 11
-14.2249
 21
-46.7596
  0
LINE
  8
0
 10
-14.2249
 20
-46.7596
 11
-14.2658
 21
-46.6353
  0
LINE
  8
0
 10
-14.2658
 20
-46.6353
 11
-14.3057
 21
-46.5106
  0
LINE
  8
0
 10
-14.3057
 20
-46.5106
 11
-14.3446
 21
-46.3856
  0
LINE
  8
0
 10
-14.3446
 20
-46.3856
 11
-14.3823
 21
-46.2602
  0
LINE
  8
0
 10
-14.3823
 20
-46.2602
 11
-14.4189
 21
-46.1346
  0
LINE
  8
0
 10
-14.4189
 20
-46.1346
 11
-14.4545
 21
-46.0086
  0
LINE
  8
0
 10
-14.4545
 20
-46.0086
 11
-14.4889
 21
-45.8823
  0
LINE
  8
0
 10
-14.4889
 20
-45.8823
 11
-14.5222
 21
-45.7557
  0
LINE
  8
0
 10
-14.5222
 20
-45.7557
 11
-14.5544
 21
-45.6288
  0
LINE
  8
0
 10
-14.5544
 20
-45.6288
 11
-14.5855
 21
-45.5017
  0
LINE
  8
0
 10
-14.5855
 20
-45.5017
 11
-14.6155
 21
-45.3743
  0
LINE
  8
0
 10
-14.6155
 20
-45.3743
 11
-14.6444
 21
-45.2466
  0
LINE
  8
0
 10
-14.6444
 20
-45.2466
 11
-14.6722
 21
-45.1187
  0
LINE
  8
0
 10
-14.6722
 20
-45.1187
 11
-14.6989
 21
-44.9905
  0
LINE
  8
0
 10
-14.6989
 20
-44.9905
 11
-14.7244
 21
-44.8621
  0
LINE
  8
0
 10
-14.7244
 20
-44.8621
 11
-14.7488
 21
-44.7335
  0
LINE
  8
0
 10
-14.7488
 20
-44.7335
 11
-14.7721
 21
-44.6047
  0
LINE
  8
0
 10
-14.7721
 20
-44.6047
 11
-14.7943
 21
-44.4757
  0
LINE
  8
0
 10
-14.7943
 20
-44.4757
 11
-14.8153
 21
-44.3465
  0
LINE
  8
0
 10
-14.8153
 20
-44.3465
 11
-14.8352
 21
-44.2171
  0
LINE
  8
0
 10
-14.8352
 20
-44.2171
 11
-14.854
 21
-44.0876
  0
LINE
  8
0
 10
-14.854
 20
-44.0876
 11
-14.8717
 21
-43.9579
  0
LINE
  8
0
 10
-14.8717
 20
-43.9579
 11
-14.8882
 21
-43.828
  0
LINE
  8
0
 10
-14.8882
 20
-43.828
 11
-14.9036
 21
-43.698
  0
LINE
  8
0
 10
-14.9036
 20
-43.698
 11
-14.9178
 21
-43.5679
  0
LINE
  8
0
 10
-14.9178
 20
-43.5679
 11
-14.9309
 21
-43.4377
  0
LINE
  8
0
 10
-14.9309
 20
-43.4377
 11
-14.9429
 21
-43.3073
  0
LINE
  8
0
 10
-14.9429
 20
-43.3073
 11
-14.9538
 21
-43.1769
  0
LINE
  8
0
 10
-14.9538
 20
-43.1769
 11
-14.9635
 21
-43.0463
  0
LINE
  8
0
 10
-14.9635
 20
-43.0463
 11
-14.972
 21
-42.9157
  0
LINE
  8
0
 10
-14.972
 20
-42.9157
 11
-14.9794
 21
-42.785
  0
LINE
  8
0
 10
-14.9794
 20
-42.785
 11
-14.9857
 21
-42.6543
  0
LINE
  8
0
 10
-14.9857
 20
-42.6543
 11
-14.9909
 21
-42.5235
  0
LINE
  8
0
 10
-14.9909
 20
-42.5235
 11
-14.9949
 21
-42.3926
  0
LINE
  8
0
 10
-14.9949
 20
-42.3926
 11
-14.9977
 21
-42.2618
  0
LINE
  8
0
 10
-14.9977
 20
-42.2618
 11
-14.9994
 21
-42.1309
  0
LINE
  8
0
 10
-14.9994
 20
-42.1309
 11
-15
 21
-42
  0
LINE
  8
0
 10
-15
 20
-42
 11
-14.9994
 21
-41.8691
  0
LINE
  8
0
 10
-14.9994
 20
-41.8691
 11
-14.9977
 21
-41.7382
  0
LINE
  8
0
 10
-14.9977
 20
-41.7382
 11
-14.9949
 21
-41.6073
  0
LINE
  8
0
 10
-14.9949
 20
-41.6073
 11
-14.9909
 21
-41.4765
  0
LINE
  8
0
 10
-14.9909
 20
-41.4765
 11
-14.9857
 21
-41.3457
  0
LINE
  8
0
 10
-14.9857
 20
-41.3457
 11
-14.9794
 21
-41.215
  0
LINE
  8
0
 10
-14.9794
 20
-41.215
 11
-14.972
 21
-41.0843
  0
LINE
  8
0
 10
-14.972
 20
-41.0843
 11
-14.9635
 21
-40.9536
  0
LINE
  8
0
 10
-14.9635
 20
-40.9536
 11
-14.9538
 21
-40.8231
  0
LINE
  8
0
 10
-14.9538
 20
-40.8231
 11
-14.9429
 21
-40.6927
  0
LINE
  8
0
 10
-14.9429
 20
-40.6927
 11
-14.9309
 21
-40.5623
  0
LINE
  8
0
 10
-14.9309
 20
-40.5623
 11
-14.9178
 21
-40.4321
  0
LINE
  8
0
 10
-14.9178
 20
-40.4321
 11
-14.9036
 21
-40.3019
  0
LINE
  8
0
 10
-14.9036
 20
-40.3019
 11
-14.8882
 21
-40.172
  0
LINE
  8
0
 10
-14.8882
 20
-40.172
 11
-14.8717
 21
-40.0421
  0
LINE
  8
0
 10
-14.8717
 20
-40.0421
 11
-14.854
 21
-39.9124
  0
LINE
  8
0
 10
-14.854
 20
-39.9124
 11
-14.8352
 21
-39.7829
  0
LINE
  8
0
 10
-14.8352
 20
-39.7829
 11
-14.8153
 21
-39.6535
  0
LINE
  8
0
 10
-14.8153
 20
-39.6535
 11
-14.7943
 21
-39.5243
  0
LINE
  8
0
 10
-14.7943
 20
-39.5243
 11
-14.7721
 21
-39.3953
  0
LINE
  8
0
 10
-14.7721
 20
-39.3953
 11
-14.7488
 21
-39.2665
  0
LINE
  8
0
 10
-14.7488
 20
-39.2665
 11
-14.7244
 21
-39.1379
  0
LINE
  8
0
 10
-14.7244
 20
-39.1379
 11
-14.6989
 21
-39.0095
  0
LINE
  8
0
 10
-14.6989
 20
-39.0095
 11
-14.6722
 21
-38.8813
  0
LINE
  8
0
 10
-14.6722
 20
-38.8813
 11
-14.6444
 21
-38.7534
  0
LINE
  8
0
 10
-14.6444
 20
-38.7534
 11
-14.6155
 21
-38.6257
  0
LINE
  8
0
 10
-14.6155
 20
-38.6257
 11
-14.5855
 21
-38.4983
  0
LINE
  8
0
 10
-14.5855
 20
-38.4983
 11
-14.5544
 21
-38.3712
  0
LINE
  8
0
 10
-14.5544
 20
-38.3712
 11
-14.5222
 21
-38.2443
  0
LINE
  8
0
 10
-14.5222
 20
-38.2443
 11
-14.4889
 21
-38.1177
  0
LINE
  8
0
 10
-14.4889
 20
-38.1177
 11
-14.4545
 21
-37.9914
  0
LINE
  8
0
 10
-14.4545
 20
-37.9914
 11
-14.4189
 21
-37.8654
  0
LINE
  8
0
 10
-14.4189
 20
-37.8654
 11
-14.3823
 21
-37.7398
  0
LINE
  8
0
 10
-14.3823
 20
-37.7398
 11
-14.3446
 21
-37.6144
  0
LINE
  8
0
 10
-14.3446
 20
-37.6144
 11
-14.3057
 21
-37.4894
  0
LINE
  8
0
 10
-14.3057
 20
-37.4894
 11
-14.2658
 21
-37.3647
  0
LINE
  8
0
 10
-14.2658
 20
-37.3647
 11
-14.2249
 21
-37.2404
  0
LINE
  8
0
 10
-14.2249
 20
-37.2404
 11
-14.1828
 21
-37.1165
  0
LINE
  8
0
 10
-14.1828
 20
-37.1165
 11
-14.1396
 21
-36.9929
  0
LINE
  8
0
 10
-14.1396
 20
-36.9929
 11
-14.0954
 21
-36.8697
  0
LINE
  8
0
 10
-14.0954
 20
-36.8697
 11
-14.0501
 21
-36.7469
  0
LINE
  8
0
 10
-14.0501
 20
-36.7469
 11
-14.0037
 21
-36.6245
  0
LINE
  8
0
 10
-14.0037
 20
-36.6245
 11
-13.9563
 21
-36.5025
  0
LINE
  8
0
 10
-13.9563
 20
-36.5025
 11
-13.9077
 21
-36.3809
  0
LINE
  8
0
 10
-13.9077
 20
-36.3809
 11
-13.8582
 21
-36.2597
  0
LINE
  8
0
 10
-13.8582
 20
-36.2597
 11
-13.8076
 21
-36.139
  0
LINE
  8
0
 10
-13.8076
 20
-36.139
 11
-13.7559
 21
-36.0188
  0
LINE
  8
0
 10
-13.7559
 20
-36.0188
 11
-13.7032
 21
-35.8989
  0
LINE
  8
0
 10
-13.7032
 20
-35.8989
 11
-13.6494
 21
-35.7796
  0
LINE
  8
0
 10
-13.6494
 20
-35.7796
 11
-13.5946
 21
-35.6607
  0
LINE
  8
0
 10
-13.5946
 20
-35.6607
 11
-13.5388
 21
-35.5423
  0
LINE
  8
0
 10
-13.5388
 20
-35.5423
 11
-13.4819
 21
-35.4244
  0
LINE
  8
0
 10
-13.4819
 20
-35.4244
 11
-13.424
 21
-35.307
  0
LINE
  8
0
 10
-13.424
 20
-35.307
 11
-13.3651
 21
-35.1901
  0
LINE
  8
0
 10
-13.3651
 20
-35.1901
 11
-13.3052
 21
-35.0738
  0
LINE
  8
0
 10
-13.3052
 20
-35.0738
 11
-13.2442
 21
-34.9579
  0
LINE
  8
0
 10
-13.2442
 20
-34.9579
 11
-13.1823
 21
-34.8426
  0
LINE
  8
0
 10
-13.1823
 20
-34.8426
 11
-13.1193
 21
-34.7278
  0
LINE
  8
0
 10
-13.1193
 20
-34.7278
 11
-13.0553
 21
-34.6136
  0
LINE
  8
0
 10
-13.0553
 20
-34.6136
 11
-12.9904
 21
-34.5
  0
LINE
  8
0
 10
-12.9904
 20
-34.5
 11
-12.9244
 21
-34.3869
  0
LINE
  8
0
 10
-12.9244
 20
-34.3869
 11
-12.8575
 21
-34.2744
  0
LINE
  8
0
 10
-12.8575
 20
-34.2744
 11
-12.7896
 21
-34.1625
  0
LINE
  8
0
 10
-12.7896
 20
-34.1625
 11
-12.7207
 21
-34.0512
  0
LINE
  8
0
 10
-12.7207
 20
-34.0512
 11
-12.6509
 21
-33.9405
  0
LINE
  8
0
 10
-12.6509
 20
-33.9405
 11
-12.58
 21
-33.8304
  0
LINE
  8
0
 10
-12.58
 20
-33.8304
 11
-12.5083
 21
-33.7209
  0
LINE
  8
0
 10
-12.5083
 20
-33.7209
 11
-12.4356
 21
-33.6121
  0
LINE
  8
0
 10
-12.4356
 20
-33.6121
 11
-12.3619
 21
-33.5039
  0
LINE
  8
0
 10
-12.3619
 20
-33.5039
 11
-12.2873
 21
-33.3963
  0
LINE
  8
0
 10
-12.2873
 20
-33.3963
 11
-12.2117
 21
-33.2894
  0
LINE
  8
0
 10
-12.2117
 20
-33.2894
 11
-12.1353
 21
-33.1832
  0
LINE
  8
0
 10
-12.1353
 20
-33.1832
 11
-12.0578
 21
-33.0777
  0
LINE
  8
0
 10
-12.0578
 20
-33.0777
 11
-11.9795
 21
-32.9728
  0
LINE
  8
0
 10
-11.9795
 20
-32.9728
 11
-11.9003
 21
-32.8686
  0
LINE
  8
0
 10
-11.9003
 20
-32.8686
 11
-11.8202
 21
-32.7651
  0
LINE
  8
0
 10
-11.8202
 20
-32.7651
 11
-11.7391
 21
-32.6623
  0
LINE
  8
0
 10
-11.7391
 20
-32.6623
 11
-11.6572
 21
-32.5602
  0
LINE
  8
0
 10
-11.6572
 20
-32.5602
 11
-11.5744
 21
-32.4588
  0
LINE
  8
0
 10
-11.5744
 20
-32.4588
 11
-11.4907
 21
-32.3582
  0
LINE
  8
0
 10
-11.4907
 20
-32.3582
 11
-11.4061
 21
-32.2583
  0
LINE
  8
0
 10
-11.4061
 20
-32.2583
 11
-11.3206
 21
-32.1591
  0
LINE
  8
0
 10
-11.3206
 20
-32.1591
 11
-11.2343
 21
-32.0607
  0
LINE
  8
0
 10
-11.2343
 20
-32.0607
 11
-11.1472
 21
-31.963
  0
LINE
  8
0
 10
-11.1472
 20
-31.963
 11
-11.0592
 21
-31.8661
  0
LINE
  8
0
 10
-11.0592
 20
-31.8661
 11
-10.9703
 21
-31.77
  0
LINE
  8
0
 10
-10.9703
 20
-31.77
 11
-10.8806
 21
-31.6747
  0
LINE
  8
0
 10
-10.8806
 20
-31.6747
 11
-10.7901
 21
-31.5801
  0
LINE
  8
0
 10
-10.7901
 20
-31.5801
 11
-10.6987
 21
-31.4864
  0
LINE
  8
0
 10
-10.6987
 20
-31.4864
 11
-10.6066
 21
-31.3934
  0
LINE
  8
0
 10
-10.6066
 20
-31.3934
 11
-10.5136
 21
-31.3012
  0
LINE
  8
0
 10
-10.5136
 20
-31.3012
 11
-10.4199
 21
-31.2099
  0
LINE
  8
0
 10
-10.4199
 20
-31.2099
 11
-10.3253
 21
-31.1194
  0
LINE
  8
0
 10
-10.3253
 20
-31.1194
 11
-10.23
 21
-31.0297
  0
LINE
  8
0
 10
-10.23
 20
-31.0297
 11
-10.1339
 21
-30.9408
  0
LINE
  8
0
 10
-10.1339
 20
-30.9408
 11
-10.037
 21
-30.8528
  0
LINE
  8
0
 10
-10.037
 20
-30.8528
 11
-9.9393
 21
-30.7657
  0
LINE
  8
0
 10
-9.9393
 20
-30.7657
 11
-9.84088
 21
-30.6794
  0
LINE
  8
0
 10
-9.84088
 20
-30.6794
 11
-9.74171
 21
-30.5939
  0
LINE
  8
0
 10
-9.74171
 20
-30.5939
 11
-9.6418
 21
-30.5093
  0
LINE
  8
0
 10
-9.6418
 20
-30.5093
 11
-9.54117
 21
-30.4256
  0
LINE
  8
0
 10
-9.54117
 20
-30.4256
 11
-9.4398
 21
-30.3428
  0
LINE
  8
0
 10
-9.4398
 20
-30.3428
 11
-9.33771
 21
-30.2609
  0
LINE
  8
0
 10
-9.33771
 20
-30.2609
 11
-9.23491
 21
-30.1798
  0
LINE
  8
0
 10
-9.23491
 20
-30.1798
 11
-9.13141
 21
-30.0997
  0
LINE
  8
0
 10
-9.13141
 20
-30.0997
 11
-9.02722
 21
-30.0205
  0
LINE
  8
0
 10
-9.02722
 20
-30.0205
 11
-8.92233
 21
-29.9421
  0
LINE
  8
0
 10
-8.92233
 20
-29.9421
 11
-8.81677
 21
-29.8647
  0
LINE
  8
0
 10
-8.81677
 20
-29.8647
 11
-8.71054
 21
-29.7883
  0
LINE
  8
0
 10
-8.71054
 20
-29.7883
 11
-8.60364
 21
-29.7127
  0
LINE
  8
0
 10
-8.60364
 20
-29.7127
 11
-8.49608
 21
-29.6381
  0
LINE
  8
0
 10
-8.49608
 20
-29.6381
 11
-8.38788
 21
-29.5644
  0
LINE
  8
0
 10
-8.38788
 20
-29.5644
 11
-8.27905
 21
-29.4917
  0
LINE
  8
0
 10
-8.27905
 20
-29.4917
 11
-8.16957
 21
-29.4199
  0
LINE
  8
0
 10
-8.16957
 20
-29.4199
 11
-8.05949
 21
-29.3491
  0
LINE
  8
0
 10
-8.05949
 20
-29.3491
 11
-7.94878
 21
-29.2793
  0
LINE
  8
0
 10
-7.94878
 20
-29.2793
 11
-7.83746
 21
-29.2104
  0
LINE
  8
0
 10
-7.83746
 20
-29.2104
 11
-7.72557
 21
-29.1425
  0
LINE
  8
0
 10
-7.72557
 20
-29.1425
 11
-7.61307
 21
-29.0756
  0
LINE
  8
0
 10
-7.61307
 20
-29.0756
 11
-7.5
 21
-29.0096
  0
LINE
  8
0
 10
-7.5
 20
-29.0096
 11
-7.38635
 21
-28.9447
  0
LINE
  8
0
 10
-7.38635
 20
-28.9447
 11
-7.27214
 21
-28.8807
  0
LINE
  8
0
 10
-7.27214
 20
-28.8807
 11
-7.15738
 21
-28.8177
  0
LINE
  8
0
 10
-7.15738
 20
-28.8177
 11
-7.04207
 21
-28.7558
  0
LINE
  8
0
 10
-7.04207
 20
-28.7558
 11
-6.92622
 21
-28.6948
  0
LINE
  8
0
 10
-6.92622
 20
-28.6948
 11
-6.80984
 21
-28.6349
  0
LINE
  8
0
 10
-6.80984
 20
-28.6349
 11
-6.69296
 21
-28.576
  0
LINE
  8
0
 10
-6.69296
 20
-28.576
 11
-6.57556
 21
-28.5181
  0
LINE
  8
0
 10
-6.57556
 20
-28.5181
 11
-6.45766
 21
-28.4612
  0
LINE
  8
0
 10
-6.45766
 20
-28.4612
 11
-6.33926
 21
-28.4054
  0
LINE
  8
0
 10
-6.33926
 20
-28.4054
 11
-6.2204
 21
-28.3506
  0
LINE
  8
0
 10
-6.2204
 20
-28.3506
 11
-6.10104
 21
-28.2968
  0
LINE
  8
0
 10
-6.10104
 20
-28.2968
 11
-5.98123
 21
-28.2441
  0
LINE
  8
0
 10
-5.98123
 20
-28.2441
 11
-5.86096
 21
-28.1924
  0
LINE
  8
0
 10
-5.86096
 20
-28.1924
 11
-5.74025
 21
-28.1418
  0
LINE
  8
0
 10
-5.74025
 20
-28.1418
 11
-5.61909
 21
-28.0922
  0
LINE
  8
0
 10
-5.61909
 20
-28.0922
 11
-5.49751
 21
-28.0437
  0
LINE
  8
0
 10
-5.49751
 20
-28.0437
 11
-5.37552
 21
-27.9963
  0
LINE
  8
0
 10
-5.37552
 20
-27.9963
 11
-5.2531
 21
-27.9499
  0
LINE
  8
0
 10
-5.2531
 20
-27.9499
 11
-5.13029
 21
-27.9046
  0
LINE
  8
0
 10
-5.13029
 20
-27.9046
 11
-5.0071
 21
-27.8604
  0
LINE
  8
0
 10
-5.0071
 20
-27.8604
 11
-4.88351
 21
-27.8172
  0
LINE
  8
0
 10
-4.88351
 20
-27.8172
 11
-4.75957
 21
-27.7751
  0
LINE
  8
0
 10
-4.75957
 20
-27.7751
 11
-4.63525
 21
-27.7341
  0
LINE
  8
0
 10
-4.63525
 20
-27.7341
 11
-4.51057
 21
-27.6942
  0
LINE
  8
0
 10
-4.51057
 20
-27.6942
 11
-4.38557
 21
-27.6554
  0
LINE
  8
0
 10
-4.38557
 20
-27.6554
 11
-4.26022
 21
-27.6177
  0
LINE
  8
0
 10
-4.26022
 20
-27.6177
 11
-4.13455
 21
-27.5811
  0
LINE
  8
0
 10
-4.13455
 20
-27.5811
 11
-4.00858
 21
-27.5455
  0
LINE
  8
0
 10
-4.00858
 20
-27.5455
 11
-3.88228
 21
-27.5111
  0
LINE
  8
0
 10
-3.88228
 20
-27.5111
 11
-3.75569
 21
-27.4778
  0
LINE
  8
0
 10
-3.75569
 20
-27.4778
 11
-3.62881
 21
-27.4456
  0
LINE
  8
0
 10
-3.62881
 20
-27.4456
 11
-3.50168
 21
-27.4144
  0
LINE
  8
0
 10
-3.50168
 20
-27.4144
 11
-3.37425
 21
-27.3844
  0
LINE
  8
0
 10
-3.37425
 20
-27.3844
 11
-3.24658
 21
-27.3555
  0
LINE
  8
0
 10
-3.24658
 20
-27.3555
 11
-3.11867
 21
-27.3278
  0
LINE
  8
0
 10
-3.11867
 20
-27.3278
 11
-2.99051
 21
-27.3011
  0
LINE
  8
0
 10
-2.99051
 20
-27.3011
 11
-2.86212
 21
-27.2756
  0
LINE
  8
0
 10
-2.86212
 20
-27.2756
 11
-2.73352
 21
-27.2512
  0
LINE
  8
0
 10
-2.73352
 20
-27.2512
 11
-2.60472
 21
-27.2279
  0
LINE
  8
0
 10
-2.60472
 20
-27.2279
 11
-2.47571
 21
-27.2057
  0
LINE
  8
0
 10
-2.47571
 20
-27.2057
 11
-2.34651
 21
-27.1847
  0
LINE
  8
0
 10
-2.34651
 20
-27.1847
 11
-2.21713
 21
-27.1647
  0
LINE
  8
0
 10
-2.21713
 20
-27.1647
 11
-2.08759
 21
-27.146
  0
LINE
  8
0
 10
-2.08759
 20
-27.146
 11
-1.95789
 21
-27.1283
  0
LINE
  8
0
 10
-1.95789
 20
-27.1283
 11
-1.82803
 21
-27.1118
  0
LINE
  8
0
 10
-1.82803
 20
-27.1118
 11
-1.69804
 21
-27.0964
  0
LINE
  8
0
 10
-1.69804
 20
-27.0964
 11
-1.56792
 21
-27.0822
  0
LINE
  8
0
 10
-1.56792
 20
-27.0822
 11
-1.43768
 21
-27.069
  0
LINE
  8
0
 10
-1.43768
 20
-27.069
 11
-1.30733
 21
-27.0571
  0
LINE
  8
0
 10
-1.30733
 20
-27.0571
 11
-1.17688
 21
-27.0462
  0
LINE
  8
0
 10
-1.17688
 20
-27.0462
 11
-1.04634
 21
-27.0365
  0
LINE
  8
0
 10
-1.04634
 20
-27.0365
 11
-0.915726
 21
-27.028
  0
LINE
  8
0
 10
-0.915726
 20
-27.028
 11
-0.785034
 21
-27.0206
  0
LINE
  8
0
 10
-0.785034
 20
-27.0206
 11
-0.654282
 21
-27.0143
  0
LINE
  8
0
 10
-0.654282
 20
-27.0143
 11
-0.523483
 21
-27.0091
  0
LINE
  8
0
 10
-0.523483
 20
-27.0091
 11
-0.392639
 21
-27.0051
  0
LINE
  8
0
 10
-0.392639
 20
-27.0051
 11
-0.26178
 21
-27.0023
  0
LINE
  8
0
 10
-0.26178
 20
-27.0023
 11
-0.13089
 21
-27.0006
  0
LINE
  8
0
 10
-0.13089
 20
-27.0006
 11
0
 21
-27
  0
LINE
  8
0
 10
0
 20
-27
 11
0.13089
 21
-27.0006
  0
LINE
  8
0
 10
0.13089
 20
-27.0006
 11
0.26178
 21
-27.0023
  0
LINE
  8
0
 10
0.26178
 20
-27.0023
 11
0.392639
 21
-27.0051
  0
LINE
  8
0
 10
0.392639
 20
-27.0051
 11
0.523483
 21
-27.0091
  0
LINE
  8
0
 10
0.523483
 20
-27.0091
 11
0.654282
 21
-27.0143
  0
LINE
  8
0
 10
0.654282
 20
-27.0143
 11
0.785034
 21
-27.0206
  0
LINE
  8
0
 10
0.785034
 20
-27.0206
 11
0.915726
 21
-27.028
  0
LINE
  8
0
 10
0.915726
 20
-27.028
 11
1.04634
 21
-27.0365
  0
LINE
  8
0
 10
1.04634
 20
-27.0365
 11
1.17688
 21
-27.0462
  0
LINE
  8
0
 10
1.17688
 20
-27.0462
 11
1.30733
 21
-27.0571
  0
LINE
  8
0
 10
1.30733
 20
-27.0571
 11
1.43768
 21
-27.069
  0
LINE
  8
0
 10
1.43768
 20
-27.069
 11
1.56792
 21
-27.0822
  0
LINE
  8
0
 10
1.56792
 20
-27.0822
 11
1.69804
 21
-27.0964
  0
LINE
  8
0
 10
1.69804
 20
-27.0964
 11
1.82803
 21
-27.1118
  0
LINE
  8
0
 10
1.82803
 20
-27.1118
 11
1.95789
 21
-27.1283
  0
LINE
  8
0
 10
1.95789
 20
-27.1283
 11
2.08759
 21
-27.146
  0
LINE
  8
0
 10
2.08759
 20
-27.146
 11
2.21713
 21
-27.1647
  0
LINE
  8
0
 10
2.21713
 20
-27.1647
 11
2.34651
 21
-27.1847
  0
LINE
  8
0
 10
2.34651
 20
-27.1847
 11
2.47571
 21
-27.2057
  0
LINE
  8
0
 10
2.47571
 20
-27.2057
 11
2.60472
 21
-27.2279
  0
LINE
  8
0
 10
2.60472
 20
-27.2279
 11
2.73352
 21
-27.2512
  0
LINE
  8
0
 10
2.73352
 20
-27.2512
 11
2.86212
 21
-27.2756
  0
LINE
  8
0
 10
2.86212
 20
-27.2756
 11
2.99051
 21
-27.3011
  0
LINE
  8
0
 10
2.99051
 20
-27.3011
 11
3.11867
 21
-27.3278
  0
LINE
  8
0
 10
3.11867
 20
-27.3278
 11
3.24658
 21
-27.3555
  0
LINE
  8
0
 10
3.24658
 20
-27.3555
 11
3.37425
 21
-27.3844
  0
LINE
  8
0
 10
3.37425
 20
-27.3844
 11
3.50168
 21
-27.4144
  0
LINE
  8
0
 10
3.50168
 20
-27.4144
 11
3.62881
 21
-27.4456
  0
LINE
  8
0
 10
3.62881
 20
-27.4456
 11
3.75569
 21
-27.4778
  0
LINE
  8
0
 10
3.75569
 20
-27.4778
 11
3.88228
 21
-27.5111
  0
LINE
  8
0
 10
3.88228
 20
-27.5111
 11
4.00858
 21
-27.5455
  0
LINE
  8
0
 10
4.00858
 20
-27.5455
 11
4.13455
 21
-27.5811
  0
LINE
  8
0
 10
4.13455
 20
-27.5811
 11
4.26022
 21
-27.6177
  0
LINE
  8
0
 10
4.26022
 20
-27.6177
 11
4.38557
 21
-27.6554
  0
LINE
  8
0
 10
4.38557
 20
-27.6554
 11
4.51057
 21
-27.6942
  0
LINE
  8
0
 10
4.51057
 20
-27.6942
 11
4.63525
 21
-27.7341
  0
LINE
  8
0
 10
4.63525
 20
-27.7341
 11
4.75957
 21
-27.7751
  0
LINE
  8
0
 10
4.75957
 20
-27.7751
 11
4.88351
 21
-27.8172
  0
LINE
  8
0
 10
4.88351
 20
-27.8172
 11
5.0071
 21
-27.8604
  0
LINE
  8
0
 10
5.0071
 20
-27.8604
 11
5.13029
 21
-27.9046
  0
LINE
  8
0
 10
5.13029
 20
-27.9046
 11
5.2531
 21
-27.9499
  0
LINE
  8
0
 10
5.2531
 20
-27.9499
 11
5.37552
 21
-27.9963
  0
LINE
  8
0
 10
5.37552
 20
-27.9963
 11
5.49751
 21
-28.0437
  0
LINE
  8
0
 10
5.49751
 20
-28.0437
 11
5.61909
 21
-28.0922
  0
LINE
  8
0
 10
5.61909
 20
-28.0922
 11
5.74025
 21
-28.1418
  0
LINE
  8
0
 10
5.74025
 20
-28.1418
 11
5.86096
 21
-28.1924
  0
LINE
  8
0
 10
5.86096
 20
-28.1924
 11
5.98123
 21
-28.2441
  0
LINE
  8
0
 10
5.98123
 20
-28.2441
 11
6.10104
 21
-28.2968
  0
LINE
  8
0
 10
6.10104
 20
-28.2968
 11
6.2204
 21
-28.3506
  0
LINE
  8
0
 10
6.2204
 20
-28.3506
 11
6.33926
 21
-28.4054
  0
LINE
  8
0
 10
6.33926
 20
-28.4054
 11
6.45766
 21
-28.4612
  0
LINE
  8
0
 10
6.45766
 20
-28.4612
 11
6.57556
 21
-28.5181
  0
LINE
  8
0
 10
6.57556
 20
-28.5181
 11
6.69296
 21
-28.576
  0
LINE
  8
0
 10
6.69296
 20
-28.576
 11
6.80984
 21
-28.6349
  0
LINE
  8
0
 10
6.80984
 20
-28.6349
 11
6.92622
 21
-28.6948
  0
LINE
  8
0
 10
6.92622
 20
-28.6948
 11
7.04207
 21
-28.7558
  0
LINE
  8
0
 10
7.04207
 20
-28.7558
 11
7.15738
 21
-28.8177
  0
LINE
  8
0
 10
7.15738
 20
-28.8177
 11
7.27214
 21
-28.8807
  0
LINE
  8
0
 10
7.27214
 20
-28.8807
 11
7.38635
 21
-28.9447
  0
LINE
  8
0
 10
7.38635
 20
-28.9447
 11
7.5
 21
-29.0096
  0
LINE
  8
0
 10
7.5
 20
-29.0096
 11
7.61307
 21
-29.0756
  0
LINE
  8
0
 10
7.61307
 20
-29.0756
 11
7.72557
 21
-29.1425
  0
LINE
  8
0
 10
7.72557
 20
-29.1425
 11
7.83746
 21
-29.2104
  0
LINE
  8
0
 10
7.83746
 20
-29.2104
 11
7.94878
 21
-29.2793
  0
LINE
  8
0
 10
7.94878
 20
-29.2793
 11
8.05949
 21
-29.3491
  0
LINE
  8
0
 10
8.05949
 20
-29.3491
 11
8.16957
 21
-29.4199
  0
LINE
  8
0
 10
8.16957
 20
-29.4199
 11
8.27905
 21
-29.4917
  0
LINE
  8
0
 10
8.27905
 20
-29.4917
 11
8.38788
 21
-29.5644
  0
LINE
  8
0
 10
8.38788
 20
-29.5644
 11
8.49608
 21
-29.6381
  0
LINE
  8
0
 10
8.49608
 20
-29.6381
 11
8.60364
 21
-29.7127
  0
LINE
  8
0
 10
8.60364
 20
-29.7127
 11
8.71054
 21
-29.7883
  0
LINE
  8
0
 10
8.71054
 20
-29.7883
 11
8.81677
 21
-29.8647
  0
LINE
  8
0
 10
8.81677
 20
-29.8647
 11
8.92233
 21
-29.9421
  0
LINE
  8
0
 10
8.92233
 20
-29.9421
 11
9.02722
 21
-30.0205
  0
LINE
  8
0
 10
9.02722
 20
-30.0205
 11
9.13141
 21
-30.0997
  0
LINE
  8
0
 10
9.13141
 20
-30.0997
 11
9.23491
 21
-30.1798
  0
LINE
  8
0
 10
9.23491
 20
-30.1798
 11
9.33771
 21
-30.2609
  0
LINE
  8
0
 10
9.33771
 20
-30.2609
 11
9.4398
 21
-30.3428
  0
LINE
  8
0
 10
9.4398
 20
-30.3428
 11
9.54117
 21
-30.4256
  0
LINE
  8
0
 10
9.54117
 20
-30.4256
 11
9.6418
 21
-30.5093
  0
LINE
  8
0
 10
9.6418
 20
-30.5093
 11
9.74171
 21
-30.5939
  0
LINE
  8
0
 10
9.74171
 20
-30.5939
 11
9.84088
 21
-30.6794
  0
LINE
  8
0
 10
9.84088
 20
-30.6794
 11
9.9393
 21
-30.7657
  0
LINE
  8
0
 10
9.9393
 20
-30.7657
 11
10.037
 21
-30.8528
  0
LINE
  8
0
 10
10.037
 20
-30.8528
 11
10.1339
 21
-30.9408
  0
LINE
  8
0
 10
10.1339
 20
-30.9408
 11
10.23
 21
-31.0297
  0
LINE
  8
0
 10
10.23
 20
-31.0297
 11
10.3253
 21
-31.1194
  0
LINE
  8
0
 10
10.3253
 20
-31.1194
 11
10.4199
 21
-31.2099
  0
LINE
  8
0
 10
10.4199
 20
-31.2099
 11
10.5136
 21
-31.3012
  0
LINE
  8
0
 10
10.5136
 20
-31.3012
 11
10.6066
 21
-31.3934
  0
LINE
  8
0
 10
10.6066
 20
-31.3934
 11
10.6987
 21
-31.4864
  0
LINE
  8
0
 10
10.6987
 20
-31.4864
 11
10.7901
 21
-31.5801
  0
LINE
  8
0
 10
10.7901
 20
-31.5801
 11
10.8806
 21
-31.6747
  0
LINE
  8
0
 10
10.8806
 20
-31.6747
 11
10.9703
 21
-31.77
  0
LINE
  8
0
 10
10.9703
 20
-31.77
 11
11.0592
 21
-31.8661
  0
LINE
  8
0
 10
11.0592
 20
-31.8661
 11
11.1472
 21
-31.963
  0
LINE
  8
0
 10
11.1472
 20
-31.963
 11
11.2343
 21
-32.0607
  0
LINE
  8
0
 10
11.2343
 20
-32.0607
 11
11.3206
 21
-32.1591
  0
LINE
  8
0
 10
11.3206
 20
-32.1591
 11
11.4061
 21
-32.2583
  0
LINE
  8
0
 10
11.4061
 20
-32.2583
 11
11.4907
 21
-32.3582
  0
LINE
  8
0
 10
11.4907
 20
-32.3582
 11
11.5744
 21
-32.4588
  0
LINE
  8
0
 10
11.5744
 20
-32.4588
 11
11.6572
 21
-32.5602
  0
LINE
  8
0
 10
11.6572
 20
-32.5602
 11
11.7391
 21
-32.6623
  0
LINE
  8
0
 10
11.7391
 20
-32.6623
 11
11.8202
 21
-32.7651
  0
LINE
  8
0
 10
11.8202
 20
-32.7651
 11
11.9003
 21
-32.8686
  0
LINE
  8
0
 10
11.9003
 20
-32.8686
 11
11.9795
 21
-32.9728
  0
LINE
  8
0
 10
11.9795
 20
-32.9728
 11
12.0578
 21
-33.0777
  0
LINE
  8
0
 10
12.0578
 20
-33.0777
 11
12.1353
 21
-33.1832
  0
LINE
  8
0
 10
12.1353
 20
-33.1832
 11
12.2117
 21
-33.2894
  0
LINE
  8
0
 10
12.2117
 20
-33.2894
 11
12.2873
 21
-33.3963
  0
LINE
  8
0
 10
12.2873
 20
-33.3963
 11
12.3619
 21
-33.5039
  0
LINE
  8
0
 10
12.3619
 20
-33.5039
 11
12.4356
 21
-33.6121
  0
LINE
  8
0
 10
12.4356
 20
-33.6121
 11
12.5083
 21
-33.7209
  0
LINE
  8
0
 10
12.5083
 20
-33.7209
 11
12.58
 21
-33.8304
  0
LINE
  8
0
 10
12.58
 20
-33.8304
 11
12.6509
 21
-33.9405
  0
LINE
  8
0
 10
12.6509
 20
-33.9405
 11
12.7207
 21
-34.0512
  0
LINE
  8
0
 10
12.7207
 20
-34.0512
 11
12.7896
 21
-34.1625
  0
LINE
  8
0
 10
12.7896
 20
-34.1625
 11
12.8575
 21
-34.2744
  0
LINE
  8
0
 10
12.8575
 20
-34.2744
 11
12.9244
 21
-34.3869
  0
LINE
  8
0
 10
12.9244
 20
-34.3869
 11
12.9904
 21
-34.5
  0
LINE
  8
0
 10
12.9904
 20
-34.5
 11
13.0553
 21
-34.6136
  0
LINE
  8
0
 10
13.0553
 20
-34.6136
 11
13.1193
 21
-34.7278
  0
LINE
  8
0
 10
13.1193
 20
-34.7278
 11
13.1823
 21
-34.8426
  0
LINE
  8
0
 10
13.1823
 20
-34.8426
 11
13.2442
 21
-34.9579
  0
LINE
  8
0
 10
13.2442
 20
-34.9579
 11
13.3052
 21
-35.0738
  0
LINE
  8
0
 10
13.3052
 20
-35.0738
 11
13.3651
 21
-35.1901
  0
LINE
  8
0
 10
13.3651
 20
-35.1901
 11
13.424
 21
-35.307
  0
LINE
  8
0
 10
13.424
 20
-35.307
 11
13.4819
 21
-35.4244
  0
LINE
  8
0
 10
13.4819
 20
-35.4244
 11
13.5388
 21
-35.5423
  0
LINE
  8
0
 10
13.5388
 20
-35.5423
 11
13.5946
 21
-35.6607
  0
LINE
  8
0
 10
13.5946
 20
-35.6607
 11
13.6494
 21
-35.7796
  0
LINE
  8
0
 10
13.6494
 20
-35.7796
 11
13.7032
 21
-35.8989
  0
LINE
  8
0
 10
13.7032
 20
-35.8989
 11
13.7559
 21
-36.0188
  0
LINE
  8
0
 10
13.7559
 20
-36.0188
 11
13.8076
 21
-36.139
  0
LINE
  8
0
 10
13.8076
 20
-36.139
 11
13.8582
 21
-36.2597
  0
LINE
  8
0
 10
13.8582
 20
-36.2597
 11
13.9077
 21
-36.3809
  0
LINE
  8
0
 10
13.9077
 20
-36.3809
 11
13.9563
 21
-36.5025
  0
LINE
  8
0
 10
13.9563
 20
-36.5025
 11
14.0037
 21
-36.6245
  0
LINE
  8
0
 10
14.0037
 20
-36.6245
 11
14.0501
 21
-36.7469
  0
LINE
  8
0
 10
14.0501
 20
-36.7469
 11
14.0954
 21
-36.8697
  0
LINE
  8
0
 10
14.0954
 20
-36.8697
 11
14.1396
 21
-36.9929
  0
LINE
  8
0
 10
14.1396
 20
-36.9929
 11
14.1828
 21
-37.1165
  0
LINE
  8
0
 10
14.1828
 20
-37.1165
 11
14.2249
 21
-37.2404
  0
LINE
  8
0
 10
14.2249
 20
-37.2404
 11
14.2658
 21
-37.3647
  0
LINE
  8
0
 10
14.2658
 20
-37.3647
 11
14.3057
 21
-37.4894
  0
LINE
  8
0
 10
14.3057
 20
-37.4894
 11
14.3446
 21
-37.6144
  0
LINE
  8
0
 10
14.3446
 20
-37.6144
 11
14.3823
 21
-37.7398
  0
LINE
  8
0
 10
14.3823
 20
-37.7398
 11
14.4189
 21
-37.8654
  0
LINE
  8
0
 10
14.4189
 20
-37.8654
 11
14.4545
 21
-37.9914
  0
LINE
  8
0
 10
14.4545
 20
-37.9914
 11
14.4889
 21
-38.1177
  0
LINE
  8
0
 10
14.4889
 20
-38.1177
 11
14.5222
 21
-38.2443
  0
LINE
  8
0
 10
14.5222
 20
-38.2443
 11
14.5544
 21
-38.3712
  0
LINE
  8
0
 10
14.5544
 20
-38.3712
 11
14.5855
 21
-38.4983
  0
LINE
  8
0
 10
14.5855
 20
-38.4983
 11
14.6155
 21
-38.6257
  0
LINE
  8
0
 10
14.6155
 20
-38.6257
 11
14.6444
 21
-38.7534
  0
LINE
  8
0
 10
14.6444
 20
-38.7534
 11
14.6722
 21
-38.8813
  0
LINE
  8
0
 10
14.6722
 20
-38.8813
 11
14.6989
 21
-39.0095
  0
LINE
  8
0
 10
14.6989
 20
-39.0095
 11
14.7244
 21
-39.1379
  0
LINE
  8
0
 10
14.7244
 20
-39.1379
 11
14.7488
 21
-39.2665
  0
LINE
  8
0
 10
14.7488
 20
-39.2665
 11
14.7721
 21
-39.3953
  0
LINE
  8
0
 10
14.7721
 20
-39.3953
 11
14.7943
 21
-39.5243
  0
LINE
  8
0
 10
14.7943
 20
-39.5243
 11
14.8153
 21
-39.6535
  0
LINE
  8
0
 10
14.8153
 20
-39.6535
 11
14.8352
 21
-39.7829
  0
LINE
  8
0
 10
14.8352
 20
-39.7829
 11
14.854
 21
-39.9124
  0
LINE
  8
0
 10
14.854
 20
-39.9124
 11
14.8717
 21
-40.0421
  0
LINE
  8
0
 10
14.8717
 20
-40.0421
 11
14.8882
 21
-40.172
  0
LINE
  8
0
 10
14.8882
 20
-40.172
 11
14.9036
 21
-40.3019
  0
LINE
  8
0
 10
14.9036
 20
-40.3019
 11
14.9178
 21
-40.4321
  0
LINE
  8
0
 10
14.9178
 20
-40.4321
 11
14.9309
 21
-40.5623
  0
LINE
  8
0
 10
14.9309
 20
-40.5623
 11
14.9429
 21
-40.6927
  0
LINE
  8
0
 10
14.9429
 20
-40.6927
 11
14.9538
 21
-40.8231
  0
LINE
  8
0
 10
14.9538
 20
-40.8231
 11
14.9635
 21
-40.9536
  0
LINE
  8
0
 10
14.9635
 20
-40.9536
 11
14.972
 21
-41.0843
  0
LINE
  8
0
 10
14.972
 20
-41.0843
 11
14.9794
 21
-41.215
  0
LINE
  8
0
 10
14.9794
 20
-41.215
 11
14.9857
 21
-41.3457
  0
LINE
  8
0
 10
14.9857
 20
-41.3457
 11
14.9909
 21
-41.4765
  0
LINE
  8
0
 10
14.9909
 20
-41.4765
 11
14.9949
 21
-41.6073
  0
LINE
  8
0
 10
14.9949
 20
-41.6073
 11
14.9977
 21
-41.7382
  0
LINE
  8
0
 10
14.9977
 20
-41.7382
 11
14.9994
 21
-41.8691
  0
LINE
  8
0
 10
14.9994
 20
-41.8691
 11
15
 21
-42
  0
LINE
  8
0
 10
15
 20
-42
 11
14.9994
 21
-42.1309
  0
LINE
  8
0
 10
14.9994
 20
-42.1309
 11
14.9977
 21
-42.2618
  0
LINE
  8
0
 10
14.9977
 20
-42.2618
 11
14.9949
 21
-42.3926
  0
LINE
  8
0
 10
14.9949
 20
-42.3926
 11
14.9909
 21
-42.5235
  0
LINE
  8
0
 10
14.9909
 20
-42.5235
 11
14.9857
 21
-42.6543
  0
LINE
  8
0
 10
14.9857
 20
-42.6543
 11
14.9794
 21
-42.785
  0
LINE
  8
0
 10
14.9794
 20
-42.785
 11
14.972
 21
-42.9157
  0
LINE
  8
0
 10
14.972
 20
-42.9157
 11
14.9635
 21
-43.0463
  0
LINE
  8
0
 10
14.9635
 20
-43.0463
 11
14.9538
 21
-43.1769
  0
LINE
  8
0
 10
14.9538
 20
-43.1769
 11
14.9429
 21
-43.3073
  0
LINE
  8
0
 10
14.9429
 20
-43.3073
 11
14.9309
 21
-43.4377
  0
LINE
  8
0
 10
14.9309
 20
-43.4377
 11
14.9178
 21
-43.5679
  0
LINE
  8
0
 10
14.9178
 20
-43.5679
 11
14.9036
 21
-43.698
  0
LINE
  8
0
 10
14.9036
 20
-43.698
 11
14.8882
 21
-43.828
  0
LINE
  8
0
 10
14.8882
 20
-43.828
 11
14.8717
 21
-43.9579
  0
LINE
  8
0
 10
14.8717
 20
-43.9579
 11
14.854
 21
-44.0876
  0
LINE
  8
0
 10
14.854
 20
-44.0876
 11
14.8352
 21
-44.2171
  0
LINE
  8
0
 10
14.8352
 20
-44.2171
 11
14.8153
 21
-44.3465
  0
LINE
  8
0
 10
14.8153
 20
-44.3465
 11
14.7943
 21
-44.4757
  0
LINE
  8
0
 10
14.7943
 20
-44.4757
 11
14.7721
 21
-44.6047
  0
LINE
  8
0
 10
14.7721
 20
-44.6047
 11
14.7488
 21
-44.7335
  0
LINE
  8
0
 10
14.7488
 20
-44.7335
 11
14.7244
 21
-44.8621
  0
LINE
  8
0
 10
14.7244
 20
-44.8621
 11
14.6989
 21
-44.9905
  0
LINE
  8
0
 10
14.6989
 20
-44.9905
 11
14.6722
 21
-45.1187
  0
LINE
  8
0
 10
14.6722
 20
-45.1187
 11
14.6444
 21
-45.2466
  0
LINE
  8
0
 10
14.6444
 20
-45.2466
 11
14.6155
 21
-45.3743
  0
LINE
  8
0
 10
14.6155
 20
-45.3743
 11
14.5855
 21
-45.5017
  0
LINE
  8
0
 10
14.5855
 20
-45.5017
 11
14.5544
 21
-45.6288
  0
LINE
  8
0
 10
14.5544
 20
-45.6288
 11
14.5222
 21
-45.7557
  0
LINE
  8
0
 10
14.5222
 20
-45.7557
 11
14.4889
 21
-45.8823
  0
LINE
  8
0
 10
14.4889
 20
-45.8823
 11
14.4545
 21
-46.0086
  0
LINE
  8
0
 10
14.4545
 20
-46.0086
 11
14.4189
 21
-46.1346
  0
LINE
  8
0
 10
14.4189
 20
-46.1346
 11
14.3823
 21
-46.2602
  0
LINE
  8
0
 10
14.3823
 20
-46.2602
 11
14.3446
 21
-46.3856
  0
LINE
  8
0
 10
14.3446
 20
-46.3856
 11
14.3057
 21
-46.5106
  0
LINE
  8
0
 10
14.3057
 20
-46.5106
 11
14.2658
 21
-46.6353
  0
LINE
  8
0
 10
14.2658
 20
-46.6353
 11
14.2249
 21
-46.7596
  0
LINE
  8
0
 10
14.2249
 20
-46.7596
 11
14.1828
 21
-46.8835
  0
LINE
  8
0
 10
14.1828
 20
-46.8835
 11
14.1396
 21
-47.0071
  0
LINE
  8
0
 10
14.1396
 20
-47.0071
 11
14.0954
 21
-47.1303
  0
LINE
  8
0
 10
14.0954
 20
-47.1303
 11
14.0501
 21
-47.2531
  0
LINE
  8
0
 10
14.0501
 20
-47.2531
 11
14.0037
 21
-47.3755
  0
LINE
  8
0
 10
14.0037
 20
-47.3755
 11
13.9563
 21
-47.4975
  0
LINE
  8
0
 10
13.9563
 20
-47.4975
 11
13.9077
 21
-47.6191
  0
LINE
  8
0
 10
13.9077
 20
-47.6191
 11
13.8582
 21
-47.7402
  0
LINE
  8
0
 10
13.8582
 20
-47.7402
 11
13.8076
 21
-47.861
  0
LINE
  8
0
 10
13.8076
 20
-47.861
 11
13.7559
 21
-47.9812
  0
LINE
  8
0
 10
13.7559
 20
-47.9812
 11
13.7032
 21
-48.101
  0
LINE
  8
0
 10
13.7032
 20
-48.101
 11
13.6494
 21
-48.2204
  0
LINE
  8
0
 10
13.6494
 20
-48.2204
 11
13.5946
 21
-48.3393
  0
LINE
  8
0
 10
13.5946
 20
-48.3393
 11
13.5388
 21
-48.4577
  0
LINE
  8
0
 10
13.5388
 20
-48.4577
 11
13.4819
 21
-48.5756
  0
LINE
  8
0
 10
13.4819
 20
-48.5756
 11
13.424
 21
-48.693
  0
LINE
  8
0
 10
13.424
 20
-48.693
 11
13.3651
 21
-48.8098
  0
LINE
  8
0
 10
13.3651
 20
-48.8098
 11
13.3052
 21
-48.9262
  0
LINE
  8
0
 10
13.3052
 20
-48.9262
 11
13.2442
 21
-49.0421
  0
LINE
  8
0
 10
13.2442
 20
-49.0421
 11
13.1823
 21
-49.1574
  0
LINE
  8
0
 10
13.1823
 20
-49.1574
 11
13.1193
 21
-49.2721
  0
LINE
  8
0
 10
13.1193
 20
-49.2721
 11
13.0553
 21
-49.3864
  0
LINE
  8
0
 10
13.0553
 20
-49.3864
 11
12.9904
 21
-49.5
  0
LINE
  8
0
 10
12.9904
 20
-49.5
 11
12.9244
 21
-49.6131
  0
LINE
  8
0
 10
12.9244
 20
-49.6131
 11
12.8575
 21
-49.7256
  0
LINE
  8
0
 10
12.8575
 20
-49.7256
 11
12.7896
 21
-49.8375
  0
LINE
  8
0
 10
12.7896
 20
-49.8375
 11
12.7207
 21
-49.9488
  0
LINE
  8
0
 10
12.7207
 20
-49.9488
 11
12.6509
 21
-50.0595
  0
LINE
  8
0
 10
12.6509
 20
-50.0595
 11
12.58
 21
-50.1696
  0
LINE
  8
0
 10
12.58
 20
-50.1696
 11
12.5083
 21
-50.2791
  0
LINE
  8
0
 10
12.5083
 20
-50.2791
 11
12.4356
 21
-50.3879
  0
LINE
  8
0
 10
12.4356
 20
-50.3879
 11
12.3619
 21
-50.4961
  0
LINE
  8
0
 10
12.3619
 20
-50.4961
 11
12.2873
 21
-50.6036
  0
LINE
  8
0
 10
12.2873
 20
-50.6036
 11
12.2117
 21
-50.7105
  0
LINE
  8
0
 10
12.2117
 20
-50.7105
 11
12.1353
 21
-50.8168
  0
LINE
  8
0
 10
12.1353
 20
-50.8168
 11
12.0578
 21
-50.9223
  0
LINE
  8
0
 10
12.0578
 20
-50.9223
 11
11.9795
 21
-51.0272
  0
LINE
  8
0
 10
11.9795
 20
-51.0272
 11
11.9003
 21
-51.1314
  0
LINE
  8
0
 10
11.9003
 20
-51.1314
 11
11.8202
 21
-51.2349
  0
LINE
  8
0
 10
11.8202
 20
-51.2349
 11
11.7391
 21
-51.3377
  0
LINE
  8
0
 10
11.7391
 20
-51.3377
 11
11.6572
 21
-51.4398
  0
LINE
  8
0
 10
11.6572
 20
-51.4398
 11
11.5744
 21
-51.5412
  0
LINE
  8
0
 10
11.5744
 20
-51.5412
 11
11.4907
 21
-51.6418
  0
LINE
  8
0
 10
11.4907
 20
-51.6418
 11
11.4061
 21
-51.7417
  0
LINE
  8
0
 10
11.4061
 20
-51.7417
 11
11.3206
 21
-51.8409
  0
LINE
  8
0
 10
11.3206
 20
-51.8409
 11
11.2343
 21
-51.9393
  0
LINE
  8
0
 10
11.2343
 20
-51.9393
 11
11.1472
 21
-52.037
  0
LINE
  8
0
 10
11.1472
 20
-52.037
 11
11.0592
 21
-52.1339
  0
LINE
  8
0
 10
11.0592
 20
-52.1339
 11
10.9703
 21
-52.23
  0
LINE
  8
0
 10
10.9703
 20
-52.23
 11
10.8806
 21
-52.3253
  0
LINE
  8
0
 10
10.8806
 20
-52.3253
 11
10.7901
 21
-52.4199
  0
LINE
  8
0
 10
10.7901
 20
-52.4199
 11
10.6987
 21
-52.5136
  0
LINE
  8
0
 10
10.6987
 20
-52.5136
 11
10.6066
 21
-52.6066
  0
LINE
  8
0
 10
10.6066
 20
-52.6066
 11
10.5136
 21
-52.6987
  0
LINE
  8
0
 10
10.5136
 20
-52.6987
 11
10.4199
 21
-52.7901
  0
LINE
  8
0
 10
10.4199
 20
-52.7901
 11
10.3253
 21
-52.8806
  0
LINE
  8
0
 10
10.3253
 20
-52.8806
 11
10.23
 21
-52.9703
  0
LINE
  8
0
 10
10.23
 20
-52.9703
 11
10.1339
 21
-53.0592
  0
LINE
  8
0
 10
10.1339
 20
-53.0592
 11
10.037
 21
-53.1472
  0
LINE
  8
0
 10
10.037
 20
-53.1472
 11
9.9393
 21
-53.2343
  0
LINE
  8
0
 10
9.9393
 20
-53.2343
 11
9.84088
 21
-53.3206
  0
LINE
  8
0
 10
9.84088
 20
-53.3206
 11
9.74171
 21
-53.4061
  0
LINE
  8
0
 10
9.74171
 20
-53.4061
 11
9.6418
 21
-53.4907
  0
LINE
  8
0
 10
9.6418
 20
-53.4907
 11
9.54117
 21
-53.5744
  0
LINE
  8
0
 10
9.54117
 20
-53.5744
 11
9.4398
 21
-53.6572
  0
LINE
  8
0
 10
9.4398
 20
-53.6572
 11
9.33771
 21
-53.7391
  0
LINE
  8
0
 10
9.33771
 20
-53.7391
 11
9.23491
 21
-53.8202
  0
LINE
  8
0
 10
9.23491
 20
-53.8202
 11
9.13141
 21
-53.9003
  0
LINE
  8
0
 10
9.13141
 20
-53.9003
 11
9.02722
 21
-53.9795
  0
LINE
  8
0
 10
9.02722
 20
-53.9795
 11
8.92233
 21
-54.0578
  0
LINE
  8
0
 10
8.92233
 20
-54.0578
 11
8.81677
 21
-54.1353
  0
LINE
  8
0
 10
8.81677
 20
-54.1353
 11
8.71054
 21
-54.2117
  0
LINE
  8
0
 10
8.71054
 20
-54.2117
 11
8.60364
 21
-54.2873
  0
LINE
  8
0
 10
8.60364
 20
-54.2873
 11
8.49608
 21
-54.3619
  0
LINE
  8
0
 10
8.49608
 20
-54.3619
 11
8.38788
 21
-54.4356
  0
LINE
  8
0
 10
8.38788
 20
-54.4356
 11
8.27905
 21
-54.5083
  0
LINE
  8
0
 10
8.27905
 20
-54.5083
 11
8.16957
 21
-54.58
  0
LINE
  8
0
 10
8.16957
 20
-54.58
 11
8.05949
 21
-54.6509
  0
LINE
  8
0
 10
8.05949
 20
-54.6509
 11
7.94878
 21
-54.7207
  0
LINE
  8
0
 10
7.94878
 20
-54.7207
 11
7.83746
 21
-54.7896
  0
LINE
  8
0
 10
7.83746
 20
-54.7896
 11
7.72557
 21
-54.8575
  0
LINE
  8
0
 10
7.72557
 20
-54.8575
 11
7.61307
 21
-54.9244
  0
LINE
  8
0
 10
7.61307
 20
-54.9244
 11
7.5
 21
-54.9904
  0
LINE
  8
0
 10
7.5
 20
-54.9904
 11
7.38635
 21
-55.0553
  0
LINE
  8
0
 10
7.38635
 20
-55.0553
 11
7.27214
 21
-55.1193
  0
LINE
  8
0
 10
7.27214
 20
-55.1193
 11
7.15738
 21
-55.1823
  0
LINE
  8
0
 10
7.15738
 20
-55.1823
 11
7.04207
 21
-55.2442
  0
LINE
  8
0
 10
7.04207
 20
-55.2442
 11
6.92622
 21
-55.3052
  0
LINE
  8
0
 10
6.92622
 20
-55.3052
 11
6.80984
 21
-55.3651
  0
LINE
  8
0
 10
6.80984
 20
-55.3651
 11
6.69296
 21
-55.424
  0
LINE
  8
0
 10
6.69296
 20
-55.424
 11
6.57556
 21
-55.4819
  0
LINE
  8
0
 10
6.57556
 20
-55.4819
 11
6.45766
 21
-55.5388
  0
LINE
  8
0
 10
6.45766
 20
-55.5388
 11
6.33926
 21
-55.5946
  0
LINE
  8
0
 10
6.33926
 20
-55.5946
 11
6.2204
 21
-55.6494
  0
LINE
  8
0
 10
6.2204
 20
-55.6494
 11
6.10104
 21
-55.7032
  0
LINE
  8
0
 10
6.10104
 20
-55.7032
 11
5.98123
 21
-55.7559
  0
LINE
  8
0
 10
5.98123
 20
-55.7559
 11
5.86096
 21
-55.8076
  0
LINE
  8
0
 10
5.86096
 20
-55.8076
 11
5.74025
 21
-55.8582
  0
LINE
  8
0
 10
5.74025
 20
-55.8582
 11
5.61909
 21
-55.9077
  0
LINE
  8
0
 10
5.61909
 20
-55.9077
 11
5.49751
 21
-55.9563
  0
LINE
  8
0
 10
5.49751
 20
-55.9563
 11
5.37552
 21
-56.0037
  0
LINE
  8
0
 10
5.37552
 20
-56.0037
 11
5.2531
 21
-56.0501
  0
LINE
  8
0
 10
5.2531
 20
-56.0501
 11
5.13029
 21
-56.0954
  0
LINE
  8
0
 10
5.13029
 20
-56.0954
 11
5.0071
 21
-56.1396
  0
LINE
  8
0
 10
5.0071
 20
-56.1396
 11
4.88351
 21
-56.1828
  0
LINE
  8
0
 10
4.88351
 20
-56.1828
 11
4.75957
 21
-56.2249
  0
LINE
  8
0
 10
4.75957
 20
-56.2249
 11
4.63525
 21
-56.2658
  0
LINE
  8
0
 10
4.63525
 20
-56.2658
 11
4.51057
 21
-56.3057
  0
LINE
  8
0
 10
4.51057
 20
-56.3057
 11
4.38557
 21
-56.3446
  0
LINE
  8
0
 10
4.38557
 20
-56.3446
 11
4.26022
 21
-56.3823
  0
LINE
  8
0
 10
4.26022
 20
-56.3823
 11
4.13455
 21
-56.4189
  0
LINE
  8
0
 10
4.13455
 20
-56.4189
 11
4.00858
 21
-56.4545
  0
LINE
  8
0
 10
4.00858
 20
-56.4545
 11
3.88228
 21
-56.4889
  0
LINE
  8
0
 10
3.88228
 20
-56.4889
 11
3.75569
 21
-56.5222
  0
LINE
  8
0
 10
3.75569
 20
-56.5222
 11
3.62881
 21
-56.5544
  0
LINE
  8
0
 10
3.62881
 20
-56.5544
 11
3.50168
 21
-56.5855
  0
LINE
  8
0
 10
3.50168
 20
-56.5855
 11
3.37425
 21
-56.6155
  0
LINE
  8
0
 10
3.37425
 20
-56.6155
 11
3.24658
 21
-56.6444
  0
LINE
  8
0
 10
3.24658
 20
-56.6444
 11
3.11867
 21
-56.6722
  0
LINE
  8
0
 10
3.11867
 20
-56.6722
 11
2.99051
 21
-56.6989
  0
LINE
  8
0
 10
2.99051
 20
-56.6989
 11
2.86212
 21
-56.7244
  0
LINE
  8
0
 10
2.86212
 20
-56.7244
 11
2.73352
 21
-56.7488
  0
LINE
  8
0
 10
2.73352
 20
-56.7488
 11
2.60472
 21
-56.7721
  0
LINE
  8
0
 10
2.60472
 20
-56.7721
 11
2.47571
 21
-56.7943
  0
LINE
  8
0
 10
2.47571
 20
-56.7943
 11
2.34651
 21
-56.8153
  0
LINE
  8
0
 10
2.34651
 20
-56.8153
 11
2.21713
 21
-56.8352
  0
LINE
  8
0
 10
2.21713
 20
-56.8352
 11
2.08759
 21
-56.854
  0
LINE
  8
0
 10
2.08759
 20
-56.854
 11
1.95789
 21
-56.8717
  0
LINE
  8
0
 10
1.95789
 20
-56.8717
 11
1.82803
 21
-56.8882
  0
LINE
  8
0
 10
1.82803
 20
-56.8882
 11
1.69804
 21
-56.9036
  0
LINE
  8
0
 10
1.69804
 20
-56.9036
 11
1.56792
 21
-56.9178
  0
LINE
  8
0
 10
1.56792
 20
-56.9178
 11
1.43768
 21
-56.9309
  0
LINE
  8
0
 10
1.43768
 20
-56.9309
 11
1.30733
 21
-56.9429
  0
LINE
  8
0
 10
1.30733
 20
-56.9429
 11
1.17688
 21
-56.9538
  0
LINE
  8
0
 10
1.17688
 20
-56.9538
 11
1.04634
 21
-56.9635
  0
LINE
  8
0
 10
1.04634
 20
-56.9635
 11
0.915726
 21
-56.972
  0
LINE
  8
0
 10
0.915726
 20
-56.972
 11
0.785034
 21
-56.9794
  0
LINE
  8
0
 10
0.785034
 20
-56.9794
 11
0.654282
 21
-56.9857
  0
LINE
  8
0
 10
0.654282
 20
-56.9857
 11
0.523483
 21
-56.9909
  0
LINE
  8
0
 10
0.523483
 20
-56.9909
 11
0.392639
 21
-56.9949
  0
LINE
  8
0
 10
0.392639
 20
-56.9949
 11
0.26178
 21
-56.9977
  0
LINE
  8
0
 10
0.26178
 20
-56.9977
 11
0.13089
 21
-56.9994
  0
LINE
  8
0
 10
0.13089
 20
-56.9994
 11
0
 21
-57
  0
LINE
  8
0
 10
0
 20
-57
 11
-0.13089
 21
-56.9994
  0
LINE
  8
0
 10
-15.9998
 20
-59.445
 11
-16.0991
 21
-59.434
  0
LINE
  8
0
 10
-16.0991
 20
-59.434
 11
-16.1976
 21
-59.4166
  0
LINE
  8
0
 10
-16.1976
 20
-59.4166
 11
-16.2947
 21
-59.3931
  0
LINE
  8
0
 10
-16.2947
 20
-59.3931
 11
-16.3901
 21
-59.3634
  0
LINE
  8
0
 10
-16.3901
 20
-59.3634
 11
-16.4835
 21
-59.3277
  0
LINE
  8
0
 10
-16.4835
 20
-59.3277
 11
-16.5744
 21
-59.2862
  0
LINE
  8
0
 10
-16.5744
 20
-59.2862
 11
-16.6625
 21
-59.239
  0
LINE
  8
0
 10
-16.6625
 20
-59.239
 11
-16.7474
 21
-59.1863
  0
LINE
  8
0
 10
-16.7474
 20
-59.1863
 11
-16.8288
 21
-59.1283
  0
LINE
  8
0
 10
-16.8288
 20
-59.1283
 11
-16.9064
 21
-59.0653
  0
LINE
  8
0
 10
-16.9064
 20
-59.0653
 11
-16.9798
 21
-58.9975
  0
LINE
  8
0
 10
-16.9798
 20
-58.9975
 11
-17.0488
 21
-58.9252
  0
LINE
  8
0
 10
-17.0488
 20
-58.9252
 11
-17.113
 21
-58.8486
  0
LINE
  8
0
 10
-17.113
 20
-58.8486
 11
-17.1723
 21
-58.7681
  0
LINE
  8
0
 10
-17.1723
 20
-58.7681
 11
-17.2263
 21
-58.684
  0
LINE
  8
0
 10
-17.2263
 20
-58.684
 11
-17.2749
 21
-58.5967
  0
LINE
  8
0
 10
-17.2749
 20
-58.5967
 11
-17.3179
 21
-58.5065
  0
LINE
  8
0
 10
-17.3179
 20
-58.5065
 11
-17.355
 21
-58.4137
  0
LINE
  8
0
 10
-17.355
 20
-58.4137
 11
-17.3862
 21
-58.3187
  0
LINE
  8
0
 10
-17.3862
 20
-58.3187
 11
-17.4113
 21
-58.222
  0
LINE
  8
0
 10
-17.4113
 20
-58.222
 11
-17.4302
 21
-58.1238
  0
LINE
  8
0
 10
-17.4302
 20
-58.1238
 11
-17.4429
 21
-58.0247
  0
LINE
  8
0
 10
-17.4429
 20
-58.0247
 11
-17.4492
 21
-57.925
  0
LINE
  8
0
 10
-17.4492
 20
-57.925
 11
-17.4492
 21
-57.825
  0
LINE
  8
0
 10
-17.4492
 20
-57.825
 11
-17.4429
 21
-57.7253
  0
LINE
  8
0
 10
-17.4429
 20
-57.7253
 11
-17.4302
 21
-57.6261
  0
LINE
  8
0
 10
-17.4302
 20
-57.6261
 11
-17.4113
 21
-57.528
  0
LINE
  8
0
 10
-17.4113
 20
-57.528
 11
-17.3862
 21
-57.4313
  0
LINE
  8
0
 10
-17.3862
 20
-57.4313
 11
-17.355
 21
-57.3363
  0
LINE
  8
0
 10
-17.355
 20
-57.3363
 11
-17.3179
 21
-57.2435
  0
LINE
  8
0
 10
-17.3179
 20
-57.2435
 11
-17.2749
 21
-57.1533
  0
LINE
  8
0
 10
-17.2749
 20
-57.1533
 11
-17.2263
 21
-57.0659
  0
LINE
  8
0
 10
-17.2263
 20
-57.0659
 11
-17.1723
 21
-56.9819
  0
LINE
  8
0
 10
-17.1723
 20
-56.9819
 11
-17.113
 21
-56.9014
  0
LINE
  8
0
 10
-17.113
 20
-56.9014
 11
-17.0488
 21
-56.8248
  0
LINE
  8
0
 10
-17.0488
 20
-56.8248
 11
-16.9798
 21
-56.7525
  0
LINE
  8
0
 10
-16.9798
 20
-56.7525
 11
-16.9064
 21
-56.6847
  0
LINE
  8
0
 10
-16.9064
 20
-56.6847
 11
-16.8288
 21
-56.6217
  0
LINE
  8
0
 10
-16.8288
 20
-56.6217
 11
-16.7474
 21
-56.5637
  0
LINE
  8
0
 10
-16.7474
 20
-56.5637
 11
-16.6625
 21
-56.511
  0
LINE
  8
0
 10
-16.6625
 20
-56.511
 11
-16.5744
 21
-56.4638
  0
LINE
  8
0
 10
-16.5744
 20
-56.4638
 11
-16.4835
 21
-56.4223
  0
LINE
  8
0
 10
-16.4835
 20
-56.4223
 11
-16.3901
 21
-56.3866
  0
LINE
  8
0
 10
-16.3901
 20
-56.3866
 11
-16.2947
 21
-56.3569
  0
LINE
  8
0
 10
-16.2947
 20
-56.3569
 11
-16.1976
 21
-56.3334
  0
LINE
  8
0
 10
-16.1976
 20
-56.3334
 11
-16.0991
 21
-56.316
  0
LINE
  8
0
 10
-16.0991
 20
-56.316
 11
-15.9998
 21
-56.3049
  0
LINE
  8
0
 10
-15.9998
 20
-56.3049
 11
-15.9
 21
-56.3002
  0
LINE
  8
0
 10
-15.9
 20
-56.3002
 11
-15.8
 21
-56.3018
  0
LINE
  8
0
 10
-15.8
 20
-56.3018
 11
-15.7004
 21
-56.3097
  0
LINE
  8
0
 10
-15.7004
 20
-56.3097
 11
-15.6015
 21
-56.3239
  0
LINE
  8
0
 10
-15.6015
 20
-56.3239
 11
-15.5037
 21
-56.3444
  0
LINE
  8
0
 10
-15.5037
 20
-56.3444
 11
-15.4073
 21
-56.371
  0
LINE
  8
0
 10
-15.4073
 20
-56.371
 11
-15.3129
 21
-56.4037
  0
LINE
  8
0
 10
-15.3129
 20
-56.4037
 11
-15.2207
 21
-56.4423
  0
LINE
  8
0
 10
-15.2207
 20
-56.4423
 11
-15.1312
 21
-56.4867
  0
LINE
  8
0
 10
-15.1312
 20
-56.4867
 11
-15.0446
 21
-56.5367
  0
LINE
  8
0
 10
-15.0446
 20
-56.5367
 11
-14.9614
 21
-56.592
  0
LINE
  8
0
 10
-14.9614
 20
-56.592
 11
-14.8819
 21
-56.6526
  0
LINE
  8
0
 10
-14.8819
 20
-56.6526
 11
-14.8063
 21
-56.718
  0
LINE
  8
0
 10
-14.8063
 20
-56.718
 11
-14.7351
 21
-56.7881
  0
LINE
  8
0
 10
-14.7351
 20
-56.7881
 11
-14.6685
 21
-56.8626
  0
LINE
  8
0
 10
-14.6685
 20
-56.8626
 11
-14.6067
 21
-56.9412
  0
LINE
  8
0
 10
-14.6067
 20
-56.9412
 11
-14.55
 21
-57.0235
  0
LINE
  8
0
 10
-14.55
 20
-57.0235
 11
-14.4987
 21
-57.1092
  0
LINE
  8
0
 10
-14.4987
 20
-57.1092
 11
-14.4529
 21
-57.1981
  0
LINE
  8
0
 10
-14.4529
 20
-57.1981
 11
-14.4128
 21
-57.2896
  0
LINE
  8
0
 10
-14.4128
 20
-57.2896
 11
-14.3786
 21
-57.3835
  0
LINE
  8
0
 10
-14.3786
 20
-57.3835
 11
-14.3505
 21
-57.4794
  0
LINE
  8
0
 10
-14.3505
 20
-57.4794
 11
-14.3285
 21
-57.5769
  0
LINE
  8
0
 10
-14.3285
 20
-57.5769
 11
-14.3127
 21
-57.6756
  0
LINE
  8
0
 10
-14.3127
 20
-57.6756
 11
-14.3032
 21
-57.7751
  0
LINE
  8
0
 10
-14.3032
 20
-57.7751
 11
-14.3
 21
-57.875
  0
LINE
  8
0
 10
-14.3
 20
-57.875
 11
-14.3032
 21
-57.9749
  0
LINE
  8
0
 10
-14.3032
 20
-57.9749
 11
-14.3127
 21
-58.0744
  0
LINE
  8
0
 10
-14.3127
 20
-58.0744
 11
-14.3285
 21
-58.1731
  0
LINE
  8
0
 10
-14.3285
 20
-58.1731
 11
-14.3505
 21
-58.2706
  0
LINE
  8
0
 10
-14.3505
 20
-58.2706
 11
-14.3786
 21
-58.3664
  0
LINE
  8
0
 10
-14.3786
 20
-58.3664
 11
-14.4128
 21
-58.4604
  0
LINE
  8
0
 10
-14.4128
 20
-58.4604
 11
-14.4529
 21
-58.5519
  0
LINE
  8
0
 10
-14.4529
 20
-58.5519
 11
-14.4987
 21
-58.6407
  0
LINE
  8
0
 10
-14.4987
 20
-58.6407
 11
-14.55
 21
-58.7265
  0
LINE
  8
0
 10
-14.55
 20
-58.7265
 11
-14.6067
 21
-58.8088
  0
LINE
  8
0
 10
-14.6067
 20
-58.8088
 11
-14.6685
 21
-58.8874
  0
LINE
  8
0
 10
-14.6685
 20
-58.8874
 11
-14.7351
 21
-58.9619
  0
LINE
  8
0
 10
-14.7351
 20
-58.9619
 11
-14.8063
 21
-59.032
  0
LINE
  8
0
 10
-14.8063
 20
-59.032
 11
-14.8819
 21
-59.0974
  0
LINE
  8
0
 10
-14.8819
 20
-59.0974
 11
-14.9614
 21
-59.1579
  0
LINE
  8
0
 10
-14.9614
 20
-59.1579
 11
-15.0446
 21
-59.2133
  0
LINE
  8
0
 10
-15.0446
 20
-59.2133
 11
-15.1312
 21
-59.2633
  0
LINE
  8
0
 10
-15.1312
 20
-59.2633
 11
-15.2207
 21
-59.3077
  0
LINE
  8
0
 10
-15.2207
 20
-59.3077
 11
-15.3129
 21
-59.3463
  0
LINE
  8
0
 10
-15.3129
 20
-59.3463
 11
-15.4073
 21
-59.379
  0
LINE
  8
0
 10
-15.4073
 20
-59.379
 11
-15.5037
 21
-59.4056
  0
LINE
  8
0
 10
-15.5037
 20
-59.4056
 11
-15.6015
 21
-59.4261
  0
LINE
  8
0
 10
-15.6015
 20
-59.4261
 11
-15.7004
 21
-59.4403
  0
LINE
  8
0
 10
-15.7004
 20
-59.4403
 11
-15.8
 21
-59.4482
  0
LINE
  8
0
 10
-15.8
 20
-59.4482
 11
-15.9
 21
-59.4498
  0
LINE
  8
0
 10
-15.9
 20
-59.4498
 11
-15.9998
 21
-59.445
  0
LINE
  8
0
 10
15.7502
 20
-59.445
 11
15.6508
 21
-59.434
  0
LINE
  8
0
 10
15.6508
 20
-59.434
 11
15.5524
 21
-59.4166
  0
LINE
  8
0
 10
15.5524
 20
-59.4166
 11
15.4553
 21
-59.3931
  0
LINE
  8
0
 10
15.4553
 20
-59.3931
 11
15.3599
 21
-59.3634
  0
LINE
  8
0
 10
15.3599
 20
-59.3634
 11
15.2665
 21
-59.3277
  0
LINE
  8
0
 10
15.2665
 20
-59.3277
 11
15.1756
 21
-59.2862
  0
LINE
  8
0
 10
15.1756
 20
-59.2862
 11
15.0875
 21
-59.239
  0
LINE
  8
0
 10
15.0875
 20
-59.239
 11
15.0026
 21
-59.1863
  0
LINE
  8
0
 10
15.0026
 20
-59.1863
 11
14.9212
 21
-59.1283
  0
LINE
  8
0
 10
14.9212
 20
-59.1283
 11
14.8436
 21
-59.0653
  0
LINE
  8
0
 10
14.8436
 20
-59.0653
 11
14.7702
 21
-58.9975
  0
LINE
  8
0
 10
14.7702
 20
-58.9975
 11
14.7012
 21
-58.9252
  0
LINE
  8
0
 10
14.7012
 20
-58.9252
 11
14.637
 21
-58.8486
  0
LINE
  8
0
 10
14.637
 20
-58.8486
 11
14.5777
 21
-58.7681
  0
LINE
  8
0
 10
14.5777
 20
-58.7681
 11
14.5237
 21
-58.684
  0
LINE
  8
0
 10
14.5237
 20
-58.684
 11
14.4751
 21
-58.5967
  0
LINE
  8
0
 10
14.4751
 20
-58.5967
 11
14.4321
 21
-58.5065
  0
LINE
  8
0
 10
14.4321
 20
-58.5065
 11
14.395
 21
-58.4137
  0
LINE
  8
0
 10
14.395
 20
-58.4137
 11
14.3638
 21
-58.3187
  0
LINE
  8
0
 10
14.3638
 20
-58.3187
 11
14.3387
 21
-58.222
  0
LINE
  8
0
 10
14.3387
 20
-58.222
 11
14.3198
 21
-58.1238
  0
LINE
  8
0
 10
14.3198
 20
-58.1238
 11
14.3071
 21
-58.0247
  0
LINE
  8
0
 10
14.3071
 20
-58.0247
 11
14.3008
 21
-57.925
  0
LINE
  8
0
 10
14.3008
 20
-57.925
 11
14.3008
 21
-57.825
  0
LINE
  8
0
 10
14.3008
 20
-57.825
 11
14.3071
 21
-57.7253
  0
LINE
  8
0
 10
14.3071
 20
-57.7253
 11
14.3198
 21
-57.6261
  0
LINE
  8
0
 10
14.3198
 20
-57.6261
 11
14.3387
 21
-57.528
  0
LINE
  8
0
 10
14.3387
 20
-57.528
 11
14.3638
 21
-57.4313
  0
LINE
  8
0
 10
14.3638
 20
-57.4313
 11
14.395
 21
-57.3363
  0
LINE
  8
0
 10
14.395
 20
-57.3363
 11
14.4321
 21
-57.2435
  0
LINE
  8
0
 10
14.4321
 20
-57.2435
 11
14.4751
 21
-57.1533
  0
LINE
  8
0
 10
14.4751
 20
-57.1533
 11
14.5237
 21
-57.0659
  0
LINE
  8
0
 10
14.5237
 20
-57.0659
 11
14.5777
 21
-56.9819
  0
LINE
  8
0
 10
14.5777
 20
-56.9819
 11
14.637
 21
-56.9014
  0
LINE
  8
0
 10
14.637
 20
-56.9014
 11
14.7012
 21
-56.8248
  0
LINE
  8
0
 10
14.7012
 20
-56.8248
 11
14.7702
 21
-56.7525
  0
LINE
  8
0
 10
14.7702
 20
-56.7525
 11
14.8436
 21
-56.6847
  0
LINE
  8
0
 10
14.8436
 20
-56.6847
 11
14.9212
 21
-56.6217
  0
LINE
  8
0
 10
14.9212
 20
-56.6217
 11
15.0026
 21
-56.5637
  0
LINE
  8
0
 10
15.0026
 20
-56.5637
 11
15.0875
 21
-56.511
  0
LINE
  8
0
 10
15.0875
 20
-56.511
 11
15.1756
 21
-56.4638
  0
LINE
  8
0
 10
15.1756
 20
-56.4638
 11
15.2665
 21
-56.4223
  0
LINE
  8
0
 10
15.2665
 20
-56.4223
 11
15.3599
 21
-56.3866
  0
LINE
  8
0
 10
15.3599
 20
-56.3866
 11
15.4553
 21
-56.3569
  0
LINE
  8
0
 10
15.4553
 20
-56.3569
 11
15.5524
 21
-56.3334
  0
LINE
  8
0
 10
15.5524
 20
-56.3334
 11
15.6508
 21
-56.316
  0
LINE
  8
0
 10
15.6508
 20
-56.316
 11
15.7502
 21
-56.3049
  0
LINE
  8
0
 10
15.7502
 20
-56.3049
 11
15.85
 21
-56.3002
  0
LINE
  8
0
 10
15.85
 20
-56.3002
 11
15.9499
 21
-56.3018
  0
LINE
  8
0
 10
15.9499
 20
-56.3018
 11
16.0496
 21
-56.3097
  0
LINE
  8
0
 10
16.0496
 20
-56.3097
 11
16.1485
 21
-56.3239
  0
LINE
  8
0
 10
16.1485
 20
-56.3239
 11
16.2463
 21
-56.3444
  0
LINE
  8
0
 10
16.2463
 20
-56.3444
 11
16.3426
 21
-56.371
  0
LINE
  8
0
 10
16.3426
 20
-56.371
 11
16.4371
 21
-56.4037
  0
LINE
  8
0
 10
16.4371
 20
-56.4037
 11
16.5293
 21
-56.4423
  0
LINE
  8
0
 10
16.5293
 20
-56.4423
 11
16.6188
 21
-56.4867
  0
LINE
  8
0
 10
16.6188
 20
-56.4867
 11
16.7054
 21
-56.5367
  0
LINE
  8
0
 10
16.7054
 20
-56.5367
 11
16.7886
 21
-56.592
  0
LINE
  8
0
 10
16.7886
 20
-56.592
 11
16.8681
 21
-56.6526
  0
LINE
  8
0
 10
16.8681
 20
-56.6526
 11
16.9436
 21
-56.718
  0
LINE
  8
0
 10
16.9436
 20
-56.718
 11
17.0149
 21
-56.7881
  0
LINE
  8
0
 10
17.0149
 20
-56.7881
 11
17.0815
 21
-56.8626
  0
LINE
  8
0
 10
17.0815
 20
-56.8626
 11
17.1433
 21
-56.9412
  0
LINE
  8
0
 10
17.1433
 20
-56.9412
 11
17.2
 21
-57.0235
  0
LINE
  8
0
 10
17.2
 20
-57.0235
 11
17.2513
 21
-57.1092
  0
LINE
  8
0
 10
17.2513
 20
-57.1092
 11
17.2971
 21
-57.1981
  0
LINE
  8
0
 10
17.2971
 20
-57.1981
 11
17.3372
 21
-57.2896
  0
LINE
  8
0
 10
17.3372
 20
-57.2896
 11
17.3714
 21
-57.3835
  0
LINE
  8
0
 10
17.3714
 20
-57.3835
 11
17.3995
 21
-57.4794
  0
LINE
  8
0
 10
17.3995
 20
-57.4794
 11
17.4215
 21
-57.5769
  0
LINE
  8
0
 10
17.4215
 20
-57.5769
 11
17.4373
 21
-57.6756
  0
LINE
  8
0
 10
17.4373
 20
-57.6756
 11
17.4468
 21
-57.7751
  0
LINE
  8
0
 10
17.4468
 20
-57.7751
 11
17.45
 21
-57.875
  0
LINE
  8
0
 10
17.45
 20
-57.875
 11
17.4468
 21
-57.9749
  0
LINE
  8
0
 10
17.4468
 20
-57.9749
 11
17.4373
 21
-58.0744
  0
LINE
  8
0
 10
17.4373
 20
-58.0744
 11
17.4215
 21
-58.1731
  0
LINE
  8
0
 10
17.4215
 20
-58.1731
 11
17.3995
 21
-58.2706
  0
LINE
  8
0
 10
17.3995
 20
-58.2706
 11
17.3714
 21
-58.3664
  0
LINE
  8
0
 10
17.3714
 20
-58.3664
 11
17.3372
 21
-58.4604
  0
LINE
  8
0
 10
17.3372
 20
-58.4604
 11
17.2971
 21
-58.5519
  0
LINE
  8
0
 10
17.2971
 20
-58.5519
 11
17.2513
 21
-58.6407
  0
LINE
  8
0
 10
17.2513
 20
-58.6407
 11
17.2
 21
-58.7265
  0
LINE
  8
0
 10
17.2
 20
-58.7265
 11
17.1433
 21
-58.8088
  0
LINE
  8
0
 10
17.1433
 20
-58.8088
 11
17.0815
 21
-58.8874
  0
LINE
  8
0
 10
17.0815
 20
-58.8874
 11
17.0149
 21
-58.9619
  0
LINE
  8
0
 10
17.0149
 20
-58.9619
 11
16.9436
 21
-59.032
  0
LINE
  8
0
 10
16.9436
 20
-59.032
 11
16.8681
 21
-59.0974
  0
LINE
  8
0
 10
16.8681
 20
-59.0974
 11
16.7886
 21
-59.1579
  0
LINE
  8
0
 10
16.7886
 20
-59.1579
 11
16.7054
 21
-59.2133
  0
LINE
  8
0
 10
16.7054
 20
-59.2133
 11
16.6188
 21
-59.2633
  0
LINE
  8
0
 10
16.6188
 20
-59.2633
 11
16.5293
 21
-59.3077
  0
LINE
  8
0
 10
16.5293
 20
-59.3077
 11
16.4371
 21
-59.3463
  0
LINE
  8
0
 10
16.4371
 20
-59.3463
 11
16.3426
 21
-59.379
  0
LINE
  8
0
 10
16.3426
 20
-59.379
 11
16.2463
 21
-59.4056
  0
LINE
  8
0
 10
16.2463
 20
-59.4056
 11
16.1485
 21
-59.4261
  0
LINE
  8
0
 10
16.1485
 20
-59.4261
 11
16.0496
 21
-59.4403
  0
LINE
  8
0
 10
16.0496
 20
-59.4403
 11
15.9499
 21
-59.4482
  0
LINE
  8
0
 10
15.9499
 20
-59.4482
 11
15.85
 21
-59.4498
  0
LINE
  8
0
 10
15.85
 20
-59.4498
 11
15.7502
 21
-59.445
  0
ENDSEC
  0
SECTION
  2
OBJECTS
  0
DICTIONARY
  0
ENDSEC
  0
EOF
