  0
SECTION
  2
BLOCKS
  0
ENDSEC
  0
SECTION
  2
ENTITIES
  0
LINE
  8
0
 10
8
 20
-42
 11
10
 21
-30
  0
LINE
  8
0
 10
10
 20
-30
 11
18
 21
-26
  0
LINE
  8
0
 10
18
 20
-26
 11
18
 21
-14
  0
LINE
  8
0
 10
18
 20
-14
 11
11
 21
-10
  0
LINE
  8
0
 10
11
 20
-10
 11
11
 21
10
  0
LINE
  8
0
 10
11
 20
10
 11
10
 21
11
  0
LINE
  8
0
 10
10
 20
11
 11
10
 21
50
  0
LINE
  8
0
 10
10
 20
50
 11
-189
 21
50
  0
LINE
  8
0
 10
-189
 20
50
 11
-189
 21
-10.1111
  0
LINE
  8
0
 10
-189
 20
-10.1111
 11
-10
 21
-30
  0
LINE
  8
0
 10
-10
 20
-30
 11
-8
 21
-42
  0
LINE
  8
0
 10
-8
 20
-42
 11
-4
 21
-48
  0
LINE
  8
0
 10
-4
 20
-48
 11
4
 21
-48
  0
LINE
  8
0
 10
4
 20
-48
 11
8
 21
-42
  0
LINE
  8
0
 10
-0.811157
 20
37.5035
 11
-1.54292
 21
37.8763
  0
LINE
  8
0
 10
-1.54292
 20
37.8763
 11
-2.12366
 21
38.4571
  0
LINE
  8
0
 10
-2.12366
 20
38.4571
 11
-2.49652
 21
39.1888
  0
LINE
  8
0
 10
-2.49652
 20
39.1888
 11
-2.625
 21
40
  0
LINE
  8
0
 10
-2.625
 20
40
 11
-2.49652
 21
40.8112
  0
LINE
  8
0
 10
-2.49652
 20
40.8112
 11
-2.12366
 21
41.5429
  0
LINE
  8
0
 10
-2.12366
 20
41.5429
 11
-1.54292
 21
42.1237
  0
LINE
  8
0
 10
-1.54292
 20
42.1237
 11
-0.811157
 21
42.4965
  0
LINE
  8
0
 10
-0.811157
 20
42.4965
 11
0
 21
42.625
  0
LINE
  8
0
 10
0
 20
42.625
 11
0.811157
 21
42.4965
  0
LINE
  8
0
 10
0.811157
 20
42.4965
 11
1.54292
 21
42.1237
  0
LINE
  8
0
 10
1.54292
 20
42.1237
 11
2.12366
 21
41.5429
  0
LINE
  8
0
 10
2.12366
 20
41.5429
 11
2.49652
 21
40.8112
  0
LINE
  8
0
 10
2.49652
 20
40.8112
 11
2.625
 21
40
  0
LINE
  8
0
 10
2.625
 20
40
 11
2.49652
 21
39.1888
  0
LINE
  8
0
 10
2.49652
 20
39.1888
 11
2.12366
 21
38.4571
  0
LINE
  8
0
 10
2.12366
 20
38.4571
 11
1.54292
 21
37.8763
  0
LINE
  8
0
 10
1.54292
 20
37.8763
 11
0.811157
 21
37.5035
  0
LINE
  8
0
 10
0.811157
 20
37.5035
 11
0
 21
37.375
  0
LINE
  8
0
 10
0
 20
37.375
 11
-0.811157
 21
37.5035
  0
LINE
  8
0
 10
-180.487
 20
-1.49791
 11
-180.926
 21
-1.2742
  0
LINE
  8
0
 10
-180.926
 20
-1.2742
 11
-181.274
 21
-0.925751
  0
LINE
  8
0
 10
-181.274
 20
-0.925751
 11
-181.498
 21
-0.486694
  0
LINE
  8
0
 10
-181.498
 20
-0.486694
 11
-181.575
 21
0
  0
LINE
  8
0
 10
-181.575
 20
0
 11
-181.498
 21
0.486694
  0
LINE
  8
0
 10
-181.498
 20
0.486694
 11
-181.274
 21
0.925751
  0
LINE
  8
0
 10
-181.274
 20
0.925751
 11
-180.926
 21
1.2742
  0
LINE
  8
0
 10
-180.926
 20
1.2742
 11
-180.487
 21
1.49791
  0
LINE
  8
0
 10
-180.487
 20
1.49791
 11
-180
 21
1.575
  0
LINE
  8
0
 10
-180
 20
1.575
 11
-179.513
 21
1.49791
  0
LINE
  8
0
 10
-179.513
 20
1.49791
 11
-179.074
 21
1.2742
  0
LINE
  8
0
 10
-179.074
 20
1.2742
 11
-178.726
 21
0.925751
  0
LINE
  8
0
 10
-178.726
 20
0.925751
 11
-178.502
 21
0.486694
  0
LINE
  8
0
 10
-178.502
 20
0.486694
 11
-178.425
 21
0
  0
LINE
  8
0
 10
-178.425
 20
0
 11
-178.502
 21
-0.486694
  0
LINE
  8
0
 10
-178.502
 20
-0.486694
 11
-178.726
 21
-0.925751
  0
LINE
  8
0
 10
-178.726
 20
-0.925751
 11
-179.074
 21
-1.2742
  0
LINE
  8
0
 10
-179.074
 20
-1.2742
 11
-179.513
 21
-1.49791
  0
LINE
  8
0
 10
-179.513
 20
-1.49791
 11
-180
 21
-1.575
  0
LINE
  8
0
 10
-180
 20
-1.575
 11
-180.487
 21
-1.49791
  0
LINE
  8
0
 10
-0.486694
 20
-1.49791
 11
-0.925751
 21
-1.2742
  0
LINE
  8
0
 10
-0.925751
 20
-1.2742
 11
-1.2742
 21
-0.925751
  0
LINE
  8
0
 10
-1.2742
 20
-0.925751
 11
-1.49791
 21
-0.486694
  0
LINE
  8
0
 10
-1.49791
 20
-0.486694
 11
-1.575
 21
0
  0
LINE
  8
0
 10
-1.575
 20
0
 11
-1.49791
 21
0.486694
  0
LINE
  8
0
 10
-1.49791
 20
0.486694
 11
-1.2742
 21
0.925751
  0
LINE
  8
0
 10
-1.2742
 20
0.925751
 11
-0.925751
 21
1.2742
  0
LINE
  8
0
 10
-0.925751
 20
1.2742
 11
-0.486694
 21
1.49791
  0
LINE
  8
0
 10
-0.486694
 20
1.49791
 11
0
 21
1.575
  0
LINE
  8
0
 10
0
 20
1.575
 11
0.486694
 21
1.49791
  0
LINE
  8
0
 10
0.486694
 20
1.49791
 11
0.925751
 21
1.2742
  0
LINE
  8
0
 10
0.925751
 20
1.2742
 11
1.2742
 21
0.925751
  0
LINE
  8
0
 10
1.2742
 20
0.925751
 11
1.49791
 21
0.486694
  0
LINE
  8
0
 10
1.49791
 20
0.486694
 11
1.575
 21
0
  0
LINE
  8
0
 10
1.575
 20
0
 11
1.49791
 21
-0.486694
  0
LINE
  8
0
 10
1.49791
 20
-0.486694
 11
1.2742
 21
-0.925751
  0
LINE
  8
0
 10
1.2742
 20
-0.925751
 11
0.925751
 21
-1.2742
  0
LINE
  8
0
 10
0.925751
 20
-1.2742
 11
0.486694
 21
-1.49791
  0
LINE
  8
0
 10
0.486694
 20
-1.49791
 11
0
 21
-1.575
  0
LINE
  8
0
 10
0
 20
-1.575
 11
-0.486694
 21
-1.49791
  0
LINE
  8
0
 10
-90.4867
 20
-1.49791
 11
-90.9258
 21
-1.2742
  0
LINE
  8
0
 10
-90.9258
 20
-1.2742
 11
-91.2742
 21
-0.925751
  0
LINE
  8
0
 10
-91.2742
 20
-0.925751
 11
-91.4979
 21
-0.486694
  0
LINE
  8
0
 10
-91.4979
 20
-0.486694
 11
-91.575
 21
0
  0
LINE
  8
0
 10
-91.575
 20
0
 11
-91.4979
 21
0.486694
  0
LINE
  8
0
 10
-91.4979
 20
0.486694
 11
-91.2742
 21
0.925751
  0
LINE
  8
0
 10
-91.2742
 20
0.925751
 11
-90.9258
 21
1.2742
  0
LINE
  8
0
 10
-90.9258
 20
1.2742
 11
-90.4867
 21
1.49791
  0
LINE
  8
0
 10
-90.4867
 20
1.49791
 11
-90
 21
1.575
  0
LINE
  8
0
 10
-90
 20
1.575
 11
-89.5133
 21
1.49791
  0
LINE
  8
0
 10
-89.5133
 20
1.49791
 11
-89.0742
 21
1.2742
  0
LINE
  8
0
 10
-89.0742
 20
1.2742
 11
-88.7258
 21
0.925751
  0
LINE
  8
0
 10
-88.7258
 20
0.925751
 11
-88.5021
 21
0.486694
  0
LINE
  8
0
 10
-88.5021
 20
0.486694
 11
-88.425
 21
0
  0
LINE
  8
0
 10
-88.425
 20
0
 11
-88.5021
 21
-0.486694
  0
LINE
  8
0
 10
-88.5021
 20
-0.486694
 11
-88.7258
 21
-0.925751
  0
LINE
  8
0
 10
-88.7258
 20
-0.925751
 11
-89.0742
 21
-1.2742
  0
LINE
  8
0
 10
-89.0742
 20
-1.2742
 11
-89.5133
 21
-1.49791
  0
LINE
  8
0
 10
-89.5133
 20
-1.49791
 11
-90
 21
-1.575
  0
LINE
  8
0
 10
-90
 20
-1.575
 11
-90.4867
 21
-1.49791
  0
LINE
  8
0
 10
-0.811157
 20
-22.4965
 11
-1.54292
 21
-22.1237
  0
LINE
  8
0
 10
-1.54292
 20
-22.1237
 11
-2.12366
 21
-21.5429
  0
LINE
  8
0
 10
-2.12366
 20
-21.5429
 11
-2.49652
 21
-20.8112
  0
LINE
  8
0
 10
-2.49652
 20
-20.8112
 11
-2.625
 21
-20
  0
LINE
  8
0
 10
-2.625
 20
-20
 11
-2.49652
 21
-19.1888
  0
LINE
  8
0
 10
-2.49652
 20
-19.1888
 11
-2.12366
 21
-18.4571
  0
LINE
  8
0
 10
-2.12366
 20
-18.4571
 11
-1.54292
 21
-17.8763
  0
LINE
  8
0
 10
-1.54292
 20
-17.8763
 11
-0.811157
 21
-17.5035
  0
LINE
  8
0
 10
-0.811157
 20
-17.5035
 11
0
 21
-17.375
  0
LINE
  8
0
 10
0
 20
-17.375
 11
0.811157
 21
-17.5035
  0
LINE
  8
0
 10
0.811157
 20
-17.5035
 11
1.54292
 21
-17.8763
  0
LINE
  8
0
 10
1.54292
 20
-17.8763
 11
2.12366
 21
-18.4571
  0
LINE
  8
0
 10
2.12366
 20
-18.4571
 11
2.49652
 21
-19.1888
  0
LINE
  8
0
 10
2.49652
 20
-19.1888
 11
2.625
 21
-20
  0
LINE
  8
0
 10
2.625
 20
-20
 11
2.49652
 21
-20.8112
  0
LINE
  8
0
 10
2.49652
 20
-20.8112
 11
2.12366
 21
-21.5429
  0
LINE
  8
0
 10
2.12366
 20
-21.5429
 11
1.54292
 21
-22.1237
  0
LINE
  8
0
 10
1.54292
 20
-22.1237
 11
0.811157
 21
-22.4965
  0
LINE
  8
0
 10
0.811157
 20
-22.4965
 11
0
 21
-22.625
  0
LINE
  8
0
 10
0
 20
-22.625
 11
-0.811157
 21
-22.4965
  0
LINE
  8
0
 10
-0.16684
 20
-46.2467
 11
-0.33345
 21
-46.2369
  0
LINE
  8
0
 10
-0.33345
 20
-46.2369
 11
-0.499527
 21
-46.2205
  0
LINE
  8
0
 10
-0.499527
 20
-46.2205
 11
-0.664841
 21
-46.1977
  0
LINE
  8
0
 10
-0.664841
 20
-46.1977
 11
-0.829132
 21
-46.1683
  0
LINE
  8
0
 10
-0.829132
 20
-46.1683
 11
-0.992142
 21
-46.1326
  0
LINE
  8
0
 10
-0.992142
 20
-46.1326
 11
-1.15361
 21
-46.0904
  0
LINE
  8
0
 10
-1.15361
 20
-46.0904
 11
-1.31331
 21
-46.042
  0
LINE
  8
0
 10
-1.31331
 20
-46.042
 11
-1.47099
 21
-45.9873
  0
LINE
  8
0
 10
-1.47099
 20
-45.9873
 11
-1.6264
 21
-45.9265
  0
LINE
  8
0
 10
-1.6264
 20
-45.9265
 11
-1.7793
 21
-45.8596
  0
LINE
  8
0
 10
-1.7793
 20
-45.8596
 11
-1.92946
 21
-45.7868
  0
LINE
  8
0
 10
-1.92946
 20
-45.7868
 11
-2.07663
 21
-45.7081
  0
LINE
  8
0
 10
-2.07663
 20
-45.7081
 11
-2.22061
 21
-45.6237
  0
LINE
  8
0
 10
-2.22061
 20
-45.6237
 11
-2.36116
 21
-45.5337
  0
LINE
  8
0
 10
-2.36116
 20
-45.5337
 11
-2.49808
 21
-45.4383
  0
LINE
  8
0
 10
-2.49808
 20
-45.4383
 11
-2.63113
 21
-45.3376
  0
LINE
  8
0
 10
-2.63113
 20
-45.3376
 11
-2.76015
 21
-45.2317
  0
LINE
  8
0
 10
-2.76015
 20
-45.2317
 11
-2.8849
 21
-45.1209
  0
LINE
  8
0
 10
-2.8849
 20
-45.1209
 11
-3.0052
 21
-45.0052
  0
LINE
  8
0
 10
-3.0052
 20
-45.0052
 11
-3.12086
 21
-44.8849
  0
LINE
  8
0
 10
-3.12086
 20
-44.8849
 11
-3.23172
 21
-44.7601
  0
LINE
  8
0
 10
-3.23172
 20
-44.7601
 11
-3.33759
 21
-44.6311
  0
LINE
  8
0
 10
-3.33759
 20
-44.6311
 11
-3.43831
 21
-44.4981
  0
LINE
  8
0
 10
-3.43831
 20
-44.4981
 11
-3.53374
 21
-44.3612
  0
LINE
  8
0
 10
-3.53374
 20
-44.3612
 11
-3.62372
 21
-44.2206
  0
LINE
  8
0
 10
-3.62372
 20
-44.2206
 11
-3.7081
 21
-44.0766
  0
LINE
  8
0
 10
-3.7081
 20
-44.0766
 11
-3.78677
 21
-43.9295
  0
LINE
  8
0
 10
-3.78677
 20
-43.9295
 11
-3.8596
 21
-43.7793
  0
LINE
  8
0
 10
-3.8596
 20
-43.7793
 11
-3.92648
 21
-43.6264
  0
LINE
  8
0
 10
-3.92648
 20
-43.6264
 11
-3.9873
 21
-43.471
  0
LINE
  8
0
 10
-3.9873
 20
-43.471
 11
-4.04198
 21
-43.3133
  0
LINE
  8
0
 10
-4.04198
 20
-43.3133
 11
-4.09042
 21
-43.1536
  0
LINE
  8
0
 10
-4.09042
 20
-43.1536
 11
-4.13257
 21
-42.9921
  0
LINE
  8
0
 10
-4.13257
 20
-42.9921
 11
-4.16833
 21
-42.8291
  0
LINE
  8
0
 10
-4.16833
 20
-42.8291
 11
-4.19766
 21
-42.6648
  0
LINE
  8
0
 10
-4.19766
 20
-42.6648
 11
-4.22054
 21
-42.4995
  0
LINE
  8
0
 10
-4.22054
 20
-42.4995
 11
-4.23689
 21
-42.3335
  0
LINE
  8
0
 10
-4.23689
 20
-42.3335
 11
-4.24672
 21
-42.1668
  0
LINE
  8
0
 10
-4.24672
 20
-42.1668
 11
-4.25
 21
-42
  0
LINE
  8
0
 10
-4.25
 20
-42
 11
-4.24672
 21
-41.8331
  0
LINE
  8
0
 10
-4.24672
 20
-41.8331
 11
-4.23689
 21
-41.6665
  0
LINE
  8
0
 10
-4.23689
 20
-41.6665
 11
-4.22054
 21
-41.5005
  0
LINE
  8
0
 10
-4.22054
 20
-41.5005
 11
-4.19766
 21
-41.3351
  0
LINE
  8
0
 10
-4.19766
 20
-41.3351
 11
-4.16833
 21
-41.1709
  0
LINE
  8
0
 10
-4.16833
 20
-41.1709
 11
-4.13257
 21
-41.0078
  0
LINE
  8
0
 10
-4.13257
 20
-41.0078
 11
-4.09042
 21
-40.8464
  0
LINE
  8
0
 10
-4.09042
 20
-40.8464
 11
-4.04198
 21
-40.6867
  0
LINE
  8
0
 10
-4.04198
 20
-40.6867
 11
-3.9873
 21
-40.529
  0
LINE
  8
0
 10
-3.9873
 20
-40.529
 11
-3.92648
 21
-40.3736
  0
LINE
  8
0
 10
-3.92648
 20
-40.3736
 11
-3.8596
 21
-40.2207
  0
LINE
  8
0
 10
-3.8596
 20
-40.2207
 11
-3.78677
 21
-40.0705
  0
LINE
  8
0
 10
-3.78677
 20
-40.0705
 11
-3.7081
 21
-39.9234
  0
LINE
  8
0
 10
-3.7081
 20
-39.9234
 11
-3.62372
 21
-39.7794
  0
LINE
  8
0
 10
-3.62372
 20
-39.7794
 11
-3.53374
 21
-39.6388
  0
LINE
  8
0
 10
-3.53374
 20
-39.6388
 11
-3.43831
 21
-39.5019
  0
LINE
  8
0
 10
-3.43831
 20
-39.5019
 11
-3.33759
 21
-39.3689
  0
LINE
  8
0
 10
-3.33759
 20
-39.3689
 11
-3.23172
 21
-39.2398
  0
LINE
  8
0
 10
-3.23172
 20
-39.2398
 11
-3.12086
 21
-39.1151
  0
LINE
  8
0
 10
-3.12086
 20
-39.1151
 11
-3.0052
 21
-38.9948
  0
LINE
  8
0
 10
-3.0052
 20
-38.9948
 11
-2.8849
 21
-38.8791
  0
LINE
  8
0
 10
-2.8849
 20
-38.8791
 11
-2.76015
 21
-38.7683
  0
LINE
  8
0
 10
-2.76015
 20
-38.7683
 11
-2.63113
 21
-38.6624
  0
LINE
  8
0
 10
-2.63113
 20
-38.6624
 11
-2.49808
 21
-38.5617
  0
LINE
  8
0
 10
-2.49808
 20
-38.5617
 11
-2.36116
 21
-38.4662
  0
LINE
  8
0
 10
-2.36116
 20
-38.4662
 11
-2.22061
 21
-38.3763
  0
LINE
  8
0
 10
-2.22061
 20
-38.3763
 11
-2.07663
 21
-38.2919
  0
LINE
  8
0
 10
-2.07663
 20
-38.2919
 11
-1.92946
 21
-38.2132
  0
LINE
  8
0
 10
-1.92946
 20
-38.2132
 11
-1.7793
 21
-38.1404
  0
LINE
  8
0
 10
-1.7793
 20
-38.1404
 11
-1.6264
 21
-38.0735
  0
LINE
  8
0
 10
-1.6264
 20
-38.0735
 11
-1.47099
 21
-38.0127
  0
LINE
  8
0
 10
-1.47099
 20
-38.0127
 11
-1.31331
 21
-37.958
  0
LINE
  8
0
 10
-1.31331
 20
-37.958
 11
-1.15361
 21
-37.9096
  0
LINE
  8
0
 10
-1.15361
 20
-37.9096
 11
-0.992142
 21
-37.8674
  0
LINE
  8
0
 10
-0.992142
 20
-37.8674
 11
-0.829132
 21
-37.8316
  0
LINE
  8
0
 10
-0.829132
 20
-37.8316
 11
-0.664841
 21
-37.8023
  0
LINE
  8
0
 10
-0.664841
 20
-37.8023
 11
-0.499527
 21
-37.7794
  0
LINE
  8
0
 10
-0.499527
 20
-37.7794
 11
-0.33345
 21
-37.7631
  0
LINE
  8
0
 10
-0.33345
 20
-37.7631
 11
-0.16684
 21
-37.7533
  0
LINE
  8
0
 10
-0.16684
 20
-37.7533
 11
0
 21
-37.75
  0
LINE
  8
0
 10
0
 20
-37.75
 11
0.16684
 21
-37.7533
  0
LINE
  8
0
 10
0.16684
 20
-37.7533
 11
0.33345
 21
-37.7631
  0
LINE
  8
0
 10
0.33345
 20
-37.7631
 11
0.499527
 21
-37.7794
  0
LINE
  8
0
 10
0.499527
 20
-37.7794
 11
0.664841
 21
-37.8023
  0
LINE
  8
0
 10
0.664841
 20
-37.8023
 11
0.829132
 21
-37.8316
  0
LINE
  8
0
 10
0.829132
 20
-37.8316
 11
0.992142
 21
-37.8674
  0
LINE
  8
0
 10
0.992142
 20
-37.8674
 11
1.15361
 21
-37.9096
  0
LINE
  8
0
 10
1.15361
 20
-37.9096
 11
1.31331
 21
-37.958
  0
LINE
  8
0
 10
1.31331
 20
-37.958
 11
1.47099
 21
-38.0127
  0
LINE
  8
0
 10
1.47099
 20
-38.0127
 11
1.6264
 21
-38.0735
  0
LINE
  8
0
 10
1.6264
 20
-38.0735
 11
1.7793
 21
-38.1404
  0
LINE
  8
0
 10
1.7793
 20
-38.1404
 11
1.92946
 21
-38.2132
  0
LINE
  8
0
 10
1.92946
 20
-38.2132
 11
2.07663
 21
-38.2919
  0
LINE
  8
0
 10
2.07663
 20
-38.2919
 11
2.22061
 21
-38.3763
  0
LINE
  8
0
 10
2.22061
 20
-38.3763
 11
2.36116
 21
-38.4662
  0
LINE
  8
0
 10
2.36116
 20
-38.4662
 11
2.49808
 21
-38.5617
  0
LINE
  8
0
 10
2.49808
 20
-38.5617
 11
2.63113
 21
-38.6624
  0
LINE
  8
0
 10
2.63113
 20
-38.6624
 11
2.76015
 21
-38.7683
  0
LINE
  8
0
 10
2.76015
 20
-38.7683
 11
2.8849
 21
-38.8791
  0
LINE
  8
0
 10
2.8849
 20
-38.8791
 11
3.0052
 21
-38.9948
  0
LINE
  8
0
 10
3.0052
 20
-38.9948
 11
3.12086
 21
-39.1151
  0
LINE
  8
0
 10
3.12086
 20
-39.1151
 11
3.23172
 21
-39.2398
  0
LINE
  8
0
 10
3.23172
 20
-39.2398
 11
3.33759
 21
-39.3689
  0
LINE
  8
0
 10
3.33759
 20
-39.3689
 11
3.43831
 21
-39.5019
  0
LINE
  8
0
 10
3.43831
 20
-39.5019
 11
3.53374
 21
-39.6388
  0
LINE
  8
0
 10
3.53374
 20
-39.6388
 11
3.62372
 21
-39.7794
  0
LINE
  8
0
 10
3.62372
 20
-39.7794
 11
3.7081
 21
-39.9234
  0
LINE
  8
0
 10
3.7081
 20
-39.9234
 11
3.78677
 21
-40.0705
  0
LINE
  8
0
 10
3.78677
 20
-40.0705
 11
3.8596
 21
-40.2207
  0
LINE
  8
0
 10
3.8596
 20
-40.2207
 11
3.92648
 21
-40.3736
  0
LINE
  8
0
 10
3.92648
 20
-40.3736
 11
3.9873
 21
-40.529
  0
LINE
  8
0
 10
3.9873
 20
-40.529
 11
4.04198
 21
-40.6867
  0
LINE
  8
0
 10
4.04198
 20
-40.6867
 11
4.09042
 21
-40.8464
  0
LINE
  8
0
 10
4.09042
 20
-40.8464
 11
4.13257
 21
-41.0078
  0
LINE
  8
0
 10
4.13257
 20
-41.0078
 11
4.16833
 21
-41.1709
  0
LINE
  8
0
 10
4.16833
 20
-41.1709
 11
4.19766
 21
-41.3351
  0
LINE
  8
0
 10
4.19766
 20
-41.3351
 11
4.22054
 21
-41.5005
  0
LINE
  8
0
 10
4.22054
 20
-41.5005
 11
4.23689
 21
-41.6665
  0
LINE
  8
0
 10
4.23689
 20
-41.6665
 11
4.24672
 21
-41.8331
  0
LINE
  8
0
 10
4.24672
 20
-41.8331
 11
4.25
 21
-42
  0
LINE
  8
0
 10
4.25
 20
-42
 11
4.24672
 21
-42.1668
  0
LINE
  8
0
 10
4.24672
 20
-42.1668
 11
4.23689
 21
-42.3335
  0
LINE
  8
0
 10
4.23689
 20
-42.3335
 11
4.22054
 21
-42.4995
  0
LINE
  8
0
 10
4.22054
 20
-42.4995
 11
4.19766
 21
-42.6648
  0
LINE
  8
0
 10
4.19766
 20
-42.6648
 11
4.16833
 21
-42.8291
  0
LINE
  8
0
 10
4.16833
 20
-42.8291
 11
4.13257
 21
-42.9921
  0
LINE
  8
0
 10
4.13257
 20
-42.9921
 11
4.09042
 21
-43.1536
  0
LINE
  8
0
 10
4.09042
 20
-43.1536
 11
4.04198
 21
-43.3133
  0
LINE
  8
0
 10
4.04198
 20
-43.3133
 11
3.9873
 21
-43.471
  0
LINE
  8
0
 10
3.9873
 20
-43.471
 11
3.92648
 21
-43.6264
  0
LINE
  8
0
 10
3.92648
 20
-43.6264
 11
3.8596
 21
-43.7793
  0
LINE
  8
0
 10
3.8596
 20
-43.7793
 11
3.78677
 21
-43.9295
  0
LINE
  8
0
 10
3.78677
 20
-43.9295
 11
3.7081
 21
-44.0766
  0
LINE
  8
0
 10
3.7081
 20
-44.0766
 11
3.62372
 21
-44.2206
  0
LINE
  8
0
 10
3.62372
 20
-44.2206
 11
3.53374
 21
-44.3612
  0
LINE
  8
0
 10
3.53374
 20
-44.3612
 11
3.43831
 21
-44.4981
  0
LINE
  8
0
 10
3.43831
 20
-44.4981
 11
3.33759
 21
-44.6311
  0
LINE
  8
0
 10
3.33759
 20
-44.6311
 11
3.23172
 21
-44.7601
  0
LINE
  8
0
 10
3.23172
 20
-44.7601
 11
3.12086
 21
-44.8849
  0
LINE
  8
0
 10
3.12086
 20
-44.8849
 11
3.0052
 21
-45.0052
  0
LINE
  8
0
 10
3.0052
 20
-45.0052
 11
2.8849
 21
-45.1209
  0
LINE
  8
0
 10
2.8849
 20
-45.1209
 11
2.76015
 21
-45.2317
  0
LINE
  8
0
 10
2.76015
 20
-45.2317
 11
2.63113
 21
-45.3376
  0
LINE
  8
0
 10
2.63113
 20
-45.3376
 11
2.49808
 21
-45.4383
  0
LINE
  8
0
 10
2.49808
 20
-45.4383
 11
2.36116
 21
-45.5337
  0
LINE
  8
0
 10
2.36116
 20
-45.5337
 11
2.22061
 21
-45.6237
  0
LINE
  8
0
 10
2.22061
 20
-45.6237
 11
2.07663
 21
-45.7081
  0
LINE
  8
0
 10
2.07663
 20
-45.7081
 11
1.92946
 21
-45.7868
  0
LINE
  8
0
 10
1.92946
 20
-45.7868
 11
1.7793
 21
-45.8596
  0
LINE
  8
0
 10
1.7793
 20
-45.8596
 11
1.6264
 21
-45.9265
  0
LINE
  8
0
 10
1.6264
 20
-45.9265
 11
1.47099
 21
-45.9873
  0
LINE
  8
0
 10
1.47099
 20
-45.9873
 11
1.31331
 21
-46.042
  0
LINE
  8
0
 10
1.31331
 20
-46.042
 11
1.15361
 21
-46.0904
  0
LINE
  8
0
 10
1.15361
 20
-46.0904
 11
0.992142
 21
-46.1326
  0
LINE
  8
0
 10
0.992142
 20
-46.1326
 11
0.829132
 21
-46.1683
  0
LINE
  8
0
 10
0.829132
 20
-46.1683
 11
0.664841
 21
-46.1977
  0
LINE
  8
0
 10
0.664841
 20
-46.1977
 11
0.499527
 21
-46.2205
  0
LINE
  8
0
 10
0.499527
 20
-46.2205
 11
0.33345
 21
-46.2369
  0
LINE
  8
0
 10
0.33345
 20
-46.2369
 11
0.16684
 21
-46.2467
  0
LINE
  8
0
 10
0.16684
 20
-46.2467
 11
0
 21
-46.25
  0
LINE
  8
0
 10
0
 20
-46.25
 11
-0.16684
 21
-46.2467
  0
ENDSEC
  0
SECTION
  2
OBJECTS
  0
DICTIONARY
  0
ENDSEC
  0
EOF
