  0
SECTION
  2
BLOCKS
  0
ENDSEC
  0
SECTION
  2
ENTITIES
  0
LINE
  8
0
 10
8
 20
-42
 11
10
 21
-30
  0
LINE
  8
0
 10
10
 20
-30
 11
18
 21
-26
  0
LINE
  8
0
 10
18
 20
-26
 11
18
 21
-14
  0
LINE
  8
0
 10
18
 20
-14
 11
11
 21
-10
  0
LINE
  8
0
 10
11
 20
-10
 11
11
 21
10
  0
LINE
  8
0
 10
11
 20
10
 11
10
 21
11
  0
LINE
  8
0
 10
10
 20
11
 11
10
 21
50
  0
LINE
  8
0
 10
10
 20
50
 11
-189
 21
50
  0
LINE
  8
0
 10
-189
 20
50
 11
-189
 21
-10.1111
  0
LINE
  8
0
 10
-189
 20
-10.1111
 11
-10
 21
-30
  0
LINE
  8
0
 10
-10
 20
-30
 11
-8
 21
-42
  0
LINE
  8
0
 10
-8
 20
-42
 11
-4
 21
-48
  0
LINE
  8
0
 10
-4
 20
-48
 11
4
 21
-48
  0
LINE
  8
0
 10
4
 20
-48
 11
8
 21
-42
  0
LINE
  8
0
 10
-0.0749512
 20
37.3761
 11
-0.174789
 21
37.3808
  0
LINE
  8
0
 10
-0.174789
 20
37.3808
 11
-0.274384
 21
37.3894
  0
LINE
  8
0
 10
-0.274384
 20
37.3894
 11
-0.373566
 21
37.4017
  0
LINE
  8
0
 10
-0.373566
 20
37.4017
 11
-0.472214
 21
37.4178
  0
LINE
  8
0
 10
-0.472214
 20
37.4178
 11
-0.570175
 21
37.4377
  0
LINE
  8
0
 10
-0.570175
 20
37.4377
 11
-0.667313
 21
37.4612
  0
LINE
  8
0
 10
-0.667313
 20
37.4612
 11
-0.763489
 21
37.4885
  0
LINE
  8
0
 10
-0.763489
 20
37.4885
 11
-0.858551
 21
37.5194
  0
LINE
  8
0
 10
-0.858551
 20
37.5194
 11
-0.952362
 21
37.5538
  0
LINE
  8
0
 10
-0.952362
 20
37.5538
 11
-1.0448
 21
37.5919
  0
LINE
  8
0
 10
-1.0448
 20
37.5919
 11
-1.13573
 21
37.6334
  0
LINE
  8
0
 10
-1.13573
 20
37.6334
 11
-1.22499
 21
37.6784
  0
LINE
  8
0
 10
-1.22499
 20
37.6784
 11
-1.3125
 21
37.7267
  0
LINE
  8
0
 10
-1.3125
 20
37.7267
 11
-1.39809
 21
37.7783
  0
LINE
  8
0
 10
-1.39809
 20
37.7783
 11
-1.48166
 21
37.8331
  0
LINE
  8
0
 10
-1.48166
 20
37.8331
 11
-1.56308
 21
37.8911
  0
LINE
  8
0
 10
-1.56308
 20
37.8911
 11
-1.64223
 21
37.9521
  0
LINE
  8
0
 10
-1.64223
 20
37.9521
 11
-1.71901
 21
38.0161
  0
LINE
  8
0
 10
-1.71901
 20
38.0161
 11
-1.79329
 21
38.083
  0
LINE
  8
0
 10
-1.79329
 20
38.083
 11
-1.86496
 21
38.1527
  0
LINE
  8
0
 10
-1.86496
 20
38.1527
 11
-1.93394
 21
38.225
  0
LINE
  8
0
 10
-1.93394
 20
38.225
 11
-2.00011
 21
38.2999
  0
LINE
  8
0
 10
-2.00011
 20
38.2999
 11
-2.06339
 21
38.3773
  0
LINE
  8
0
 10
-2.06339
 20
38.3773
 11
-2.12366
 21
38.4571
  0
LINE
  8
0
 10
-2.12366
 20
38.4571
 11
-2.18086
 21
38.539
  0
LINE
  8
0
 10
-2.18086
 20
38.539
 11
-2.23491
 21
38.6231
  0
LINE
  8
0
 10
-2.23491
 20
38.6231
 11
-2.28571
 21
38.7092
  0
LINE
  8
0
 10
-2.28571
 20
38.7092
 11
-2.33319
 21
38.7971
  0
LINE
  8
0
 10
-2.33319
 20
38.7971
 11
-2.37729
 21
38.8868
  0
LINE
  8
0
 10
-2.37729
 20
38.8868
 11
-2.41794
 21
38.9782
  0
LINE
  8
0
 10
-2.41794
 20
38.9782
 11
-2.45509
 21
39.071
  0
LINE
  8
0
 10
-2.45509
 20
39.071
 11
-2.48868
 21
39.1651
  0
LINE
  8
0
 10
-2.48868
 20
39.1651
 11
-2.51866
 21
39.2604
  0
LINE
  8
0
 10
-2.51866
 20
39.2604
 11
-2.545
 21
39.3569
  0
LINE
  8
0
 10
-2.545
 20
39.3569
 11
-2.56763
 21
39.4542
  0
LINE
  8
0
 10
-2.56763
 20
39.4542
 11
-2.58655
 21
39.5524
  0
LINE
  8
0
 10
-2.58655
 20
39.5524
 11
-2.60172
 21
39.6512
  0
LINE
  8
0
 10
-2.60172
 20
39.6512
 11
-2.61311
 21
39.7505
  0
LINE
  8
0
 10
-2.61311
 20
39.7505
 11
-2.62071
 21
39.8501
  0
LINE
  8
0
 10
-2.62071
 20
39.8501
 11
-2.62451
 21
39.95
  0
LINE
  8
0
 10
-2.62451
 20
39.95
 11
-2.62451
 21
40.05
  0
LINE
  8
0
 10
-2.62451
 20
40.05
 11
-2.62071
 21
40.1499
  0
LINE
  8
0
 10
-2.62071
 20
40.1499
 11
-2.61311
 21
40.2495
  0
LINE
  8
0
 10
-2.61311
 20
40.2495
 11
-2.60172
 21
40.3488
  0
LINE
  8
0
 10
-2.60172
 20
40.3488
 11
-2.58655
 21
40.4476
  0
LINE
  8
0
 10
-2.58655
 20
40.4476
 11
-2.56763
 21
40.5458
  0
LINE
  8
0
 10
-2.56763
 20
40.5458
 11
-2.545
 21
40.6431
  0
LINE
  8
0
 10
-2.545
 20
40.6431
 11
-2.51866
 21
40.7395
  0
LINE
  8
0
 10
-2.51866
 20
40.7395
 11
-2.48868
 21
40.8349
  0
LINE
  8
0
 10
-2.48868
 20
40.8349
 11
-2.45509
 21
40.929
  0
LINE
  8
0
 10
-2.45509
 20
40.929
 11
-2.41794
 21
41.0218
  0
LINE
  8
0
 10
-2.41794
 20
41.0218
 11
-2.37729
 21
41.1131
  0
LINE
  8
0
 10
-2.37729
 20
41.1131
 11
-2.33319
 21
41.2028
  0
LINE
  8
0
 10
-2.33319
 20
41.2028
 11
-2.28571
 21
41.2908
  0
LINE
  8
0
 10
-2.28571
 20
41.2908
 11
-2.23491
 21
41.3769
  0
LINE
  8
0
 10
-2.23491
 20
41.3769
 11
-2.18086
 21
41.461
  0
LINE
  8
0
 10
-2.18086
 20
41.461
 11
-2.12366
 21
41.5429
  0
LINE
  8
0
 10
-2.12366
 20
41.5429
 11
-2.06339
 21
41.6227
  0
LINE
  8
0
 10
-2.06339
 20
41.6227
 11
-2.00011
 21
41.7
  0
LINE
  8
0
 10
-2.00011
 20
41.7
 11
-1.93394
 21
41.7749
  0
LINE
  8
0
 10
-1.93394
 20
41.7749
 11
-1.86496
 21
41.8473
  0
LINE
  8
0
 10
-1.86496
 20
41.8473
 11
-1.79329
 21
41.9169
  0
LINE
  8
0
 10
-1.79329
 20
41.9169
 11
-1.71901
 21
41.9838
  0
LINE
  8
0
 10
-1.71901
 20
41.9838
 11
-1.64223
 21
42.0478
  0
LINE
  8
0
 10
-1.64223
 20
42.0478
 11
-1.56308
 21
42.1089
  0
LINE
  8
0
 10
-1.56308
 20
42.1089
 11
-1.48166
 21
42.1669
  0
LINE
  8
0
 10
-1.48166
 20
42.1669
 11
-1.39809
 21
42.2217
  0
LINE
  8
0
 10
-1.39809
 20
42.2217
 11
-1.3125
 21
42.2733
  0
LINE
  8
0
 10
-1.3125
 20
42.2733
 11
-1.22499
 21
42.3216
  0
LINE
  8
0
 10
-1.22499
 20
42.3216
 11
-1.13573
 21
42.3666
  0
LINE
  8
0
 10
-1.13573
 20
42.3666
 11
-1.0448
 21
42.4081
  0
LINE
  8
0
 10
-1.0448
 20
42.4081
 11
-0.952362
 21
42.4461
  0
LINE
  8
0
 10
-0.952362
 20
42.4461
 11
-0.858551
 21
42.4806
  0
LINE
  8
0
 10
-0.858551
 20
42.4806
 11
-0.763489
 21
42.5115
  0
LINE
  8
0
 10
-0.763489
 20
42.5115
 11
-0.667313
 21
42.5388
  0
LINE
  8
0
 10
-0.667313
 20
42.5388
 11
-0.570175
 21
42.5623
  0
LINE
  8
0
 10
-0.570175
 20
42.5623
 11
-0.472214
 21
42.5822
  0
LINE
  8
0
 10
-0.472214
 20
42.5822
 11
-0.373566
 21
42.5983
  0
LINE
  8
0
 10
-0.373566
 20
42.5983
 11
-0.274384
 21
42.6106
  0
LINE
  8
0
 10
-0.274384
 20
42.6106
 11
-0.174789
 21
42.6192
  0
LINE
  8
0
 10
-0.174789
 20
42.6192
 11
-0.0749512
 21
42.6239
  0
LINE
  8
0
 10
-0.0749512
 20
42.6239
 11
0.0249786
 21
42.6249
  0
LINE
  8
0
 10
0.0249786
 20
42.6249
 11
0.124893
 21
42.622
  0
LINE
  8
0
 10
0.124893
 20
42.622
 11
0.224625
 21
42.6154
  0
LINE
  8
0
 10
0.224625
 20
42.6154
 11
0.324036
 21
42.6049
  0
LINE
  8
0
 10
0.324036
 20
42.6049
 11
0.422974
 21
42.5907
  0
LINE
  8
0
 10
0.422974
 20
42.5907
 11
0.521286
 21
42.5727
  0
LINE
  8
0
 10
0.521286
 20
42.5727
 11
0.618866
 21
42.551
  0
LINE
  8
0
 10
0.618866
 20
42.551
 11
0.71553
 21
42.5256
  0
LINE
  8
0
 10
0.71553
 20
42.5256
 11
0.811157
 21
42.4965
  0
LINE
  8
0
 10
0.811157
 20
42.4965
 11
0.905624
 21
42.4638
  0
LINE
  8
0
 10
0.905624
 20
42.4638
 11
0.998764
 21
42.4276
  0
LINE
  8
0
 10
0.998764
 20
42.4276
 11
1.09045
 21
42.3878
  0
LINE
  8
0
 10
1.09045
 20
42.3878
 11
1.18057
 21
42.3445
  0
LINE
  8
0
 10
1.18057
 20
42.3445
 11
1.26897
 21
42.2979
  0
LINE
  8
0
 10
1.26897
 20
42.2979
 11
1.35553
 21
42.2479
  0
LINE
  8
0
 10
1.35553
 20
42.2479
 11
1.44014
 21
42.1947
  0
LINE
  8
0
 10
1.44014
 20
42.1947
 11
1.52264
 21
42.1383
  0
LINE
  8
0
 10
1.52264
 20
42.1383
 11
1.60294
 21
42.0787
  0
LINE
  8
0
 10
1.60294
 20
42.0787
 11
1.68092
 21
42.0162
  0
LINE
  8
0
 10
1.68092
 20
42.0162
 11
1.75645
 21
41.9507
  0
LINE
  8
0
 10
1.75645
 20
41.9507
 11
1.82945
 21
41.8825
  0
LINE
  8
0
 10
1.82945
 20
41.8825
 11
1.8998
 21
41.8114
  0
LINE
  8
0
 10
1.8998
 20
41.8114
 11
1.96738
 21
41.7378
  0
LINE
  8
0
 10
1.96738
 20
41.7378
 11
2.03212
 21
41.6617
  0
LINE
  8
0
 10
2.03212
 20
41.6617
 11
2.0939
 21
41.5831
  0
LINE
  8
0
 10
2.0939
 20
41.5831
 11
2.15265
 21
41.5022
  0
LINE
  8
0
 10
2.15265
 20
41.5022
 11
2.20828
 21
41.4192
  0
LINE
  8
0
 10
2.20828
 20
41.4192
 11
2.26071
 21
41.3341
  0
LINE
  8
0
 10
2.26071
 20
41.3341
 11
2.30986
 21
41.247
  0
LINE
  8
0
 10
2.30986
 20
41.247
 11
2.35567
 21
41.1582
  0
LINE
  8
0
 10
2.35567
 20
41.1582
 11
2.39806
 21
41.0677
  0
LINE
  8
0
 10
2.39806
 20
41.0677
 11
2.43695
 21
40.9756
  0
LINE
  8
0
 10
2.43695
 20
40.9756
 11
2.47234
 21
40.8821
  0
LINE
  8
0
 10
2.47234
 20
40.8821
 11
2.50412
 21
40.7874
  0
LINE
  8
0
 10
2.50412
 20
40.7874
 11
2.53229
 21
40.6915
  0
LINE
  8
0
 10
2.53229
 20
40.6915
 11
2.55678
 21
40.5945
  0
LINE
  8
0
 10
2.55678
 20
40.5945
 11
2.57756
 21
40.4968
  0
LINE
  8
0
 10
2.57756
 20
40.4968
 11
2.5946
 21
40.3983
  0
LINE
  8
0
 10
2.5946
 20
40.3983
 11
2.60788
 21
40.2992
  0
LINE
  8
0
 10
2.60788
 20
40.2992
 11
2.61739
 21
40.1997
  0
LINE
  8
0
 10
2.61739
 20
40.1997
 11
2.62309
 21
40.0999
  0
LINE
  8
0
 10
2.62309
 20
40.0999
 11
2.625
 21
40
  0
LINE
  8
0
 10
2.625
 20
40
 11
2.62309
 21
39.9001
  0
LINE
  8
0
 10
2.62309
 20
39.9001
 11
2.61739
 21
39.8003
  0
LINE
  8
0
 10
2.61739
 20
39.8003
 11
2.60788
 21
39.7008
  0
LINE
  8
0
 10
2.60788
 20
39.7008
 11
2.5946
 21
39.6017
  0
LINE
  8
0
 10
2.5946
 20
39.6017
 11
2.57756
 21
39.5032
  0
LINE
  8
0
 10
2.57756
 20
39.5032
 11
2.55678
 21
39.4054
  0
LINE
  8
0
 10
2.55678
 20
39.4054
 11
2.53229
 21
39.3085
  0
LINE
  8
0
 10
2.53229
 20
39.3085
 11
2.50412
 21
39.2126
  0
LINE
  8
0
 10
2.50412
 20
39.2126
 11
2.47234
 21
39.1179
  0
LINE
  8
0
 10
2.47234
 20
39.1179
 11
2.43695
 21
39.0244
  0
LINE
  8
0
 10
2.43695
 20
39.0244
 11
2.39806
 21
38.9323
  0
LINE
  8
0
 10
2.39806
 20
38.9323
 11
2.35567
 21
38.8418
  0
LINE
  8
0
 10
2.35567
 20
38.8418
 11
2.30986
 21
38.7529
  0
LINE
  8
0
 10
2.30986
 20
38.7529
 11
2.26071
 21
38.6659
  0
LINE
  8
0
 10
2.26071
 20
38.6659
 11
2.20828
 21
38.5808
  0
LINE
  8
0
 10
2.20828
 20
38.5808
 11
2.15265
 21
38.4978
  0
LINE
  8
0
 10
2.15265
 20
38.4978
 11
2.0939
 21
38.4169
  0
LINE
  8
0
 10
2.0939
 20
38.4169
 11
2.03212
 21
38.3383
  0
LINE
  8
0
 10
2.03212
 20
38.3383
 11
1.96738
 21
38.2622
  0
LINE
  8
0
 10
1.96738
 20
38.2622
 11
1.8998
 21
38.1885
  0
LINE
  8
0
 10
1.8998
 20
38.1885
 11
1.82945
 21
38.1175
  0
LINE
  8
0
 10
1.82945
 20
38.1175
 11
1.75645
 21
38.0492
  0
LINE
  8
0
 10
1.75645
 20
38.0492
 11
1.68092
 21
37.9838
  0
LINE
  8
0
 10
1.68092
 20
37.9838
 11
1.60294
 21
37.9212
  0
LINE
  8
0
 10
1.60294
 20
37.9212
 11
1.52264
 21
37.8617
  0
LINE
  8
0
 10
1.52264
 20
37.8617
 11
1.44014
 21
37.8053
  0
LINE
  8
0
 10
1.44014
 20
37.8053
 11
1.35553
 21
37.7521
  0
LINE
  8
0
 10
1.35553
 20
37.7521
 11
1.26897
 21
37.7021
  0
LINE
  8
0
 10
1.26897
 20
37.7021
 11
1.18057
 21
37.6555
  0
LINE
  8
0
 10
1.18057
 20
37.6555
 11
1.09045
 21
37.6122
  0
LINE
  8
0
 10
1.09045
 20
37.6122
 11
0.998764
 21
37.5724
  0
LINE
  8
0
 10
0.998764
 20
37.5724
 11
0.905624
 21
37.5362
  0
LINE
  8
0
 10
0.905624
 20
37.5362
 11
0.811157
 21
37.5035
  0
LINE
  8
0
 10
0.811157
 20
37.5035
 11
0.71553
 21
37.4744
  0
LINE
  8
0
 10
0.71553
 20
37.4744
 11
0.618866
 21
37.449
  0
LINE
  8
0
 10
0.618866
 20
37.449
 11
0.521286
 21
37.4273
  0
LINE
  8
0
 10
0.521286
 20
37.4273
 11
0.422974
 21
37.4093
  0
LINE
  8
0
 10
0.422974
 20
37.4093
 11
0.324036
 21
37.3951
  0
LINE
  8
0
 10
0.324036
 20
37.3951
 11
0.224625
 21
37.3846
  0
LINE
  8
0
 10
0.224625
 20
37.3846
 11
0.124893
 21
37.378
  0
LINE
  8
0
 10
0.124893
 20
37.378
 11
0.0249786
 21
37.3751
  0
LINE
  8
0
 10
0.0249786
 20
37.3751
 11
-0.0749512
 21
37.3761
  0
LINE
  8
0
 10
-9.35628
 20
0
 11
-9.35628
 21
5.03169
  0
LINE
  8
0
 10
-9.35628
 20
5.03169
 11
-8.74597
 21
5.03169
  0
LINE
  8
0
 10
-8.74597
 20
5.03169
 11
-8.74597
 21
0
  0
LINE
  8
0
 10
-8.74597
 20
0
 11
-9.35628
 21
0
  0
LINE
  8
0
 10
-10.863
 20
0
 11
-10.863
 21
5.03169
  0
LINE
  8
0
 10
-10.863
 20
5.03169
 11
-10.2527
 21
5.03169
  0
LINE
  8
0
 10
-10.2527
 20
5.03169
 11
-10.2527
 21
0
  0
LINE
  8
0
 10
-10.2527
 20
0
 11
-10.863
 21
0
  0
LINE
  8
0
 10
-19.4304
 20
0
 11
-19.4304
 21
4.77739
  0
LINE
  8
0
 10
-19.4304
 20
4.77739
 11
-18.7828
 21
4.77739
  0
LINE
  8
0
 10
-18.7828
 20
4.77739
 11
-18.7828
 21
2.75659
  0
LINE
  8
0
 10
-18.7828
 20
2.75659
 11
-16.1991
 21
2.75659
  0
LINE
  8
0
 10
-16.1991
 20
2.75659
 11
-16.1991
 21
4.77739
  0
LINE
  8
0
 10
-16.1991
 20
4.77739
 11
-15.5515
 21
4.77739
  0
LINE
  8
0
 10
-15.5515
 20
4.77739
 11
-15.5515
 21
0
  0
LINE
  8
0
 10
-15.5515
 20
0
 11
-16.1991
 21
0
  0
LINE
  8
0
 10
-16.1991
 20
0
 11
-16.1991
 21
2.2141
  0
LINE
  8
0
 10
-16.1991
 20
2.2141
 11
-18.7828
 21
2.2141
  0
LINE
  8
0
 10
-18.7828
 20
2.2141
 11
-18.7828
 21
0
  0
LINE
  8
0
 10
-18.7828
 20
0
 11
-19.4304
 21
0
  0
LINE
  8
0
 10
-13.1831
 20
-0.0674896
 11
-13.2231
 21
-0.0665741
  0
LINE
  8
0
 10
-13.2231
 20
-0.0665741
 11
-13.2626
 21
-0.0650635
  0
LINE
  8
0
 10
-13.2626
 20
-0.0650635
 11
-13.3016
 21
-0.0629425
  0
LINE
  8
0
 10
-13.3016
 20
-0.0629425
 11
-13.3401
 21
-0.0602112
  0
LINE
  8
0
 10
-13.3401
 20
-0.0602112
 11
-13.3781
 21
-0.0568848
  0
LINE
  8
0
 10
-13.3781
 20
-0.0568848
 11
-13.4156
 21
-0.052948
  0
LINE
  8
0
 10
-13.4156
 20
-0.052948
 11
-13.4527
 21
-0.0484009
  0
LINE
  8
0
 10
-13.4527
 20
-0.0484009
 11
-13.4892
 21
-0.0432434
  0
LINE
  8
0
 10
-13.4892
 20
-0.0432434
 11
-13.5253
 21
-0.0374908
  0
LINE
  8
0
 10
-13.5253
 20
-0.0374908
 11
-13.5609
 21
-0.0311279
  0
LINE
  8
0
 10
-13.5609
 20
-0.0311279
 11
-13.596
 21
-0.0241547
  0
LINE
  8
0
 10
-13.596
 20
-0.0241547
 11
-13.6306
 21
-0.0165863
  0
LINE
  8
0
 10
-13.6306
 20
-0.0165863
 11
-13.6648
 21
-0.00839233
  0
LINE
  8
0
 10
-13.6648
 20
-0.00839233
 11
-13.6984
 21
0.00038147
  0
LINE
  8
0
 10
-13.6984
 20
0.00038147
 11
-13.7316
 21
0.00976562
  0
LINE
  8
0
 10
-13.7316
 20
0.00976562
 11
-13.7643
 21
0.0197754
  0
LINE
  8
0
 10
-13.7643
 20
0.0197754
 11
-13.7965
 21
0.0303802
  0
LINE
  8
0
 10
-13.7965
 20
0.0303802
 11
-13.8282
 21
0.0415802
  0
LINE
  8
0
 10
-13.8282
 20
0.0415802
 11
-13.8594
 21
0.0534058
  0
LINE
  8
0
 10
-13.8594
 20
0.0534058
 11
-13.8901
 21
0.0658264
  0
LINE
  8
0
 10
-13.8901
 20
0.0658264
 11
-13.9204
 21
0.0788574
  0
LINE
  8
0
 10
-13.9204
 20
0.0788574
 11
-13.9502
 21
0.0924988
  0
LINE
  8
0
 10
-13.9502
 20
0.0924988
 11
-13.9794
 21
0.106735
  0
LINE
  8
0
 10
-13.9794
 20
0.106735
 11
-14.0082
 21
0.121582
  0
LINE
  8
0
 10
-14.0082
 20
0.121582
 11
-14.0366
 21
0.137039
  0
LINE
  8
0
 10
-14.0366
 20
0.137039
 11
-14.0644
 21
0.153107
  0
LINE
  8
0
 10
-14.0644
 20
0.153107
 11
-14.0917
 21
0.169769
  0
LINE
  8
0
 10
-14.0917
 20
0.169769
 11
-14.1186
 21
0.187042
  0
LINE
  8
0
 10
-14.1186
 20
0.187042
 11
-14.145
 21
0.204926
  0
LINE
  8
0
 10
-14.145
 20
0.204926
 11
-14.1709
 21
0.223404
  0
LINE
  8
0
 10
-14.1709
 20
0.223404
 11
-14.1962
 21
0.242493
  0
LINE
  8
0
 10
-14.1962
 20
0.242493
 11
-14.2212
 21
0.262192
  0
LINE
  8
0
 10
-14.2212
 20
0.262192
 11
-14.2456
 21
0.282501
  0
LINE
  8
0
 10
-14.2456
 20
0.282501
 11
-14.2695
 21
0.303406
  0
LINE
  8
0
 10
-14.2695
 20
0.303406
 11
-14.293
 21
0.324921
  0
LINE
  8
0
 10
-14.293
 20
0.324921
 11
-14.316
 21
0.347046
  0
LINE
  8
0
 10
-14.316
 20
0.347046
 11
-14.3385
 21
0.369766
  0
LINE
  8
0
 10
-14.3385
 20
0.369766
 11
-14.3605
 21
0.393097
  0
LINE
  8
0
 10
-14.3605
 20
0.393097
 11
-14.382
 21
0.417038
  0
LINE
  8
0
 10
-14.382
 20
0.417038
 11
-14.403
 21
0.441574
  0
LINE
  8
0
 10
-14.403
 20
0.441574
 11
-14.4235
 21
0.466705
  0
LINE
  8
0
 10
-14.4235
 20
0.466705
 11
-14.4434
 21
0.492416
  0
LINE
  8
0
 10
-14.4434
 20
0.492416
 11
-14.4628
 21
0.518723
  0
LINE
  8
0
 10
-14.4628
 20
0.518723
 11
-14.4817
 21
0.545624
  0
LINE
  8
0
 10
-14.4817
 20
0.545624
 11
-14.5001
 21
0.573105
  0
LINE
  8
0
 10
-14.5001
 20
0.573105
 11
-14.5179
 21
0.601181
  0
LINE
  8
0
 10
-14.5179
 20
0.601181
 11
-14.5352
 21
0.629837
  0
LINE
  8
0
 10
-14.5352
 20
0.629837
 11
-14.5519
 21
0.659088
  0
LINE
  8
0
 10
-14.5519
 20
0.659088
 11
-14.5682
 21
0.688919
  0
LINE
  8
0
 10
-14.5682
 20
0.688919
 11
-14.5838
 21
0.719345
  0
LINE
  8
0
 10
-14.5838
 20
0.719345
 11
-14.599
 21
0.750366
  0
LINE
  8
0
 10
-14.599
 20
0.750366
 11
-14.6136
 21
0.781982
  0
LINE
  8
0
 10
-14.6136
 20
0.781982
 11
-14.6277
 21
0.814178
  0
LINE
  8
0
 10
-14.6277
 20
0.814178
 11
-14.6413
 21
0.846954
  0
LINE
  8
0
 10
-14.6413
 20
0.846954
 11
-14.6543
 21
0.880325
  0
LINE
  8
0
 10
-14.6543
 20
0.880325
 11
-14.6668
 21
0.914291
  0
LINE
  8
0
 10
-14.6668
 20
0.914291
 11
-14.6788
 21
0.948853
  0
LINE
  8
0
 10
-14.6788
 20
0.948853
 11
-14.6902
 21
0.983994
  0
LINE
  8
0
 10
-14.6902
 20
0.983994
 11
-14.7011
 21
1.01971
  0
LINE
  8
0
 10
-14.7011
 20
1.01971
 11
-14.7115
 21
1.05603
  0
LINE
  8
0
 10
-14.7115
 20
1.05603
 11
-14.7213
 21
1.09294
  0
LINE
  8
0
 10
-14.7213
 20
1.09294
 11
-14.7306
 21
1.13045
  0
LINE
  8
0
 10
-14.7306
 20
1.13045
 11
-14.7394
 21
1.16853
  0
LINE
  8
0
 10
-14.7394
 20
1.16853
 11
-14.7477
 21
1.2072
  0
LINE
  8
0
 10
-14.7477
 20
1.2072
 11
-14.7554
 21
1.24648
  0
LINE
  8
0
 10
-14.7554
 20
1.24648
 11
-14.7626
 21
1.28633
  0
LINE
  8
0
 10
-14.7626
 20
1.28633
 11
-14.7692
 21
1.32677
  0
LINE
  8
0
 10
-14.7692
 20
1.32677
 11
-14.7753
 21
1.3678
  0
LINE
  8
0
 10
-14.7753
 20
1.3678
 11
-14.7809
 21
1.40942
  0
LINE
  8
0
 10
-14.7809
 20
1.40942
 11
-14.7859
 21
1.45163
  0
LINE
  8
0
 10
-14.7859
 20
1.45163
 11
-14.7905
 21
1.49443
  0
LINE
  8
0
 10
-14.7905
 20
1.49443
 11
-14.7945
 21
1.53783
  0
LINE
  8
0
 10
-14.7945
 20
1.53783
 11
-14.7979
 21
1.5818
  0
LINE
  8
0
 10
-14.7979
 20
1.5818
 11
-14.8008
 21
1.62637
  0
LINE
  8
0
 10
-14.8008
 20
1.62637
 11
-14.8032
 21
1.67152
  0
LINE
  8
0
 10
-14.8032
 20
1.67152
 11
-14.8051
 21
1.71727
  0
LINE
  8
0
 10
-14.8051
 20
1.71727
 11
-14.8064
 21
1.76361
  0
LINE
  8
0
 10
-14.8064
 20
1.76361
 11
-14.8072
 21
1.81053
  0
LINE
  8
0
 10
-14.8072
 20
1.81053
 11
-14.8075
 21
1.85805
  0
LINE
  8
0
 10
-14.8075
 20
1.85805
 11
-14.8072
 21
1.90321
  0
LINE
  8
0
 10
-14.8072
 20
1.90321
 11
-14.8064
 21
1.94785
  0
LINE
  8
0
 10
-14.8064
 20
1.94785
 11
-14.8051
 21
1.99196
  0
LINE
  8
0
 10
-14.8051
 20
1.99196
 11
-14.8032
 21
2.03554
  0
LINE
  8
0
 10
-14.8032
 20
2.03554
 11
-14.8008
 21
2.0786
  0
LINE
  8
0
 10
-14.8008
 20
2.0786
 11
-14.7979
 21
2.12111
  0
LINE
  8
0
 10
-14.7979
 20
2.12111
 11
-14.7945
 21
2.1631
  0
LINE
  8
0
 10
-14.7945
 20
2.1631
 11
-14.7905
 21
2.20457
  0
LINE
  8
0
 10
-14.7905
 20
2.20457
 11
-14.7859
 21
2.2455
  0
LINE
  8
0
 10
-14.7859
 20
2.2455
 11
-14.7809
 21
2.2859
  0
LINE
  8
0
 10
-14.7809
 20
2.2859
 11
-14.7753
 21
2.32578
  0
LINE
  8
0
 10
-14.7753
 20
2.32578
 11
-14.7692
 21
2.36511
  0
LINE
  8
0
 10
-14.7692
 20
2.36511
 11
-14.7626
 21
2.40393
  0
LINE
  8
0
 10
-14.7626
 20
2.40393
 11
-14.7554
 21
2.44221
  0
LINE
  8
0
 10
-14.7554
 20
2.44221
 11
-14.7477
 21
2.47997
  0
LINE
  8
0
 10
-14.7477
 20
2.47997
 11
-14.7394
 21
2.51718
  0
LINE
  8
0
 10
-14.7394
 20
2.51718
 11
-14.7306
 21
2.55388
  0
LINE
  8
0
 10
-14.7306
 20
2.55388
 11
-14.7213
 21
2.59004
  0
LINE
  8
0
 10
-14.7213
 20
2.59004
 11
-14.7115
 21
2.62567
  0
LINE
  8
0
 10
-14.7115
 20
2.62567
 11
-14.7011
 21
2.66078
  0
LINE
  8
0
 10
-14.7011
 20
2.66078
 11
-14.6902
 21
2.69536
  0
LINE
  8
0
 10
-14.6902
 20
2.69536
 11
-14.6788
 21
2.7294
  0
LINE
  8
0
 10
-14.6788
 20
2.7294
 11
-14.6668
 21
2.76291
  0
LINE
  8
0
 10
-14.6668
 20
2.76291
 11
-14.6543
 21
2.7959
  0
LINE
  8
0
 10
-14.6543
 20
2.7959
 11
-14.6413
 21
2.82835
  0
LINE
  8
0
 10
-14.6413
 20
2.82835
 11
-14.6277
 21
2.86028
  0
LINE
  8
0
 10
-14.6277
 20
2.86028
 11
-14.6136
 21
2.89168
  0
LINE
  8
0
 10
-14.6136
 20
2.89168
 11
-14.599
 21
2.92253
  0
LINE
  8
0
 10
-14.599
 20
2.92253
 11
-14.5838
 21
2.95287
  0
LINE
  8
0
 10
-14.5838
 20
2.95287
 11
-14.5682
 21
2.98268
  0
LINE
  8
0
 10
-14.5682
 20
2.98268
 11
-14.5519
 21
3.01195
  0
LINE
  8
0
 10
-14.5519
 20
3.01195
 11
-14.5352
 21
3.0407
  0
LINE
  8
0
 10
-14.5352
 20
3.0407
 11
-14.5179
 21
3.06891
  0
LINE
  8
0
 10
-14.5179
 20
3.06891
 11
-14.5001
 21
3.0966
  0
LINE
  8
0
 10
-14.5001
 20
3.0966
 11
-14.4817
 21
3.12376
  0
LINE
  8
0
 10
-14.4817
 20
3.12376
 11
-14.4628
 21
3.15039
  0
LINE
  8
0
 10
-14.4628
 20
3.15039
 11
-14.4434
 21
3.17648
  0
LINE
  8
0
 10
-14.4434
 20
3.17648
 11
-14.4235
 21
3.20204
  0
LINE
  8
0
 10
-14.4235
 20
3.20204
 11
-14.403
 21
3.22708
  0
LINE
  8
0
 10
-14.403
 20
3.22708
 11
-14.382
 21
3.25159
  0
LINE
  8
0
 10
-14.382
 20
3.25159
 11
-14.3605
 21
3.27553
  0
LINE
  8
0
 10
-14.3605
 20
3.27553
 11
-14.3385
 21
3.29886
  0
LINE
  8
0
 10
-14.3385
 20
3.29886
 11
-14.3161
 21
3.32159
  0
LINE
  8
0
 10
-14.3161
 20
3.32159
 11
-14.2932
 21
3.34372
  0
LINE
  8
0
 10
-14.2932
 20
3.34372
 11
-14.2699
 21
3.36523
  0
LINE
  8
0
 10
-14.2699
 20
3.36523
 11
-14.2461
 21
3.38614
  0
LINE
  8
0
 10
-14.2461
 20
3.38614
 11
-14.2219
 21
3.40645
  0
LINE
  8
0
 10
-14.2219
 20
3.40645
 11
-14.1972
 21
3.42613
  0
LINE
  8
0
 10
-14.1972
 20
3.42613
 11
-14.172
 21
3.44524
  0
LINE
  8
0
 10
-14.172
 20
3.44524
 11
-14.1464
 21
3.46371
  0
LINE
  8
0
 10
-14.1464
 20
3.46371
 11
-14.1204
 21
3.4816
  0
LINE
  8
0
 10
-14.1204
 20
3.4816
 11
-14.0939
 21
3.49887
  0
LINE
  8
0
 10
-14.0939
 20
3.49887
 11
-14.0669
 21
3.51553
  0
LINE
  8
0
 10
-14.0669
 20
3.51553
 11
-14.0395
 21
3.53159
  0
LINE
  8
0
 10
-14.0395
 20
3.53159
 11
-14.0116
 21
3.54704
  0
LINE
  8
0
 10
-14.0116
 20
3.54704
 11
-13.9832
 21
3.56189
  0
LINE
  8
0
 10
-13.9832
 20
3.56189
 11
-13.9545
 21
3.57614
  0
LINE
  8
0
 10
-13.9545
 20
3.57614
 11
-13.9252
 21
3.58978
  0
LINE
  8
0
 10
-13.9252
 20
3.58978
 11
-13.8955
 21
3.6028
  0
LINE
  8
0
 10
-13.8955
 20
3.6028
 11
-13.8653
 21
3.61523
  0
LINE
  8
0
 10
-13.8653
 20
3.61523
 11
-13.8347
 21
3.62704
  0
LINE
  8
0
 10
-13.8347
 20
3.62704
 11
-13.8036
 21
3.63826
  0
LINE
  8
0
 10
-13.8036
 20
3.63826
 11
-13.7721
 21
3.64886
  0
LINE
  8
0
 10
-13.7721
 20
3.64886
 11
-13.7401
 21
3.65886
  0
LINE
  8
0
 10
-13.7401
 20
3.65886
 11
-13.7077
 21
3.66826
  0
LINE
  8
0
 10
-13.7077
 20
3.66826
 11
-13.6748
 21
3.67705
  0
LINE
  8
0
 10
-13.6748
 20
3.67705
 11
-13.6414
 21
3.68523
  0
LINE
  8
0
 10
-13.6414
 20
3.68523
 11
-13.6077
 21
3.69281
  0
LINE
  8
0
 10
-13.6077
 20
3.69281
 11
-13.5734
 21
3.69977
  0
LINE
  8
0
 10
-13.5734
 20
3.69977
 11
-13.5387
 21
3.70615
  0
LINE
  8
0
 10
-13.5387
 20
3.70615
 11
-13.5035
 21
3.7119
  0
LINE
  8
0
 10
-13.5035
 20
3.7119
 11
-13.4679
 21
3.71704
  0
LINE
  8
0
 10
-13.4679
 20
3.71704
 11
-13.4318
 21
3.72159
  0
LINE
  8
0
 10
-13.4318
 20
3.72159
 11
-13.3952
 21
3.72554
  0
LINE
  8
0
 10
-13.3952
 20
3.72554
 11
-13.3582
 21
3.72887
  0
LINE
  8
0
 10
-13.3582
 20
3.72887
 11
-13.3208
 21
3.7316
  0
LINE
  8
0
 10
-13.3208
 20
3.7316
 11
-13.2829
 21
3.73372
  0
LINE
  8
0
 10
-13.2829
 20
3.73372
 11
-13.2445
 21
3.73523
  0
LINE
  8
0
 10
-13.2445
 20
3.73523
 11
-13.2057
 21
3.73615
  0
LINE
  8
0
 10
-13.2057
 20
3.73615
 11
-13.1664
 21
3.73643
  0
LINE
  8
0
 10
-13.1664
 20
3.73643
 11
-13.0866
 21
3.73523
  0
LINE
  8
0
 10
-13.0866
 20
3.73523
 11
-13.0088
 21
3.73157
  0
LINE
  8
0
 10
-13.0088
 20
3.73157
 11
-12.9329
 21
3.72548
  0
LINE
  8
0
 10
-12.9329
 20
3.72548
 11
-12.8591
 21
3.71695
  0
LINE
  8
0
 10
-12.8591
 20
3.71695
 11
-12.7874
 21
3.70598
  0
LINE
  8
0
 10
-12.7874
 20
3.70598
 11
-12.7176
 21
3.69258
  0
LINE
  8
0
 10
-12.7176
 20
3.69258
 11
-12.6499
 21
3.67674
  0
LINE
  8
0
 10
-12.6499
 20
3.67674
 11
-12.5842
 21
3.65846
  0
LINE
  8
0
 10
-12.5842
 20
3.65846
 11
-12.5205
 21
3.63774
  0
LINE
  8
0
 10
-12.5205
 20
3.63774
 11
-12.4589
 21
3.61459
  0
LINE
  8
0
 10
-12.4589
 20
3.61459
 11
-12.3992
 21
3.589
  0
LINE
  8
0
 10
-12.3992
 20
3.589
 11
-12.3416
 21
3.56097
  0
LINE
  8
0
 10
-12.3416
 20
3.56097
 11
-12.286
 21
3.53052
  0
LINE
  8
0
 10
-12.286
 20
3.53052
 11
-12.2324
 21
3.49762
  0
LINE
  8
0
 10
-12.2324
 20
3.49762
 11
-12.1809
 21
3.46228
  0
LINE
  8
0
 10
-12.1809
 20
3.46228
 11
-12.1313
 21
3.4245
  0
LINE
  8
0
 10
-12.1313
 20
3.4245
 11
-12.0838
 21
3.38429
  0
LINE
  8
0
 10
-12.0838
 20
3.38429
 11
-12.0383
 21
3.34164
  0
LINE
  8
0
 10
-12.0383
 20
3.34164
 11
-11.9949
 21
3.29657
  0
LINE
  8
0
 10
-11.9949
 20
3.29657
 11
-11.9534
 21
3.24904
  0
LINE
  8
0
 10
-11.9534
 20
3.24904
 11
-11.914
 21
3.19908
  0
LINE
  8
0
 10
-11.914
 20
3.19908
 11
-11.8766
 21
3.14668
  0
LINE
  8
0
 10
-11.8766
 20
3.14668
 11
-11.8412
 21
3.09186
  0
LINE
  8
0
 10
-11.8412
 20
3.09186
 11
-11.8079
 21
3.03459
  0
LINE
  8
0
 10
-11.8079
 20
3.03459
 11
-11.7765
 21
2.97488
  0
LINE
  8
0
 10
-11.7765
 20
2.97488
 11
-11.7472
 21
2.91273
  0
LINE
  8
0
 10
-11.7472
 20
2.91273
 11
-11.7199
 21
2.84816
  0
LINE
  8
0
 10
-11.7199
 20
2.84816
 11
-11.6947
 21
2.78114
  0
LINE
  8
0
 10
-11.6947
 20
2.78114
 11
-11.6714
 21
2.71169
  0
LINE
  8
0
 10
-11.6714
 20
2.71169
 11
-11.6502
 21
2.63979
  0
LINE
  8
0
 10
-11.6502
 20
2.63979
 11
-11.631
 21
2.56546
  0
LINE
  8
0
 10
-11.631
 20
2.56546
 11
-11.6138
 21
2.48869
  0
LINE
  8
0
 10
-11.6138
 20
2.48869
 11
-11.5986
 21
2.4095
  0
LINE
  8
0
 10
-11.5986
 20
2.4095
 11
-11.5855
 21
2.32785
  0
LINE
  8
0
 10
-11.5855
 20
2.32785
 11
-11.5744
 21
2.24377
  0
LINE
  8
0
 10
-11.5744
 20
2.24377
 11
-11.5653
 21
2.15727
  0
LINE
  8
0
 10
-11.5653
 20
2.15727
 11
-11.5582
 21
2.06831
  0
LINE
  8
0
 10
-11.5582
 20
2.06831
 11
-11.5531
 21
1.97693
  0
LINE
  8
0
 10
-11.5531
 20
1.97693
 11
-11.5501
 21
1.8831
  0
LINE
  8
0
 10
-11.5501
 20
1.8831
 11
-11.5491
 21
1.78685
  0
LINE
  8
0
 10
-11.5491
 20
1.78685
 11
-11.5491
 21
1.70549
  0
LINE
  8
0
 10
-11.5491
 20
1.70549
 11
-14.1667
 21
1.70549
  0
LINE
  8
0
 10
-14.1667
 20
1.70549
 11
-14.1665
 21
1.67413
  0
LINE
  8
0
 10
-14.1665
 20
1.67413
 11
-14.166
 21
1.64314
  0
LINE
  8
0
 10
-14.166
 20
1.64314
 11
-14.1652
 21
1.61252
  0
LINE
  8
0
 10
-14.1652
 20
1.61252
 11
-14.1641
 21
1.58224
  0
LINE
  8
0
 10
-14.1641
 20
1.58224
 11
-14.1626
 21
1.55234
  0
LINE
  8
0
 10
-14.1626
 20
1.55234
 11
-14.1608
 21
1.52278
  0
LINE
  8
0
 10
-14.1608
 20
1.52278
 11
-14.1587
 21
1.49359
  0
LINE
  8
0
 10
-14.1587
 20
1.49359
 11
-14.1562
 21
1.46475
  0
LINE
  8
0
 10
-14.1562
 20
1.46475
 11
-14.1535
 21
1.43629
  0
LINE
  8
0
 10
-14.1535
 20
1.43629
 11
-14.1504
 21
1.40817
  0
LINE
  8
0
 10
-14.1504
 20
1.40817
 11
-14.147
 21
1.38043
  0
LINE
  8
0
 10
-14.147
 20
1.38043
 11
-14.1432
 21
1.35304
  0
LINE
  8
0
 10
-14.1432
 20
1.35304
 11
-14.1391
 21
1.326
  0
LINE
  8
0
 10
-14.1391
 20
1.326
 11
-14.1347
 21
1.29933
  0
LINE
  8
0
 10
-14.1347
 20
1.29933
 11
-14.13
 21
1.27303
  0
LINE
  8
0
 10
-14.13
 20
1.27303
 11
-14.1249
 21
1.24707
  0
LINE
  8
0
 10
-14.1249
 20
1.24707
 11
-14.1196
 21
1.22148
  0
LINE
  8
0
 10
-14.1196
 20
1.22148
 11
-14.1138
 21
1.19626
  0
LINE
  8
0
 10
-14.1138
 20
1.19626
 11
-14.1078
 21
1.17139
  0
LINE
  8
0
 10
-14.1078
 20
1.17139
 11
-14.1014
 21
1.14688
  0
LINE
  8
0
 10
-14.1014
 20
1.14688
 11
-14.0947
 21
1.12273
  0
LINE
  8
0
 10
-14.0947
 20
1.12273
 11
-14.0877
 21
1.09894
  0
LINE
  8
0
 10
-14.0877
 20
1.09894
 11
-14.0804
 21
1.07552
  0
LINE
  8
0
 10
-14.0804
 20
1.07552
 11
-14.0727
 21
1.05244
  0
LINE
  8
0
 10
-14.0727
 20
1.05244
 11
-14.0647
 21
1.02974
  0
LINE
  8
0
 10
-14.0647
 20
1.02974
 11
-14.0564
 21
1.00739
  0
LINE
  8
0
 10
-14.0564
 20
1.00739
 11
-14.0478
 21
0.985397
  0
LINE
  8
0
 10
-14.0478
 20
0.985397
 11
-14.0388
 21
0.963776
  0
LINE
  8
0
 10
-14.0388
 20
0.963776
 11
-14.0295
 21
0.942505
  0
LINE
  8
0
 10
-14.0295
 20
0.942505
 11
-14.0199
 21
0.9216
  0
LINE
  8
0
 10
-14.0199
 20
0.9216
 11
-14.0099
 21
0.901062
  0
LINE
  8
0
 10
-14.0099
 20
0.901062
 11
-13.9996
 21
0.880875
  0
LINE
  8
0
 10
-13.9996
 20
0.880875
 11
-13.989
 21
0.861038
  0
LINE
  8
0
 10
-13.989
 20
0.861038
 11
-13.9781
 21
0.841583
  0
LINE
  8
0
 10
-13.9781
 20
0.841583
 11
-13.9668
 21
0.822464
  0
LINE
  8
0
 10
-13.9668
 20
0.822464
 11
-13.9552
 21
0.803726
  0
LINE
  8
0
 10
-13.9552
 20
0.803726
 11
-13.9433
 21
0.785339
  0
LINE
  8
0
 10
-13.9433
 20
0.785339
 11
-13.9311
 21
0.767319
  0
LINE
  8
0
 10
-13.9311
 20
0.767319
 11
-13.9185
 21
0.749649
  0
LINE
  8
0
 10
-13.9185
 20
0.749649
 11
-13.9057
 21
0.732346
  0
LINE
  8
0
 10
-13.9057
 20
0.732346
 11
-13.8924
 21
0.715439
  0
LINE
  8
0
 10
-13.8924
 20
0.715439
 11
-13.8789
 21
0.698959
  0
LINE
  8
0
 10
-13.8789
 20
0.698959
 11
-13.8651
 21
0.682907
  0
LINE
  8
0
 10
-13.8651
 20
0.682907
 11
-13.851
 21
0.667282
  0
LINE
  8
0
 10
-13.851
 20
0.667282
 11
-13.8366
 21
0.652084
  0
LINE
  8
0
 10
-13.8366
 20
0.652084
 11
-13.8219
 21
0.637314
  0
LINE
  8
0
 10
-13.8219
 20
0.637314
 11
-13.8069
 21
0.622971
  0
LINE
  8
0
 10
-13.8069
 20
0.622971
 11
-13.7916
 21
0.609055
  0
LINE
  8
0
 10
-13.7916
 20
0.609055
 11
-13.776
 21
0.595581
  0
LINE
  8
0
 10
-13.776
 20
0.595581
 11
-13.7601
 21
0.58252
  0
LINE
  8
0
 10
-13.7601
 20
0.58252
 11
-13.7438
 21
0.569885
  0
LINE
  8
0
 10
-13.7438
 20
0.569885
 11
-13.7273
 21
0.557693
  0
LINE
  8
0
 10
-13.7273
 20
0.557693
 11
-13.7105
 21
0.545914
  0
LINE
  8
0
 10
-13.7105
 20
0.545914
 11
-13.6934
 21
0.534576
  0
LINE
  8
0
 10
-13.6934
 20
0.534576
 11
-13.676
 21
0.523666
  0
LINE
  8
0
 10
-13.676
 20
0.523666
 11
-13.6582
 21
0.513168
  0
LINE
  8
0
 10
-13.6582
 20
0.513168
 11
-13.6402
 21
0.503113
  0
LINE
  8
0
 10
-13.6402
 20
0.503113
 11
-13.6219
 21
0.493484
  0
LINE
  8
0
 10
-13.6219
 20
0.493484
 11
-13.6033
 21
0.484283
  0
LINE
  8
0
 10
-13.6033
 20
0.484283
 11
-13.5844
 21
0.47551
  0
LINE
  8
0
 10
-13.5844
 20
0.47551
 11
-13.5651
 21
0.467163
  0
LINE
  8
0
 10
-13.5651
 20
0.467163
 11
-13.5456
 21
0.459244
  0
LINE
  8
0
 10
-13.5456
 20
0.459244
 11
-13.5258
 21
0.451752
  0
LINE
  8
0
 10
-13.5258
 20
0.451752
 11
-13.5057
 21
0.444687
  0
LINE
  8
0
 10
-13.5057
 20
0.444687
 11
-13.4852
 21
0.438049
  0
LINE
  8
0
 10
-13.4852
 20
0.438049
 11
-13.4645
 21
0.431839
  0
LINE
  8
0
 10
-13.4645
 20
0.431839
 11
-13.4435
 21
0.426071
  0
LINE
  8
0
 10
-13.4435
 20
0.426071
 11
-13.4221
 21
0.420715
  0
LINE
  8
0
 10
-13.4221
 20
0.420715
 11
-13.4005
 21
0.415787
  0
LINE
  8
0
 10
-13.4005
 20
0.415787
 11
-13.3786
 21
0.411301
  0
LINE
  8
0
 10
-13.3786
 20
0.411301
 11
-13.3563
 21
0.407227
  0
LINE
  8
0
 10
-13.3563
 20
0.407227
 11
-13.3338
 21
0.403595
  0
LINE
  8
0
 10
-13.3338
 20
0.403595
 11
-13.311
 21
0.400375
  0
LINE
  8
0
 10
-13.311
 20
0.400375
 11
-13.2878
 21
0.397598
  0
LINE
  8
0
 10
-13.2878
 20
0.397598
 11
-13.2644
 21
0.395248
  0
LINE
  8
0
 10
-13.2644
 20
0.395248
 11
-13.2407
 21
0.393311
  0
LINE
  8
0
 10
-13.2407
 20
0.393311
 11
-13.2166
 21
0.391815
  0
LINE
  8
0
 10
-13.2166
 20
0.391815
 11
-13.1923
 21
0.390747
  0
LINE
  8
0
 10
-13.1923
 20
0.390747
 11
-13.1676
 21
0.390106
  0
LINE
  8
0
 10
-13.1676
 20
0.390106
 11
-13.1427
 21
0.389893
  0
LINE
  8
0
 10
-13.1427
 20
0.389893
 11
-13.123
 21
0.389999
  0
LINE
  8
0
 10
-13.123
 20
0.389999
 11
-13.1034
 21
0.390289
  0
LINE
  8
0
 10
-13.1034
 20
0.390289
 11
-13.0841
 21
0.390793
  0
LINE
  8
0
 10
-13.0841
 20
0.390793
 11
-13.0649
 21
0.391479
  0
LINE
  8
0
 10
-13.0649
 20
0.391479
 11
-13.046
 21
0.39238
  0
LINE
  8
0
 10
-13.046
 20
0.39238
 11
-13.0272
 21
0.393478
  0
LINE
  8
0
 10
-13.0272
 20
0.393478
 11
-13.0087
 21
0.394775
  0
LINE
  8
0
 10
-13.0087
 20
0.394775
 11
-12.9903
 21
0.396271
  0
LINE
  8
0
 10
-12.9903
 20
0.396271
 11
-12.9722
 21
0.397964
  0
LINE
  8
0
 10
-12.9722
 20
0.397964
 11
-12.9542
 21
0.399857
  0
LINE
  8
0
 10
-12.9542
 20
0.399857
 11
-12.9364
 21
0.401947
  0
LINE
  8
0
 10
-12.9364
 20
0.401947
 11
-12.9189
 21
0.404236
  0
LINE
  8
0
 10
-12.9189
 20
0.404236
 11
-12.9015
 21
0.406723
  0
LINE
  8
0
 10
-12.9015
 20
0.406723
 11
-12.8843
 21
0.409409
  0
LINE
  8
0
 10
-12.8843
 20
0.409409
 11
-12.8674
 21
0.412308
  0
LINE
  8
0
 10
-12.8674
 20
0.412308
 11
-12.8506
 21
0.41539
  0
LINE
  8
0
 10
-12.8506
 20
0.41539
 11
-12.834
 21
0.418671
  0
LINE
  8
0
 10
-12.834
 20
0.418671
 11
-12.8176
 21
0.422165
  0
LINE
  8
0
 10
-12.8176
 20
0.422165
 11
-12.8014
 21
0.425842
  0
LINE
  8
0
 10
-12.8014
 20
0.425842
 11
-12.7854
 21
0.429733
  0
LINE
  8
0
 10
-12.7854
 20
0.429733
 11
-12.7696
 21
0.433807
  0
LINE
  8
0
 10
-12.7696
 20
0.433807
 11
-12.754
 21
0.438095
  0
LINE
  8
0
 10
-12.754
 20
0.438095
 11
-12.7386
 21
0.442581
  0
LINE
  8
0
 10
-12.7386
 20
0.442581
 11
-12.7234
 21
0.447266
  0
LINE
  8
0
 10
-12.7234
 20
0.447266
 11
-12.7084
 21
0.452133
  0
LINE
  8
0
 10
-12.7084
 20
0.452133
 11
-12.6936
 21
0.457214
  0
LINE
  8
0
 10
-12.6936
 20
0.457214
 11
-12.679
 21
0.462494
  0
LINE
  8
0
 10
-12.679
 20
0.462494
 11
-12.6646
 21
0.467972
  0
LINE
  8
0
 10
-12.6646
 20
0.467972
 11
-12.6504
 21
0.473648
  0
LINE
  8
0
 10
-12.6504
 20
0.473648
 11
-12.6364
 21
0.479523
  0
LINE
  8
0
 10
-12.6364
 20
0.479523
 11
-12.6225
 21
0.485596
  0
LINE
  8
0
 10
-12.6225
 20
0.485596
 11
-12.6089
 21
0.491882
  0
LINE
  8
0
 10
-12.6089
 20
0.491882
 11
-12.5955
 21
0.498352
  0
LINE
  8
0
 10
-12.5955
 20
0.498352
 11
-12.5822
 21
0.50502
  0
LINE
  8
0
 10
-12.5822
 20
0.50502
 11
-12.5692
 21
0.511902
  0
LINE
  8
0
 10
-12.5692
 20
0.511902
 11
-12.5564
 21
0.518967
  0
LINE
  8
0
 10
-12.5564
 20
0.518967
 11
-12.5437
 21
0.52623
  0
LINE
  8
0
 10
-12.5437
 20
0.52623
 11
-12.5313
 21
0.533707
  0
LINE
  8
0
 10
-12.5313
 20
0.533707
 11
-12.519
 21
0.541382
  0
LINE
  8
0
 10
-12.519
 20
0.541382
 11
-12.507
 21
0.54924
  0
LINE
  8
0
 10
-12.507
 20
0.54924
 11
-12.4951
 21
0.557266
  0
LINE
  8
0
 10
-12.4951
 20
0.557266
 11
-12.4835
 21
0.565399
  0
LINE
  8
0
 10
-12.4835
 20
0.565399
 11
-12.472
 21
0.573624
  0
LINE
  8
0
 10
-12.472
 20
0.573624
 11
-12.4607
 21
0.58197
  0
LINE
  8
0
 10
-12.4607
 20
0.58197
 11
-12.4496
 21
0.590408
  0
LINE
  8
0
 10
-12.4496
 20
0.590408
 11
-12.4388
 21
0.598969
  0
LINE
  8
0
 10
-12.4388
 20
0.598969
 11
-12.4281
 21
0.60762
  0
LINE
  8
0
 10
-12.4281
 20
0.60762
 11
-12.4175
 21
0.616394
  0
LINE
  8
0
 10
-12.4175
 20
0.616394
 11
-12.4072
 21
0.625259
  0
LINE
  8
0
 10
-12.4072
 20
0.625259
 11
-12.3971
 21
0.634232
  0
LINE
  8
0
 10
-12.3971
 20
0.634232
 11
-12.3872
 21
0.643311
  0
LINE
  8
0
 10
-12.3872
 20
0.643311
 11
-12.3775
 21
0.652512
  0
LINE
  8
0
 10
-12.3775
 20
0.652512
 11
-12.3679
 21
0.661804
  0
LINE
  8
0
 10
-12.3679
 20
0.661804
 11
-12.3586
 21
0.671204
  0
LINE
  8
0
 10
-12.3586
 20
0.671204
 11
-12.3494
 21
0.68071
  0
LINE
  8
0
 10
-12.3494
 20
0.68071
 11
-12.3404
 21
0.690308
  0
LINE
  8
0
 10
-12.3404
 20
0.690308
 11
-12.3317
 21
0.700027
  0
LINE
  8
0
 10
-12.3317
 20
0.700027
 11
-12.3231
 21
0.709854
  0
LINE
  8
0
 10
-12.3231
 20
0.709854
 11
-12.3147
 21
0.719788
  0
LINE
  8
0
 10
-12.3147
 20
0.719788
 11
-12.3065
 21
0.729813
  0
LINE
  8
0
 10
-12.3065
 20
0.729813
 11
-12.2985
 21
0.73996
  0
LINE
  8
0
 10
-12.2985
 20
0.73996
 11
-12.2907
 21
0.750198
  0
LINE
  8
0
 10
-12.2907
 20
0.750198
 11
-12.2831
 21
0.760559
  0
LINE
  8
0
 10
-12.2831
 20
0.760559
 11
-12.2757
 21
0.771011
  0
LINE
  8
0
 10
-12.2757
 20
0.771011
 11
-12.2684
 21
0.781586
  0
LINE
  8
0
 10
-12.2684
 20
0.781586
 11
-12.2614
 21
0.792252
  0
LINE
  8
0
 10
-12.2614
 20
0.792252
 11
-12.2546
 21
0.803024
  0
LINE
  8
0
 10
-12.2546
 20
0.803024
 11
-12.2479
 21
0.813904
  0
LINE
  8
0
 10
-12.2479
 20
0.813904
 11
-12.2415
 21
0.82489
  0
LINE
  8
0
 10
-12.2415
 20
0.82489
 11
-12.2352
 21
0.835983
  0
LINE
  8
0
 10
-12.2352
 20
0.835983
 11
-12.2291
 21
0.847183
  0
LINE
  8
0
 10
-12.2291
 20
0.847183
 11
-12.2232
 21
0.85849
  0
LINE
  8
0
 10
-12.2232
 20
0.85849
 11
-12.2175
 21
0.869904
  0
LINE
  8
0
 10
-12.2175
 20
0.869904
 11
-12.2121
 21
0.881424
  0
LINE
  8
0
 10
-12.2121
 20
0.881424
 11
-12.2068
 21
0.893036
  0
LINE
  8
0
 10
-12.2068
 20
0.893036
 11
-12.2016
 21
0.90477
  0
LINE
  8
0
 10
-12.2016
 20
0.90477
 11
-12.1967
 21
0.916611
  0
LINE
  8
0
 10
-12.1967
 20
0.916611
 11
-12.192
 21
0.928543
  0
LINE
  8
0
 10
-12.192
 20
0.928543
 11
-12.1875
 21
0.940598
  0
LINE
  8
0
 10
-12.1875
 20
0.940598
 11
-12.1832
 21
0.952744
  0
LINE
  8
0
 10
-12.1832
 20
0.952744
 11
-11.6474
 21
0.800186
  0
LINE
  8
0
 10
-11.6474
 20
0.800186
 11
-11.6644
 21
0.757339
  0
LINE
  8
0
 10
-11.6644
 20
0.757339
 11
-11.6824
 21
0.715561
  0
LINE
  8
0
 10
-11.6824
 20
0.715561
 11
-11.7015
 21
0.674881
  0
LINE
  8
0
 10
-11.7015
 20
0.674881
 11
-11.7216
 21
0.635269
  0
LINE
  8
0
 10
-11.7216
 20
0.635269
 11
-11.7428
 21
0.596756
  0
LINE
  8
0
 10
-11.7428
 20
0.596756
 11
-11.765
 21
0.559326
  0
LINE
  8
0
 10
-11.765
 20
0.559326
 11
-11.7882
 21
0.52298
  0
LINE
  8
0
 10
-11.7882
 20
0.52298
 11
-11.8125
 21
0.487717
  0
LINE
  8
0
 10
-11.8125
 20
0.487717
 11
-11.8378
 21
0.453537
  0
LINE
  8
0
 10
-11.8378
 20
0.453537
 11
-11.8642
 21
0.420441
  0
LINE
  8
0
 10
-11.8642
 20
0.420441
 11
-11.8917
 21
0.388428
  0
LINE
  8
0
 10
-11.8917
 20
0.388428
 11
-11.9202
 21
0.357513
  0
LINE
  8
0
 10
-11.9202
 20
0.357513
 11
-11.9497
 21
0.327682
  0
LINE
  8
0
 10
-11.9497
 20
0.327682
 11
-11.9803
 21
0.29892
  0
LINE
  8
0
 10
-11.9803
 20
0.29892
 11
-12.0119
 21
0.271255
  0
LINE
  8
0
 10
-12.0119
 20
0.271255
 11
-12.0446
 21
0.244675
  0
LINE
  8
0
 10
-12.0446
 20
0.244675
 11
-12.0783
 21
0.219177
  0
LINE
  8
0
 10
-12.0783
 20
0.219177
 11
-12.113
 21
0.194763
  0
LINE
  8
0
 10
-12.113
 20
0.194763
 11
-12.1488
 21
0.171432
  0
LINE
  8
0
 10
-12.1488
 20
0.171432
 11
-12.1857
 21
0.149185
  0
LINE
  8
0
 10
-12.1857
 20
0.149185
 11
-12.2236
 21
0.128036
  0
LINE
  8
0
 10
-12.2236
 20
0.128036
 11
-12.2626
 21
0.107956
  0
LINE
  8
0
 10
-12.2626
 20
0.107956
 11
-12.3026
 21
0.088974
  0
LINE
  8
0
 10
-12.3026
 20
0.088974
 11
-12.3436
 21
0.0710754
  0
LINE
  8
0
 10
-12.3436
 20
0.0710754
 11
-12.3857
 21
0.0542603
  0
LINE
  8
0
 10
-12.3857
 20
0.0542603
 11
-12.4288
 21
0.0385284
  0
LINE
  8
0
 10
-12.4288
 20
0.0385284
 11
-12.473
 21
0.02388
  0
LINE
  8
0
 10
-12.473
 20
0.02388
 11
-12.5183
 21
0.0103149
  0
LINE
  8
0
 10
-12.5183
 20
0.0103149
 11
-12.5645
 21
-0.00215149
  0
LINE
  8
0
 10
-12.5645
 20
-0.00215149
 11
-12.6119
 21
-0.0135498
  0
LINE
  8
0
 10
-12.6119
 20
-0.0135498
 11
-12.6602
 21
-0.0238495
  0
LINE
  8
0
 10
-12.6602
 20
-0.0238495
 11
-12.7097
 21
-0.0330658
  0
LINE
  8
0
 10
-12.7097
 20
-0.0330658
 11
-12.7601
 21
-0.041214
  0
LINE
  8
0
 10
-12.7601
 20
-0.041214
 11
-12.8116
 21
-0.0482635
  0
LINE
  8
0
 10
-12.8116
 20
-0.0482635
 11
-12.8642
 21
-0.0542297
  0
LINE
  8
0
 10
-12.8642
 20
-0.0542297
 11
-12.9178
 21
-0.0591125
  0
LINE
  8
0
 10
-12.9178
 20
-0.0591125
 11
-12.9725
 21
-0.062912
  0
LINE
  8
0
 10
-12.9725
 20
-0.062912
 11
-13.0282
 21
-0.0656281
  0
LINE
  8
0
 10
-13.0282
 20
-0.0656281
 11
-13.0849
 21
-0.0672455
  0
LINE
  8
0
 10
-13.0849
 20
-0.0672455
 11
-13.1427
 21
-0.0677948
  0
LINE
  8
0
 10
-13.1427
 20
-0.0677948
 11
-13.1831
 21
-0.0674896
  0
LINE
  8
0
 10
-12.1825
 20
2.20218
 11
-12.1854
 21
2.23059
  0
LINE
  8
0
 10
-12.1854
 20
2.23059
 11
-12.1885
 21
2.25859
  0
LINE
  8
0
 10
-12.1885
 20
2.25859
 11
-12.1919
 21
2.28621
  0
LINE
  8
0
 10
-12.1919
 20
2.28621
 11
-12.1955
 21
2.31345
  0
LINE
  8
0
 10
-12.1955
 20
2.31345
 11
-12.1994
 21
2.34027
  0
LINE
  8
0
 10
-12.1994
 20
2.34027
 11
-12.2035
 21
2.36671
  0
LINE
  8
0
 10
-12.2035
 20
2.36671
 11
-12.2079
 21
2.39276
  0
LINE
  8
0
 10
-12.2079
 20
2.39276
 11
-12.2125
 21
2.41843
  0
LINE
  8
0
 10
-12.2125
 20
2.41843
 11
-12.2173
 21
2.4437
  0
LINE
  8
0
 10
-12.2173
 20
2.4437
 11
-12.2224
 21
2.46857
  0
LINE
  8
0
 10
-12.2224
 20
2.46857
 11
-12.2277
 21
2.49304
  0
LINE
  8
0
 10
-12.2277
 20
2.49304
 11
-12.2333
 21
2.51714
  0
LINE
  8
0
 10
-12.2333
 20
2.51714
 11
-12.2391
 21
2.54083
  0
LINE
  8
0
 10
-12.2391
 20
2.54083
 11
-12.2451
 21
2.56413
  0
LINE
  8
0
 10
-12.2451
 20
2.56413
 11
-12.2514
 21
2.58705
  0
LINE
  8
0
 10
-12.2514
 20
2.58705
 11
-12.2579
 21
2.60957
  0
LINE
  8
0
 10
-12.2579
 20
2.60957
 11
-12.2647
 21
2.6317
  0
LINE
  8
0
 10
-12.2647
 20
2.6317
 11
-12.2717
 21
2.65344
  0
LINE
  8
0
 10
-12.2717
 20
2.65344
 11
-12.279
 21
2.67477
  0
LINE
  8
0
 10
-12.279
 20
2.67477
 11
-12.2865
 21
2.69574
  0
LINE
  8
0
 10
-12.2865
 20
2.69574
 11
-12.2942
 21
2.71629
  0
LINE
  8
0
 10
-12.2942
 20
2.71629
 11
-12.3022
 21
2.73647
  0
LINE
  8
0
 10
-12.3022
 20
2.73647
 11
-12.3104
 21
2.75624
  0
LINE
  8
0
 10
-12.3104
 20
2.75624
 11
-12.3189
 21
2.77562
  0
LINE
  8
0
 10
-12.3189
 20
2.77562
 11
-12.3276
 21
2.79462
  0
LINE
  8
0
 10
-12.3276
 20
2.79462
 11
-12.3365
 21
2.81322
  0
LINE
  8
0
 10
-12.3365
 20
2.81322
 11
-12.3457
 21
2.83142
  0
LINE
  8
0
 10
-12.3457
 20
2.83142
 11
-12.3551
 21
2.84924
  0
LINE
  8
0
 10
-12.3551
 20
2.84924
 11
-12.3648
 21
2.86667
  0
LINE
  8
0
 10
-12.3648
 20
2.86667
 11
-12.3747
 21
2.8837
  0
LINE
  8
0
 10
-12.3747
 20
2.8837
 11
-12.3849
 21
2.90033
  0
LINE
  8
0
 10
-12.3849
 20
2.90033
 11
-12.3953
 21
2.91658
  0
LINE
  8
0
 10
-12.3953
 20
2.91658
 11
-12.4059
 21
2.93243
  0
LINE
  8
0
 10
-12.4059
 20
2.93243
 11
-12.4168
 21
2.94791
  0
LINE
  8
0
 10
-12.4168
 20
2.94791
 11
-12.4279
 21
2.96298
  0
LINE
  8
0
 10
-12.4279
 20
2.96298
 11
-12.4393
 21
2.97766
  0
LINE
  8
0
 10
-12.4393
 20
2.97766
 11
-12.4509
 21
2.99194
  0
LINE
  8
0
 10
-12.4509
 20
2.99194
 11
-12.4627
 21
3.00584
  0
LINE
  8
0
 10
-12.4627
 20
3.00584
 11
-12.4748
 21
3.01935
  0
LINE
  8
0
 10
-12.4748
 20
3.01935
 11
-12.4871
 21
3.03249
  0
LINE
  8
0
 10
-12.4871
 20
3.03249
 11
-12.4997
 21
3.04529
  0
LINE
  8
0
 10
-12.4997
 20
3.04529
 11
-12.5126
 21
3.05777
  0
LINE
  8
0
 10
-12.5126
 20
3.05777
 11
-12.5258
 21
3.06992
  0
LINE
  8
0
 10
-12.5258
 20
3.06992
 11
-12.5392
 21
3.08173
  0
LINE
  8
0
 10
-12.5392
 20
3.08173
 11
-12.5528
 21
3.0932
  0
LINE
  8
0
 10
-12.5528
 20
3.0932
 11
-12.5668
 21
3.10434
  0
LINE
  8
0
 10
-12.5668
 20
3.10434
 11
-12.581
 21
3.11516
  0
LINE
  8
0
 10
-12.581
 20
3.11516
 11
-12.5955
 21
3.12564
  0
LINE
  8
0
 10
-12.5955
 20
3.12564
 11
-12.6102
 21
3.13579
  0
LINE
  8
0
 10
-12.6102
 20
3.13579
 11
-12.6252
 21
3.1456
  0
LINE
  8
0
 10
-12.6252
 20
3.1456
 11
-12.6405
 21
3.15508
  0
LINE
  8
0
 10
-12.6405
 20
3.15508
 11
-12.656
 21
3.16423
  0
LINE
  8
0
 10
-12.656
 20
3.16423
 11
-12.6718
 21
3.17305
  0
LINE
  8
0
 10
-12.6718
 20
3.17305
 11
-12.6879
 21
3.18153
  0
LINE
  8
0
 10
-12.6879
 20
3.18153
 11
-12.7043
 21
3.18968
  0
LINE
  8
0
 10
-12.7043
 20
3.18968
 11
-12.7209
 21
3.19749
  0
LINE
  8
0
 10
-12.7209
 20
3.19749
 11
-12.7377
 21
3.20499
  0
LINE
  8
0
 10
-12.7377
 20
3.20499
 11
-12.7549
 21
3.21213
  0
LINE
  8
0
 10
-12.7549
 20
3.21213
 11
-12.7723
 21
3.21895
  0
LINE
  8
0
 10
-12.7723
 20
3.21895
 11
-12.79
 21
3.22545
  0
LINE
  8
0
 10
-12.79
 20
3.22545
 11
-12.8079
 21
3.2316
  0
LINE
  8
0
 10
-12.8079
 20
3.2316
 11
-12.8261
 21
3.23741
  0
LINE
  8
0
 10
-12.8261
 20
3.23741
 11
-12.8446
 21
3.2429
  0
LINE
  8
0
 10
-12.8446
 20
3.2429
 11
-12.8634
 21
3.24806
  0
LINE
  8
0
 10
-12.8634
 20
3.24806
 11
-12.8824
 21
3.25288
  0
LINE
  8
0
 10
-12.8824
 20
3.25288
 11
-12.9017
 21
3.25739
  0
LINE
  8
0
 10
-12.9017
 20
3.25739
 11
-12.9212
 21
3.26154
  0
LINE
  8
0
 10
-12.9212
 20
3.26154
 11
-12.941
 21
3.26537
  0
LINE
  8
0
 10
-12.941
 20
3.26537
 11
-12.9611
 21
3.26886
  0
LINE
  8
0
 10
-12.9611
 20
3.26886
 11
-12.9814
 21
3.27202
  0
LINE
  8
0
 10
-12.9814
 20
3.27202
 11
-13.0021
 21
3.27484
  0
LINE
  8
0
 10
-13.0021
 20
3.27484
 11
-13.0229
 21
3.27734
  0
LINE
  8
0
 10
-13.0229
 20
3.27734
 11
-13.0441
 21
3.27951
  0
LINE
  8
0
 10
-13.0441
 20
3.27951
 11
-13.0655
 21
3.28133
  0
LINE
  8
0
 10
-13.0655
 20
3.28133
 11
-13.0872
 21
3.28284
  0
LINE
  8
0
 10
-13.0872
 20
3.28284
 11
-13.1091
 21
3.284
  0
LINE
  8
0
 10
-13.1091
 20
3.284
 11
-13.1314
 21
3.28482
  0
LINE
  8
0
 10
-13.1314
 20
3.28482
 11
-13.1538
 21
3.28532
  0
LINE
  8
0
 10
-13.1538
 20
3.28532
 11
-13.1766
 21
3.28549
  0
LINE
  8
0
 10
-13.1766
 20
3.28549
 11
-13.1987
 21
3.28531
  0
LINE
  8
0
 10
-13.1987
 20
3.28531
 11
-13.2206
 21
3.28474
  0
LINE
  8
0
 10
-13.2206
 20
3.28474
 11
-13.2422
 21
3.28383
  0
LINE
  8
0
 10
-13.2422
 20
3.28383
 11
-13.2636
 21
3.28253
  0
LINE
  8
0
 10
-13.2636
 20
3.28253
 11
-13.2848
 21
3.28085
  0
LINE
  8
0
 10
-13.2848
 20
3.28085
 11
-13.3057
 21
3.27882
  0
LINE
  8
0
 10
-13.3057
 20
3.27882
 11
-13.3264
 21
3.27641
  0
LINE
  8
0
 10
-13.3264
 20
3.27641
 11
-13.3469
 21
3.27362
  0
LINE
  8
0
 10
-13.3469
 20
3.27362
 11
-13.3671
 21
3.27048
  0
LINE
  8
0
 10
-13.3671
 20
3.27048
 11
-13.3871
 21
3.26695
  0
LINE
  8
0
 10
-13.3871
 20
3.26695
 11
-13.4069
 21
3.26306
  0
LINE
  8
0
 10
-13.4069
 20
3.26306
 11
-13.4265
 21
3.25879
  0
LINE
  8
0
 10
-13.4265
 20
3.25879
 11
-13.4458
 21
3.25415
  0
LINE
  8
0
 10
-13.4458
 20
3.25415
 11
-13.4649
 21
3.24915
  0
LINE
  8
0
 10
-13.4649
 20
3.24915
 11
-13.4838
 21
3.24377
  0
LINE
  8
0
 10
-13.4838
 20
3.24377
 11
-13.5024
 21
3.23802
  0
LINE
  8
0
 10
-13.5024
 20
3.23802
 11
-13.5208
 21
3.2319
  0
LINE
  8
0
 10
-13.5208
 20
3.2319
 11
-13.539
 21
3.22542
  0
LINE
  8
0
 10
-13.539
 20
3.22542
 11
-13.5569
 21
3.21855
  0
LINE
  8
0
 10
-13.5569
 20
3.21855
 11
-13.5746
 21
3.21132
  0
LINE
  8
0
 10
-13.5746
 20
3.21132
 11
-13.5921
 21
3.20372
  0
LINE
  8
0
 10
-13.5921
 20
3.20372
 11
-13.6093
 21
3.19574
  0
LINE
  8
0
 10
-13.6093
 20
3.19574
 11
-13.6263
 21
3.18739
  0
LINE
  8
0
 10
-13.6263
 20
3.18739
 11
-13.6431
 21
3.17868
  0
LINE
  8
0
 10
-13.6431
 20
3.17868
 11
-13.6597
 21
3.1696
  0
LINE
  8
0
 10
-13.6597
 20
3.1696
 11
-13.676
 21
3.16014
  0
LINE
  8
0
 10
-13.676
 20
3.16014
 11
-13.6921
 21
3.15031
  0
LINE
  8
0
 10
-13.6921
 20
3.15031
 11
-13.7079
 21
3.14011
  0
LINE
  8
0
 10
-13.7079
 20
3.14011
 11
-13.7236
 21
3.12953
  0
LINE
  8
0
 10
-13.7236
 20
3.12953
 11
-13.739
 21
3.11859
  0
LINE
  8
0
 10
-13.739
 20
3.11859
 11
-13.7541
 21
3.10728
  0
LINE
  8
0
 10
-13.7541
 20
3.10728
 11
-13.769
 21
3.09561
  0
LINE
  8
0
 10
-13.769
 20
3.09561
 11
-13.7838
 21
3.08356
  0
LINE
  8
0
 10
-13.7838
 20
3.08356
 11
-13.7982
 21
3.07112
  0
LINE
  8
0
 10
-13.7982
 20
3.07112
 11
-13.8125
 21
3.05833
  0
LINE
  8
0
 10
-13.8125
 20
3.05833
 11
-13.8265
 21
3.04517
  0
LINE
  8
0
 10
-13.8265
 20
3.04517
 11
-13.8403
 21
3.03163
  0
LINE
  8
0
 10
-13.8403
 20
3.03163
 11
-13.8538
 21
3.01772
  0
LINE
  8
0
 10
-13.8538
 20
3.01772
 11
-13.8671
 21
3.00345
  0
LINE
  8
0
 10
-13.8671
 20
3.00345
 11
-13.8802
 21
2.98878
  0
LINE
  8
0
 10
-13.8802
 20
2.98878
 11
-13.893
 21
2.97382
  0
LINE
  8
0
 10
-13.893
 20
2.97382
 11
-13.9055
 21
2.95857
  0
LINE
  8
0
 10
-13.9055
 20
2.95857
 11
-13.9178
 21
2.94304
  0
LINE
  8
0
 10
-13.9178
 20
2.94304
 11
-13.9297
 21
2.92725
  0
LINE
  8
0
 10
-13.9297
 20
2.92725
 11
-13.9413
 21
2.91116
  0
LINE
  8
0
 10
-13.9413
 20
2.91116
 11
-13.9526
 21
2.89481
  0
LINE
  8
0
 10
-13.9526
 20
2.89481
 11
-13.9637
 21
2.87816
  0
LINE
  8
0
 10
-13.9637
 20
2.87816
 11
-13.9744
 21
2.86125
  0
LINE
  8
0
 10
-13.9744
 20
2.86125
 11
-13.9848
 21
2.84406
  0
LINE
  8
0
 10
-13.9848
 20
2.84406
 11
-13.9949
 21
2.82658
  0
LINE
  8
0
 10
-13.9949
 20
2.82658
 11
-14.0048
 21
2.80884
  0
LINE
  8
0
 10
-14.0048
 20
2.80884
 11
-14.0143
 21
2.79082
  0
LINE
  8
0
 10
-14.0143
 20
2.79082
 11
-14.0235
 21
2.77251
  0
LINE
  8
0
 10
-14.0235
 20
2.77251
 11
-14.0325
 21
2.75394
  0
LINE
  8
0
 10
-14.0325
 20
2.75394
 11
-14.0411
 21
2.73508
  0
LINE
  8
0
 10
-14.0411
 20
2.73508
 11
-14.0494
 21
2.71594
  0
LINE
  8
0
 10
-14.0494
 20
2.71594
 11
-14.0575
 21
2.69652
  0
LINE
  8
0
 10
-14.0575
 20
2.69652
 11
-14.0652
 21
2.67683
  0
LINE
  8
0
 10
-14.0652
 20
2.67683
 11
-14.0727
 21
2.65686
  0
LINE
  8
0
 10
-14.0727
 20
2.65686
 11
-14.0798
 21
2.63661
  0
LINE
  8
0
 10
-14.0798
 20
2.63661
 11
-14.0866
 21
2.61609
  0
LINE
  8
0
 10
-14.0866
 20
2.61609
 11
-14.0932
 21
2.59529
  0
LINE
  8
0
 10
-14.0932
 20
2.59529
 11
-14.0994
 21
2.57422
  0
LINE
  8
0
 10
-14.0994
 20
2.57422
 11
-14.1054
 21
2.55286
  0
LINE
  8
0
 10
-14.1054
 20
2.55286
 11
-14.111
 21
2.53122
  0
LINE
  8
0
 10
-14.111
 20
2.53122
 11
-14.1164
 21
2.50931
  0
LINE
  8
0
 10
-14.1164
 20
2.50931
 11
-14.1214
 21
2.48712
  0
LINE
  8
0
 10
-14.1214
 20
2.48712
 11
-14.1262
 21
2.46466
  0
LINE
  8
0
 10
-14.1262
 20
2.46466
 11
-14.1306
 21
2.44191
  0
LINE
  8
0
 10
-14.1306
 20
2.44191
 11
-14.1348
 21
2.41888
  0
LINE
  8
0
 10
-14.1348
 20
2.41888
 11
-14.1386
 21
2.39558
  0
LINE
  8
0
 10
-14.1386
 20
2.39558
 11
-14.1422
 21
2.37201
  0
LINE
  8
0
 10
-14.1422
 20
2.37201
 11
-14.1455
 21
2.34816
  0
LINE
  8
0
 10
-14.1455
 20
2.34816
 11
-14.1484
 21
2.32402
  0
LINE
  8
0
 10
-14.1484
 20
2.32402
 11
-14.1511
 21
2.29961
  0
LINE
  8
0
 10
-14.1511
 20
2.29961
 11
-14.1534
 21
2.27492
  0
LINE
  8
0
 10
-14.1534
 20
2.27492
 11
-14.1555
 21
2.24995
  0
LINE
  8
0
 10
-14.1555
 20
2.24995
 11
-14.1573
 21
2.22472
  0
LINE
  8
0
 10
-14.1573
 20
2.22472
 11
-14.1587
 21
2.19919
  0
LINE
  8
0
 10
-14.1587
 20
2.19919
 11
-14.1599
 21
2.17339
  0
LINE
  8
0
 10
-14.1599
 20
2.17339
 11
-12.1798
 21
2.17339
  0
LINE
  8
0
 10
-12.1798
 20
2.17339
 11
-12.1825
 21
2.20218
  0
LINE
  8
0
 10
-6.44173
 20
-0.0674896
 11
-6.48116
 21
-0.0665741
  0
LINE
  8
0
 10
-6.48116
 20
-0.0665741
 11
-6.52011
 21
-0.065033
  0
LINE
  8
0
 10
-6.52011
 20
-0.065033
 11
-6.55856
 21
-0.0628967
  0
LINE
  8
0
 10
-6.55856
 20
-0.0628967
 11
-6.59653
 21
-0.0601349
  0
LINE
  8
0
 10
-6.59653
 20
-0.0601349
 11
-6.634
 21
-0.0567627
  0
LINE
  8
0
 10
-6.634
 20
-0.0567627
 11
-6.67099
 21
-0.0527802
  0
LINE
  8
0
 10
-6.67099
 20
-0.0527802
 11
-6.70747
 21
-0.0481873
  0
LINE
  8
0
 10
-6.70747
 20
-0.0481873
 11
-6.74348
 21
-0.042984
  0
LINE
  8
0
 10
-6.74348
 20
-0.042984
 11
-6.77899
 21
-0.0371704
  0
LINE
  8
0
 10
-6.77899
 20
-0.0371704
 11
-6.814
 21
-0.0307465
  0
LINE
  8
0
 10
-6.814
 20
-0.0307465
 11
-6.84853
 21
-0.0236969
  0
LINE
  8
0
 10
-6.84853
 20
-0.0236969
 11
-6.88255
 21
-0.016037
  0
LINE
  8
0
 10
-6.88255
 20
-0.016037
 11
-6.91611
 21
-0.00776672
  0
LINE
  8
0
 10
-6.91611
 20
-0.00776672
 11
-6.94914
 21
0.00109863
  0
LINE
  8
0
 10
-6.94914
 20
0.00109863
 11
-6.9817
 21
0.0105896
  0
LINE
  8
0
 10
-6.9817
 20
0.0105896
 11
-7.01378
 21
0.0206909
  0
LINE
  8
0
 10
-7.01378
 20
0.0206909
 11
-7.04535
 21
0.0314026
  0
LINE
  8
0
 10
-7.04535
 20
0.0314026
 11
-7.07643
 21
0.0427399
  0
LINE
  8
0
 10
-7.07643
 20
0.0427399
 11
-7.10703
 21
0.0546875
  0
LINE
  8
0
 10
-7.10703
 20
0.0546875
 11
-7.13713
 21
0.0672302
  0
LINE
  8
0
 10
-7.13713
 20
0.0672302
 11
-7.16673
 21
0.0803986
  0
LINE
  8
0
 10
-7.16673
 20
0.0803986
 11
-7.19585
 21
0.0941772
  0
LINE
  8
0
 10
-7.19585
 20
0.0941772
 11
-7.22447
 21
0.108582
  0
LINE
  8
0
 10
-7.22447
 20
0.108582
 11
-7.25261
 21
0.123581
  0
LINE
  8
0
 10
-7.25261
 20
0.123581
 11
-7.28026
 21
0.139191
  0
LINE
  8
0
 10
-7.28026
 20
0.139191
 11
-7.3074
 21
0.155426
  0
LINE
  8
0
 10
-7.3074
 20
0.155426
 11
-7.33406
 21
0.172272
  0
LINE
  8
0
 10
-7.33406
 20
0.172272
 11
-7.36023
 21
0.189728
  0
LINE
  8
0
 10
-7.36023
 20
0.189728
 11
-7.38591
 21
0.207794
  0
LINE
  8
0
 10
-7.38591
 20
0.207794
 11
-7.4111
 21
0.226471
  0
LINE
  8
0
 10
-7.4111
 20
0.226471
 11
-7.43579
 21
0.245758
  0
LINE
  8
0
 10
-7.43579
 20
0.245758
 11
-7.45999
 21
0.265671
  0
LINE
  8
0
 10
-7.45999
 20
0.265671
 11
-7.4837
 21
0.286179
  0
LINE
  8
0
 10
-7.4837
 20
0.286179
 11
-7.50691
 21
0.307312
  0
LINE
  8
0
 10
-7.50691
 20
0.307312
 11
-7.52965
 21
0.329056
  0
LINE
  8
0
 10
-7.52965
 20
0.329056
 11
-7.55188
 21
0.35141
  0
LINE
  8
0
 10
-7.55188
 20
0.35141
 11
-7.57362
 21
0.374374
  0
LINE
  8
0
 10
-7.57362
 20
0.374374
 11
-7.59488
 21
0.397949
  0
LINE
  8
0
 10
-7.59488
 20
0.397949
 11
-7.61563
 21
0.42215
  0
LINE
  8
0
 10
-7.61563
 20
0.42215
 11
-7.63589
 21
0.446915
  0
LINE
  8
0
 10
-7.63589
 20
0.446915
 11
-7.65564
 21
0.472229
  0
LINE
  8
0
 10
-7.65564
 20
0.472229
 11
-7.67487
 21
0.498093
  0
LINE
  8
0
 10
-7.67487
 20
0.498093
 11
-7.69359
 21
0.52449
  0
LINE
  8
0
 10
-7.69359
 20
0.52449
 11
-7.71179
 21
0.551437
  0
LINE
  8
0
 10
-7.71179
 20
0.551437
 11
-7.72948
 21
0.578934
  0
LINE
  8
0
 10
-7.72948
 20
0.578934
 11
-7.74666
 21
0.606964
  0
LINE
  8
0
 10
-7.74666
 20
0.606964
 11
-7.76332
 21
0.635544
  0
LINE
  8
0
 10
-7.76332
 20
0.635544
 11
-7.77948
 21
0.664673
  0
LINE
  8
0
 10
-7.77948
 20
0.664673
 11
-7.79512
 21
0.694351
  0
LINE
  8
0
 10
-7.79512
 20
0.694351
 11
-7.81026
 21
0.724564
  0
LINE
  8
0
 10
-7.81026
 20
0.724564
 11
-7.82486
 21
0.755325
  0
LINE
  8
0
 10
-7.82486
 20
0.755325
 11
-7.83897
 21
0.786621
  0
LINE
  8
0
 10
-7.83897
 20
0.786621
 11
-7.85255
 21
0.818481
  0
LINE
  8
0
 10
-7.85255
 20
0.818481
 11
-7.86563
 21
0.850861
  0
LINE
  8
0
 10
-7.86563
 20
0.850861
 11
-7.8782
 21
0.883804
  0
LINE
  8
0
 10
-7.8782
 20
0.883804
 11
-7.89024
 21
0.917282
  0
LINE
  8
0
 10
-7.89024
 20
0.917282
 11
-7.90179
 21
0.951309
  0
LINE
  8
0
 10
-7.90179
 20
0.951309
 11
-7.91281
 21
0.985886
  0
LINE
  8
0
 10
-7.91281
 20
0.985886
 11
-7.92332
 21
1.02101
  0
LINE
  8
0
 10
-7.92332
 20
1.02101
 11
-7.93332
 21
1.05667
  0
LINE
  8
0
 10
-7.93332
 20
1.05667
 11
-7.94281
 21
1.09286
  0
LINE
  8
0
 10
-7.94281
 20
1.09286
 11
-7.95178
 21
1.12962
  0
LINE
  8
0
 10
-7.95178
 20
1.12962
 11
-7.96025
 21
1.16692
  0
LINE
  8
0
 10
-7.96025
 20
1.16692
 11
-7.9682
 21
1.20476
  0
LINE
  8
0
 10
-7.9682
 20
1.20476
 11
-7.97563
 21
1.24313
  0
LINE
  8
0
 10
-7.97563
 20
1.24313
 11
-7.98256
 21
1.28207
  0
LINE
  8
0
 10
-7.98256
 20
1.28207
 11
-7.98897
 21
1.32155
  0
LINE
  8
0
 10
-7.98897
 20
1.32155
 11
-7.99486
 21
1.36156
  0
LINE
  8
0
 10
-7.99486
 20
1.36156
 11
-8.00024
 21
1.40211
  0
LINE
  8
0
 10
-8.00024
 20
1.40211
 11
-8.00511
 21
1.44322
  0
LINE
  8
0
 10
-8.00511
 20
1.44322
 11
-8.00948
 21
1.48488
  0
LINE
  8
0
 10
-8.00948
 20
1.48488
 11
-8.01332
 21
1.52707
  0
LINE
  8
0
 10
-8.01332
 20
1.52707
 11
-8.01666
 21
1.56981
  0
LINE
  8
0
 10
-8.01666
 20
1.56981
 11
-8.01949
 21
1.6131
  0
LINE
  8
0
 10
-8.01949
 20
1.6131
 11
-8.02179
 21
1.65692
  0
LINE
  8
0
 10
-8.02179
 20
1.65692
 11
-8.02357
 21
1.70131
  0
LINE
  8
0
 10
-8.02357
 20
1.70131
 11
-8.02486
 21
1.74622
  0
LINE
  8
0
 10
-8.02486
 20
1.74622
 11
-8.02563
 21
1.79169
  0
LINE
  8
0
 10
-8.02563
 20
1.79169
 11
-8.02589
 21
1.83769
  0
LINE
  8
0
 10
-8.02589
 20
1.83769
 11
-8.02486
 21
1.93144
  0
LINE
  8
0
 10
-8.02486
 20
1.93144
 11
-8.02177
 21
2.02283
  0
LINE
  8
0
 10
-8.02177
 20
2.02283
 11
-8.01663
 21
2.11183
  0
LINE
  8
0
 10
-8.01663
 20
2.11183
 11
-8.00945
 21
2.19846
  0
LINE
  8
0
 10
-8.00945
 20
2.19846
 11
-8.0002
 21
2.28271
  0
LINE
  8
0
 10
-8.0002
 20
2.28271
 11
-7.98889
 21
2.36459
  0
LINE
  8
0
 10
-7.98889
 20
2.36459
 11
-7.97552
 21
2.44411
  0
LINE
  8
0
 10
-7.97552
 20
2.44411
 11
-7.96011
 21
2.52124
  0
LINE
  8
0
 10
-7.96011
 20
2.52124
 11
-7.94264
 21
2.59601
  0
LINE
  8
0
 10
-7.94264
 20
2.59601
 11
-7.92311
 21
2.6684
  0
LINE
  8
0
 10
-7.92311
 20
2.6684
 11
-7.90152
 21
2.73842
  0
LINE
  8
0
 10
-7.90152
 20
2.73842
 11
-7.87788
 21
2.80606
  0
LINE
  8
0
 10
-7.87788
 20
2.80606
 11
-7.85219
 21
2.87132
  0
LINE
  8
0
 10
-7.85219
 20
2.87132
 11
-7.82445
 21
2.93422
  0
LINE
  8
0
 10
-7.82445
 20
2.93422
 11
-7.79463
 21
2.99474
  0
LINE
  8
0
 10
-7.79463
 20
2.99474
 11
-7.76277
 21
3.05289
  0
LINE
  8
0
 10
-7.76277
 20
3.05289
 11
-7.72887
 21
3.10867
  0
LINE
  8
0
 10
-7.72887
 20
3.10867
 11
-7.69289
 21
3.16206
  0
LINE
  8
0
 10
-7.69289
 20
3.16206
 11
-7.65486
 21
3.2131
  0
LINE
  8
0
 10
-7.65486
 20
3.2131
 11
-7.61478
 21
3.26175
  0
LINE
  8
0
 10
-7.61478
 20
3.26175
 11
-7.57263
 21
3.30804
  0
LINE
  8
0
 10
-7.57263
 20
3.30804
 11
-7.52844
 21
3.35194
  0
LINE
  8
0
 10
-7.52844
 20
3.35194
 11
-7.48219
 21
3.39348
  0
LINE
  8
0
 10
-7.48219
 20
3.39348
 11
-7.43388
 21
3.43265
  0
LINE
  8
0
 10
-7.43388
 20
3.43265
 11
-7.38353
 21
3.46944
  0
LINE
  8
0
 10
-7.38353
 20
3.46944
 11
-7.3311
 21
3.50385
  0
LINE
  8
0
 10
-7.3311
 20
3.50385
 11
-7.27664
 21
3.53589
  0
LINE
  8
0
 10
-7.27664
 20
3.53589
 11
-7.22011
 21
3.56555
  0
LINE
  8
0
 10
-7.22011
 20
3.56555
 11
-7.16153
 21
3.59285
  0
LINE
  8
0
 10
-7.16153
 20
3.59285
 11
-7.10089
 21
3.61777
  0
LINE
  8
0
 10
-7.10089
 20
3.61777
 11
-7.03819
 21
3.64032
  0
LINE
  8
0
 10
-7.03819
 20
3.64032
 11
-6.97343
 21
3.66049
  0
LINE
  8
0
 10
-6.97343
 20
3.66049
 11
-6.90663
 21
3.6783
  0
LINE
  8
0
 10
-6.90663
 20
3.6783
 11
-6.83777
 21
3.69373
  0
LINE
  8
0
 10
-6.83777
 20
3.69373
 11
-6.76686
 21
3.70677
  0
LINE
  8
0
 10
-6.76686
 20
3.70677
 11
-6.69388
 21
3.71745
  0
LINE
  8
0
 10
-6.69388
 20
3.71745
 11
-6.61885
 21
3.72577
  0
LINE
  8
0
 10
-6.61885
 20
3.72577
 11
-6.54178
 21
3.73169
  0
LINE
  8
0
 10
-6.54178
 20
3.73169
 11
-6.46263
 21
3.73526
  0
LINE
  8
0
 10
-6.46263
 20
3.73526
 11
-6.38144
 21
3.73643
  0
LINE
  8
0
 10
-6.38144
 20
3.73643
 11
-6.33968
 21
3.73616
  0
LINE
  8
0
 10
-6.33968
 20
3.73616
 11
-6.29846
 21
3.73529
  0
LINE
  8
0
 10
-6.29846
 20
3.73529
 11
-6.25781
 21
3.73384
  0
LINE
  8
0
 10
-6.25781
 20
3.73384
 11
-6.21771
 21
3.73181
  0
LINE
  8
0
 10
-6.21771
 20
3.73181
 11
-6.17816
 21
3.72922
  0
LINE
  8
0
 10
-6.17816
 20
3.72922
 11
-6.13918
 21
3.72603
  0
LINE
  8
0
 10
-6.13918
 20
3.72603
 11
-6.10074
 21
3.72227
  0
LINE
  8
0
 10
-6.10074
 20
3.72227
 11
-6.06287
 21
3.71793
  0
LINE
  8
0
 10
-6.06287
 20
3.71793
 11
-6.02554
 21
3.71301
  0
LINE
  8
0
 10
-6.02554
 20
3.71301
 11
-5.98877
 21
3.70752
  0
LINE
  8
0
 10
-5.98877
 20
3.70752
 11
-5.95256
 21
3.70145
  0
LINE
  8
0
 10
-5.95256
 20
3.70145
 11
-5.9169
 21
3.69479
  0
LINE
  8
0
 10
-5.9169
 20
3.69479
 11
-5.88181
 21
3.68756
  0
LINE
  8
0
 10
-5.88181
 20
3.68756
 11
-5.84724
 21
3.67975
  0
LINE
  8
0
 10
-5.84724
 20
3.67975
 11
-5.81326
 21
3.67136
  0
LINE
  8
0
 10
-5.81326
 20
3.67136
 11
-5.77982
 21
3.6624
  0
LINE
  8
0
 10
-5.77982
 20
3.6624
 11
-5.74693
 21
3.65285
  0
LINE
  8
0
 10
-5.74693
 20
3.65285
 11
-5.71461
 21
3.64273
  0
LINE
  8
0
 10
-5.71461
 20
3.64273
 11
-5.68285
 21
3.63202
  0
LINE
  8
0
 10
-5.68285
 20
3.63202
 11
-5.65163
 21
3.62074
  0
LINE
  8
0
 10
-5.65163
 20
3.62074
 11
-5.62097
 21
3.60889
  0
LINE
  8
0
 10
-5.62097
 20
3.60889
 11
-5.59087
 21
3.59645
  0
LINE
  8
0
 10
-5.59087
 20
3.59645
 11
-5.56131
 21
3.58344
  0
LINE
  8
0
 10
-5.56131
 20
3.58344
 11
-5.53232
 21
3.56984
  0
LINE
  8
0
 10
-5.53232
 20
3.56984
 11
-5.50388
 21
3.55566
  0
LINE
  8
0
 10
-5.50388
 20
3.55566
 11
-5.47598
 21
3.54091
  0
LINE
  8
0
 10
-5.47598
 20
3.54091
 11
-5.44865
 21
3.52557
  0
LINE
  8
0
 10
-5.44865
 20
3.52557
 11
-5.42188
 21
3.50967
  0
LINE
  8
0
 10
-5.42188
 20
3.50967
 11
-5.39566
 21
3.49318
  0
LINE
  8
0
 10
-5.39566
 20
3.49318
 11
-5.37
 21
3.47612
  0
LINE
  8
0
 10
-5.37
 20
3.47612
 11
-5.34489
 21
3.45847
  0
LINE
  8
0
 10
-5.34489
 20
3.45847
 11
-5.32033
 21
3.44025
  0
LINE
  8
0
 10
-5.32033
 20
3.44025
 11
-5.29634
 21
3.42145
  0
LINE
  8
0
 10
-5.29634
 20
3.42145
 11
-5.27289
 21
3.40207
  0
LINE
  8
0
 10
-5.27289
 20
3.40207
 11
-5.25
 21
3.38211
  0
LINE
  8
0
 10
-5.25
 20
3.38211
 11
-5.22768
 21
3.36157
  0
LINE
  8
0
 10
-5.22768
 20
3.36157
 11
-5.20589
 21
3.34045
  0
LINE
  8
0
 10
-5.20589
 20
3.34045
 11
-5.18466
 21
3.31877
  0
LINE
  8
0
 10
-5.18466
 20
3.31877
 11
-5.164
 21
3.29649
  0
LINE
  8
0
 10
-5.164
 20
3.29649
 11
-5.14389
 21
3.27364
  0
LINE
  8
0
 10
-5.14389
 20
3.27364
 11
-5.1243
 21
3.25018
  0
LINE
  8
0
 10
-5.1243
 20
3.25018
 11
-5.10521
 21
3.22609
  0
LINE
  8
0
 10
-5.10521
 20
3.22609
 11
-5.08661
 21
3.20135
  0
LINE
  8
0
 10
-5.08661
 20
3.20135
 11
-5.06851
 21
3.17598
  0
LINE
  8
0
 10
-5.06851
 20
3.17598
 11
-5.0509
 21
3.14996
  0
LINE
  8
0
 10
-5.0509
 20
3.14996
 11
-5.03378
 21
3.12332
  0
LINE
  8
0
 10
-5.03378
 20
3.12332
 11
-5.01718
 21
3.09604
  0
LINE
  8
0
 10
-5.01718
 20
3.09604
 11
-5.00105
 21
3.06812
  0
LINE
  8
0
 10
-5.00105
 20
3.06812
 11
-4.98544
 21
3.03955
  0
LINE
  8
0
 10
-4.98544
 20
3.03955
 11
-4.97031
 21
3.01035
  0
LINE
  8
0
 10
-4.97031
 20
3.01035
 11
-4.95567
 21
2.98051
  0
LINE
  8
0
 10
-4.95567
 20
2.98051
 11
-4.94154
 21
2.95003
  0
LINE
  8
0
 10
-4.94154
 20
2.95003
 11
-4.9279
 21
2.91891
  0
LINE
  8
0
 10
-4.9279
 20
2.91891
 11
-4.91476
 21
2.88716
  0
LINE
  8
0
 10
-4.91476
 20
2.88716
 11
-4.90211
 21
2.85477
  0
LINE
  8
0
 10
-4.90211
 20
2.85477
 11
-4.88997
 21
2.82175
  0
LINE
  8
0
 10
-4.88997
 20
2.82175
 11
-4.87831
 21
2.78809
  0
LINE
  8
0
 10
-4.87831
 20
2.78809
 11
-4.86716
 21
2.75377
  0
LINE
  8
0
 10
-4.86716
 20
2.75377
 11
-4.85649
 21
2.71884
  0
LINE
  8
0
 10
-4.85649
 20
2.71884
 11
-4.84633
 21
2.68326
  0
LINE
  8
0
 10
-4.84633
 20
2.68326
 11
-4.83665
 21
2.64703
  0
LINE
  8
0
 10
-4.83665
 20
2.64703
 11
-4.82748
 21
2.61018
  0
LINE
  8
0
 10
-4.82748
 20
2.61018
 11
-4.8188
 21
2.57269
  0
LINE
  8
0
 10
-4.8188
 20
2.57269
 11
-4.81062
 21
2.53456
  0
LINE
  8
0
 10
-4.81062
 20
2.53456
 11
-4.80293
 21
2.49579
  0
LINE
  8
0
 10
-4.80293
 20
2.49579
 11
-4.79575
 21
2.45638
  0
LINE
  8
0
 10
-4.79575
 20
2.45638
 11
-4.78905
 21
2.41634
  0
LINE
  8
0
 10
-4.78905
 20
2.41634
 11
-4.78285
 21
2.37566
  0
LINE
  8
0
 10
-4.78285
 20
2.37566
 11
-4.77715
 21
2.33434
  0
LINE
  8
0
 10
-4.77715
 20
2.33434
 11
-4.77194
 21
2.29237
  0
LINE
  8
0
 10
-4.77194
 20
2.29237
 11
-4.76723
 21
2.24977
  0
LINE
  8
0
 10
-4.76723
 20
2.24977
 11
-4.763
 21
2.20654
  0
LINE
  8
0
 10
-4.763
 20
2.20654
 11
-4.75929
 21
2.16266
  0
LINE
  8
0
 10
-4.75929
 20
2.16266
 11
-4.75606
 21
2.11815
  0
LINE
  8
0
 10
-4.75606
 20
2.11815
 11
-4.75334
 21
2.073
  0
LINE
  8
0
 10
-4.75334
 20
2.073
 11
-4.7511
 21
2.02722
  0
LINE
  8
0
 10
-4.7511
 20
2.02722
 11
-4.74937
 21
1.98079
  0
LINE
  8
0
 10
-4.74937
 20
1.98079
 11
-4.74812
 21
1.93373
  0
LINE
  8
0
 10
-4.74812
 20
1.93373
 11
-4.74739
 21
1.88603
  0
LINE
  8
0
 10
-4.74739
 20
1.88603
 11
-4.74713
 21
1.83769
  0
LINE
  8
0
 10
-4.74713
 20
1.83769
 11
-4.74741
 21
1.78986
  0
LINE
  8
0
 10
-4.74741
 20
1.78986
 11
-4.7482
 21
1.74263
  0
LINE
  8
0
 10
-4.7482
 20
1.74263
 11
-4.74953
 21
1.69603
  0
LINE
  8
0
 10
-4.74953
 20
1.69603
 11
-4.75137
 21
1.65002
  0
LINE
  8
0
 10
-4.75137
 20
1.65002
 11
-4.75375
 21
1.60464
  0
LINE
  8
0
 10
-4.75375
 20
1.60464
 11
-4.75667
 21
1.55989
  0
LINE
  8
0
 10
-4.75667
 20
1.55989
 11
-4.76012
 21
1.51573
  0
LINE
  8
0
 10
-4.76012
 20
1.51573
 11
-4.7641
 21
1.4722
  0
LINE
  8
0
 10
-4.7641
 20
1.4722
 11
-4.7686
 21
1.42928
  0
LINE
  8
0
 10
-4.7686
 20
1.42928
 11
-4.77364
 21
1.38696
  0
LINE
  8
0
 10
-4.77364
 20
1.38696
 11
-4.77919
 21
1.34528
  0
LINE
  8
0
 10
-4.77919
 20
1.34528
 11
-4.78528
 21
1.3042
  0
LINE
  8
0
 10
-4.78528
 20
1.3042
 11
-4.7919
 21
1.26373
  0
LINE
  8
0
 10
-4.7919
 20
1.26373
 11
-4.79906
 21
1.22388
  0
LINE
  8
0
 10
-4.79906
 20
1.22388
 11
-4.80675
 21
1.18465
  0
LINE
  8
0
 10
-4.80675
 20
1.18465
 11
-4.81496
 21
1.14603
  0
LINE
  8
0
 10
-4.81496
 20
1.14603
 11
-4.8237
 21
1.10802
  0
LINE
  8
0
 10
-4.8237
 20
1.10802
 11
-4.83296
 21
1.07063
  0
LINE
  8
0
 10
-4.83296
 20
1.07063
 11
-4.84277
 21
1.03386
  0
LINE
  8
0
 10
-4.84277
 20
1.03386
 11
-4.8531
 21
0.997696
  0
LINE
  8
0
 10
-4.8531
 20
0.997696
 11
-4.86397
 21
0.962143
  0
LINE
  8
0
 10
-4.86397
 20
0.962143
 11
-4.87535
 21
0.927216
  0
LINE
  8
0
 10
-4.87535
 20
0.927216
 11
-4.88727
 21
0.892899
  0
LINE
  8
0
 10
-4.88727
 20
0.892899
 11
-4.89972
 21
0.859192
  0
LINE
  8
0
 10
-4.89972
 20
0.859192
 11
-4.9127
 21
0.826096
  0
LINE
  8
0
 10
-4.9127
 20
0.826096
 11
-4.92621
 21
0.793625
  0
LINE
  8
0
 10
-4.92621
 20
0.793625
 11
-4.94026
 21
0.761765
  0
LINE
  8
0
 10
-4.94026
 20
0.761765
 11
-4.95482
 21
0.730515
  0
LINE
  8
0
 10
-4.95482
 20
0.730515
 11
-4.96992
 21
0.69989
  0
LINE
  8
0
 10
-4.96992
 20
0.69989
 11
-4.98555
 21
0.669861
  0
LINE
  8
0
 10
-4.98555
 20
0.669861
 11
-5.00171
 21
0.640457
  0
LINE
  8
0
 10
-5.00171
 20
0.640457
 11
-5.0184
 21
0.611679
  0
LINE
  8
0
 10
-5.0184
 20
0.611679
 11
-5.03561
 21
0.583496
  0
LINE
  8
0
 10
-5.03561
 20
0.583496
 11
-5.05338
 21
0.555939
  0
LINE
  8
0
 10
-5.05338
 20
0.555939
 11
-5.07166
 21
0.528992
  0
LINE
  8
0
 10
-5.07166
 20
0.528992
 11
-5.09045
 21
0.50267
  0
LINE
  8
0
 10
-5.09045
 20
0.50267
 11
-5.1098
 21
0.476959
  0
LINE
  8
0
 10
-5.1098
 20
0.476959
 11
-5.12967
 21
0.451859
  0
LINE
  8
0
 10
-5.12967
 20
0.451859
 11
-5.15005
 21
0.427368
  0
LINE
  8
0
 10
-5.15005
 20
0.427368
 11
-5.17099
 21
0.403488
  0
LINE
  8
0
 10
-5.17099
 20
0.403488
 11
-5.19241
 21
0.380219
  0
LINE
  8
0
 10
-5.19241
 20
0.380219
 11
-5.21432
 21
0.357544
  0
LINE
  8
0
 10
-5.21432
 20
0.357544
 11
-5.23672
 21
0.335449
  0
LINE
  8
0
 10
-5.23672
 20
0.335449
 11
-5.25958
 21
0.31395
  0
LINE
  8
0
 10
-5.25958
 20
0.31395
 11
-5.28294
 21
0.29303
  0
LINE
  8
0
 10
-5.28294
 20
0.29303
 11
-5.30676
 21
0.272705
  0
LINE
  8
0
 10
-5.30676
 20
0.272705
 11
-5.33107
 21
0.252975
  0
LINE
  8
0
 10
-5.33107
 20
0.252975
 11
-5.35585
 21
0.233826
  0
LINE
  8
0
 10
-5.35585
 20
0.233826
 11
-5.38112
 21
0.215271
  0
LINE
  8
0
 10
-5.38112
 20
0.215271
 11
-5.40686
 21
0.197296
  0
LINE
  8
0
 10
-5.40686
 20
0.197296
 11
-5.43307
 21
0.179916
  0
LINE
  8
0
 10
-5.43307
 20
0.179916
 11
-5.45978
 21
0.163132
  0
LINE
  8
0
 10
-5.45978
 20
0.163132
 11
-5.48695
 21
0.146927
  0
LINE
  8
0
 10
-5.48695
 20
0.146927
 11
-5.51462
 21
0.131317
  0
LINE
  8
0
 10
-5.51462
 20
0.131317
 11
-5.54276
 21
0.116287
  0
LINE
  8
0
 10
-5.54276
 20
0.116287
 11
-5.57137
 21
0.101868
  0
LINE
  8
0
 10
-5.57137
 20
0.101868
 11
-5.60046
 21
0.0880127
  0
LINE
  8
0
 10
-5.60046
 20
0.0880127
 11
-5.63004
 21
0.0747681
  0
LINE
  8
0
 10
-5.63004
 20
0.0747681
 11
-5.66008
 21
0.062088
  0
LINE
  8
0
 10
-5.66008
 20
0.062088
 11
-5.69061
 21
0.0500183
  0
LINE
  8
0
 10
-5.69061
 20
0.0500183
 11
-5.72162
 21
0.0385284
  0
LINE
  8
0
 10
-5.72162
 20
0.0385284
 11
-5.75311
 21
0.0276337
  0
LINE
  8
0
 10
-5.75311
 20
0.0276337
 11
-5.78508
 21
0.0173187
  0
LINE
  8
0
 10
-5.78508
 20
0.0173187
 11
-5.81752
 21
0.00759888
  0
LINE
  8
0
 10
-5.81752
 20
0.00759888
 11
-5.85045
 21
-0.00151062
  0
LINE
  8
0
 10
-5.85045
 20
-0.00151062
 11
-5.88385
 21
-0.0100555
  0
LINE
  8
0
 10
-5.88385
 20
-0.0100555
 11
-5.91774
 21
-0.0180054
  0
LINE
  8
0
 10
-5.91774
 20
-0.0180054
 11
-5.9521
 21
-0.0253754
  0
LINE
  8
0
 10
-5.9521
 20
-0.0253754
 11
-5.98694
 21
-0.0321503
  0
LINE
  8
0
 10
-5.98694
 20
-0.0321503
 11
-6.02226
 21
-0.0383301
  0
LINE
  8
0
 10
-6.02226
 20
-0.0383301
 11
-6.05806
 21
-0.0439301
  0
LINE
  8
0
 10
-6.05806
 20
-0.0439301
 11
-6.09433
 21
-0.0489349
  0
LINE
  8
0
 10
-6.09433
 20
-0.0489349
 11
-6.13109
 21
-0.05336
  0
LINE
  8
0
 10
-6.13109
 20
-0.05336
 11
-6.16832
 21
-0.0571899
  0
LINE
  8
0
 10
-6.16832
 20
-0.0571899
 11
-6.20604
 21
-0.0604248
  0
LINE
  8
0
 10
-6.20604
 20
-0.0604248
 11
-6.24423
 21
-0.0630798
  0
LINE
  8
0
 10
-6.24423
 20
-0.0630798
 11
-6.2829
 21
-0.0651398
  0
LINE
  8
0
 10
-6.2829
 20
-0.0651398
 11
-6.32205
 21
-0.0666199
  0
LINE
  8
0
 10
-6.32205
 20
-0.0666199
 11
-6.36168
 21
-0.0675049
  0
LINE
  8
0
 10
-6.36168
 20
-0.0675049
 11
-6.40179
 21
-0.0677948
  0
LINE
  8
0
 10
-6.40179
 20
-0.0677948
 11
-6.44173
 21
-0.0674896
  0
LINE
  8
0
 10
-6.38132
 20
0.383362
 11
-6.35445
 21
0.384018
  0
LINE
  8
0
 10
-6.35445
 20
0.384018
 11
-6.32796
 21
0.385132
  0
LINE
  8
0
 10
-6.32796
 20
0.385132
 11
-6.30186
 21
0.386673
  0
LINE
  8
0
 10
-6.30186
 20
0.386673
 11
-6.27617
 21
0.388657
  0
LINE
  8
0
 10
-6.27617
 20
0.388657
 11
-6.25085
 21
0.391083
  0
LINE
  8
0
 10
-6.25085
 20
0.391083
 11
-6.22594
 21
0.393936
  0
LINE
  8
0
 10
-6.22594
 20
0.393936
 11
-6.20142
 21
0.397247
  0
LINE
  8
0
 10
-6.20142
 20
0.397247
 11
-6.17728
 21
0.400986
  0
LINE
  8
0
 10
-6.17728
 20
0.400986
 11
-6.15353
 21
0.405182
  0
LINE
  8
0
 10
-6.15353
 20
0.405182
 11
-6.13019
 21
0.409805
  0
LINE
  8
0
 10
-6.13019
 20
0.409805
 11
-6.10724
 21
0.414871
  0
LINE
  8
0
 10
-6.10724
 20
0.414871
 11
-6.08467
 21
0.42038
  0
LINE
  8
0
 10
-6.08467
 20
0.42038
 11
-6.0625
 21
0.426331
  0
LINE
  8
0
 10
-6.0625
 20
0.426331
 11
-6.04073
 21
0.432724
  0
LINE
  8
0
 10
-6.04073
 20
0.432724
 11
-6.01933
 21
0.43956
  0
LINE
  8
0
 10
-6.01933
 20
0.43956
 11
-5.99834
 21
0.446823
  0
LINE
  8
0
 10
-5.99834
 20
0.446823
 11
-5.97774
 21
0.454544
  0
LINE
  8
0
 10
-5.97774
 20
0.454544
 11
-5.95752
 21
0.462692
  0
LINE
  8
0
 10
-5.95752
 20
0.462692
 11
-5.9377
 21
0.471298
  0
LINE
  8
0
 10
-5.9377
 20
0.471298
 11
-5.91827
 21
0.480331
  0
LINE
  8
0
 10
-5.91827
 20
0.480331
 11
-5.89923
 21
0.489807
  0
LINE
  8
0
 10
-5.89923
 20
0.489807
 11
-5.8806
 21
0.499725
  0
LINE
  8
0
 10
-5.8806
 20
0.499725
 11
-5.86234
 21
0.510071
  0
LINE
  8
0
 10
-5.86234
 20
0.510071
 11
-5.84448
 21
0.520874
  0
LINE
  8
0
 10
-5.84448
 20
0.520874
 11
-5.82701
 21
0.53212
  0
LINE
  8
0
 10
-5.82701
 20
0.53212
 11
-5.80994
 21
0.543793
  0
LINE
  8
0
 10
-5.80994
 20
0.543793
 11
-5.79326
 21
0.555923
  0
LINE
  8
0
 10
-5.79326
 20
0.555923
 11
-5.77696
 21
0.568481
  0
LINE
  8
0
 10
-5.77696
 20
0.568481
 11
-5.76106
 21
0.581482
  0
LINE
  8
0
 10
-5.76106
 20
0.581482
 11
-5.74556
 21
0.594925
  0
LINE
  8
0
 10
-5.74556
 20
0.594925
 11
-5.73044
 21
0.60881
  0
LINE
  8
0
 10
-5.73044
 20
0.60881
 11
-5.71571
 21
0.623123
  0
LINE
  8
0
 10
-5.71571
 20
0.623123
 11
-5.70139
 21
0.637894
  0
LINE
  8
0
 10
-5.70139
 20
0.637894
 11
-5.68745
 21
0.653107
  0
LINE
  8
0
 10
-5.68745
 20
0.653107
 11
-5.6739
 21
0.668747
  0
LINE
  8
0
 10
-5.6739
 20
0.668747
 11
-5.66075
 21
0.68483
  0
LINE
  8
0
 10
-5.66075
 20
0.68483
 11
-5.64798
 21
0.70137
  0
LINE
  8
0
 10
-5.64798
 20
0.70137
 11
-5.63562
 21
0.718338
  0
LINE
  8
0
 10
-5.63562
 20
0.718338
 11
-5.62364
 21
0.735748
  0
LINE
  8
0
 10
-5.62364
 20
0.735748
 11
-5.612
 21
0.753616
  0
LINE
  8
0
 10
-5.612
 20
0.753616
 11
-5.60066
 21
0.772003
  0
LINE
  8
0
 10
-5.60066
 20
0.772003
 11
-5.58961
 21
0.790878
  0
LINE
  8
0
 10
-5.58961
 20
0.790878
 11
-5.57886
 21
0.810242
  0
LINE
  8
0
 10
-5.57886
 20
0.810242
 11
-5.56841
 21
0.830109
  0
LINE
  8
0
 10
-5.56841
 20
0.830109
 11
-5.55824
 21
0.850464
  0
LINE
  8
0
 10
-5.55824
 20
0.850464
 11
-5.54837
 21
0.871323
  0
LINE
  8
0
 10
-5.54837
 20
0.871323
 11
-5.5388
 21
0.89267
  0
LINE
  8
0
 10
-5.5388
 20
0.89267
 11
-5.52953
 21
0.91452
  0
LINE
  8
0
 10
-5.52953
 20
0.91452
 11
-5.52054
 21
0.936859
  0
LINE
  8
0
 10
-5.52054
 20
0.936859
 11
-5.51186
 21
0.959702
  0
LINE
  8
0
 10
-5.51186
 20
0.959702
 11
-5.50346
 21
0.983032
  0
LINE
  8
0
 10
-5.50346
 20
0.983032
 11
-5.49536
 21
1.00687
  0
LINE
  8
0
 10
-5.49536
 20
1.00687
 11
-5.48755
 21
1.03119
  0
LINE
  8
0
 10
-5.48755
 20
1.03119
 11
-5.48004
 21
1.05602
  0
LINE
  8
0
 10
-5.48004
 20
1.05602
 11
-5.47282
 21
1.08133
  0
LINE
  8
0
 10
-5.47282
 20
1.08133
 11
-5.4659
 21
1.10715
  0
LINE
  8
0
 10
-5.4659
 20
1.10715
 11
-5.45927
 21
1.13345
  0
LINE
  8
0
 10
-5.45927
 20
1.13345
 11
-5.45294
 21
1.16025
  0
LINE
  8
0
 10
-5.45294
 20
1.16025
 11
-5.4469
 21
1.18756
  0
LINE
  8
0
 10
-5.4469
 20
1.18756
 11
-5.44116
 21
1.21535
  0
LINE
  8
0
 10
-5.44116
 20
1.21535
 11
-5.43571
 21
1.24364
  0
LINE
  8
0
 10
-5.43571
 20
1.24364
 11
-5.43056
 21
1.27243
  0
LINE
  8
0
 10
-5.43056
 20
1.27243
 11
-5.42569
 21
1.30171
  0
LINE
  8
0
 10
-5.42569
 20
1.30171
 11
-5.42113
 21
1.3315
  0
LINE
  8
0
 10
-5.42113
 20
1.3315
 11
-5.41685
 21
1.36177
  0
LINE
  8
0
 10
-5.41685
 20
1.36177
 11
-5.41287
 21
1.39255
  0
LINE
  8
0
 10
-5.41287
 20
1.39255
 11
-5.40919
 21
1.42381
  0
LINE
  8
0
 10
-5.40919
 20
1.42381
 11
-5.40581
 21
1.45557
  0
LINE
  8
0
 10
-5.40581
 20
1.45557
 11
-5.40271
 21
1.48784
  0
LINE
  8
0
 10
-5.40271
 20
1.48784
 11
-5.39992
 21
1.52058
  0
LINE
  8
0
 10
-5.39992
 20
1.52058
 11
-5.39742
 21
1.55383
  0
LINE
  8
0
 10
-5.39742
 20
1.55383
 11
-5.3952
 21
1.58759
  0
LINE
  8
0
 10
-5.3952
 20
1.58759
 11
-5.3933
 21
1.62183
  0
LINE
  8
0
 10
-5.3933
 20
1.62183
 11
-5.39166
 21
1.65657
  0
LINE
  8
0
 10
-5.39166
 20
1.65657
 11
-5.39035
 21
1.6918
  0
LINE
  8
0
 10
-5.39035
 20
1.6918
 11
-5.38931
 21
1.72752
  0
LINE
  8
0
 10
-5.38931
 20
1.72752
 11
-5.38858
 21
1.76375
  0
LINE
  8
0
 10
-5.38858
 20
1.76375
 11
-5.38814
 21
1.80048
  0
LINE
  8
0
 10
-5.38814
 20
1.80048
 11
-5.38799
 21
1.83769
  0
LINE
  8
0
 10
-5.38799
 20
1.83769
 11
-5.38812
 21
1.87541
  0
LINE
  8
0
 10
-5.38812
 20
1.87541
 11
-5.38855
 21
1.9126
  0
LINE
  8
0
 10
-5.38855
 20
1.9126
 11
-5.38925
 21
1.94928
  0
LINE
  8
0
 10
-5.38925
 20
1.94928
 11
-5.39024
 21
1.98544
  0
LINE
  8
0
 10
-5.39024
 20
1.98544
 11
-5.39151
 21
2.02107
  0
LINE
  8
0
 10
-5.39151
 20
2.02107
 11
-5.39307
 21
2.0562
  0
LINE
  8
0
 10
-5.39307
 20
2.0562
 11
-5.3949
 21
2.09079
  0
LINE
  8
0
 10
-5.3949
 20
2.09079
 11
-5.397
 21
2.12488
  0
LINE
  8
0
 10
-5.397
 20
2.12488
 11
-5.3994
 21
2.15845
  0
LINE
  8
0
 10
-5.3994
 20
2.15845
 11
-5.40208
 21
2.19148
  0
LINE
  8
0
 10
-5.40208
 20
2.19148
 11
-5.40504
 21
2.224
  0
LINE
  8
0
 10
-5.40504
 20
2.224
 11
-5.40828
 21
2.25601
  0
LINE
  8
0
 10
-5.40828
 20
2.25601
 11
-5.4118
 21
2.28749
  0
LINE
  8
0
 10
-5.4118
 20
2.28749
 11
-5.41562
 21
2.31847
  0
LINE
  8
0
 10
-5.41562
 20
2.31847
 11
-5.41969
 21
2.34891
  0
LINE
  8
0
 10
-5.41969
 20
2.34891
 11
-5.42407
 21
2.37883
  0
LINE
  8
0
 10
-5.42407
 20
2.37883
 11
-5.42873
 21
2.40825
  0
LINE
  8
0
 10
-5.42873
 20
2.40825
 11
-5.43365
 21
2.43713
  0
LINE
  8
0
 10
-5.43365
 20
2.43713
 11
-5.43887
 21
2.4655
  0
LINE
  8
0
 10
-5.43887
 20
2.4655
 11
-5.44437
 21
2.49336
  0
LINE
  8
0
 10
-5.44437
 20
2.49336
 11
-5.45013
 21
2.52069
  0
LINE
  8
0
 10
-5.45013
 20
2.52069
 11
-5.45621
 21
2.5475
  0
LINE
  8
0
 10
-5.45621
 20
2.5475
 11
-5.46254
 21
2.57379
  0
LINE
  8
0
 10
-5.46254
 20
2.57379
 11
-5.46916
 21
2.59956
  0
LINE
  8
0
 10
-5.46916
 20
2.59956
 11
-5.47607
 21
2.62482
  0
LINE
  8
0
 10
-5.47607
 20
2.62482
 11
-5.48326
 21
2.64955
  0
LINE
  8
0
 10
-5.48326
 20
2.64955
 11
-5.49074
 21
2.67377
  0
LINE
  8
0
 10
-5.49074
 20
2.67377
 11
-5.49849
 21
2.69746
  0
LINE
  8
0
 10
-5.49849
 20
2.69746
 11
-5.50652
 21
2.72064
  0
LINE
  8
0
 10
-5.50652
 20
2.72064
 11
-5.51483
 21
2.7433
  0
LINE
  8
0
 10
-5.51483
 20
2.7433
 11
-5.52342
 21
2.76544
  0
LINE
  8
0
 10
-5.52342
 20
2.76544
 11
-5.5323
 21
2.78706
  0
LINE
  8
0
 10
-5.5323
 20
2.78706
 11
-5.54147
 21
2.80817
  0
LINE
  8
0
 10
-5.54147
 20
2.80817
 11
-5.55092
 21
2.82875
  0
LINE
  8
0
 10
-5.55092
 20
2.82875
 11
-5.56064
 21
2.84882
  0
LINE
  8
0
 10
-5.56064
 20
2.84882
 11
-5.57065
 21
2.86836
  0
LINE
  8
0
 10
-5.57065
 20
2.86836
 11
-5.58093
 21
2.88739
  0
LINE
  8
0
 10
-5.58093
 20
2.88739
 11
-5.59151
 21
2.90588
  0
LINE
  8
0
 10
-5.59151
 20
2.90588
 11
-5.60236
 21
2.92387
  0
LINE
  8
0
 10
-5.60236
 20
2.92387
 11
-5.61349
 21
2.94135
  0
LINE
  8
0
 10
-5.61349
 20
2.94135
 11
-5.62495
 21
2.95833
  0
LINE
  8
0
 10
-5.62495
 20
2.95833
 11
-5.6368
 21
2.9749
  0
LINE
  8
0
 10
-5.6368
 20
2.9749
 11
-5.64903
 21
2.99103
  0
LINE
  8
0
 10
-5.64903
 20
2.99103
 11
-5.66165
 21
3.00673
  0
LINE
  8
0
 10
-5.66165
 20
3.00673
 11
-5.67465
 21
3.022
  0
LINE
  8
0
 10
-5.67465
 20
3.022
 11
-5.68803
 21
3.03685
  0
LINE
  8
0
 10
-5.68803
 20
3.03685
 11
-5.7018
 21
3.05125
  0
LINE
  8
0
 10
-5.7018
 20
3.05125
 11
-5.71594
 21
3.06523
  0
LINE
  8
0
 10
-5.71594
 20
3.06523
 11
-5.73048
 21
3.07878
  0
LINE
  8
0
 10
-5.73048
 20
3.07878
 11
-5.74539
 21
3.0919
  0
LINE
  8
0
 10
-5.74539
 20
3.0919
 11
-5.7607
 21
3.1046
  0
LINE
  8
0
 10
-5.7607
 20
3.1046
 11
-5.77638
 21
3.11685
  0
LINE
  8
0
 10
-5.77638
 20
3.11685
 11
-5.79245
 21
3.12869
  0
LINE
  8
0
 10
-5.79245
 20
3.12869
 11
-5.8089
 21
3.14009
  0
LINE
  8
0
 10
-5.8089
 20
3.14009
 11
-5.82573
 21
3.15106
  0
LINE
  8
0
 10
-5.82573
 20
3.15106
 11
-5.84296
 21
3.16161
  0
LINE
  8
0
 10
-5.84296
 20
3.16161
 11
-5.86055
 21
3.17171
  0
LINE
  8
0
 10
-5.86055
 20
3.17171
 11
-5.87854
 21
3.18138
  0
LINE
  8
0
 10
-5.87854
 20
3.18138
 11
-5.89691
 21
3.19064
  0
LINE
  8
0
 10
-5.89691
 20
3.19064
 11
-5.91566
 21
3.19945
  0
LINE
  8
0
 10
-5.91566
 20
3.19945
 11
-5.9348
 21
3.20784
  0
LINE
  8
0
 10
-5.9348
 20
3.20784
 11
-5.95432
 21
3.21581
  0
LINE
  8
0
 10
-5.95432
 20
3.21581
 11
-5.97423
 21
3.22333
  0
LINE
  8
0
 10
-5.97423
 20
3.22333
 11
-5.99451
 21
3.23042
  0
LINE
  8
0
 10
-5.99451
 20
3.23042
 11
-6.01518
 21
3.23709
  0
LINE
  8
0
 10
-6.01518
 20
3.23709
 11
-6.03624
 21
3.24333
  0
LINE
  8
0
 10
-6.03624
 20
3.24333
 11
-6.05768
 21
3.24915
  0
LINE
  8
0
 10
-6.05768
 20
3.24915
 11
-6.0795
 21
3.25452
  0
LINE
  8
0
 10
-6.0795
 20
3.25452
 11
-6.1017
 21
3.25946
  0
LINE
  8
0
 10
-6.1017
 20
3.25946
 11
-6.1243
 21
3.26398
  0
LINE
  8
0
 10
-6.1243
 20
3.26398
 11
-6.14726
 21
3.26807
  0
LINE
  8
0
 10
-6.14726
 20
3.26807
 11
-6.17062
 21
3.27173
  0
LINE
  8
0
 10
-6.17062
 20
3.27173
 11
-6.19437
 21
3.27495
  0
LINE
  8
0
 10
-6.19437
 20
3.27495
 11
-6.21849
 21
3.27776
  0
LINE
  8
0
 10
-6.21849
 20
3.27776
 11
-6.243
 21
3.28012
  0
LINE
  8
0
 10
-6.243
 20
3.28012
 11
-6.26788
 21
3.28204
  0
LINE
  8
0
 10
-6.26788
 20
3.28204
 11
-6.29317
 21
3.28355
  0
LINE
  8
0
 10
-6.29317
 20
3.28355
 11
-6.31882
 21
3.28464
  0
LINE
  8
0
 10
-6.31882
 20
3.28464
 11
-6.34486
 21
3.28528
  0
LINE
  8
0
 10
-6.34486
 20
3.28528
 11
-6.37129
 21
3.28549
  0
LINE
  8
0
 10
-6.37129
 20
3.28549
 11
-6.39789
 21
3.28528
  0
LINE
  8
0
 10
-6.39789
 20
3.28528
 11
-6.42412
 21
3.28462
  0
LINE
  8
0
 10
-6.42412
 20
3.28462
 11
-6.44998
 21
3.28352
  0
LINE
  8
0
 10
-6.44998
 20
3.28352
 11
-6.47546
 21
3.28198
  0
LINE
  8
0
 10
-6.47546
 20
3.28198
 11
-6.50058
 21
3.28001
  0
LINE
  8
0
 10
-6.50058
 20
3.28001
 11
-6.52533
 21
3.2776
  0
LINE
  8
0
 10
-6.52533
 20
3.2776
 11
-6.5497
 21
3.27475
  0
LINE
  8
0
 10
-6.5497
 20
3.27475
 11
-6.5737
 21
3.27145
  0
LINE
  8
0
 10
-6.5737
 20
3.27145
 11
-6.59734
 21
3.26773
  0
LINE
  8
0
 10
-6.59734
 20
3.26773
 11
-6.62059
 21
3.26357
  0
LINE
  8
0
 10
-6.62059
 20
3.26357
 11
-6.64349
 21
3.25896
  0
LINE
  8
0
 10
-6.64349
 20
3.25896
 11
-6.66602
 21
3.25391
  0
LINE
  8
0
 10
-6.66602
 20
3.25391
 11
-6.68816
 21
3.24843
  0
LINE
  8
0
 10
-6.68816
 20
3.24843
 11
-6.70995
 21
3.24251
  0
LINE
  8
0
 10
-6.70995
 20
3.24251
 11
-6.73135
 21
3.23615
  0
LINE
  8
0
 10
-6.73135
 20
3.23615
 11
-6.75238
 21
3.22934
  0
LINE
  8
0
 10
-6.75238
 20
3.22934
 11
-6.77306
 21
3.22211
  0
LINE
  8
0
 10
-6.77306
 20
3.22211
 11
-6.79335
 21
3.21443
  0
LINE
  8
0
 10
-6.79335
 20
3.21443
 11
-6.81328
 21
3.20631
  0
LINE
  8
0
 10
-6.81328
 20
3.20631
 11
-6.83282
 21
3.19775
  0
LINE
  8
0
 10
-6.83282
 20
3.19775
 11
-6.85201
 21
3.18877
  0
LINE
  8
0
 10
-6.85201
 20
3.18877
 11
-6.87082
 21
3.17934
  0
LINE
  8
0
 10
-6.87082
 20
3.17934
 11
-6.88927
 21
3.16946
  0
LINE
  8
0
 10
-6.88927
 20
3.16946
 11
-6.90733
 21
3.15915
  0
LINE
  8
0
 10
-6.90733
 20
3.15915
 11
-6.92503
 21
3.14841
  0
LINE
  8
0
 10
-6.92503
 20
3.14841
 11
-6.94237
 21
3.13722
  0
LINE
  8
0
 10
-6.94237
 20
3.13722
 11
-6.95932
 21
3.1256
  0
LINE
  8
0
 10
-6.95932
 20
3.1256
 11
-6.97591
 21
3.11353
  0
LINE
  8
0
 10
-6.97591
 20
3.11353
 11
-6.99213
 21
3.10103
  0
LINE
  8
0
 10
-6.99213
 20
3.10103
 11
-7.00797
 21
3.08809
  0
LINE
  8
0
 10
-7.00797
 20
3.08809
 11
-7.02345
 21
3.07471
  0
LINE
  8
0
 10
-7.02345
 20
3.07471
 11
-7.03856
 21
3.06088
  0
LINE
  8
0
 10
-7.03856
 20
3.06088
 11
-7.05328
 21
3.04663
  0
LINE
  8
0
 10
-7.05328
 20
3.04663
 11
-7.06764
 21
3.03194
  0
LINE
  8
0
 10
-7.06764
 20
3.03194
 11
-7.08163
 21
3.0168
  0
LINE
  8
0
 10
-7.08163
 20
3.0168
 11
-7.09526
 21
3.00122
  0
LINE
  8
0
 10
-7.09526
 20
3.00122
 11
-7.10851
 21
2.98521
  0
LINE
  8
0
 10
-7.10851
 20
2.98521
 11
-7.1214
 21
2.96877
  0
LINE
  8
0
 10
-7.1214
 20
2.96877
 11
-7.1339
 21
2.95187
  0
LINE
  8
0
 10
-7.1339
 20
2.95187
 11
-7.14604
 21
2.93454
  0
LINE
  8
0
 10
-7.14604
 20
2.93454
 11
-7.15784
 21
2.91675
  0
LINE
  8
0
 10
-7.15784
 20
2.91675
 11
-7.16934
 21
2.89847
  0
LINE
  8
0
 10
-7.16934
 20
2.89847
 11
-7.18056
 21
2.87968
  0
LINE
  8
0
 10
-7.18056
 20
2.87968
 11
-7.19145
 21
2.86041
  0
LINE
  8
0
 10
-7.19145
 20
2.86041
 11
-7.20207
 21
2.84064
  0
LINE
  8
0
 10
-7.20207
 20
2.84064
 11
-7.21237
 21
2.82039
  0
LINE
  8
0
 10
-7.21237
 20
2.82039
 11
-7.22238
 21
2.79962
  0
LINE
  8
0
 10
-7.22238
 20
2.79962
 11
-7.2321
 21
2.77838
  0
LINE
  8
0
 10
-7.2321
 20
2.77838
 11
-7.24152
 21
2.75664
  0
LINE
  8
0
 10
-7.24152
 20
2.75664
 11
-7.25063
 21
2.73441
  0
LINE
  8
0
 10
-7.25063
 20
2.73441
 11
-7.25943
 21
2.71167
  0
LINE
  8
0
 10
-7.25943
 20
2.71167
 11
-7.26796
 21
2.68845
  0
LINE
  8
0
 10
-7.26796
 20
2.68845
 11
-7.27617
 21
2.66473
  0
LINE
  8
0
 10
-7.27617
 20
2.66473
 11
-7.28409
 21
2.64052
  0
LINE
  8
0
 10
-7.28409
 20
2.64052
 11
-7.2917
 21
2.61581
  0
LINE
  8
0
 10
-7.2917
 20
2.61581
 11
-7.29903
 21
2.59062
  0
LINE
  8
0
 10
-7.29903
 20
2.59062
 11
-7.30605
 21
2.56493
  0
LINE
  8
0
 10
-7.30605
 20
2.56493
 11
-7.31277
 21
2.53874
  0
LINE
  8
0
 10
-7.31277
 20
2.53874
 11
-7.3192
 21
2.51205
  0
LINE
  8
0
 10
-7.3192
 20
2.51205
 11
-7.32533
 21
2.48488
  0
LINE
  8
0
 10
-7.32533
 20
2.48488
 11
-7.33115
 21
2.45721
  0
LINE
  8
0
 10
-7.33115
 20
2.45721
 11
-7.33669
 21
2.42905
  0
LINE
  8
0
 10
-7.33669
 20
2.42905
 11
-7.3419
 21
2.40039
  0
LINE
  8
0
 10
-7.3419
 20
2.40039
 11
-7.34685
 21
2.37125
  0
LINE
  8
0
 10
-7.34685
 20
2.37125
 11
-7.35147
 21
2.3416
  0
LINE
  8
0
 10
-7.35147
 20
2.3416
 11
-7.3558
 21
2.31146
  0
LINE
  8
0
 10
-7.3558
 20
2.31146
 11
-7.35983
 21
2.28084
  0
LINE
  8
0
 10
-7.35983
 20
2.28084
 11
-7.36357
 21
2.24971
  0
LINE
  8
0
 10
-7.36357
 20
2.24971
 11
-7.367
 21
2.21809
  0
LINE
  8
0
 10
-7.367
 20
2.21809
 11
-7.37015
 21
2.18597
  0
LINE
  8
0
 10
-7.37015
 20
2.18597
 11
-7.37299
 21
2.15337
  0
LINE
  8
0
 10
-7.37299
 20
2.15337
 11
-7.37552
 21
2.12027
  0
LINE
  8
0
 10
-7.37552
 20
2.12027
 11
-7.37776
 21
2.08667
  0
LINE
  8
0
 10
-7.37776
 20
2.08667
 11
-7.37971
 21
2.05258
  0
LINE
  8
0
 10
-7.37971
 20
2.05258
 11
-7.38135
 21
2.01801
  0
LINE
  8
0
 10
-7.38135
 20
2.01801
 11
-7.38269
 21
1.98293
  0
LINE
  8
0
 10
-7.38269
 20
1.98293
 11
-7.38374
 21
1.94736
  0
LINE
  8
0
 10
-7.38374
 20
1.94736
 11
-7.38449
 21
1.9113
  0
LINE
  8
0
 10
-7.38449
 20
1.9113
 11
-7.38493
 21
1.87474
  0
LINE
  8
0
 10
-7.38493
 20
1.87474
 11
-7.38509
 21
1.83769
  0
LINE
  8
0
 10
-7.38509
 20
1.83769
 11
-7.38493
 21
1.80164
  0
LINE
  8
0
 10
-7.38493
 20
1.80164
 11
-7.38451
 21
1.76604
  0
LINE
  8
0
 10
-7.38451
 20
1.76604
 11
-7.38376
 21
1.7309
  0
LINE
  8
0
 10
-7.38376
 20
1.7309
 11
-7.38274
 21
1.6962
  0
LINE
  8
0
 10
-7.38274
 20
1.6962
 11
-7.38141
 21
1.66194
  0
LINE
  8
0
 10
-7.38141
 20
1.66194
 11
-7.37979
 21
1.62816
  0
LINE
  8
0
 10
-7.37979
 20
1.62816
 11
-7.37787
 21
1.5948
  0
LINE
  8
0
 10
-7.37787
 20
1.5948
 11
-7.37566
 21
1.56192
  0
LINE
  8
0
 10
-7.37566
 20
1.56192
 11
-7.37315
 21
1.52948
  0
LINE
  8
0
 10
-7.37315
 20
1.52948
 11
-7.37036
 21
1.49748
  0
LINE
  8
0
 10
-7.37036
 20
1.49748
 11
-7.36726
 21
1.46594
  0
LINE
  8
0
 10
-7.36726
 20
1.46594
 11
-7.36388
 21
1.43486
  0
LINE
  8
0
 10
-7.36388
 20
1.43486
 11
-7.3602
 21
1.40422
  0
LINE
  8
0
 10
-7.3602
 20
1.40422
 11
-7.35622
 21
1.37404
  0
LINE
  8
0
 10
-7.35622
 20
1.37404
 11
-7.35194
 21
1.3443
  0
LINE
  8
0
 10
-7.35194
 20
1.3443
 11
-7.34738
 21
1.31502
  0
LINE
  8
0
 10
-7.34738
 20
1.31502
 11
-7.34253
 21
1.28619
  0
LINE
  8
0
 10
-7.34253
 20
1.28619
 11
-7.33737
 21
1.25781
  0
LINE
  8
0
 10
-7.33737
 20
1.25781
 11
-7.33192
 21
1.22989
  0
LINE
  8
0
 10
-7.33192
 20
1.22989
 11
-7.32617
 21
1.20241
  0
LINE
  8
0
 10
-7.32617
 20
1.20241
 11
-7.32014
 21
1.17538
  0
LINE
  8
0
 10
-7.32014
 20
1.17538
 11
-7.3138
 21
1.1488
  0
LINE
  8
0
 10
-7.3138
 20
1.1488
 11
-7.30717
 21
1.12268
  0
LINE
  8
0
 10
-7.30717
 20
1.12268
 11
-7.30025
 21
1.09702
  0
LINE
  8
0
 10
-7.30025
 20
1.09702
 11
-7.29303
 21
1.07179
  0
LINE
  8
0
 10
-7.29303
 20
1.07179
 11
-7.28552
 21
1.04703
  0
LINE
  8
0
 10
-7.28552
 20
1.04703
 11
-7.27773
 21
1.02271
  0
LINE
  8
0
 10
-7.27773
 20
1.02271
 11
-7.26962
 21
0.99884
  0
LINE
  8
0
 10
-7.26962
 20
0.99884
 11
-7.26123
 21
0.975418
  0
LINE
  8
0
 10
-7.26123
 20
0.975418
 11
-7.25253
 21
0.952454
  0
LINE
  8
0
 10
-7.25253
 20
0.952454
 11
-7.24355
 21
0.929947
  0
LINE
  8
0
 10
-7.24355
 20
0.929947
 11
-7.23427
 21
0.907883
  0
LINE
  8
0
 10
-7.23427
 20
0.907883
 11
-7.2247
 21
0.886276
  0
LINE
  8
0
 10
-7.2247
 20
0.886276
 11
-7.21483
 21
0.865112
  0
LINE
  8
0
 10
-7.21483
 20
0.865112
 11
-7.20467
 21
0.844406
  0
LINE
  8
0
 10
-7.20467
 20
0.844406
 11
-7.19421
 21
0.824158
  0
LINE
  8
0
 10
-7.19421
 20
0.824158
 11
-7.18346
 21
0.804352
  0
LINE
  8
0
 10
-7.18346
 20
0.804352
 11
-7.17241
 21
0.784988
  0
LINE
  8
0
 10
-7.17241
 20
0.784988
 11
-7.16107
 21
0.766098
  0
LINE
  8
0
 10
-7.16107
 20
0.766098
 11
-7.14944
 21
0.747635
  0
LINE
  8
0
 10
-7.14944
 20
0.747635
 11
-7.13748
 21
0.729645
  0
LINE
  8
0
 10
-7.13748
 20
0.729645
 11
-7.1252
 21
0.712097
  0
LINE
  8
0
 10
-7.1252
 20
0.712097
 11
-7.11258
 21
0.695023
  0
LINE
  8
0
 10
-7.11258
 20
0.695023
 11
-7.09961
 21
0.678391
  0
LINE
  8
0
 10
-7.09961
 20
0.678391
 11
-7.08632
 21
0.662216
  0
LINE
  8
0
 10
-7.08632
 20
0.662216
 11
-7.07268
 21
0.6465
  0
LINE
  8
0
 10
-7.07268
 20
0.6465
 11
-7.0587
 21
0.631226
  0
LINE
  8
0
 10
-7.0587
 20
0.631226
 11
-7.0444
 21
0.616425
  0
LINE
  8
0
 10
-7.0444
 20
0.616425
 11
-7.02975
 21
0.602066
  0
LINE
  8
0
 10
-7.02975
 20
0.602066
 11
-7.01477
 21
0.588181
  0
LINE
  8
0
 10
-7.01477
 20
0.588181
 11
-6.99945
 21
0.574738
  0
LINE
  8
0
 10
-6.99945
 20
0.574738
 11
-6.9838
 21
0.561752
  0
LINE
  8
0
 10
-6.9838
 20
0.561752
 11
-6.96779
 21
0.549225
  0
LINE
  8
0
 10
-6.96779
 20
0.549225
 11
-6.95146
 21
0.53714
  0
LINE
  8
0
 10
-6.95146
 20
0.53714
 11
-6.9348
 21
0.525528
  0
LINE
  8
0
 10
-6.9348
 20
0.525528
 11
-6.91779
 21
0.514359
  0
LINE
  8
0
 10
-6.91779
 20
0.514359
 11
-6.90045
 21
0.503662
  0
LINE
  8
0
 10
-6.90045
 20
0.503662
 11
-6.88277
 21
0.493408
  0
LINE
  8
0
 10
-6.88277
 20
0.493408
 11
-6.86475
 21
0.483612
  0
LINE
  8
0
 10
-6.86475
 20
0.483612
 11
-6.84641
 21
0.474274
  0
LINE
  8
0
 10
-6.84641
 20
0.474274
 11
-6.82771
 21
0.465378
  0
LINE
  8
0
 10
-6.82771
 20
0.465378
 11
-6.80869
 21
0.456955
  0
LINE
  8
0
 10
-6.80869
 20
0.456955
 11
-6.78932
 21
0.448975
  0
LINE
  8
0
 10
-6.78932
 20
0.448975
 11
-6.76962
 21
0.441467
  0
LINE
  8
0
 10
-6.76962
 20
0.441467
 11
-6.74959
 21
0.434402
  0
LINE
  8
0
 10
-6.74959
 20
0.434402
 11
-6.7292
 21
0.427795
  0
LINE
  8
0
 10
-6.7292
 20
0.427795
 11
-6.7085
 21
0.421646
  0
LINE
  8
0
 10
-6.7085
 20
0.421646
 11
-6.68745
 21
0.415955
  0
LINE
  8
0
 10
-6.68745
 20
0.415955
 11
-6.66606
 21
0.410706
  0
LINE
  8
0
 10
-6.66606
 20
0.410706
 11
-6.64435
 21
0.40593
  0
LINE
  8
0
 10
-6.64435
 20
0.40593
 11
-6.62228
 21
0.401596
  0
LINE
  8
0
 10
-6.62228
 20
0.401596
 11
-6.59988
 21
0.39772
  0
LINE
  8
0
 10
-6.59988
 20
0.39772
 11
-6.57715
 21
0.394302
  0
LINE
  8
0
 10
-6.57715
 20
0.394302
 11
-6.55408
 21
0.391342
  0
LINE
  8
0
 10
-6.55408
 20
0.391342
 11
-6.53067
 21
0.38884
  0
LINE
  8
0
 10
-6.53067
 20
0.38884
 11
-6.50693
 21
0.38678
  0
LINE
  8
0
 10
-6.50693
 20
0.38678
 11
-6.48285
 21
0.385193
  0
LINE
  8
0
 10
-6.48285
 20
0.385193
 11
-6.45844
 21
0.384048
  0
LINE
  8
0
 10
-6.45844
 20
0.384048
 11
-6.43369
 21
0.383377
  0
LINE
  8
0
 10
-6.43369
 20
0.383377
 11
-6.40858
 21
0.383148
  0
LINE
  8
0
 10
-6.40858
 20
0.383148
 11
-6.38132
 21
0.383362
  0
LINE
  8
0
 10
-0.124817
 20
-1.57004
 11
-0.224136
 21
-1.55896
  0
LINE
  8
0
 10
-0.224136
 20
-1.55896
 11
-0.322556
 21
-1.54161
  0
LINE
  8
0
 10
-0.322556
 20
-1.54161
 11
-0.419693
 21
-1.51805
  0
LINE
  8
0
 10
-0.419693
 20
-1.51805
 11
-0.515121
 21
-1.48837
  0
LINE
  8
0
 10
-0.515121
 20
-1.48837
 11
-0.60849
 21
-1.4527
  0
LINE
  8
0
 10
-0.60849
 20
-1.4527
 11
-0.699402
 21
-1.41118
  0
LINE
  8
0
 10
-0.699402
 20
-1.41118
 11
-0.787491
 21
-1.36398
  0
LINE
  8
0
 10
-0.787491
 20
-1.36398
 11
-0.872421
 21
-1.31129
  0
LINE
  8
0
 10
-0.872421
 20
-1.31129
 11
-0.953827
 21
-1.25331
  0
LINE
  8
0
 10
-0.953827
 20
-1.25331
 11
-1.0314
 21
-1.19029
  0
LINE
  8
0
 10
-1.0314
 20
-1.19029
 11
-1.10481
 21
-1.12248
  0
LINE
  8
0
 10
-1.10481
 20
-1.12248
 11
-1.17378
 21
-1.05016
  0
LINE
  8
0
 10
-1.17378
 20
-1.05016
 11
-1.23802
 21
-0.973587
  0
LINE
  8
0
 10
-1.23802
 20
-0.973587
 11
-1.29729
 21
-0.893112
  0
LINE
  8
0
 10
-1.29729
 20
-0.893112
 11
-1.35132
 21
-0.809036
  0
LINE
  8
0
 10
-1.35132
 20
-0.809036
 11
-1.3999
 21
-0.721695
  0
LINE
  8
0
 10
-1.3999
 20
-0.721695
 11
-1.44286
 21
-0.631454
  0
LINE
  8
0
 10
-1.44286
 20
-0.631454
 11
-1.48001
 21
-0.538681
  0
LINE
  8
0
 10
-1.48001
 20
-0.538681
 11
-1.5112
 21
-0.443726
  0
LINE
  8
0
 10
-1.5112
 20
-0.443726
 11
-1.5363
 21
-0.346985
  0
LINE
  8
0
 10
-1.5363
 20
-0.346985
 11
-1.55521
 21
-0.24884
  0
LINE
  8
0
 10
-1.55521
 20
-0.24884
 11
-1.56786
 21
-0.149704
  0
LINE
  8
0
 10
-1.56786
 20
-0.149704
 11
-1.5742
 21
-0.0499573
  0
LINE
  8
0
 10
-1.5742
 20
-0.0499573
 11
-1.5742
 21
0.0499573
  0
LINE
  8
0
 10
-1.5742
 20
0.0499573
 11
-1.56786
 21
0.149704
  0
LINE
  8
0
 10
-1.56786
 20
0.149704
 11
-1.55521
 21
0.24884
  0
LINE
  8
0
 10
-1.55521
 20
0.24884
 11
-1.5363
 21
0.346985
  0
LINE
  8
0
 10
-1.5363
 20
0.346985
 11
-1.5112
 21
0.443726
  0
LINE
  8
0
 10
-1.5112
 20
0.443726
 11
-1.48001
 21
0.538681
  0
LINE
  8
0
 10
-1.48001
 20
0.538681
 11
-1.44286
 21
0.631454
  0
LINE
  8
0
 10
-1.44286
 20
0.631454
 11
-1.3999
 21
0.721695
  0
LINE
  8
0
 10
-1.3999
 20
0.721695
 11
-1.35132
 21
0.809036
  0
LINE
  8
0
 10
-1.35132
 20
0.809036
 11
-1.29729
 21
0.893112
  0
LINE
  8
0
 10
-1.29729
 20
0.893112
 11
-1.23802
 21
0.973587
  0
LINE
  8
0
 10
-1.23802
 20
0.973587
 11
-1.17378
 21
1.05016
  0
LINE
  8
0
 10
-1.17378
 20
1.05016
 11
-1.10481
 21
1.12248
  0
LINE
  8
0
 10
-1.10481
 20
1.12248
 11
-1.0314
 21
1.19029
  0
LINE
  8
0
 10
-1.0314
 20
1.19029
 11
-0.953827
 21
1.25331
  0
LINE
  8
0
 10
-0.953827
 20
1.25331
 11
-0.872421
 21
1.31129
  0
LINE
  8
0
 10
-0.872421
 20
1.31129
 11
-0.787491
 21
1.36398
  0
LINE
  8
0
 10
-0.787491
 20
1.36398
 11
-0.699402
 21
1.41118
  0
LINE
  8
0
 10
-0.699402
 20
1.41118
 11
-0.60849
 21
1.4527
  0
LINE
  8
0
 10
-0.60849
 20
1.4527
 11
-0.515121
 21
1.48837
  0
LINE
  8
0
 10
-0.515121
 20
1.48837
 11
-0.419693
 21
1.51805
  0
LINE
  8
0
 10
-0.419693
 20
1.51805
 11
-0.322556
 21
1.54161
  0
LINE
  8
0
 10
-0.322556
 20
1.54161
 11
-0.224136
 21
1.55896
  0
LINE
  8
0
 10
-0.224136
 20
1.55896
 11
-0.124817
 21
1.57004
  0
LINE
  8
0
 10
-0.124817
 20
1.57004
 11
-0.0249786
 21
1.5748
  0
LINE
  8
0
 10
-0.0249786
 20
1.5748
 11
0.0749359
 21
1.57321
  0
LINE
  8
0
 10
0.0749359
 20
1.57321
 11
0.174561
 21
1.56529
  0
LINE
  8
0
 10
0.174561
 20
1.56529
 11
0.273483
 21
1.55107
  0
LINE
  8
0
 10
0.273483
 20
1.55107
 11
0.371307
 21
1.53059
  0
LINE
  8
0
 10
0.371307
 20
1.53059
 11
0.467636
 21
1.50397
  0
LINE
  8
0
 10
0.467636
 20
1.50397
 11
0.562088
 21
1.47127
  0
LINE
  8
0
 10
0.562088
 20
1.47127
 11
0.654266
 21
1.43266
  0
LINE
  8
0
 10
0.654266
 20
1.43266
 11
0.74382
 21
1.38828
  0
LINE
  8
0
 10
0.74382
 20
1.38828
 11
0.830368
 21
1.3383
  0
LINE
  8
0
 10
0.830368
 20
1.3383
 11
0.913589
 21
1.28294
  0
LINE
  8
0
 10
0.913589
 20
1.28294
 11
0.993118
 21
1.22243
  0
LINE
  8
0
 10
0.993118
 20
1.22243
 11
1.06865
 21
1.15697
  0
LINE
  8
0
 10
1.06865
 20
1.15697
 11
1.13988
 21
1.08687
  0
LINE
  8
0
 10
1.13988
 20
1.08687
 11
1.20651
 21
1.01239
  0
LINE
  8
0
 10
1.20651
 20
1.01239
 11
1.2683
 21
0.933823
  0
LINE
  8
0
 10
1.2683
 20
0.933823
 11
1.32497
 21
0.851501
  0
LINE
  8
0
 10
1.32497
 20
0.851501
 11
1.37631
 21
0.765747
  0
LINE
  8
0
 10
1.37631
 20
0.765747
 11
1.4221
 21
0.676926
  0
LINE
  8
0
 10
1.4221
 20
0.676926
 11
1.46217
 21
0.585358
  0
LINE
  8
0
 10
1.46217
 20
0.585358
 11
1.49635
 21
0.49144
  0
LINE
  8
0
 10
1.49635
 20
0.49144
 11
1.52451
 21
0.395554
  0
LINE
  8
0
 10
1.52451
 20
0.395554
 11
1.54652
 21
0.298065
  0
LINE
  8
0
 10
1.54652
 20
0.298065
 11
1.56232
 21
0.199371
  0
LINE
  8
0
 10
1.56232
 20
0.199371
 11
1.57182
 21
0.099884
  0
LINE
  8
0
 10
1.57182
 20
0.099884
 11
1.575
 21
0
  0
LINE
  8
0
 10
1.575
 20
0
 11
1.57182
 21
-0.099884
  0
LINE
  8
0
 10
1.57182
 20
-0.099884
 11
1.56232
 21
-0.199371
  0
LINE
  8
0
 10
1.56232
 20
-0.199371
 11
1.54652
 21
-0.298065
  0
LINE
  8
0
 10
1.54652
 20
-0.298065
 11
1.52451
 21
-0.395554
  0
LINE
  8
0
 10
1.52451
 20
-0.395554
 11
1.49635
 21
-0.49144
  0
LINE
  8
0
 10
1.49635
 20
-0.49144
 11
1.46217
 21
-0.585358
  0
LINE
  8
0
 10
1.46217
 20
-0.585358
 11
1.4221
 21
-0.676926
  0
LINE
  8
0
 10
1.4221
 20
-0.676926
 11
1.37631
 21
-0.765747
  0
LINE
  8
0
 10
1.37631
 20
-0.765747
 11
1.32497
 21
-0.851501
  0
LINE
  8
0
 10
1.32497
 20
-0.851501
 11
1.2683
 21
-0.933823
  0
LINE
  8
0
 10
1.2683
 20
-0.933823
 11
1.20651
 21
-1.01239
  0
LINE
  8
0
 10
1.20651
 20
-1.01239
 11
1.13988
 21
-1.08687
  0
LINE
  8
0
 10
1.13988
 20
-1.08687
 11
1.06865
 21
-1.15697
  0
LINE
  8
0
 10
1.06865
 20
-1.15697
 11
0.993118
 21
-1.22243
  0
LINE
  8
0
 10
0.993118
 20
-1.22243
 11
0.913589
 21
-1.28294
  0
LINE
  8
0
 10
0.913589
 20
-1.28294
 11
0.830368
 21
-1.3383
  0
LINE
  8
0
 10
0.830368
 20
-1.3383
 11
0.74382
 21
-1.38828
  0
LINE
  8
0
 10
0.74382
 20
-1.38828
 11
0.654266
 21
-1.43266
  0
LINE
  8
0
 10
0.654266
 20
-1.43266
 11
0.562088
 21
-1.47127
  0
LINE
  8
0
 10
0.562088
 20
-1.47127
 11
0.467636
 21
-1.50397
  0
LINE
  8
0
 10
0.467636
 20
-1.50397
 11
0.371307
 21
-1.53059
  0
LINE
  8
0
 10
0.371307
 20
-1.53059
 11
0.273483
 21
-1.55107
  0
LINE
  8
0
 10
0.273483
 20
-1.55107
 11
0.174561
 21
-1.56529
  0
LINE
  8
0
 10
0.174561
 20
-1.56529
 11
0.0749359
 21
-1.57321
  0
LINE
  8
0
 10
0.0749359
 20
-1.57321
 11
-0.0249786
 21
-1.5748
  0
LINE
  8
0
 10
-0.0249786
 20
-1.5748
 11
-0.124817
 21
-1.57004
  0
LINE
  8
0
 10
-90.1248
 20
-1.57004
 11
-90.2241
 21
-1.55896
  0
LINE
  8
0
 10
-90.2241
 20
-1.55896
 11
-90.3226
 21
-1.54161
  0
LINE
  8
0
 10
-90.3226
 20
-1.54161
 11
-90.4197
 21
-1.51805
  0
LINE
  8
0
 10
-90.4197
 20
-1.51805
 11
-90.5151
 21
-1.48837
  0
LINE
  8
0
 10
-90.5151
 20
-1.48837
 11
-90.6085
 21
-1.4527
  0
LINE
  8
0
 10
-90.6085
 20
-1.4527
 11
-90.6994
 21
-1.41118
  0
LINE
  8
0
 10
-90.6994
 20
-1.41118
 11
-90.7875
 21
-1.36398
  0
LINE
  8
0
 10
-90.7875
 20
-1.36398
 11
-90.8724
 21
-1.31129
  0
LINE
  8
0
 10
-90.8724
 20
-1.31129
 11
-90.9538
 21
-1.25331
  0
LINE
  8
0
 10
-90.9538
 20
-1.25331
 11
-91.0314
 21
-1.19029
  0
LINE
  8
0
 10
-91.0314
 20
-1.19029
 11
-91.1048
 21
-1.12248
  0
LINE
  8
0
 10
-91.1048
 20
-1.12248
 11
-91.1738
 21
-1.05016
  0
LINE
  8
0
 10
-91.1738
 20
-1.05016
 11
-91.238
 21
-0.973587
  0
LINE
  8
0
 10
-91.238
 20
-0.973587
 11
-91.2973
 21
-0.893112
  0
LINE
  8
0
 10
-91.2973
 20
-0.893112
 11
-91.3513
 21
-0.809036
  0
LINE
  8
0
 10
-91.3513
 20
-0.809036
 11
-91.3999
 21
-0.721695
  0
LINE
  8
0
 10
-91.3999
 20
-0.721695
 11
-91.4429
 21
-0.631454
  0
LINE
  8
0
 10
-91.4429
 20
-0.631454
 11
-91.48
 21
-0.538681
  0
LINE
  8
0
 10
-91.48
 20
-0.538681
 11
-91.5112
 21
-0.443726
  0
LINE
  8
0
 10
-91.5112
 20
-0.443726
 11
-91.5363
 21
-0.346985
  0
LINE
  8
0
 10
-91.5363
 20
-0.346985
 11
-91.5552
 21
-0.24884
  0
LINE
  8
0
 10
-91.5552
 20
-0.24884
 11
-91.5679
 21
-0.149704
  0
LINE
  8
0
 10
-91.5679
 20
-0.149704
 11
-91.5742
 21
-0.0499573
  0
LINE
  8
0
 10
-91.5742
 20
-0.0499573
 11
-91.5742
 21
0.0499573
  0
LINE
  8
0
 10
-91.5742
 20
0.0499573
 11
-91.5679
 21
0.149704
  0
LINE
  8
0
 10
-91.5679
 20
0.149704
 11
-91.5552
 21
0.24884
  0
LINE
  8
0
 10
-91.5552
 20
0.24884
 11
-91.5363
 21
0.346985
  0
LINE
  8
0
 10
-91.5363
 20
0.346985
 11
-91.5112
 21
0.443726
  0
LINE
  8
0
 10
-91.5112
 20
0.443726
 11
-91.48
 21
0.538681
  0
LINE
  8
0
 10
-91.48
 20
0.538681
 11
-91.4429
 21
0.631454
  0
LINE
  8
0
 10
-91.4429
 20
0.631454
 11
-91.3999
 21
0.721695
  0
LINE
  8
0
 10
-91.3999
 20
0.721695
 11
-91.3513
 21
0.809036
  0
LINE
  8
0
 10
-91.3513
 20
0.809036
 11
-91.2973
 21
0.893112
  0
LINE
  8
0
 10
-91.2973
 20
0.893112
 11
-91.238
 21
0.973587
  0
LINE
  8
0
 10
-91.238
 20
0.973587
 11
-91.1738
 21
1.05016
  0
LINE
  8
0
 10
-91.1738
 20
1.05016
 11
-91.1048
 21
1.12248
  0
LINE
  8
0
 10
-91.1048
 20
1.12248
 11
-91.0314
 21
1.19029
  0
LINE
  8
0
 10
-91.0314
 20
1.19029
 11
-90.9538
 21
1.25331
  0
LINE
  8
0
 10
-90.9538
 20
1.25331
 11
-90.8724
 21
1.31129
  0
LINE
  8
0
 10
-90.8724
 20
1.31129
 11
-90.7875
 21
1.36398
  0
LINE
  8
0
 10
-90.7875
 20
1.36398
 11
-90.6994
 21
1.41118
  0
LINE
  8
0
 10
-90.6994
 20
1.41118
 11
-90.6085
 21
1.4527
  0
LINE
  8
0
 10
-90.6085
 20
1.4527
 11
-90.5151
 21
1.48837
  0
LINE
  8
0
 10
-90.5151
 20
1.48837
 11
-90.4197
 21
1.51805
  0
LINE
  8
0
 10
-90.4197
 20
1.51805
 11
-90.3226
 21
1.54161
  0
LINE
  8
0
 10
-90.3226
 20
1.54161
 11
-90.2241
 21
1.55896
  0
LINE
  8
0
 10
-90.2241
 20
1.55896
 11
-90.1248
 21
1.57004
  0
LINE
  8
0
 10
-90.1248
 20
1.57004
 11
-90.025
 21
1.5748
  0
LINE
  8
0
 10
-90.025
 20
1.5748
 11
-89.925
 21
1.57321
  0
LINE
  8
0
 10
-89.925
 20
1.57321
 11
-89.8254
 21
1.56529
  0
LINE
  8
0
 10
-89.8254
 20
1.56529
 11
-89.7265
 21
1.55107
  0
LINE
  8
0
 10
-89.7265
 20
1.55107
 11
-89.6287
 21
1.53059
  0
LINE
  8
0
 10
-89.6287
 20
1.53059
 11
-89.5323
 21
1.50397
  0
LINE
  8
0
 10
-89.5323
 20
1.50397
 11
-89.4379
 21
1.47127
  0
LINE
  8
0
 10
-89.4379
 20
1.47127
 11
-89.3457
 21
1.43266
  0
LINE
  8
0
 10
-89.3457
 20
1.43266
 11
-89.2562
 21
1.38828
  0
LINE
  8
0
 10
-89.2562
 20
1.38828
 11
-89.1696
 21
1.3383
  0
LINE
  8
0
 10
-89.1696
 20
1.3383
 11
-89.0864
 21
1.28294
  0
LINE
  8
0
 10
-89.0864
 20
1.28294
 11
-89.0069
 21
1.22243
  0
LINE
  8
0
 10
-89.0069
 20
1.22243
 11
-88.9313
 21
1.15697
  0
LINE
  8
0
 10
-88.9313
 20
1.15697
 11
-88.8601
 21
1.08687
  0
LINE
  8
0
 10
-88.8601
 20
1.08687
 11
-88.7935
 21
1.01239
  0
LINE
  8
0
 10
-88.7935
 20
1.01239
 11
-88.7317
 21
0.933823
  0
LINE
  8
0
 10
-88.7317
 20
0.933823
 11
-88.675
 21
0.851501
  0
LINE
  8
0
 10
-88.675
 20
0.851501
 11
-88.6237
 21
0.765747
  0
LINE
  8
0
 10
-88.6237
 20
0.765747
 11
-88.5779
 21
0.676926
  0
LINE
  8
0
 10
-88.5779
 20
0.676926
 11
-88.5378
 21
0.585358
  0
LINE
  8
0
 10
-88.5378
 20
0.585358
 11
-88.5036
 21
0.49144
  0
LINE
  8
0
 10
-88.5036
 20
0.49144
 11
-88.4755
 21
0.395554
  0
LINE
  8
0
 10
-88.4755
 20
0.395554
 11
-88.4535
 21
0.298065
  0
LINE
  8
0
 10
-88.4535
 20
0.298065
 11
-88.4377
 21
0.199371
  0
LINE
  8
0
 10
-88.4377
 20
0.199371
 11
-88.4282
 21
0.099884
  0
LINE
  8
0
 10
-88.4282
 20
0.099884
 11
-88.425
 21
0
  0
LINE
  8
0
 10
-88.425
 20
0
 11
-88.4282
 21
-0.099884
  0
LINE
  8
0
 10
-88.4282
 20
-0.099884
 11
-88.4377
 21
-0.199371
  0
LINE
  8
0
 10
-88.4377
 20
-0.199371
 11
-88.4535
 21
-0.298065
  0
LINE
  8
0
 10
-88.4535
 20
-0.298065
 11
-88.4755
 21
-0.395554
  0
LINE
  8
0
 10
-88.4755
 20
-0.395554
 11
-88.5036
 21
-0.49144
  0
LINE
  8
0
 10
-88.5036
 20
-0.49144
 11
-88.5378
 21
-0.585358
  0
LINE
  8
0
 10
-88.5378
 20
-0.585358
 11
-88.5779
 21
-0.676926
  0
LINE
  8
0
 10
-88.5779
 20
-0.676926
 11
-88.6237
 21
-0.765747
  0
LINE
  8
0
 10
-88.6237
 20
-0.765747
 11
-88.675
 21
-0.851501
  0
LINE
  8
0
 10
-88.675
 20
-0.851501
 11
-88.7317
 21
-0.933823
  0
LINE
  8
0
 10
-88.7317
 20
-0.933823
 11
-88.7935
 21
-1.01239
  0
LINE
  8
0
 10
-88.7935
 20
-1.01239
 11
-88.8601
 21
-1.08687
  0
LINE
  8
0
 10
-88.8601
 20
-1.08687
 11
-88.9313
 21
-1.15697
  0
LINE
  8
0
 10
-88.9313
 20
-1.15697
 11
-89.0069
 21
-1.22243
  0
LINE
  8
0
 10
-89.0069
 20
-1.22243
 11
-89.0864
 21
-1.28294
  0
LINE
  8
0
 10
-89.0864
 20
-1.28294
 11
-89.1696
 21
-1.3383
  0
LINE
  8
0
 10
-89.1696
 20
-1.3383
 11
-89.2562
 21
-1.38828
  0
LINE
  8
0
 10
-89.2562
 20
-1.38828
 11
-89.3457
 21
-1.43266
  0
LINE
  8
0
 10
-89.3457
 20
-1.43266
 11
-89.4379
 21
-1.47127
  0
LINE
  8
0
 10
-89.4379
 20
-1.47127
 11
-89.5323
 21
-1.50397
  0
LINE
  8
0
 10
-89.5323
 20
-1.50397
 11
-89.6287
 21
-1.53059
  0
LINE
  8
0
 10
-89.6287
 20
-1.53059
 11
-89.7265
 21
-1.55107
  0
LINE
  8
0
 10
-89.7265
 20
-1.55107
 11
-89.8254
 21
-1.56529
  0
LINE
  8
0
 10
-89.8254
 20
-1.56529
 11
-89.925
 21
-1.57321
  0
LINE
  8
0
 10
-89.925
 20
-1.57321
 11
-90.025
 21
-1.5748
  0
LINE
  8
0
 10
-90.025
 20
-1.5748
 11
-90.1248
 21
-1.57004
  0
LINE
  8
0
 10
-180.125
 20
-1.57004
 11
-180.224
 21
-1.55896
  0
LINE
  8
0
 10
-180.224
 20
-1.55896
 11
-180.323
 21
-1.54161
  0
LINE
  8
0
 10
-180.323
 20
-1.54161
 11
-180.42
 21
-1.51805
  0
LINE
  8
0
 10
-180.42
 20
-1.51805
 11
-180.515
 21
-1.48837
  0
LINE
  8
0
 10
-180.515
 20
-1.48837
 11
-180.608
 21
-1.4527
  0
LINE
  8
0
 10
-180.608
 20
-1.4527
 11
-180.699
 21
-1.41118
  0
LINE
  8
0
 10
-180.699
 20
-1.41118
 11
-180.787
 21
-1.36398
  0
LINE
  8
0
 10
-180.787
 20
-1.36398
 11
-180.872
 21
-1.31129
  0
LINE
  8
0
 10
-180.872
 20
-1.31129
 11
-180.954
 21
-1.25331
  0
LINE
  8
0
 10
-180.954
 20
-1.25331
 11
-181.031
 21
-1.19029
  0
LINE
  8
0
 10
-181.031
 20
-1.19029
 11
-181.105
 21
-1.12248
  0
LINE
  8
0
 10
-181.105
 20
-1.12248
 11
-181.174
 21
-1.05016
  0
LINE
  8
0
 10
-181.174
 20
-1.05016
 11
-181.238
 21
-0.973587
  0
LINE
  8
0
 10
-181.238
 20
-0.973587
 11
-181.297
 21
-0.893112
  0
LINE
  8
0
 10
-181.297
 20
-0.893112
 11
-181.351
 21
-0.809036
  0
LINE
  8
0
 10
-181.351
 20
-0.809036
 11
-181.4
 21
-0.721695
  0
LINE
  8
0
 10
-181.4
 20
-0.721695
 11
-181.443
 21
-0.631454
  0
LINE
  8
0
 10
-181.443
 20
-0.631454
 11
-181.48
 21
-0.538681
  0
LINE
  8
0
 10
-181.48
 20
-0.538681
 11
-181.511
 21
-0.443726
  0
LINE
  8
0
 10
-181.511
 20
-0.443726
 11
-181.536
 21
-0.346985
  0
LINE
  8
0
 10
-181.536
 20
-0.346985
 11
-181.555
 21
-0.24884
  0
LINE
  8
0
 10
-181.555
 20
-0.24884
 11
-181.568
 21
-0.149704
  0
LINE
  8
0
 10
-181.568
 20
-0.149704
 11
-181.574
 21
-0.0499573
  0
LINE
  8
0
 10
-181.574
 20
-0.0499573
 11
-181.574
 21
0.0499573
  0
LINE
  8
0
 10
-181.574
 20
0.0499573
 11
-181.568
 21
0.149704
  0
LINE
  8
0
 10
-181.568
 20
0.149704
 11
-181.555
 21
0.24884
  0
LINE
  8
0
 10
-181.555
 20
0.24884
 11
-181.536
 21
0.346985
  0
LINE
  8
0
 10
-181.536
 20
0.346985
 11
-181.511
 21
0.443726
  0
LINE
  8
0
 10
-181.511
 20
0.443726
 11
-181.48
 21
0.538681
  0
LINE
  8
0
 10
-181.48
 20
0.538681
 11
-181.443
 21
0.631454
  0
LINE
  8
0
 10
-181.443
 20
0.631454
 11
-181.4
 21
0.721695
  0
LINE
  8
0
 10
-181.4
 20
0.721695
 11
-181.351
 21
0.809036
  0
LINE
  8
0
 10
-181.351
 20
0.809036
 11
-181.297
 21
0.893112
  0
LINE
  8
0
 10
-181.297
 20
0.893112
 11
-181.238
 21
0.973587
  0
LINE
  8
0
 10
-181.238
 20
0.973587
 11
-181.174
 21
1.05016
  0
LINE
  8
0
 10
-181.174
 20
1.05016
 11
-181.105
 21
1.12248
  0
LINE
  8
0
 10
-181.105
 20
1.12248
 11
-181.031
 21
1.19029
  0
LINE
  8
0
 10
-181.031
 20
1.19029
 11
-180.954
 21
1.25331
  0
LINE
  8
0
 10
-180.954
 20
1.25331
 11
-180.872
 21
1.31129
  0
LINE
  8
0
 10
-180.872
 20
1.31129
 11
-180.787
 21
1.36398
  0
LINE
  8
0
 10
-180.787
 20
1.36398
 11
-180.699
 21
1.41118
  0
LINE
  8
0
 10
-180.699
 20
1.41118
 11
-180.608
 21
1.4527
  0
LINE
  8
0
 10
-180.608
 20
1.4527
 11
-180.515
 21
1.48837
  0
LINE
  8
0
 10
-180.515
 20
1.48837
 11
-180.42
 21
1.51805
  0
LINE
  8
0
 10
-180.42
 20
1.51805
 11
-180.323
 21
1.54161
  0
LINE
  8
0
 10
-180.323
 20
1.54161
 11
-180.224
 21
1.55896
  0
LINE
  8
0
 10
-180.224
 20
1.55896
 11
-180.125
 21
1.57004
  0
LINE
  8
0
 10
-180.125
 20
1.57004
 11
-180.025
 21
1.5748
  0
LINE
  8
0
 10
-180.025
 20
1.5748
 11
-179.925
 21
1.57321
  0
LINE
  8
0
 10
-179.925
 20
1.57321
 11
-179.825
 21
1.56529
  0
LINE
  8
0
 10
-179.825
 20
1.56529
 11
-179.727
 21
1.55107
  0
LINE
  8
0
 10
-179.727
 20
1.55107
 11
-179.629
 21
1.53059
  0
LINE
  8
0
 10
-179.629
 20
1.53059
 11
-179.532
 21
1.50397
  0
LINE
  8
0
 10
-179.532
 20
1.50397
 11
-179.438
 21
1.47127
  0
LINE
  8
0
 10
-179.438
 20
1.47127
 11
-179.346
 21
1.43266
  0
LINE
  8
0
 10
-179.346
 20
1.43266
 11
-179.256
 21
1.38828
  0
LINE
  8
0
 10
-179.256
 20
1.38828
 11
-179.17
 21
1.3383
  0
LINE
  8
0
 10
-179.17
 20
1.3383
 11
-179.086
 21
1.28294
  0
LINE
  8
0
 10
-179.086
 20
1.28294
 11
-179.007
 21
1.22243
  0
LINE
  8
0
 10
-179.007
 20
1.22243
 11
-178.931
 21
1.15697
  0
LINE
  8
0
 10
-178.931
 20
1.15697
 11
-178.86
 21
1.08687
  0
LINE
  8
0
 10
-178.86
 20
1.08687
 11
-178.793
 21
1.01239
  0
LINE
  8
0
 10
-178.793
 20
1.01239
 11
-178.732
 21
0.933823
  0
LINE
  8
0
 10
-178.732
 20
0.933823
 11
-178.675
 21
0.851501
  0
LINE
  8
0
 10
-178.675
 20
0.851501
 11
-178.624
 21
0.765747
  0
LINE
  8
0
 10
-178.624
 20
0.765747
 11
-178.578
 21
0.676926
  0
LINE
  8
0
 10
-178.578
 20
0.676926
 11
-178.538
 21
0.585358
  0
LINE
  8
0
 10
-178.538
 20
0.585358
 11
-178.504
 21
0.49144
  0
LINE
  8
0
 10
-178.504
 20
0.49144
 11
-178.475
 21
0.395554
  0
LINE
  8
0
 10
-178.475
 20
0.395554
 11
-178.453
 21
0.298065
  0
LINE
  8
0
 10
-178.453
 20
0.298065
 11
-178.438
 21
0.199371
  0
LINE
  8
0
 10
-178.438
 20
0.199371
 11
-178.428
 21
0.099884
  0
LINE
  8
0
 10
-178.428
 20
0.099884
 11
-178.425
 21
0
  0
LINE
  8
0
 10
-178.425
 20
0
 11
-178.428
 21
-0.099884
  0
LINE
  8
0
 10
-178.428
 20
-0.099884
 11
-178.438
 21
-0.199371
  0
LINE
  8
0
 10
-178.438
 20
-0.199371
 11
-178.453
 21
-0.298065
  0
LINE
  8
0
 10
-178.453
 20
-0.298065
 11
-178.475
 21
-0.395554
  0
LINE
  8
0
 10
-178.475
 20
-0.395554
 11
-178.504
 21
-0.49144
  0
LINE
  8
0
 10
-178.504
 20
-0.49144
 11
-178.538
 21
-0.585358
  0
LINE
  8
0
 10
-178.538
 20
-0.585358
 11
-178.578
 21
-0.676926
  0
LINE
  8
0
 10
-178.578
 20
-0.676926
 11
-178.624
 21
-0.765747
  0
LINE
  8
0
 10
-178.624
 20
-0.765747
 11
-178.675
 21
-0.851501
  0
LINE
  8
0
 10
-178.675
 20
-0.851501
 11
-178.732
 21
-0.933823
  0
LINE
  8
0
 10
-178.732
 20
-0.933823
 11
-178.793
 21
-1.01239
  0
LINE
  8
0
 10
-178.793
 20
-1.01239
 11
-178.86
 21
-1.08687
  0
LINE
  8
0
 10
-178.86
 20
-1.08687
 11
-178.931
 21
-1.15697
  0
LINE
  8
0
 10
-178.931
 20
-1.15697
 11
-179.007
 21
-1.22243
  0
LINE
  8
0
 10
-179.007
 20
-1.22243
 11
-179.086
 21
-1.28294
  0
LINE
  8
0
 10
-179.086
 20
-1.28294
 11
-179.17
 21
-1.3383
  0
LINE
  8
0
 10
-179.17
 20
-1.3383
 11
-179.256
 21
-1.38828
  0
LINE
  8
0
 10
-179.256
 20
-1.38828
 11
-179.346
 21
-1.43266
  0
LINE
  8
0
 10
-179.346
 20
-1.43266
 11
-179.438
 21
-1.47127
  0
LINE
  8
0
 10
-179.438
 20
-1.47127
 11
-179.532
 21
-1.50397
  0
LINE
  8
0
 10
-179.532
 20
-1.50397
 11
-179.629
 21
-1.53059
  0
LINE
  8
0
 10
-179.629
 20
-1.53059
 11
-179.727
 21
-1.55107
  0
LINE
  8
0
 10
-179.727
 20
-1.55107
 11
-179.825
 21
-1.56529
  0
LINE
  8
0
 10
-179.825
 20
-1.56529
 11
-179.925
 21
-1.57321
  0
LINE
  8
0
 10
-179.925
 20
-1.57321
 11
-180.025
 21
-1.5748
  0
LINE
  8
0
 10
-180.025
 20
-1.5748
 11
-180.125
 21
-1.57004
  0
LINE
  8
0
 10
-0.0749512
 20
-22.6239
 11
-0.174789
 21
-22.6192
  0
LINE
  8
0
 10
-0.174789
 20
-22.6192
 11
-0.274384
 21
-22.6106
  0
LINE
  8
0
 10
-0.274384
 20
-22.6106
 11
-0.373566
 21
-22.5983
  0
LINE
  8
0
 10
-0.373566
 20
-22.5983
 11
-0.472214
 21
-22.5822
  0
LINE
  8
0
 10
-0.472214
 20
-22.5822
 11
-0.570175
 21
-22.5623
  0
LINE
  8
0
 10
-0.570175
 20
-22.5623
 11
-0.667313
 21
-22.5388
  0
LINE
  8
0
 10
-0.667313
 20
-22.5388
 11
-0.763489
 21
-22.5115
  0
LINE
  8
0
 10
-0.763489
 20
-22.5115
 11
-0.858551
 21
-22.4806
  0
LINE
  8
0
 10
-0.858551
 20
-22.4806
 11
-0.952362
 21
-22.4461
  0
LINE
  8
0
 10
-0.952362
 20
-22.4461
 11
-1.0448
 21
-22.4081
  0
LINE
  8
0
 10
-1.0448
 20
-22.4081
 11
-1.13573
 21
-22.3666
  0
LINE
  8
0
 10
-1.13573
 20
-22.3666
 11
-1.22499
 21
-22.3216
  0
LINE
  8
0
 10
-1.22499
 20
-22.3216
 11
-1.3125
 21
-22.2733
  0
LINE
  8
0
 10
-1.3125
 20
-22.2733
 11
-1.39809
 21
-22.2217
  0
LINE
  8
0
 10
-1.39809
 20
-22.2217
 11
-1.48166
 21
-22.1669
  0
LINE
  8
0
 10
-1.48166
 20
-22.1669
 11
-1.56308
 21
-22.1089
  0
LINE
  8
0
 10
-1.56308
 20
-22.1089
 11
-1.64223
 21
-22.0478
  0
LINE
  8
0
 10
-1.64223
 20
-22.0478
 11
-1.71901
 21
-21.9838
  0
LINE
  8
0
 10
-1.71901
 20
-21.9838
 11
-1.79329
 21
-21.9169
  0
LINE
  8
0
 10
-1.79329
 20
-21.9169
 11
-1.86496
 21
-21.8473
  0
LINE
  8
0
 10
-1.86496
 20
-21.8473
 11
-1.93394
 21
-21.7749
  0
LINE
  8
0
 10
-1.93394
 20
-21.7749
 11
-2.00011
 21
-21.7
  0
LINE
  8
0
 10
-2.00011
 20
-21.7
 11
-2.06339
 21
-21.6227
  0
LINE
  8
0
 10
-2.06339
 20
-21.6227
 11
-2.12366
 21
-21.5429
  0
LINE
  8
0
 10
-2.12366
 20
-21.5429
 11
-2.18086
 21
-21.461
  0
LINE
  8
0
 10
-2.18086
 20
-21.461
 11
-2.23491
 21
-21.3769
  0
LINE
  8
0
 10
-2.23491
 20
-21.3769
 11
-2.28571
 21
-21.2908
  0
LINE
  8
0
 10
-2.28571
 20
-21.2908
 11
-2.33319
 21
-21.2028
  0
LINE
  8
0
 10
-2.33319
 20
-21.2028
 11
-2.37729
 21
-21.1131
  0
LINE
  8
0
 10
-2.37729
 20
-21.1131
 11
-2.41794
 21
-21.0218
  0
LINE
  8
0
 10
-2.41794
 20
-21.0218
 11
-2.45509
 21
-20.929
  0
LINE
  8
0
 10
-2.45509
 20
-20.929
 11
-2.48868
 21
-20.8349
  0
LINE
  8
0
 10
-2.48868
 20
-20.8349
 11
-2.51866
 21
-20.7395
  0
LINE
  8
0
 10
-2.51866
 20
-20.7395
 11
-2.545
 21
-20.6431
  0
LINE
  8
0
 10
-2.545
 20
-20.6431
 11
-2.56763
 21
-20.5458
  0
LINE
  8
0
 10
-2.56763
 20
-20.5458
 11
-2.58655
 21
-20.4476
  0
LINE
  8
0
 10
-2.58655
 20
-20.4476
 11
-2.60172
 21
-20.3488
  0
LINE
  8
0
 10
-2.60172
 20
-20.3488
 11
-2.61311
 21
-20.2495
  0
LINE
  8
0
 10
-2.61311
 20
-20.2495
 11
-2.62071
 21
-20.1499
  0
LINE
  8
0
 10
-2.62071
 20
-20.1499
 11
-2.62451
 21
-20.05
  0
LINE
  8
0
 10
-2.62451
 20
-20.05
 11
-2.62451
 21
-19.95
  0
LINE
  8
0
 10
-2.62451
 20
-19.95
 11
-2.62071
 21
-19.8501
  0
LINE
  8
0
 10
-2.62071
 20
-19.8501
 11
-2.61311
 21
-19.7505
  0
LINE
  8
0
 10
-2.61311
 20
-19.7505
 11
-2.60172
 21
-19.6512
  0
LINE
  8
0
 10
-2.60172
 20
-19.6512
 11
-2.58655
 21
-19.5524
  0
LINE
  8
0
 10
-2.58655
 20
-19.5524
 11
-2.56763
 21
-19.4542
  0
LINE
  8
0
 10
-2.56763
 20
-19.4542
 11
-2.545
 21
-19.3569
  0
LINE
  8
0
 10
-2.545
 20
-19.3569
 11
-2.51866
 21
-19.2604
  0
LINE
  8
0
 10
-2.51866
 20
-19.2604
 11
-2.48868
 21
-19.1651
  0
LINE
  8
0
 10
-2.48868
 20
-19.1651
 11
-2.45509
 21
-19.071
  0
LINE
  8
0
 10
-2.45509
 20
-19.071
 11
-2.41794
 21
-18.9782
  0
LINE
  8
0
 10
-2.41794
 20
-18.9782
 11
-2.37729
 21
-18.8868
  0
LINE
  8
0
 10
-2.37729
 20
-18.8868
 11
-2.33319
 21
-18.7971
  0
LINE
  8
0
 10
-2.33319
 20
-18.7971
 11
-2.28571
 21
-18.7092
  0
LINE
  8
0
 10
-2.28571
 20
-18.7092
 11
-2.23491
 21
-18.6231
  0
LINE
  8
0
 10
-2.23491
 20
-18.6231
 11
-2.18086
 21
-18.539
  0
LINE
  8
0
 10
-2.18086
 20
-18.539
 11
-2.12366
 21
-18.4571
  0
LINE
  8
0
 10
-2.12366
 20
-18.4571
 11
-2.06339
 21
-18.3773
  0
LINE
  8
0
 10
-2.06339
 20
-18.3773
 11
-2.00011
 21
-18.2999
  0
LINE
  8
0
 10
-2.00011
 20
-18.2999
 11
-1.93394
 21
-18.225
  0
LINE
  8
0
 10
-1.93394
 20
-18.225
 11
-1.86496
 21
-18.1527
  0
LINE
  8
0
 10
-1.86496
 20
-18.1527
 11
-1.79329
 21
-18.083
  0
LINE
  8
0
 10
-1.79329
 20
-18.083
 11
-1.71901
 21
-18.0161
  0
LINE
  8
0
 10
-1.71901
 20
-18.0161
 11
-1.64223
 21
-17.9521
  0
LINE
  8
0
 10
-1.64223
 20
-17.9521
 11
-1.56308
 21
-17.8911
  0
LINE
  8
0
 10
-1.56308
 20
-17.8911
 11
-1.48166
 21
-17.8331
  0
LINE
  8
0
 10
-1.48166
 20
-17.8331
 11
-1.39809
 21
-17.7783
  0
LINE
  8
0
 10
-1.39809
 20
-17.7783
 11
-1.3125
 21
-17.7267
  0
LINE
  8
0
 10
-1.3125
 20
-17.7267
 11
-1.22499
 21
-17.6784
  0
LINE
  8
0
 10
-1.22499
 20
-17.6784
 11
-1.13573
 21
-17.6334
  0
LINE
  8
0
 10
-1.13573
 20
-17.6334
 11
-1.0448
 21
-17.5919
  0
LINE
  8
0
 10
-1.0448
 20
-17.5919
 11
-0.952362
 21
-17.5538
  0
LINE
  8
0
 10
-0.952362
 20
-17.5538
 11
-0.858551
 21
-17.5194
  0
LINE
  8
0
 10
-0.858551
 20
-17.5194
 11
-0.763489
 21
-17.4885
  0
LINE
  8
0
 10
-0.763489
 20
-17.4885
 11
-0.667313
 21
-17.4612
  0
LINE
  8
0
 10
-0.667313
 20
-17.4612
 11
-0.570175
 21
-17.4377
  0
LINE
  8
0
 10
-0.570175
 20
-17.4377
 11
-0.472214
 21
-17.4178
  0
LINE
  8
0
 10
-0.472214
 20
-17.4178
 11
-0.373566
 21
-17.4017
  0
LINE
  8
0
 10
-0.373566
 20
-17.4017
 11
-0.274384
 21
-17.3894
  0
LINE
  8
0
 10
-0.274384
 20
-17.3894
 11
-0.174789
 21
-17.3808
  0
LINE
  8
0
 10
-0.174789
 20
-17.3808
 11
-0.0749512
 21
-17.3761
  0
LINE
  8
0
 10
-0.0749512
 20
-17.3761
 11
0.0249786
 21
-17.3751
  0
LINE
  8
0
 10
0.0249786
 20
-17.3751
 11
0.124893
 21
-17.378
  0
LINE
  8
0
 10
0.124893
 20
-17.378
 11
0.224625
 21
-17.3846
  0
LINE
  8
0
 10
0.224625
 20
-17.3846
 11
0.324036
 21
-17.3951
  0
LINE
  8
0
 10
0.324036
 20
-17.3951
 11
0.422974
 21
-17.4093
  0
LINE
  8
0
 10
0.422974
 20
-17.4093
 11
0.521286
 21
-17.4273
  0
LINE
  8
0
 10
0.521286
 20
-17.4273
 11
0.618866
 21
-17.449
  0
LINE
  8
0
 10
0.618866
 20
-17.449
 11
0.71553
 21
-17.4744
  0
LINE
  8
0
 10
0.71553
 20
-17.4744
 11
0.811157
 21
-17.5035
  0
LINE
  8
0
 10
0.811157
 20
-17.5035
 11
0.905624
 21
-17.5362
  0
LINE
  8
0
 10
0.905624
 20
-17.5362
 11
0.998764
 21
-17.5724
  0
LINE
  8
0
 10
0.998764
 20
-17.5724
 11
1.09045
 21
-17.6122
  0
LINE
  8
0
 10
1.09045
 20
-17.6122
 11
1.18057
 21
-17.6555
  0
LINE
  8
0
 10
1.18057
 20
-17.6555
 11
1.26897
 21
-17.7021
  0
LINE
  8
0
 10
1.26897
 20
-17.7021
 11
1.35553
 21
-17.7521
  0
LINE
  8
0
 10
1.35553
 20
-17.7521
 11
1.44014
 21
-17.8053
  0
LINE
  8
0
 10
1.44014
 20
-17.8053
 11
1.52264
 21
-17.8617
  0
LINE
  8
0
 10
1.52264
 20
-17.8617
 11
1.60294
 21
-17.9212
  0
LINE
  8
0
 10
1.60294
 20
-17.9212
 11
1.68092
 21
-17.9838
  0
LINE
  8
0
 10
1.68092
 20
-17.9838
 11
1.75645
 21
-18.0492
  0
LINE
  8
0
 10
1.75645
 20
-18.0492
 11
1.82945
 21
-18.1175
  0
LINE
  8
0
 10
1.82945
 20
-18.1175
 11
1.8998
 21
-18.1885
  0
LINE
  8
0
 10
1.8998
 20
-18.1885
 11
1.96738
 21
-18.2622
  0
LINE
  8
0
 10
1.96738
 20
-18.2622
 11
2.03212
 21
-18.3383
  0
LINE
  8
0
 10
2.03212
 20
-18.3383
 11
2.0939
 21
-18.4169
  0
LINE
  8
0
 10
2.0939
 20
-18.4169
 11
2.15265
 21
-18.4978
  0
LINE
  8
0
 10
2.15265
 20
-18.4978
 11
2.20828
 21
-18.5808
  0
LINE
  8
0
 10
2.20828
 20
-18.5808
 11
2.26071
 21
-18.6659
  0
LINE
  8
0
 10
2.26071
 20
-18.6659
 11
2.30986
 21
-18.7529
  0
LINE
  8
0
 10
2.30986
 20
-18.7529
 11
2.35567
 21
-18.8418
  0
LINE
  8
0
 10
2.35567
 20
-18.8418
 11
2.39806
 21
-18.9323
  0
LINE
  8
0
 10
2.39806
 20
-18.9323
 11
2.43695
 21
-19.0244
  0
LINE
  8
0
 10
2.43695
 20
-19.0244
 11
2.47234
 21
-19.1179
  0
LINE
  8
0
 10
2.47234
 20
-19.1179
 11
2.50412
 21
-19.2126
  0
LINE
  8
0
 10
2.50412
 20
-19.2126
 11
2.53229
 21
-19.3085
  0
LINE
  8
0
 10
2.53229
 20
-19.3085
 11
2.55678
 21
-19.4054
  0
LINE
  8
0
 10
2.55678
 20
-19.4054
 11
2.57756
 21
-19.5032
  0
LINE
  8
0
 10
2.57756
 20
-19.5032
 11
2.5946
 21
-19.6017
  0
LINE
  8
0
 10
2.5946
 20
-19.6017
 11
2.60788
 21
-19.7008
  0
LINE
  8
0
 10
2.60788
 20
-19.7008
 11
2.61739
 21
-19.8003
  0
LINE
  8
0
 10
2.61739
 20
-19.8003
 11
2.62309
 21
-19.9001
  0
LINE
  8
0
 10
2.62309
 20
-19.9001
 11
2.625
 21
-20
  0
LINE
  8
0
 10
2.625
 20
-20
 11
2.62309
 21
-20.0999
  0
LINE
  8
0
 10
2.62309
 20
-20.0999
 11
2.61739
 21
-20.1997
  0
LINE
  8
0
 10
2.61739
 20
-20.1997
 11
2.60788
 21
-20.2992
  0
LINE
  8
0
 10
2.60788
 20
-20.2992
 11
2.5946
 21
-20.3983
  0
LINE
  8
0
 10
2.5946
 20
-20.3983
 11
2.57756
 21
-20.4968
  0
LINE
  8
0
 10
2.57756
 20
-20.4968
 11
2.55678
 21
-20.5945
  0
LINE
  8
0
 10
2.55678
 20
-20.5945
 11
2.53229
 21
-20.6915
  0
LINE
  8
0
 10
2.53229
 20
-20.6915
 11
2.50412
 21
-20.7874
  0
LINE
  8
0
 10
2.50412
 20
-20.7874
 11
2.47234
 21
-20.8821
  0
LINE
  8
0
 10
2.47234
 20
-20.8821
 11
2.43695
 21
-20.9756
  0
LINE
  8
0
 10
2.43695
 20
-20.9756
 11
2.39806
 21
-21.0677
  0
LINE
  8
0
 10
2.39806
 20
-21.0677
 11
2.35567
 21
-21.1582
  0
LINE
  8
0
 10
2.35567
 20
-21.1582
 11
2.30986
 21
-21.247
  0
LINE
  8
0
 10
2.30986
 20
-21.247
 11
2.26071
 21
-21.3341
  0
LINE
  8
0
 10
2.26071
 20
-21.3341
 11
2.20828
 21
-21.4192
  0
LINE
  8
0
 10
2.20828
 20
-21.4192
 11
2.15265
 21
-21.5022
  0
LINE
  8
0
 10
2.15265
 20
-21.5022
 11
2.0939
 21
-21.5831
  0
LINE
  8
0
 10
2.0939
 20
-21.5831
 11
2.03212
 21
-21.6617
  0
LINE
  8
0
 10
2.03212
 20
-21.6617
 11
1.96738
 21
-21.7378
  0
LINE
  8
0
 10
1.96738
 20
-21.7378
 11
1.8998
 21
-21.8114
  0
LINE
  8
0
 10
1.8998
 20
-21.8114
 11
1.82945
 21
-21.8825
  0
LINE
  8
0
 10
1.82945
 20
-21.8825
 11
1.75645
 21
-21.9507
  0
LINE
  8
0
 10
1.75645
 20
-21.9507
 11
1.68092
 21
-22.0162
  0
LINE
  8
0
 10
1.68092
 20
-22.0162
 11
1.60294
 21
-22.0787
  0
LINE
  8
0
 10
1.60294
 20
-22.0787
 11
1.52264
 21
-22.1383
  0
LINE
  8
0
 10
1.52264
 20
-22.1383
 11
1.44014
 21
-22.1947
  0
LINE
  8
0
 10
1.44014
 20
-22.1947
 11
1.35553
 21
-22.2479
  0
LINE
  8
0
 10
1.35553
 20
-22.2479
 11
1.26897
 21
-22.2979
  0
LINE
  8
0
 10
1.26897
 20
-22.2979
 11
1.18057
 21
-22.3445
  0
LINE
  8
0
 10
1.18057
 20
-22.3445
 11
1.09045
 21
-22.3878
  0
LINE
  8
0
 10
1.09045
 20
-22.3878
 11
0.998764
 21
-22.4276
  0
LINE
  8
0
 10
0.998764
 20
-22.4276
 11
0.905624
 21
-22.4638
  0
LINE
  8
0
 10
0.905624
 20
-22.4638
 11
0.811157
 21
-22.4965
  0
LINE
  8
0
 10
0.811157
 20
-22.4965
 11
0.71553
 21
-22.5256
  0
LINE
  8
0
 10
0.71553
 20
-22.5256
 11
0.618866
 21
-22.551
  0
LINE
  8
0
 10
0.618866
 20
-22.551
 11
0.521286
 21
-22.5727
  0
LINE
  8
0
 10
0.521286
 20
-22.5727
 11
0.422974
 21
-22.5907
  0
LINE
  8
0
 10
0.422974
 20
-22.5907
 11
0.324036
 21
-22.6049
  0
LINE
  8
0
 10
0.324036
 20
-22.6049
 11
0.224625
 21
-22.6154
  0
LINE
  8
0
 10
0.224625
 20
-22.6154
 11
0.124893
 21
-22.622
  0
LINE
  8
0
 10
0.124893
 20
-22.622
 11
0.0249786
 21
-22.6249
  0
LINE
  8
0
 10
0.0249786
 20
-22.6249
 11
-0.0749512
 21
-22.6239
  0
LINE
  8
0
 10
-0.0996246
 20
-46.2488
 11
-0.199203
 21
-46.2453
  0
LINE
  8
0
 10
-0.199203
 20
-46.2453
 11
-0.29866
 21
-46.2395
  0
LINE
  8
0
 10
-0.29866
 20
-46.2395
 11
-0.397964
 21
-46.2313
  0
LINE
  8
0
 10
-0.397964
 20
-46.2313
 11
-0.497055
 21
-46.2208
  0
LINE
  8
0
 10
-0.497055
 20
-46.2208
 11
-0.595856
 21
-46.208
  0
LINE
  8
0
 10
-0.595856
 20
-46.208
 11
-0.694351
 21
-46.1929
  0
LINE
  8
0
 10
-0.694351
 20
-46.1929
 11
-0.79245
 21
-46.1755
  0
LINE
  8
0
 10
-0.79245
 20
-46.1755
 11
-0.890106
 21
-46.1557
  0
LINE
  8
0
 10
-0.890106
 20
-46.1557
 11
-0.987289
 21
-46.1337
  0
LINE
  8
0
 10
-0.987289
 20
-46.1337
 11
-1.08392
 21
-46.1095
  0
LINE
  8
0
 10
-1.08392
 20
-46.1095
 11
-1.17996
 21
-46.0829
  0
LINE
  8
0
 10
-1.17996
 20
-46.0829
 11
-1.27534
 21
-46.0541
  0
LINE
  8
0
 10
-1.27534
 20
-46.0541
 11
-1.37004
 21
-46.0231
  0
LINE
  8
0
 10
-1.37004
 20
-46.0231
 11
-1.46397
 21
-45.9899
  0
LINE
  8
0
 10
-1.46397
 20
-45.9899
 11
-1.55711
 21
-45.9545
  0
LINE
  8
0
 10
-1.55711
 20
-45.9545
 11
-1.64938
 21
-45.9169
  0
LINE
  8
0
 10
-1.64938
 20
-45.9169
 11
-1.74075
 21
-45.8771
  0
LINE
  8
0
 10
-1.74075
 20
-45.8771
 11
-1.83116
 21
-45.8353
  0
LINE
  8
0
 10
-1.83116
 20
-45.8353
 11
-1.92056
 21
-45.7913
  0
LINE
  8
0
 10
-1.92056
 20
-45.7913
 11
-2.00891
 21
-45.7452
  0
LINE
  8
0
 10
-2.00891
 20
-45.7452
 11
-2.09616
 21
-45.6971
  0
LINE
  8
0
 10
-2.09616
 20
-45.6971
 11
-2.18225
 21
-45.6469
  0
LINE
  8
0
 10
-2.18225
 20
-45.6469
 11
-2.26715
 21
-45.5948
  0
LINE
  8
0
 10
-2.26715
 20
-45.5948
 11
-2.3508
 21
-45.5406
  0
LINE
  8
0
 10
-2.3508
 20
-45.5406
 11
-2.43315
 21
-45.4846
  0
LINE
  8
0
 10
-2.43315
 20
-45.4846
 11
-2.51418
 21
-45.4266
  0
LINE
  8
0
 10
-2.51418
 20
-45.4266
 11
-2.59381
 21
-45.3667
  0
LINE
  8
0
 10
-2.59381
 20
-45.3667
 11
-2.67203
 21
-45.3049
  0
LINE
  8
0
 10
-2.67203
 20
-45.3049
 11
-2.74876
 21
-45.2414
  0
LINE
  8
0
 10
-2.74876
 20
-45.2414
 11
-2.82399
 21
-45.1761
  0
LINE
  8
0
 10
-2.82399
 20
-45.1761
 11
-2.89767
 21
-45.109
  0
LINE
  8
0
 10
-2.89767
 20
-45.109
 11
-2.96976
 21
-45.0402
  0
LINE
  8
0
 10
-2.96976
 20
-45.0402
 11
-3.04022
 21
-44.9698
  0
LINE
  8
0
 10
-3.04022
 20
-44.9698
 11
-3.10899
 21
-44.8977
  0
LINE
  8
0
 10
-3.10899
 20
-44.8977
 11
-3.17607
 21
-44.824
  0
LINE
  8
0
 10
-3.17607
 20
-44.824
 11
-3.24141
 21
-44.7488
  0
LINE
  8
0
 10
-3.24141
 20
-44.7488
 11
-3.30495
 21
-44.672
  0
LINE
  8
0
 10
-3.30495
 20
-44.672
 11
-3.36668
 21
-44.5938
  0
LINE
  8
0
 10
-3.36668
 20
-44.5938
 11
-3.42656
 21
-44.5142
  0
LINE
  8
0
 10
-3.42656
 20
-44.5142
 11
-3.48456
 21
-44.4332
  0
LINE
  8
0
 10
-3.48456
 20
-44.4332
 11
-3.54065
 21
-44.3508
  0
LINE
  8
0
 10
-3.54065
 20
-44.3508
 11
-3.59477
 21
-44.2672
  0
LINE
  8
0
 10
-3.59477
 20
-44.2672
 11
-3.64694
 21
-44.1823
  0
LINE
  8
0
 10
-3.64694
 20
-44.1823
 11
-3.6971
 21
-44.0962
  0
LINE
  8
0
 10
-3.6971
 20
-44.0962
 11
-3.74522
 21
-44.0089
  0
LINE
  8
0
 10
-3.74522
 20
-44.0089
 11
-3.79129
 21
-43.9206
  0
LINE
  8
0
 10
-3.79129
 20
-43.9206
 11
-3.83527
 21
-43.8312
  0
LINE
  8
0
 10
-3.83527
 20
-43.8312
 11
-3.87714
 21
-43.7408
  0
LINE
  8
0
 10
-3.87714
 20
-43.7408
 11
-3.91689
 21
-43.6494
  0
LINE
  8
0
 10
-3.91689
 20
-43.6494
 11
-3.95447
 21
-43.5571
  0
LINE
  8
0
 10
-3.95447
 20
-43.5571
 11
-3.98988
 21
-43.464
  0
LINE
  8
0
 10
-3.98988
 20
-43.464
 11
-4.0231
 21
-43.37
  0
LINE
  8
0
 10
-4.0231
 20
-43.37
 11
-4.05412
 21
-43.2753
  0
LINE
  8
0
 10
-4.05412
 20
-43.2753
 11
-4.0829
 21
-43.18
  0
LINE
  8
0
 10
-4.0829
 20
-43.18
 11
-4.10945
 21
-43.0839
  0
LINE
  8
0
 10
-4.10945
 20
-43.0839
 11
-4.13373
 21
-42.9873
  0
LINE
  8
0
 10
-4.13373
 20
-42.9873
 11
-4.15573
 21
-42.8901
  0
LINE
  8
0
 10
-4.15573
 20
-42.8901
 11
-4.17546
 21
-42.7924
  0
LINE
  8
0
 10
-4.17546
 20
-42.7924
 11
-4.19289
 21
-42.6944
  0
LINE
  8
0
 10
-4.19289
 20
-42.6944
 11
-4.20801
 21
-42.5959
  0
LINE
  8
0
 10
-4.20801
 20
-42.5959
 11
-4.22083
 21
-42.4971
  0
LINE
  8
0
 10
-4.22083
 20
-42.4971
 11
-4.23132
 21
-42.398
  0
LINE
  8
0
 10
-4.23132
 20
-42.398
 11
-4.23949
 21
-42.2987
  0
LINE
  8
0
 10
-4.23949
 20
-42.2987
 11
-4.24532
 21
-42.1992
  0
LINE
  8
0
 10
-4.24532
 20
-42.1992
 11
-4.24883
 21
-42.0996
  0
LINE
  8
0
 10
-4.24883
 20
-42.0996
 11
-4.25
 21
-42
  0
LINE
  8
0
 10
-4.25
 20
-42
 11
-4.24883
 21
-41.9004
  0
LINE
  8
0
 10
-4.24883
 20
-41.9004
 11
-4.24532
 21
-41.8008
  0
LINE
  8
0
 10
-4.24532
 20
-41.8008
 11
-4.23949
 21
-41.7013
  0
LINE
  8
0
 10
-4.23949
 20
-41.7013
 11
-4.23132
 21
-41.602
  0
LINE
  8
0
 10
-4.23132
 20
-41.602
 11
-4.22083
 21
-41.5029
  0
LINE
  8
0
 10
-4.22083
 20
-41.5029
 11
-4.20801
 21
-41.4041
  0
LINE
  8
0
 10
-4.20801
 20
-41.4041
 11
-4.19289
 21
-41.3056
  0
LINE
  8
0
 10
-4.19289
 20
-41.3056
 11
-4.17546
 21
-41.2075
  0
LINE
  8
0
 10
-4.17546
 20
-41.2075
 11
-4.15573
 21
-41.1099
  0
LINE
  8
0
 10
-4.15573
 20
-41.1099
 11
-4.13373
 21
-41.0127
  0
LINE
  8
0
 10
-4.13373
 20
-41.0127
 11
-4.10945
 21
-40.9161
  0
LINE
  8
0
 10
-4.10945
 20
-40.9161
 11
-4.0829
 21
-40.82
  0
LINE
  8
0
 10
-4.0829
 20
-40.82
 11
-4.05412
 21
-40.7246
  0
LINE
  8
0
 10
-4.05412
 20
-40.7246
 11
-4.0231
 21
-40.6299
  0
LINE
  8
0
 10
-4.0231
 20
-40.6299
 11
-3.98988
 21
-40.536
  0
LINE
  8
0
 10
-3.98988
 20
-40.536
 11
-3.95447
 21
-40.4429
  0
LINE
  8
0
 10
-3.95447
 20
-40.4429
 11
-3.91689
 21
-40.3506
  0
LINE
  8
0
 10
-3.91689
 20
-40.3506
 11
-3.87714
 21
-40.2592
  0
LINE
  8
0
 10
-3.87714
 20
-40.2592
 11
-3.83527
 21
-40.1688
  0
LINE
  8
0
 10
-3.83527
 20
-40.1688
 11
-3.79129
 21
-40.0794
  0
LINE
  8
0
 10
-3.79129
 20
-40.0794
 11
-3.74522
 21
-39.9911
  0
LINE
  8
0
 10
-3.74522
 20
-39.9911
 11
-3.6971
 21
-39.9038
  0
LINE
  8
0
 10
-3.6971
 20
-39.9038
 11
-3.64694
 21
-39.8177
  0
LINE
  8
0
 10
-3.64694
 20
-39.8177
 11
-3.59477
 21
-39.7328
  0
LINE
  8
0
 10
-3.59477
 20
-39.7328
 11
-3.54065
 21
-39.6492
  0
LINE
  8
0
 10
-3.54065
 20
-39.6492
 11
-3.48456
 21
-39.5668
  0
LINE
  8
0
 10
-3.48456
 20
-39.5668
 11
-3.42656
 21
-39.4858
  0
LINE
  8
0
 10
-3.42656
 20
-39.4858
 11
-3.36668
 21
-39.4062
  0
LINE
  8
0
 10
-3.36668
 20
-39.4062
 11
-3.30495
 21
-39.328
  0
LINE
  8
0
 10
-3.30495
 20
-39.328
 11
-3.24141
 21
-39.2512
  0
LINE
  8
0
 10
-3.24141
 20
-39.2512
 11
-3.17607
 21
-39.176
  0
LINE
  8
0
 10
-3.17607
 20
-39.176
 11
-3.10899
 21
-39.1023
  0
LINE
  8
0
 10
-3.10899
 20
-39.1023
 11
-3.04022
 21
-39.0302
  0
LINE
  8
0
 10
-3.04022
 20
-39.0302
 11
-2.96976
 21
-38.9598
  0
LINE
  8
0
 10
-2.96976
 20
-38.9598
 11
-2.89767
 21
-38.891
  0
LINE
  8
0
 10
-2.89767
 20
-38.891
 11
-2.82399
 21
-38.8239
  0
LINE
  8
0
 10
-2.82399
 20
-38.8239
 11
-2.74876
 21
-38.7586
  0
LINE
  8
0
 10
-2.74876
 20
-38.7586
 11
-2.67203
 21
-38.695
  0
LINE
  8
0
 10
-2.67203
 20
-38.695
 11
-2.59381
 21
-38.6333
  0
LINE
  8
0
 10
-2.59381
 20
-38.6333
 11
-2.51418
 21
-38.5734
  0
LINE
  8
0
 10
-2.51418
 20
-38.5734
 11
-2.43315
 21
-38.5154
  0
LINE
  8
0
 10
-2.43315
 20
-38.5154
 11
-2.3508
 21
-38.4593
  0
LINE
  8
0
 10
-2.3508
 20
-38.4593
 11
-2.26715
 21
-38.4052
  0
LINE
  8
0
 10
-2.26715
 20
-38.4052
 11
-2.18225
 21
-38.353
  0
LINE
  8
0
 10
-2.18225
 20
-38.353
 11
-2.09616
 21
-38.3029
  0
LINE
  8
0
 10
-2.09616
 20
-38.3029
 11
-2.00891
 21
-38.2548
  0
LINE
  8
0
 10
-2.00891
 20
-38.2548
 11
-1.92056
 21
-38.2087
  0
LINE
  8
0
 10
-1.92056
 20
-38.2087
 11
-1.83116
 21
-38.1647
  0
LINE
  8
0
 10
-1.83116
 20
-38.1647
 11
-1.74075
 21
-38.1228
  0
LINE
  8
0
 10
-1.74075
 20
-38.1228
 11
-1.64938
 21
-38.0831
  0
LINE
  8
0
 10
-1.64938
 20
-38.0831
 11
-1.55711
 21
-38.0455
  0
LINE
  8
0
 10
-1.55711
 20
-38.0455
 11
-1.46397
 21
-38.0101
  0
LINE
  8
0
 10
-1.46397
 20
-38.0101
 11
-1.37004
 21
-37.9769
  0
LINE
  8
0
 10
-1.37004
 20
-37.9769
 11
-1.27534
 21
-37.9459
  0
LINE
  8
0
 10
-1.27534
 20
-37.9459
 11
-1.17996
 21
-37.9171
  0
LINE
  8
0
 10
-1.17996
 20
-37.9171
 11
-1.08392
 21
-37.8905
  0
LINE
  8
0
 10
-1.08392
 20
-37.8905
 11
-0.987289
 21
-37.8663
  0
LINE
  8
0
 10
-0.987289
 20
-37.8663
 11
-0.890106
 21
-37.8443
  0
LINE
  8
0
 10
-0.890106
 20
-37.8443
 11
-0.79245
 21
-37.8245
  0
LINE
  8
0
 10
-0.79245
 20
-37.8245
 11
-0.694351
 21
-37.8071
  0
LINE
  8
0
 10
-0.694351
 20
-37.8071
 11
-0.595856
 21
-37.792
  0
LINE
  8
0
 10
-0.595856
 20
-37.792
 11
-0.497055
 21
-37.7792
  0
LINE
  8
0
 10
-0.497055
 20
-37.7792
 11
-0.397964
 21
-37.7687
  0
LINE
  8
0
 10
-0.397964
 20
-37.7687
 11
-0.29866
 21
-37.7605
  0
LINE
  8
0
 10
-0.29866
 20
-37.7605
 11
-0.199203
 21
-37.7547
  0
LINE
  8
0
 10
-0.199203
 20
-37.7547
 11
-0.0996246
 21
-37.7512
  0
LINE
  8
0
 10
-0.0996246
 20
-37.7512
 11
0
 21
-37.75
  0
LINE
  8
0
 10
0
 20
-37.75
 11
0.0996246
 21
-37.7512
  0
LINE
  8
0
 10
0.0996246
 20
-37.7512
 11
0.199203
 21
-37.7547
  0
LINE
  8
0
 10
0.199203
 20
-37.7547
 11
0.29866
 21
-37.7605
  0
LINE
  8
0
 10
0.29866
 20
-37.7605
 11
0.397964
 21
-37.7687
  0
LINE
  8
0
 10
0.397964
 20
-37.7687
 11
0.497055
 21
-37.7792
  0
LINE
  8
0
 10
0.497055
 20
-37.7792
 11
0.595856
 21
-37.792
  0
LINE
  8
0
 10
0.595856
 20
-37.792
 11
0.694351
 21
-37.8071
  0
LINE
  8
0
 10
0.694351
 20
-37.8071
 11
0.79245
 21
-37.8245
  0
LINE
  8
0
 10
0.79245
 20
-37.8245
 11
0.890106
 21
-37.8443
  0
LINE
  8
0
 10
0.890106
 20
-37.8443
 11
0.987289
 21
-37.8663
  0
LINE
  8
0
 10
0.987289
 20
-37.8663
 11
1.08392
 21
-37.8905
  0
LINE
  8
0
 10
1.08392
 20
-37.8905
 11
1.17996
 21
-37.9171
  0
LINE
  8
0
 10
1.17996
 20
-37.9171
 11
1.27534
 21
-37.9459
  0
LINE
  8
0
 10
1.27534
 20
-37.9459
 11
1.37004
 21
-37.9769
  0
LINE
  8
0
 10
1.37004
 20
-37.9769
 11
1.46397
 21
-38.0101
  0
LINE
  8
0
 10
1.46397
 20
-38.0101
 11
1.55711
 21
-38.0455
  0
LINE
  8
0
 10
1.55711
 20
-38.0455
 11
1.64938
 21
-38.0831
  0
LINE
  8
0
 10
1.64938
 20
-38.0831
 11
1.74075
 21
-38.1228
  0
LINE
  8
0
 10
1.74075
 20
-38.1228
 11
1.83116
 21
-38.1647
  0
LINE
  8
0
 10
1.83116
 20
-38.1647
 11
1.92056
 21
-38.2087
  0
LINE
  8
0
 10
1.92056
 20
-38.2087
 11
2.00891
 21
-38.2548
  0
LINE
  8
0
 10
2.00891
 20
-38.2548
 11
2.09616
 21
-38.3029
  0
LINE
  8
0
 10
2.09616
 20
-38.3029
 11
2.18225
 21
-38.353
  0
LINE
  8
0
 10
2.18225
 20
-38.353
 11
2.26715
 21
-38.4052
  0
LINE
  8
0
 10
2.26715
 20
-38.4052
 11
2.3508
 21
-38.4593
  0
LINE
  8
0
 10
2.3508
 20
-38.4593
 11
2.43315
 21
-38.5154
  0
LINE
  8
0
 10
2.43315
 20
-38.5154
 11
2.51418
 21
-38.5734
  0
LINE
  8
0
 10
2.51418
 20
-38.5734
 11
2.59381
 21
-38.6333
  0
LINE
  8
0
 10
2.59381
 20
-38.6333
 11
2.67203
 21
-38.695
  0
LINE
  8
0
 10
2.67203
 20
-38.695
 11
2.74876
 21
-38.7586
  0
LINE
  8
0
 10
2.74876
 20
-38.7586
 11
2.82399
 21
-38.8239
  0
LINE
  8
0
 10
2.82399
 20
-38.8239
 11
2.89767
 21
-38.891
  0
LINE
  8
0
 10
2.89767
 20
-38.891
 11
2.96976
 21
-38.9598
  0
LINE
  8
0
 10
2.96976
 20
-38.9598
 11
3.04022
 21
-39.0302
  0
LINE
  8
0
 10
3.04022
 20
-39.0302
 11
3.10899
 21
-39.1023
  0
LINE
  8
0
 10
3.10899
 20
-39.1023
 11
3.17607
 21
-39.176
  0
LINE
  8
0
 10
3.17607
 20
-39.176
 11
3.24141
 21
-39.2512
  0
LINE
  8
0
 10
3.24141
 20
-39.2512
 11
3.30495
 21
-39.328
  0
LINE
  8
0
 10
3.30495
 20
-39.328
 11
3.36668
 21
-39.4062
  0
LINE
  8
0
 10
3.36668
 20
-39.4062
 11
3.42656
 21
-39.4858
  0
LINE
  8
0
 10
3.42656
 20
-39.4858
 11
3.48456
 21
-39.5668
  0
LINE
  8
0
 10
3.48456
 20
-39.5668
 11
3.54065
 21
-39.6492
  0
LINE
  8
0
 10
3.54065
 20
-39.6492
 11
3.59477
 21
-39.7328
  0
LINE
  8
0
 10
3.59477
 20
-39.7328
 11
3.64694
 21
-39.8177
  0
LINE
  8
0
 10
3.64694
 20
-39.8177
 11
3.6971
 21
-39.9038
  0
LINE
  8
0
 10
3.6971
 20
-39.9038
 11
3.74522
 21
-39.9911
  0
LINE
  8
0
 10
3.74522
 20
-39.9911
 11
3.79129
 21
-40.0794
  0
LINE
  8
0
 10
3.79129
 20
-40.0794
 11
3.83527
 21
-40.1688
  0
LINE
  8
0
 10
3.83527
 20
-40.1688
 11
3.87714
 21
-40.2592
  0
LINE
  8
0
 10
3.87714
 20
-40.2592
 11
3.91689
 21
-40.3506
  0
LINE
  8
0
 10
3.91689
 20
-40.3506
 11
3.95447
 21
-40.4429
  0
LINE
  8
0
 10
3.95447
 20
-40.4429
 11
3.98988
 21
-40.536
  0
LINE
  8
0
 10
3.98988
 20
-40.536
 11
4.0231
 21
-40.6299
  0
LINE
  8
0
 10
4.0231
 20
-40.6299
 11
4.05412
 21
-40.7246
  0
LINE
  8
0
 10
4.05412
 20
-40.7246
 11
4.0829
 21
-40.82
  0
LINE
  8
0
 10
4.0829
 20
-40.82
 11
4.10945
 21
-40.9161
  0
LINE
  8
0
 10
4.10945
 20
-40.9161
 11
4.13373
 21
-41.0127
  0
LINE
  8
0
 10
4.13373
 20
-41.0127
 11
4.15573
 21
-41.1099
  0
LINE
  8
0
 10
4.15573
 20
-41.1099
 11
4.17546
 21
-41.2075
  0
LINE
  8
0
 10
4.17546
 20
-41.2075
 11
4.19289
 21
-41.3056
  0
LINE
  8
0
 10
4.19289
 20
-41.3056
 11
4.20801
 21
-41.4041
  0
LINE
  8
0
 10
4.20801
 20
-41.4041
 11
4.22083
 21
-41.5029
  0
LINE
  8
0
 10
4.22083
 20
-41.5029
 11
4.23132
 21
-41.602
  0
LINE
  8
0
 10
4.23132
 20
-41.602
 11
4.23949
 21
-41.7013
  0
LINE
  8
0
 10
4.23949
 20
-41.7013
 11
4.24532
 21
-41.8008
  0
LINE
  8
0
 10
4.24532
 20
-41.8008
 11
4.24883
 21
-41.9004
  0
LINE
  8
0
 10
4.24883
 20
-41.9004
 11
4.25
 21
-42
  0
LINE
  8
0
 10
4.25
 20
-42
 11
4.24883
 21
-42.0996
  0
LINE
  8
0
 10
4.24883
 20
-42.0996
 11
4.24532
 21
-42.1992
  0
LINE
  8
0
 10
4.24532
 20
-42.1992
 11
4.23949
 21
-42.2987
  0
LINE
  8
0
 10
4.23949
 20
-42.2987
 11
4.23132
 21
-42.398
  0
LINE
  8
0
 10
4.23132
 20
-42.398
 11
4.22083
 21
-42.4971
  0
LINE
  8
0
 10
4.22083
 20
-42.4971
 11
4.20801
 21
-42.5959
  0
LINE
  8
0
 10
4.20801
 20
-42.5959
 11
4.19289
 21
-42.6944
  0
LINE
  8
0
 10
4.19289
 20
-42.6944
 11
4.17546
 21
-42.7924
  0
LINE
  8
0
 10
4.17546
 20
-42.7924
 11
4.15573
 21
-42.8901
  0
LINE
  8
0
 10
4.15573
 20
-42.8901
 11
4.13373
 21
-42.9873
  0
LINE
  8
0
 10
4.13373
 20
-42.9873
 11
4.10945
 21
-43.0839
  0
LINE
  8
0
 10
4.10945
 20
-43.0839
 11
4.0829
 21
-43.18
  0
LINE
  8
0
 10
4.0829
 20
-43.18
 11
4.05412
 21
-43.2753
  0
LINE
  8
0
 10
4.05412
 20
-43.2753
 11
4.0231
 21
-43.37
  0
LINE
  8
0
 10
4.0231
 20
-43.37
 11
3.98988
 21
-43.464
  0
LINE
  8
0
 10
3.98988
 20
-43.464
 11
3.95447
 21
-43.5571
  0
LINE
  8
0
 10
3.95447
 20
-43.5571
 11
3.91689
 21
-43.6494
  0
LINE
  8
0
 10
3.91689
 20
-43.6494
 11
3.87714
 21
-43.7408
  0
LINE
  8
0
 10
3.87714
 20
-43.7408
 11
3.83527
 21
-43.8312
  0
LINE
  8
0
 10
3.83527
 20
-43.8312
 11
3.79129
 21
-43.9206
  0
LINE
  8
0
 10
3.79129
 20
-43.9206
 11
3.74522
 21
-44.0089
  0
LINE
  8
0
 10
3.74522
 20
-44.0089
 11
3.6971
 21
-44.0962
  0
LINE
  8
0
 10
3.6971
 20
-44.0962
 11
3.64694
 21
-44.1823
  0
LINE
  8
0
 10
3.64694
 20
-44.1823
 11
3.59477
 21
-44.2672
  0
LINE
  8
0
 10
3.59477
 20
-44.2672
 11
3.54065
 21
-44.3508
  0
LINE
  8
0
 10
3.54065
 20
-44.3508
 11
3.48456
 21
-44.4332
  0
LINE
  8
0
 10
3.48456
 20
-44.4332
 11
3.42656
 21
-44.5142
  0
LINE
  8
0
 10
3.42656
 20
-44.5142
 11
3.36668
 21
-44.5938
  0
LINE
  8
0
 10
3.36668
 20
-44.5938
 11
3.30495
 21
-44.672
  0
LINE
  8
0
 10
3.30495
 20
-44.672
 11
3.24141
 21
-44.7488
  0
LINE
  8
0
 10
3.24141
 20
-44.7488
 11
3.17607
 21
-44.824
  0
LINE
  8
0
 10
3.17607
 20
-44.824
 11
3.10899
 21
-44.8977
  0
LINE
  8
0
 10
3.10899
 20
-44.8977
 11
3.04022
 21
-44.9698
  0
LINE
  8
0
 10
3.04022
 20
-44.9698
 11
2.96976
 21
-45.0402
  0
LINE
  8
0
 10
2.96976
 20
-45.0402
 11
2.89767
 21
-45.109
  0
LINE
  8
0
 10
2.89767
 20
-45.109
 11
2.82399
 21
-45.1761
  0
LINE
  8
0
 10
2.82399
 20
-45.1761
 11
2.74876
 21
-45.2414
  0
LINE
  8
0
 10
2.74876
 20
-45.2414
 11
2.67203
 21
-45.3049
  0
LINE
  8
0
 10
2.67203
 20
-45.3049
 11
2.59381
 21
-45.3667
  0
LINE
  8
0
 10
2.59381
 20
-45.3667
 11
2.51418
 21
-45.4266
  0
LINE
  8
0
 10
2.51418
 20
-45.4266
 11
2.43315
 21
-45.4846
  0
LINE
  8
0
 10
2.43315
 20
-45.4846
 11
2.3508
 21
-45.5406
  0
LINE
  8
0
 10
2.3508
 20
-45.5406
 11
2.26715
 21
-45.5948
  0
LINE
  8
0
 10
2.26715
 20
-45.5948
 11
2.18225
 21
-45.6469
  0
LINE
  8
0
 10
2.18225
 20
-45.6469
 11
2.09616
 21
-45.6971
  0
LINE
  8
0
 10
2.09616
 20
-45.6971
 11
2.00891
 21
-45.7452
  0
LINE
  8
0
 10
2.00891
 20
-45.7452
 11
1.92056
 21
-45.7913
  0
LINE
  8
0
 10
1.92056
 20
-45.7913
 11
1.83116
 21
-45.8353
  0
LINE
  8
0
 10
1.83116
 20
-45.8353
 11
1.74075
 21
-45.8771
  0
LINE
  8
0
 10
1.74075
 20
-45.8771
 11
1.64938
 21
-45.9169
  0
LINE
  8
0
 10
1.64938
 20
-45.9169
 11
1.55711
 21
-45.9545
  0
LINE
  8
0
 10
1.55711
 20
-45.9545
 11
1.46397
 21
-45.9899
  0
LINE
  8
0
 10
1.46397
 20
-45.9899
 11
1.37004
 21
-46.0231
  0
LINE
  8
0
 10
1.37004
 20
-46.0231
 11
1.27534
 21
-46.0541
  0
LINE
  8
0
 10
1.27534
 20
-46.0541
 11
1.17996
 21
-46.0829
  0
LINE
  8
0
 10
1.17996
 20
-46.0829
 11
1.08392
 21
-46.1095
  0
LINE
  8
0
 10
1.08392
 20
-46.1095
 11
0.987289
 21
-46.1337
  0
LINE
  8
0
 10
0.987289
 20
-46.1337
 11
0.890106
 21
-46.1557
  0
LINE
  8
0
 10
0.890106
 20
-46.1557
 11
0.79245
 21
-46.1755
  0
LINE
  8
0
 10
0.79245
 20
-46.1755
 11
0.694351
 21
-46.1929
  0
LINE
  8
0
 10
0.694351
 20
-46.1929
 11
0.595856
 21
-46.208
  0
LINE
  8
0
 10
0.595856
 20
-46.208
 11
0.497055
 21
-46.2208
  0
LINE
  8
0
 10
0.497055
 20
-46.2208
 11
0.397964
 21
-46.2313
  0
LINE
  8
0
 10
0.397964
 20
-46.2313
 11
0.29866
 21
-46.2395
  0
LINE
  8
0
 10
0.29866
 20
-46.2395
 11
0.199203
 21
-46.2453
  0
LINE
  8
0
 10
0.199203
 20
-46.2453
 11
0.0996246
 21
-46.2488
  0
LINE
  8
0
 10
0.0996246
 20
-46.2488
 11
0
 21
-46.25
  0
LINE
  8
0
 10
0
 20
-46.25
 11
-0.0996246
 21
-46.2488
  0
ENDSEC
  0
SECTION
  2
OBJECTS
  0
DICTIONARY
  0
ENDSEC
  0
EOF
